<svg width="757" height="449" viewBox="0 0 757 449" fill="none" xmlns="http://www.w3.org/2000/svg">
<path d="M309.615 86.5423C342.374 87.8315 378.709 99.401 407.335 120.882C413.915 126.994 418.585 125.52 425.436 131.007C429.273 134.079 432.51 135.961 435.916 139.756C439.99 144.297 444.825 148.224 449.794 150.753C469.781 160.929 490.252 168.827 510.204 179.051C524.288 186.268 540.001 189.884 551.698 203.365C559.936 212.86 567.255 220.751 573.825 232.695C580.433 244.711 588.704 255.258 595.115 267.238C598.632 273.809 601.444 281.539 604.272 288.65C607.563 296.928 612.491 302.781 613.782 312.458C615.152 322.726 613.366 333.285 610.835 342.906C607.371 356.075 604.89 374.492 598.55 385.736C589.186 402.346 570.835 408.899 556.694 415.992C542.331 423.196 527.54 429.714 511.964 430.348C488.394 431.308 465.137 423.236 441.901 418.935C412.699 413.53 383.287 406.376 355.164 394.419C332.512 384.788 310.825 373.976 289.697 359.34C271.64 346.831 251.198 332.112 235.374 315.015C214.006 291.928 195.5 257.66 189.614 221.978C186.781 204.801 192.346 185.881 198.121 170.786C203.042 157.926 206.928 144.437 211.803 131.567C216.299 119.701 227.816 108.529 236.471 102.325C259.214 86.0251 284.298 85.5459 309.615 86.5423Z" fill="#FFBABA" stroke="black" stroke-width="4" stroke-linecap="round" stroke-linejoin="round"/>
</svg>
