<svg width="431" height="349" viewBox="0 0 431 349" fill="none" xmlns="http://www.w3.org/2000/svg">
<path d="M123.615 2.54227C156.374 3.83149 192.709 15.401 221.335 36.8816C227.915 42.9941 232.585 41.5199 239.436 47.0066C243.273 50.0787 246.51 51.9614 249.916 55.7564C253.99 60.2969 258.825 64.2238 263.794 66.7533C283.781 76.9289 304.252 84.8269 324.204 95.0508C338.288 102.268 354.001 105.884 365.698 119.365C373.936 128.86 381.255 136.751 387.825 148.695C394.433 160.711 402.704 171.258 409.115 183.238C412.632 189.809 415.444 197.539 418.272 204.65C421.563 212.928 426.491 218.781 427.782 228.458C429.152 238.726 427.366 249.285 424.835 258.906C421.371 272.075 418.89 290.492 412.55 301.736C403.186 318.346 384.835 324.899 370.694 331.992C356.331 339.196 341.54 345.714 325.964 346.348C302.394 347.308 279.137 339.236 255.901 334.935C226.699 329.53 197.287 322.376 169.164 310.419C146.512 300.788 124.825 289.976 103.697 275.34C85.6401 262.831 65.1978 248.112 49.3739 231.015C28.0064 207.928 9.50039 173.66 3.61431 137.978C0.780947 120.801 6.34582 101.881 12.1214 86.7864C17.042 73.9262 20.9276 60.4366 25.8035 47.5668C30.2991 35.7006 41.8157 24.529 50.4714 18.3253C73.2144 2.02507 98.2981 1.54591 123.615 2.54227Z" fill="#329642" stroke="black" stroke-width="4" stroke-linecap="round" stroke-linejoin="round"/>
</svg>
