<svg width="436" height="364" viewBox="0 0 436 364" fill="none" xmlns="http://www.w3.org/2000/svg">
<path d="M126.615 10.5423C159.374 11.8315 195.709 23.401 224.335 44.8816C230.915 50.9941 235.585 49.5199 242.436 55.0066C246.273 58.0787 249.51 59.9614 252.916 63.7564C256.99 68.2969 261.825 72.2238 266.794 74.7533C286.781 84.9289 307.252 92.8269 327.204 103.051C341.288 110.268 357.001 113.884 368.698 127.365C376.936 136.86 384.255 144.751 390.825 156.695C397.433 168.711 405.704 179.258 412.115 191.238C415.632 197.809 418.444 205.539 421.272 212.65C424.563 220.928 429.491 226.781 430.782 236.458C432.152 246.726 430.366 257.285 427.835 266.906C424.371 280.075 421.89 298.492 415.55 309.736C406.186 326.346 387.835 332.899 373.694 339.992C359.331 347.196 344.54 353.714 328.964 354.348C305.394 355.308 282.137 347.236 258.901 342.935C229.699 337.53 200.287 330.376 172.164 318.419C149.512 308.788 127.825 297.976 106.697 283.34C88.6401 270.831 68.1978 256.112 52.3739 239.015C31.0064 215.928 12.5004 181.66 6.61431 145.978C3.78095 128.801 9.34582 109.881 15.1214 94.7864C20.042 81.9262 23.9276 68.4366 28.8035 55.5668C33.2991 43.7006 44.8157 32.529 53.4714 26.3253C76.2144 10.0251 101.298 9.54591 126.615 10.5423Z" fill="#FFBABA" stroke="black" stroke-width="4" stroke-linecap="round" stroke-linejoin="round"/>
</svg>
