<svg width="757" height="449" viewBox="0 0 757 449" fill="none" xmlns="http://www.w3.org/2000/svg">
<path d="M308.615 90.5423C341.374 91.8315 377.709 103.401 406.335 124.882C412.915 130.994 417.585 129.52 424.436 135.007C428.273 138.079 431.51 139.961 434.916 143.756C438.99 148.297 443.825 152.224 448.794 154.753C468.781 164.929 489.252 172.827 509.204 183.051C523.288 190.268 539.001 193.884 550.698 207.365C558.936 216.86 566.255 224.751 572.825 236.695C579.433 248.711 587.704 259.258 594.115 271.238C597.632 277.809 600.444 285.539 603.272 292.65C606.563 300.928 611.491 306.781 612.782 316.458C614.152 326.726 612.366 337.285 609.835 346.906C606.371 360.075 603.89 378.492 597.55 389.736C588.186 406.346 569.835 412.899 555.694 419.992C541.331 427.196 526.54 433.714 510.964 434.348C487.394 435.308 464.137 427.236 440.901 422.935C411.699 417.53 382.287 410.376 354.164 398.419C331.512 388.788 309.825 377.976 288.697 363.34C270.64 350.831 250.198 336.112 234.374 319.015C213.006 295.928 194.5 261.66 188.614 225.978C185.781 208.801 191.346 189.881 197.121 174.786C202.042 161.926 205.928 148.437 210.803 135.567C215.299 123.701 226.816 112.529 235.471 106.325C258.214 90.0251 283.298 89.5459 308.615 90.5423Z" fill="#329642" stroke="black" stroke-width="4" stroke-linecap="round" stroke-linejoin="round"/>
</svg>
