<svg width="757" height="449" viewBox="0 0 757 449" fill="none" xmlns="http://www.w3.org/2000/svg">
<path d="M309.615 86.5454C342.374 87.8346 378.709 99.4041 407.335 120.885C413.915 126.997 418.585 125.523 425.436 131.01C429.273 134.082 432.51 135.965 435.916 139.76C439.99 144.3 444.825 148.227 449.794 150.756C469.781 160.932 490.252 168.83 510.204 179.054C524.288 186.271 540.001 189.887 551.698 203.368C559.936 212.863 567.255 220.754 573.825 232.698C580.433 244.714 588.704 255.261 595.115 267.241C598.632 273.812 601.444 281.542 604.272 288.654C607.563 296.931 612.491 302.784 613.782 312.461C615.152 322.729 613.366 333.288 610.835 342.909C607.371 356.078 604.89 374.495 598.55 385.739C589.186 402.349 570.835 408.902 556.694 415.995C542.331 423.199 527.54 429.717 511.964 430.351C488.394 431.311 465.137 423.239 441.901 418.938C412.699 413.533 383.287 406.38 355.164 394.422C332.512 384.791 310.825 373.979 289.697 359.343C271.64 346.834 251.198 332.115 235.374 315.018C214.006 291.931 195.5 257.663 189.614 221.981C186.781 204.804 192.346 185.884 198.121 170.79C203.042 157.929 206.928 144.44 211.803 131.57C216.299 119.704 227.816 108.532 236.471 102.328C259.214 86.0282 284.298 85.549 309.615 86.5454Z" fill="#FFCFE6" stroke="black" stroke-width="4" stroke-linecap="round" stroke-linejoin="round"/>
</svg>
