<svg width="436" height="364" viewBox="0 0 436 364" fill="none" xmlns="http://www.w3.org/2000/svg">
<path d="M126.615 10.5454C159.374 11.8346 195.709 23.4041 224.335 44.8847C230.915 50.9972 235.585 49.523 242.436 55.0097C246.273 58.0818 249.51 59.9645 252.916 63.7595C256.99 68.3 261.825 72.2269 266.794 74.7564C286.781 84.932 307.252 92.83 327.204 103.054C341.288 110.271 357.001 113.887 368.698 127.368C376.936 136.863 384.255 144.754 390.825 156.698C397.433 168.714 405.704 179.261 412.115 191.241C415.632 197.812 418.444 205.542 421.272 212.654C424.563 220.931 429.491 226.784 430.782 236.461C432.152 246.729 430.366 257.288 427.835 266.909C424.371 280.078 421.89 298.495 415.55 309.739C406.186 326.349 387.835 332.902 373.694 339.995C359.331 347.199 344.54 353.717 328.964 354.351C305.394 355.311 282.137 347.239 258.901 342.938C229.699 337.533 200.287 330.38 172.164 318.422C149.512 308.791 127.825 297.979 106.697 283.343C88.6401 270.834 68.1978 256.115 52.3739 239.018C31.0064 215.931 12.5004 181.663 6.61431 145.981C3.78095 128.804 9.34582 109.884 15.1214 94.7895C20.042 81.9293 23.9276 68.4397 28.8035 55.5699C33.2991 43.7037 44.8157 32.5321 53.4714 26.3284C76.2144 10.0282 101.298 9.54901 126.615 10.5454Z" fill="#FFCFE6" stroke="black" stroke-width="4" stroke-linecap="round" stroke-linejoin="round"/>
</svg>
