<svg width="757" height="449" viewBox="0 0 757 449" fill="none" xmlns="http://www.w3.org/2000/svg">
<g clip-path="url(#clip0)">
<path d="M310.36 3.75679C298.075 27.9859 294.627 59.8637 298.524 87.8611C302.252 87.8611 307.226 86.7938 310.793 87.9425C313.037 88.6653 320.696 97.0455 323.206 94.5309C325.578 92.1542 324.161 87.2486 324.577 84.2009C325.501 77.4337 328.402 71.5227 328.402 64.4355C328.402 54.7159 331 45.7815 331 36.0483C331 25.254 327.619 13.5661 322.484 4.73285C319.96 0.391079 313.702 -2.83564 310.36 3.75679Z" fill="#FFA3A3" stroke="black" stroke-width="4" stroke-linecap="round" stroke-linejoin="round"/>
<path d="M320.041 42.8099C323.4 56.088 321.613 72.1877 316.661 85.5815C314.841 85.1797 312.529 84.1172 310.662 84.2995C309.487 84.4143 304.836 87.7237 303.884 86.2126C302.984 84.7843 304.211 82.5166 304.339 80.9681C304.625 77.5297 303.852 74.3006 304.624 70.8039C305.683 66.0083 305.387 61.3202 306.447 56.518C307.622 51.1922 310.546 45.7898 314.015 41.9849C315.72 40.1147 319.127 39.197 320.041 42.8099Z" fill="white" stroke="black" stroke-width="4" stroke-linecap="round" stroke-linejoin="round"/>
<path d="M241.775 17.9745C235.787 44.4718 240.238 76.225 250.862 102.42C254.477 101.508 259.038 99.2576 262.778 99.4992C265.131 99.6513 274.606 105.905 276.425 102.853C278.144 99.9681 275.571 95.558 275.229 92.501C274.47 85.7133 275.838 79.2724 274.105 72.4003C271.729 62.9757 272.064 53.6772 269.684 44.2394C267.045 33.7728 260.909 23.2663 253.77 15.9565C250.261 12.3636 243.404 10.7649 241.775 17.9745Z" fill="#FFA3A3" stroke="black" stroke-width="4" stroke-linecap="round" stroke-linejoin="round"/>
<path d="M254.485 43.8179C262.286 55.0755 266.256 70.7801 266.315 85.0596C264.469 85.3216 261.931 85.1371 260.247 85.9623C259.187 86.4816 255.991 91.2118 254.569 90.1302C253.226 89.1079 253.58 86.5543 253.157 85.0589C252.22 81.7385 250.364 78.9854 249.861 75.44C249.171 70.5777 247.25 66.2908 246.559 61.4218C245.793 56.022 246.637 49.9376 248.552 45.158C249.493 42.8087 252.362 40.7548 254.485 43.8179Z" fill="white" stroke="black" stroke-width="4" stroke-linecap="round" stroke-linejoin="round"/>
</g>
<defs>
<clipPath id="clip0">
<rect width="757" height="449" fill="white"/>
</clipPath>
</defs>
</svg>
