<svg width="757" height="449" viewBox="0 0 757 449" fill="none" xmlns="http://www.w3.org/2000/svg">
<g clip-path="url(#clip0)">
<path d="M192.43 88.7169L240.972 101.629C246.923 103.212 248.929 110.644 244.582 115.007L209.129 150.589C204.782 154.951 197.343 152.973 195.738 147.027L182.65 98.5326C181.045 92.587 186.479 87.1338 192.43 88.7169Z" fill="#FFE7B8" stroke="black" stroke-width="4"/>
<path d="M207.614 108.845L220.118 112.171C226.069 113.754 228.075 121.186 223.729 125.549L214.596 134.715C210.249 139.078 202.81 137.099 201.205 131.153L197.833 118.661C196.229 112.715 201.662 107.262 207.614 108.845Z" fill="#FFD27B" stroke="black" stroke-width="4"/>
<path d="M347.599 46.8439L367.341 93.0312C369.761 98.694 365.144 104.853 359.029 104.118L309.159 98.1213C303.045 97.3861 300.019 90.3076 303.713 85.38L333.842 45.1896C337.536 40.262 345.179 41.1811 347.599 46.8439Z" fill="#FFE7B8" stroke="black" stroke-width="4"/>
<path d="M341.102 71.2051L346.188 83.1031C348.608 88.7659 343.991 94.9254 337.876 94.1901L325.03 92.6453C318.915 91.9101 315.89 84.8316 319.584 79.904L327.345 69.5508C331.039 64.6232 338.682 65.5423 341.102 71.2051Z" fill="#FFD27B" stroke="black" stroke-width="4"/>
</g>
<defs>
<clipPath id="clip0">
<rect width="757" height="449" fill="white"/>
</clipPath>
</defs>
</svg>
