<svg width="108" height="113" viewBox="0 0 108 113" fill="none" xmlns="http://www.w3.org/2000/svg">
<path d="M85.3595 3.75679C73.0751 27.9859 69.6271 59.8637 73.5237 87.8611C77.2523 87.8611 82.2256 86.7938 85.7925 87.9425C88.0374 88.6653 95.6957 97.0455 98.2057 94.5309C100.578 92.1542 99.1609 87.2486 99.5769 84.2009C100.501 77.4337 103.402 71.5227 103.402 64.4355C103.402 54.7159 106 45.7815 106 36.0483C106 25.254 102.619 13.5661 97.484 4.73285C94.9601 0.391079 88.702 -2.83564 85.3595 3.75679Z" fill="#FFA3A3" stroke="black" stroke-width="4" stroke-linecap="round" stroke-linejoin="round"/>
<path d="M95.0408 42.8099C98.4003 56.088 96.6125 72.1877 91.6612 85.5815C89.8408 85.1797 87.5288 84.1172 85.6621 84.2995C84.4874 84.4143 79.8357 87.7237 78.884 86.2126C77.9845 84.7843 79.2106 82.5166 79.3393 80.9681C79.6252 77.5297 78.8524 74.3006 79.6241 70.8039C80.6825 66.0083 80.3869 61.3202 81.4468 56.518C82.6222 51.1922 85.5457 45.7898 89.0147 41.9849C90.7198 40.1147 94.1267 39.197 95.0408 42.8099Z" fill="white" stroke="black" stroke-width="4" stroke-linecap="round" stroke-linejoin="round"/>
<path d="M16.7749 17.9745C10.7873 44.4718 15.2379 76.225 25.8616 102.42C29.477 101.508 34.0384 99.2576 37.7779 99.4992C40.1314 99.6513 49.6061 105.905 51.4252 102.853C53.1445 99.9681 50.5709 95.558 50.2291 92.501C49.4703 85.7133 50.8382 79.2724 49.1055 72.4003C46.729 62.9757 47.0639 53.6772 44.6841 44.2394C42.045 33.7728 35.9089 23.2663 28.7701 15.9565C25.2612 12.3636 18.4041 10.7649 16.7749 17.9745Z" fill="#FFA3A3" stroke="black" stroke-width="4" stroke-linecap="round" stroke-linejoin="round"/>
<path d="M29.4845 43.8179C37.2859 55.0755 41.2559 70.7801 41.3145 85.0596C39.4687 85.3216 36.931 85.1371 35.2467 85.9623C34.1867 86.4816 30.9905 91.2118 29.5695 90.1302C28.2263 89.1079 28.5796 86.5543 28.1573 85.0589C27.2196 81.7385 25.3637 78.9854 24.8606 75.44C24.1705 70.5777 22.2501 66.2908 21.5591 61.4218C20.7928 56.022 21.6368 49.9376 23.5517 45.158C24.4929 42.8087 27.3618 40.7548 29.4845 43.8179Z" fill="white" stroke="black" stroke-width="4" stroke-linecap="round" stroke-linejoin="round"/>
</svg>
