<svg width="757" height="449" viewBox="0 0 757 449" fill="none" xmlns="http://www.w3.org/2000/svg">
<path d="M372.5 153.5C370.189 153.546 365.624 154.795 365.5 157.889C365.441 159.356 368.091 157.001 368.5 156.667C369.17 156.118 370.858 152.944 370.389 153C368.745 153.197 367.197 155.939 366.111 157.111C364.567 158.779 367.259 159.2 368.389 157.722C369.564 156.186 369.955 154.428 368.111 153.222C366.842 152.393 365.94 153.794 366 155C366.087 156.741 369.541 155.277 367.5 153.528C365.623 151.919 363.964 155.505 364.222 157.056C364.605 159.354 368.815 163.578 369.75 159.528C370.173 157.696 371.466 148.772 368.028 153.5C365.715 156.68 370.691 163.153 374.194 161.917C376.731 161.021 377.119 157.004 374.778 155.667C371.9 154.022 370.68 163.714 370.889 165C371.418 168.249 375.067 164.31 375.722 163C377.037 160.37 368.44 162.065 369.944 166.278C370.904 168.963 378.061 169.892 377.056 165.167C376.668 163.347 372.22 157.283 370.389 160.944C367.922 165.878 373.803 170.15 378.389 167.667C382.821 165.266 371.455 161.464 369.722 161.611C367.597 161.792 365.758 166.902 369 167C370.844 167.056 372.726 165.845 372.5 163.889C372.296 162.119 368.424 162.934 368.111 164.5C367.671 166.702 375.294 169.785 377.139 168.917C379.628 167.745 375.21 165.69 373.694 166.917C372.004 168.285 370.204 171.49 371.722 173.556C373.444 175.897 377.46 176.122 380.083 175.972C382.213 175.851 382.233 174.833 380.25 174.528C379.935 174.479 378.508 174.651 379.556 175C381.074 175.506 385.922 176.272 386.889 174.5C388.006 172.453 384.857 173.533 385.111 172.389C385.461 170.814 386.161 169.537 387.056 168.194C387.314 167.807 389.903 163.276 389.278 166.111C388.677 168.835 383.847 170.927 385.444 167.778C386.67 165.362 388.999 163.671 391.25 162.306C397.165 158.717 390.552 164.729 388.778 165.944C383.511 169.553 386.602 162.599 388.056 160.389C389.128 158.759 392.549 154.309 392.167 156.222C392.028 156.916 391.201 157.259 390.667 157.722C387.68 160.316 384.467 162.536 381 164.444C378.742 165.687 373.611 169.3 373.611 166.722C373.611 162.783 378.688 159.324 381.444 157.306C385.054 154.662 383.954 156.646 381.778 158.778C380.134 160.388 377.899 162.273 376.111 163.667C374.621 164.828 371.322 168 369.111 168C365.287 168 371.142 158.981 371.444 158.667C373.192 156.847 384.359 147.375 386.556 153.278C387.365 155.453 383.62 158.513 382.111 159.444C380.115 160.677 375.657 161.925 373.361 161.194C367.467 159.319 386.714 144.405 386.167 151.083C385.899 154.353 381.611 157.937 378.5 158.389C376.505 158.678 369.903 159.525 369.444 156.444C368.912 152.868 378.057 145.471 379.778 150C380.339 151.476 379.461 152.251 378.194 152.75C377.24 153.126 374.702 154.902 375.556 154.333C377.984 152.715 385.036 145.978 387.611 149.889C388.884 151.822 387.27 153.68 385.306 154.889C384.841 155.175 382.991 153.866 383.111 153.444C383.669 151.491 393.784 147.344 394.889 149.278C395.387 150.149 391.479 152.547 393.306 153.25C396.481 154.471 399.586 153.23 402.778 155.278C405.665 157.13 400.336 160.08 398.778 161.222C395.565 163.578 392.462 165.833 389.389 168.278C386.279 170.751 378.75 172.304 375.611 169.389C374.12 168.004 372.009 167.011 370.778 165.389C368.291 162.111 364.512 162.746 360.778 161.611C358.236 160.839 360.582 161.421 360.889 162C361.645 163.428 360.467 165.481 361.306 166.972C363.248 170.426 367.278 173.5 371.222 173.5C377.371 173.5 383.304 175.563 389.5 173.889C394.014 172.669 396.203 168.205 398.611 164.778C401.216 161.071 403.754 157.188 405.944 153.278C407.886 149.81 398.834 150.5 396.722 150.5C394.737 150.5 393.278 150.063 391.472 149.25C388.291 147.818 391.426 147.741 391.389 147.861C390.368 151.179 384.903 154.832 382.444 156.944C381.295 157.932 379.907 159.089 378.5 159.778C377.984 160.03 376.473 160.348 376.778 159.861C378.205 157.577 383.114 157.09 385.444 157.222C388.707 157.408 381.607 164.01 380.806 164.778C378.426 167.057 374.895 169.376 371.5 167.722C367.458 165.753 369.479 163.022 372.444 161.444C374.9 160.139 382.645 155.815 385.556 157.333C387.914 158.564 377.003 165.627 376.444 165.889C374.559 166.771 369.593 168.675 367.583 166.833C365.133 164.588 368.045 159.694 369.611 157.889C371.357 155.877 377.967 152.212 380.222 155.556C382.054 158.271 377.558 162.35 375.556 163.333C371.743 165.206 365.299 167.659 361 166.278C357.122 165.031 366.356 159.091 367.333 158.5C369.843 156.983 376.17 154.617 376.056 160.056C376.004 162.493 374.556 164.554 372.833 166.139C370.606 168.188 374.309 163.629 374.444 163.5C377.497 160.6 381.834 158.413 386.111 159.917C389.729 161.189 392.251 165.785 389.278 169C387.32 171.117 383.244 172.211 380.778 170.361C378.265 168.476 380.78 164.26 382.222 162.556C384.878 159.417 389.852 157.471 393.889 157.222C398.553 156.935 393.977 163.233 392.556 164.5C391.599 165.353 388.435 166.874 390.278 164.167C392.337 161.143 395.942 158.584 398.944 156.556C401.024 155.15 396.822 159.485 396.389 159.778C395.103 160.649 392.145 162.736 390.389 162.417C389.875 162.323 394.706 158.755 395.056 158.556C399.664 155.922 395.633 159.202 394 160.472C393.266 161.043 388.834 165.15 387.556 163.111C385.978 160.596 389.486 155.84 391.028 154.111C392.912 151.999 388.517 155.554 388.278 155.722C386.587 156.911 383.998 158.081 382.639 159.667C380.775 161.841 386.912 155.85 388.944 153.833C390.324 152.464 391.872 150.795 389.639 153.417C386.723 156.84 383.92 160.58 380.75 163.75C378.742 165.758 380.006 168.759 377.389 170.722C376.431 171.441 369 173.9 369 172C369 170.8 370.054 169.9 369 168.722C367.376 166.907 365.357 166.049 362.944 166C361.399 165.968 366.112 166.18 366.917 166.556C369.304 167.669 370.557 169.93 373.25 170.972C375.233 171.74 378.108 173 380.222 173C385.983 173 392.763 170.014 396.778 166C398.529 164.249 399.849 162.104 401.111 160C402.064 158.412 404.469 157.838 405.167 155.833C405.786 154.052 401.93 158.141 401.222 159.889C400.578 161.482 401 163.834 401 165.5C401 167.862 401.912 167.275 402.611 165.389C403.088 164.102 402.469 163.241 402.5 161.889C402.538 160.261 403.104 158.527 404.111 157.222C404.564 156.635 408.469 153.255 407.194 154.333C404.831 156.333 402.497 158.427 400.25 160.556C398.058 162.632 398.469 166.254 396.472 168.5C393.384 171.974 389.076 175.767 384 174.889C378.432 173.925 376.157 167.634 380.833 164.167C384.402 161.521 380.739 164.632 380.111 166.389C379.708 167.518 382.827 168.599 382.667 168.806C381.467 170.348 373.651 171.157 372.722 169.167C371.583 166.726 369.688 165.005 367.944 162.944C365.744 160.344 363.694 157.564 361.111 155.333C360.799 155.063 358.71 153.487 359.806 153C362.112 151.975 364.174 149.085 366.556 148.556C369.555 147.889 372.774 149.165 375.639 147.528C380.851 144.549 388.024 146.59 393.556 147.111C395.432 147.288 402.5 147.878 402.5 150.5C402.5 154.421 398.074 156.926 395.667 159.333C393.914 161.086 393.025 163.697 391.111 165.278C389.828 166.338 383.194 171.364 382.556 167.694C382.417 166.899 383.062 163.721 382.111 163.278C381.018 162.768 379.659 163.089 378.5 163C377.234 162.903 376.73 161.69 375.833 160.972C372.614 158.397 368.816 155.026 365 153.5" stroke="white" stroke-width="4" stroke-linecap="round" stroke-linejoin="round"/>
<path d="M258.01 153.556C255.699 153.602 251.133 154.851 251.01 157.944C250.951 159.412 253.601 157.057 254.01 156.722C254.68 156.174 256.367 152.999 255.898 153.056C254.255 153.253 252.706 155.994 251.621 157.167C250.077 158.834 252.768 159.256 253.898 157.778C255.073 156.242 255.464 154.483 253.621 153.278C252.352 152.448 251.449 153.85 251.51 155.056C251.597 156.797 255.05 155.333 253.01 153.583C251.133 151.975 249.473 155.561 249.732 157.111C250.115 159.409 254.325 163.634 255.26 159.583C255.682 157.752 256.976 148.828 253.537 153.556C251.225 156.735 256.2 163.209 259.704 161.972C262.241 161.077 262.628 157.06 260.287 155.722C257.41 154.078 256.189 163.77 256.398 165.056C256.927 168.305 260.577 164.365 261.232 163.056C262.547 160.425 253.949 162.121 255.454 166.333C256.413 169.019 263.571 169.948 262.565 165.222C262.178 163.403 257.729 157.338 255.898 161C253.432 165.933 259.313 170.206 263.898 167.722C268.33 165.322 256.964 161.519 255.232 161.667C253.106 161.848 251.267 166.957 254.51 167.056C256.354 167.111 258.235 165.901 258.01 163.944C257.805 162.174 253.934 162.99 253.621 164.556C253.18 166.758 260.804 169.84 262.648 168.972C265.138 167.801 260.719 165.745 259.204 166.972C257.514 168.341 255.713 171.546 257.232 173.611C258.953 175.953 262.969 176.178 265.593 176.028C267.722 175.906 267.742 174.888 265.76 174.583C265.445 174.535 264.017 174.706 265.065 175.056C266.583 175.562 271.432 176.327 272.398 174.556C273.515 172.508 270.366 173.588 270.621 172.444C270.971 170.869 271.67 169.592 272.565 168.25C272.824 167.862 275.413 163.331 274.787 166.167C274.186 168.89 269.356 170.983 270.954 167.833C272.179 165.417 274.508 163.726 276.76 162.361C282.675 158.773 276.061 164.785 274.287 166C269.021 169.608 272.112 162.655 273.565 160.444C274.637 158.814 278.059 154.364 277.676 156.278C277.538 156.971 276.71 157.314 276.176 157.778C273.189 160.371 269.977 162.592 266.51 164.5C264.252 165.743 259.121 169.355 259.121 166.778C259.121 162.839 264.198 159.38 266.954 157.361C270.563 154.718 269.463 156.701 267.287 158.833C265.644 160.443 263.409 162.329 261.621 163.722C260.13 164.883 256.832 168.056 254.621 168.056C250.796 168.056 256.652 159.037 256.954 158.722C258.702 156.903 269.869 147.43 272.065 153.333C272.874 155.508 269.129 158.568 267.621 159.5C265.624 160.733 261.166 161.98 258.871 161.25C252.976 159.375 272.224 144.46 271.676 151.139C271.408 154.408 267.121 157.993 264.01 158.444C262.015 158.734 255.413 159.581 254.954 156.5C254.421 152.923 263.566 145.526 265.287 150.056C265.848 151.532 264.97 152.307 263.704 152.806C262.75 153.182 260.212 154.958 261.065 154.389C263.493 152.77 270.545 146.034 273.121 149.944C274.394 151.878 272.78 153.735 270.815 154.944C270.351 155.23 268.5 153.922 268.621 153.5C269.179 151.546 279.293 147.4 280.398 149.333C280.897 150.205 276.989 152.603 278.815 153.306C281.99 154.527 285.096 153.286 288.287 155.333C291.174 157.185 285.845 160.135 284.287 161.278C281.075 163.634 277.971 165.889 274.898 168.333C271.789 170.807 264.26 172.359 261.121 169.444C259.629 168.06 257.518 167.067 256.287 165.444C253.801 162.167 250.022 162.801 246.287 161.667C243.746 160.895 246.092 161.476 246.398 162.056C247.154 163.483 245.976 165.536 246.815 167.028C248.758 170.481 252.788 173.556 256.732 173.556C262.881 173.556 268.814 175.619 275.01 173.944C279.523 172.724 281.712 168.26 284.121 164.833C286.726 161.126 289.264 157.244 291.454 153.333C293.396 149.866 284.344 150.556 282.232 150.556C280.247 150.556 278.788 150.118 276.982 149.306C273.8 147.874 276.935 147.796 276.898 147.917C275.878 151.234 270.412 154.887 267.954 157C266.805 157.988 265.417 159.144 264.01 159.833C263.493 160.086 261.983 160.404 262.287 159.917C263.715 157.633 268.624 157.145 270.954 157.278C274.217 157.463 267.116 164.066 266.315 164.833C263.936 167.112 260.405 169.432 257.01 167.778C252.967 165.808 254.989 163.077 257.954 161.5C260.409 160.194 268.155 155.87 271.065 157.389C273.424 158.62 262.513 165.683 261.954 165.944C260.068 166.827 255.102 168.731 253.093 166.889C250.643 164.643 253.555 159.749 255.121 157.944C256.866 155.932 263.477 152.267 265.732 155.611C267.563 158.327 263.068 162.405 261.065 163.389C257.253 165.262 250.808 167.715 246.51 166.333C242.632 165.087 251.865 159.146 252.843 158.556C255.352 157.039 261.68 154.672 261.565 160.111C261.514 162.548 260.066 164.609 258.343 166.194C256.116 168.243 259.818 163.684 259.954 163.556C263.007 160.655 267.344 158.468 271.621 159.972C275.239 161.244 277.76 165.841 274.787 169.056C272.83 171.172 268.753 172.266 266.287 170.417C263.774 168.532 266.29 164.315 267.732 162.611C270.387 159.473 275.362 157.526 279.398 157.278C284.062 156.991 279.487 163.289 278.065 164.556C277.108 165.408 273.944 166.93 275.787 164.222C277.846 161.198 281.452 158.64 284.454 156.611C286.534 155.206 282.331 159.54 281.898 159.833C280.613 160.704 277.654 162.791 275.898 162.472C275.384 162.379 280.216 158.811 280.565 158.611C285.173 155.978 281.142 159.258 279.51 160.528C278.776 161.099 274.344 165.206 273.065 163.167C271.488 160.651 274.996 155.895 276.537 154.167C278.421 152.054 274.026 155.61 273.787 155.778C272.097 156.967 269.507 158.137 268.148 159.722C266.285 161.896 272.421 155.906 274.454 153.889C275.834 152.52 277.381 150.851 275.148 153.472C272.233 156.895 269.43 160.635 266.26 163.806C264.251 165.814 265.516 168.815 262.898 170.778C261.94 171.496 254.51 173.955 254.51 172.056C254.51 170.856 255.564 169.956 254.51 168.778C252.885 166.962 250.866 166.105 248.454 166.056C246.908 166.024 251.622 166.236 252.426 166.611C254.813 167.725 256.066 169.985 258.76 171.028C260.742 171.795 263.617 173.056 265.732 173.056C271.492 173.056 278.273 170.07 282.287 166.056C284.039 164.304 285.358 162.16 286.621 160.056C287.573 158.467 289.979 157.894 290.676 155.889C291.296 154.108 287.439 158.196 286.732 159.944C286.087 161.537 286.51 163.89 286.51 165.556C286.51 167.918 287.422 167.331 288.121 165.444C288.597 164.158 287.978 163.297 288.01 161.944C288.047 160.316 288.614 158.583 289.621 157.278C290.074 156.69 293.978 153.311 292.704 154.389C290.341 156.389 288.006 158.482 285.76 160.611C283.567 162.688 283.979 166.309 281.982 168.556C278.893 172.03 274.585 175.823 269.51 174.944C263.942 173.981 261.666 167.689 266.343 164.222C269.911 161.577 266.248 164.688 265.621 166.444C265.217 167.574 268.337 168.654 268.176 168.861C266.976 170.404 259.161 171.213 258.232 169.222C257.093 166.781 255.198 165.061 253.454 163C251.254 160.4 249.203 157.619 246.621 155.389C246.308 155.119 244.219 153.542 245.315 153.056C247.622 152.03 249.683 149.14 252.065 148.611C255.065 147.945 258.283 149.221 261.148 147.583C266.361 144.605 273.534 146.646 279.065 147.167C280.941 147.343 288.01 147.934 288.01 150.556C288.01 154.476 283.584 156.981 281.176 159.389C279.423 161.142 278.534 163.752 276.621 165.333C275.338 166.393 268.703 171.419 268.065 167.75C267.927 166.955 268.571 163.777 267.621 163.333C266.527 162.823 265.168 163.145 264.01 163.056C262.744 162.958 262.24 161.745 261.343 161.028C258.124 158.453 254.325 155.082 250.51 153.556" stroke="white" stroke-width="4" stroke-linecap="round" stroke-linejoin="round"/>
<path d="M368.01 214.556C365.699 214.602 361.133 215.851 361.01 218.944C360.951 220.412 363.601 218.057 364.01 217.722C364.68 217.174 366.367 213.999 365.898 214.056C364.255 214.253 362.706 216.994 361.621 218.167C360.077 219.834 362.768 220.256 363.898 218.778C365.073 217.242 365.464 215.483 363.621 214.278C362.352 213.448 361.449 214.85 361.51 216.056C361.597 217.797 365.05 216.333 363.01 214.583C361.133 212.975 359.473 216.561 359.732 218.111C360.115 220.409 364.325 224.634 365.26 220.583C365.682 218.752 366.976 209.828 363.537 214.556C361.225 217.735 366.2 224.209 369.704 222.972C372.241 222.077 372.628 218.06 370.287 216.722C367.41 215.078 366.189 224.77 366.398 226.056C366.927 229.305 370.577 225.365 371.232 224.056C372.547 221.425 363.949 223.121 365.454 227.333C366.413 230.019 373.571 230.948 372.565 226.222C372.178 224.403 367.729 218.338 365.898 222C363.432 226.933 369.313 231.206 373.898 228.722C378.33 226.322 366.964 222.519 365.232 222.667C363.106 222.848 361.267 227.957 364.51 228.056C366.354 228.111 368.235 226.901 368.01 224.944C367.805 223.174 363.934 223.99 363.621 225.556C363.18 227.758 370.804 230.84 372.648 229.972C375.138 228.801 370.719 226.745 369.204 227.972C367.514 229.341 365.713 232.546 367.232 234.611C368.953 236.953 372.969 237.178 375.593 237.028C377.722 236.906 377.742 235.888 375.76 235.583C375.445 235.535 374.017 235.706 375.065 236.056C376.583 236.562 381.432 237.327 382.398 235.556C383.515 233.508 380.366 234.588 380.621 233.444C380.971 231.869 381.67 230.592 382.565 229.25C382.824 228.862 385.413 224.331 384.787 227.167C384.186 229.89 379.356 231.983 380.954 228.833C382.179 226.417 384.508 224.726 386.76 223.361C392.675 219.773 386.061 225.785 384.287 227C379.021 230.608 382.112 223.655 383.565 221.444C384.637 219.814 388.059 215.364 387.676 217.278C387.538 217.971 386.71 218.314 386.176 218.778C383.189 221.371 379.977 223.592 376.51 225.5C374.252 226.743 369.121 230.355 369.121 227.778C369.121 223.839 374.198 220.38 376.954 218.361C380.563 215.718 379.463 217.701 377.287 219.833C375.644 221.443 373.409 223.329 371.621 224.722C370.13 225.883 366.832 229.056 364.621 229.056C360.796 229.056 366.652 220.037 366.954 219.722C368.702 217.903 379.869 208.43 382.065 214.333C382.874 216.508 379.129 219.568 377.621 220.5C375.624 221.733 371.166 222.98 368.871 222.25C362.976 220.375 382.224 205.46 381.676 212.139C381.408 215.408 377.121 218.993 374.01 219.444C372.015 219.734 365.413 220.581 364.954 217.5C364.421 213.923 373.566 206.526 375.287 211.056C375.848 212.532 374.97 213.307 373.704 213.806C372.75 214.182 370.212 215.958 371.065 215.389C373.493 213.77 380.545 207.034 383.121 210.944C384.394 212.878 382.78 214.735 380.815 215.944C380.351 216.23 378.5 214.922 378.621 214.5C379.179 212.546 389.293 208.4 390.398 210.333C390.897 211.205 386.989 213.603 388.815 214.306C391.99 215.527 395.096 214.286 398.287 216.333C401.174 218.185 395.845 221.135 394.287 222.278C391.075 224.634 387.971 226.889 384.898 229.333C381.789 231.807 374.26 233.359 371.121 230.444C369.629 229.06 367.518 228.067 366.287 226.444C363.801 223.167 360.022 223.801 356.287 222.667C353.746 221.895 356.092 222.476 356.398 223.056C357.154 224.483 355.976 226.536 356.815 228.028C358.758 231.481 362.788 234.556 366.732 234.556C372.881 234.556 378.814 236.619 385.01 234.944C389.523 233.724 391.712 229.26 394.121 225.833C396.726 222.126 399.264 218.244 401.454 214.333C403.396 210.866 394.344 211.556 392.232 211.556C390.247 211.556 388.788 211.118 386.982 210.306C383.8 208.874 386.935 208.796 386.898 208.917C385.878 212.234 380.412 215.887 377.954 218C376.805 218.988 375.417 220.144 374.01 220.833C373.493 221.086 371.983 221.404 372.287 220.917C373.715 218.633 378.624 218.145 380.954 218.278C384.217 218.463 377.116 225.066 376.315 225.833C373.936 228.112 370.405 230.432 367.01 228.778C362.967 226.808 364.989 224.077 367.954 222.5C370.409 221.194 378.155 216.87 381.065 218.389C383.424 219.62 372.513 226.683 371.954 226.944C370.068 227.827 365.102 229.731 363.093 227.889C360.643 225.643 363.555 220.749 365.121 218.944C366.866 216.932 373.477 213.267 375.732 216.611C377.563 219.327 373.068 223.405 371.065 224.389C367.253 226.262 360.808 228.715 356.51 227.333C352.632 226.087 361.865 220.146 362.843 219.556C365.352 218.039 371.68 215.672 371.565 221.111C371.514 223.548 370.066 225.609 368.343 227.194C366.116 229.243 369.818 224.684 369.954 224.556C373.007 221.655 377.344 219.468 381.621 220.972C385.239 222.244 387.76 226.841 384.787 230.056C382.83 232.172 378.753 233.266 376.287 231.417C373.774 229.532 376.29 225.315 377.732 223.611C380.387 220.473 385.362 218.526 389.398 218.278C394.062 217.991 389.487 224.289 388.065 225.556C387.108 226.408 383.944 227.93 385.787 225.222C387.846 222.198 391.452 219.64 394.454 217.611C396.534 216.206 392.331 220.54 391.898 220.833C390.613 221.704 387.654 223.791 385.898 223.472C385.384 223.379 390.216 219.811 390.565 219.611C395.173 216.978 391.142 220.258 389.51 221.528C388.776 222.099 384.344 226.206 383.065 224.167C381.488 221.651 384.996 216.895 386.537 215.167C388.421 213.054 384.026 216.61 383.787 216.778C382.097 217.967 379.507 219.137 378.148 220.722C376.285 222.896 382.421 216.906 384.454 214.889C385.834 213.52 387.381 211.851 385.148 214.472C382.233 217.895 379.43 221.635 376.26 224.806C374.251 226.814 375.516 229.815 372.898 231.778C371.94 232.496 364.51 234.955 364.51 233.056C364.51 231.856 365.564 230.956 364.51 229.778C362.885 227.962 360.866 227.105 358.454 227.056C356.908 227.024 361.622 227.236 362.426 227.611C364.813 228.725 366.066 230.985 368.76 232.028C370.742 232.795 373.617 234.056 375.732 234.056C381.492 234.056 388.273 231.07 392.287 227.056C394.039 225.304 395.358 223.16 396.621 221.056C397.573 219.467 399.979 218.894 400.676 216.889C401.296 215.108 397.439 219.196 396.732 220.944C396.087 222.537 396.51 224.89 396.51 226.556C396.51 228.918 397.422 228.331 398.121 226.444C398.597 225.158 397.978 224.297 398.01 222.944C398.047 221.316 398.614 219.583 399.621 218.278C400.074 217.69 403.978 214.311 402.704 215.389C400.341 217.389 398.006 219.482 395.76 221.611C393.567 223.688 393.979 227.309 391.982 229.556C388.893 233.03 384.585 236.823 379.51 235.944C373.942 234.981 371.666 228.689 376.343 225.222C379.911 222.577 376.248 225.688 375.621 227.444C375.217 228.574 378.337 229.654 378.176 229.861C376.976 231.404 369.161 232.213 368.232 230.222C367.093 227.781 365.198 226.061 363.454 224C361.254 221.4 359.203 218.619 356.621 216.389C356.308 216.119 354.219 214.542 355.315 214.056C357.622 213.03 359.683 210.14 362.065 209.611C365.065 208.945 368.283 210.221 371.148 208.583C376.361 205.605 383.534 207.646 389.065 208.167C390.941 208.343 398.01 208.934 398.01 211.556C398.01 215.476 393.584 217.981 391.176 220.389C389.423 222.142 388.534 224.752 386.621 226.333C385.338 227.393 378.703 232.419 378.065 228.75C377.927 227.955 378.571 224.777 377.621 224.333C376.527 223.823 375.168 224.145 374.01 224.056C372.744 223.958 372.24 222.745 371.343 222.028C368.124 219.453 364.325 216.082 360.51 214.556" stroke="white" stroke-width="4" stroke-linecap="round" stroke-linejoin="round"/>
<path d="M251.01 214.556C248.699 214.602 244.133 215.851 244.01 218.944C243.951 220.412 246.601 218.057 247.01 217.722C247.68 217.174 249.367 213.999 248.898 214.056C247.255 214.253 245.706 216.994 244.621 218.167C243.077 219.834 245.768 220.256 246.898 218.778C248.073 217.242 248.464 215.483 246.621 214.278C245.352 213.448 244.449 214.85 244.51 216.056C244.597 217.797 248.05 216.333 246.01 214.583C244.133 212.975 242.473 216.561 242.732 218.111C243.115 220.409 247.325 224.634 248.26 220.583C248.682 218.752 249.976 209.828 246.537 214.556C244.225 217.735 249.2 224.209 252.704 222.972C255.241 222.077 255.628 218.06 253.287 216.722C250.41 215.078 249.189 224.77 249.398 226.056C249.927 229.305 253.577 225.365 254.232 224.056C255.547 221.425 246.949 223.121 248.454 227.333C249.413 230.019 256.571 230.948 255.565 226.222C255.178 224.403 250.729 218.338 248.898 222C246.432 226.933 252.313 231.206 256.898 228.722C261.33 226.322 249.964 222.519 248.232 222.667C246.106 222.848 244.267 227.957 247.51 228.056C249.354 228.111 251.235 226.901 251.01 224.944C250.805 223.174 246.934 223.99 246.621 225.556C246.18 227.758 253.804 230.84 255.648 229.972C258.138 228.801 253.719 226.745 252.204 227.972C250.514 229.341 248.713 232.546 250.232 234.611C251.953 236.953 255.969 237.178 258.593 237.028C260.722 236.906 260.742 235.888 258.76 235.583C258.445 235.535 257.017 235.706 258.065 236.056C259.583 236.562 264.432 237.327 265.398 235.556C266.515 233.508 263.366 234.588 263.621 233.444C263.971 231.869 264.67 230.592 265.565 229.25C265.824 228.862 268.413 224.331 267.787 227.167C267.186 229.89 262.356 231.983 263.954 228.833C265.179 226.417 267.508 224.726 269.76 223.361C275.675 219.773 269.061 225.785 267.287 227C262.021 230.608 265.112 223.655 266.565 221.444C267.637 219.814 271.059 215.364 270.676 217.278C270.538 217.971 269.71 218.314 269.176 218.778C266.189 221.371 262.977 223.592 259.51 225.5C257.252 226.743 252.121 230.355 252.121 227.778C252.121 223.839 257.198 220.38 259.954 218.361C263.563 215.718 262.463 217.701 260.287 219.833C258.644 221.443 256.409 223.329 254.621 224.722C253.13 225.883 249.832 229.056 247.621 229.056C243.796 229.056 249.652 220.037 249.954 219.722C251.702 217.903 262.869 208.43 265.065 214.333C265.874 216.508 262.129 219.568 260.621 220.5C258.624 221.733 254.166 222.98 251.871 222.25C245.976 220.375 265.224 205.46 264.676 212.139C264.408 215.408 260.121 218.993 257.01 219.444C255.015 219.734 248.413 220.581 247.954 217.5C247.421 213.923 256.566 206.526 258.287 211.056C258.848 212.532 257.97 213.307 256.704 213.806C255.75 214.182 253.212 215.958 254.065 215.389C256.493 213.77 263.545 207.034 266.121 210.944C267.394 212.878 265.78 214.735 263.815 215.944C263.351 216.23 261.5 214.922 261.621 214.5C262.179 212.546 272.293 208.4 273.398 210.333C273.897 211.205 269.989 213.603 271.815 214.306C274.99 215.527 278.096 214.286 281.287 216.333C284.174 218.185 278.845 221.135 277.287 222.278C274.075 224.634 270.971 226.889 267.898 229.333C264.789 231.807 257.26 233.359 254.121 230.444C252.629 229.06 250.518 228.067 249.287 226.444C246.801 223.167 243.022 223.801 239.287 222.667C236.746 221.895 239.092 222.476 239.398 223.056C240.154 224.483 238.976 226.536 239.815 228.028C241.758 231.481 245.788 234.556 249.732 234.556C255.881 234.556 261.814 236.619 268.01 234.944C272.523 233.724 274.712 229.26 277.121 225.833C279.726 222.126 282.264 218.244 284.454 214.333C286.396 210.866 277.344 211.556 275.232 211.556C273.247 211.556 271.788 211.118 269.982 210.306C266.8 208.874 269.935 208.796 269.898 208.917C268.878 212.234 263.412 215.887 260.954 218C259.805 218.988 258.417 220.144 257.01 220.833C256.493 221.086 254.983 221.404 255.287 220.917C256.715 218.633 261.624 218.145 263.954 218.278C267.217 218.463 260.116 225.066 259.315 225.833C256.936 228.112 253.405 230.432 250.01 228.778C245.967 226.808 247.989 224.077 250.954 222.5C253.409 221.194 261.155 216.87 264.065 218.389C266.424 219.62 255.513 226.683 254.954 226.944C253.068 227.827 248.102 229.731 246.093 227.889C243.643 225.643 246.555 220.749 248.121 218.944C249.866 216.932 256.477 213.267 258.732 216.611C260.563 219.327 256.068 223.405 254.065 224.389C250.253 226.262 243.808 228.715 239.51 227.333C235.632 226.087 244.865 220.146 245.843 219.556C248.352 218.039 254.68 215.672 254.565 221.111C254.514 223.548 253.066 225.609 251.343 227.194C249.116 229.243 252.818 224.684 252.954 224.556C256.007 221.655 260.344 219.468 264.621 220.972C268.239 222.244 270.76 226.841 267.787 230.056C265.83 232.172 261.753 233.266 259.287 231.417C256.774 229.532 259.29 225.315 260.732 223.611C263.387 220.473 268.362 218.526 272.398 218.278C277.062 217.991 272.487 224.289 271.065 225.556C270.108 226.408 266.944 227.93 268.787 225.222C270.846 222.198 274.452 219.64 277.454 217.611C279.534 216.206 275.331 220.54 274.898 220.833C273.613 221.704 270.654 223.791 268.898 223.472C268.384 223.379 273.216 219.811 273.565 219.611C278.173 216.978 274.142 220.258 272.51 221.528C271.776 222.099 267.344 226.206 266.065 224.167C264.488 221.651 267.996 216.895 269.537 215.167C271.421 213.054 267.026 216.61 266.787 216.778C265.097 217.967 262.507 219.137 261.148 220.722C259.285 222.896 265.421 216.906 267.454 214.889C268.834 213.52 270.381 211.851 268.148 214.472C265.233 217.895 262.43 221.635 259.26 224.806C257.251 226.814 258.516 229.815 255.898 231.778C254.94 232.496 247.51 234.955 247.51 233.056C247.51 231.856 248.564 230.956 247.51 229.778C245.885 227.962 243.866 227.105 241.454 227.056C239.908 227.024 244.622 227.236 245.426 227.611C247.813 228.725 249.066 230.985 251.76 232.028C253.742 232.795 256.617 234.056 258.732 234.056C264.492 234.056 271.273 231.07 275.287 227.056C277.039 225.304 278.358 223.16 279.621 221.056C280.573 219.467 282.979 218.894 283.676 216.889C284.296 215.108 280.439 219.196 279.732 220.944C279.087 222.537 279.51 224.89 279.51 226.556C279.51 228.918 280.422 228.331 281.121 226.444C281.597 225.158 280.978 224.297 281.01 222.944C281.047 221.316 281.614 219.583 282.621 218.278C283.074 217.69 286.978 214.311 285.704 215.389C283.341 217.389 281.006 219.482 278.76 221.611C276.567 223.688 276.979 227.309 274.982 229.556C271.893 233.03 267.585 236.823 262.51 235.944C256.942 234.981 254.666 228.689 259.343 225.222C262.911 222.577 259.248 225.688 258.621 227.444C258.217 228.574 261.337 229.654 261.176 229.861C259.976 231.404 252.161 232.213 251.232 230.222C250.093 227.781 248.198 226.061 246.454 224C244.254 221.4 242.203 218.619 239.621 216.389C239.308 216.119 237.219 214.542 238.315 214.056C240.622 213.03 242.683 210.14 245.065 209.611C248.065 208.945 251.283 210.221 254.148 208.583C259.361 205.605 266.534 207.646 272.065 208.167C273.941 208.343 281.01 208.934 281.01 211.556C281.01 215.476 276.584 217.981 274.176 220.389C272.423 222.142 271.534 224.752 269.621 226.333C268.338 227.393 261.703 232.419 261.065 228.75C260.927 227.955 261.571 224.777 260.621 224.333C259.527 223.823 258.168 224.145 257.01 224.056C255.744 223.958 255.24 222.745 254.343 222.028C251.124 219.453 247.325 216.082 243.51 214.556" stroke="white" stroke-width="4" stroke-linecap="round" stroke-linejoin="round"/>
<path d="M396.01 180.556C393.699 180.602 389.133 181.851 389.01 184.944C388.951 186.412 391.601 184.057 392.01 183.722C392.68 183.174 394.367 179.999 393.898 180.056C392.255 180.253 390.706 182.994 389.621 184.167C388.077 185.834 390.768 186.256 391.898 184.778C393.073 183.242 393.464 181.483 391.621 180.278C390.352 179.448 389.449 180.85 389.51 182.056C389.597 183.797 393.05 182.333 391.01 180.583C389.133 178.975 387.473 182.561 387.732 184.111C388.115 186.409 392.325 190.634 393.26 186.583C393.682 184.752 394.976 175.828 391.537 180.556C389.225 183.735 394.2 190.209 397.704 188.972C400.241 188.077 400.628 184.06 398.287 182.722C395.41 181.078 394.189 190.77 394.398 192.056C394.927 195.305 398.577 191.365 399.232 190.056C400.547 187.425 391.949 189.121 393.454 193.333C394.413 196.019 401.571 196.948 400.565 192.222C400.178 190.403 395.729 184.338 393.898 188C391.432 192.933 397.313 197.206 401.898 194.722C406.33 192.322 394.964 188.519 393.232 188.667C391.106 188.848 389.267 193.957 392.51 194.056C394.354 194.111 396.235 192.901 396.01 190.944C395.805 189.174 391.934 189.99 391.621 191.556C391.18 193.758 398.804 196.84 400.648 195.972C403.138 194.801 398.719 192.745 397.204 193.972C395.514 195.341 393.713 198.546 395.232 200.611C396.953 202.953 400.969 203.178 403.593 203.028C405.722 202.906 405.742 201.888 403.76 201.583C403.445 201.535 402.017 201.706 403.065 202.056C404.583 202.562 409.432 203.327 410.398 201.556C411.515 199.508 408.366 200.588 408.621 199.444C408.971 197.869 409.67 196.592 410.565 195.25C410.824 194.862 413.413 190.331 412.787 193.167C412.186 195.89 407.356 197.983 408.954 194.833C410.179 192.417 412.508 190.726 414.76 189.361C420.675 185.773 414.061 191.785 412.287 193C407.021 196.608 410.112 189.655 411.565 187.444C412.637 185.814 416.059 181.364 415.676 183.278C415.538 183.971 414.71 184.314 414.176 184.778C411.189 187.371 407.977 189.592 404.51 191.5C402.252 192.743 397.121 196.355 397.121 193.778C397.121 189.839 402.198 186.38 404.954 184.361C408.563 181.718 407.463 183.701 405.287 185.833C403.644 187.443 401.409 189.329 399.621 190.722C398.13 191.883 394.832 195.056 392.621 195.056C388.796 195.056 394.652 186.037 394.954 185.722C396.702 183.903 407.869 174.43 410.065 180.333C410.874 182.508 407.129 185.568 405.621 186.5C403.624 187.733 399.166 188.98 396.871 188.25C390.976 186.375 410.224 171.46 409.676 178.139C409.408 181.408 405.121 184.993 402.01 185.444C400.015 185.734 393.413 186.581 392.954 183.5C392.421 179.923 401.566 172.526 403.287 177.056C403.848 178.532 402.97 179.307 401.704 179.806C400.75 180.182 398.212 181.958 399.065 181.389C401.493 179.77 408.545 173.034 411.121 176.944C412.394 178.878 410.78 180.735 408.815 181.944C408.351 182.23 406.5 180.922 406.621 180.5C407.179 178.546 417.293 174.4 418.398 176.333C418.897 177.205 414.989 179.603 416.815 180.306C419.99 181.527 416.707 184.786 419.898 186.833M419.898 186.833C422.785 188.685 423.845 187.135 422.287 188.278C419.075 190.634 415.971 192.889 412.898 195.333C409.789 197.807 402.26 199.359 399.121 196.444C397.629 195.06 395.518 194.067 394.287 192.444C391.801 189.167 388.022 189.801 384.287 188.667C381.746 187.895 384.092 188.476 384.398 189.056C385.154 190.483 383.976 192.536 384.815 194.028C386.758 197.481 390.788 200.556 394.732 200.556C400.881 200.556 406.814 202.619 413.01 200.944C417.523 199.724 419.712 195.26 422.121 191.833C424.726 188.126 412.347 185.077 414.537 181.167M419.898 186.833C420.331 186.54 424.534 182.206 422.454 183.611C419.452 185.64 415.846 188.198 413.787 191.222C411.944 193.93 415.108 192.408 416.065 191.556C417.487 190.289 422.062 183.991 417.398 184.278C413.362 184.526 408.387 186.473 405.732 189.611C404.29 191.315 401.774 195.532 404.287 197.417C406.753 199.266 410.83 198.172 412.787 196.056C415.76 192.841 413.239 188.244 409.621 186.972C405.344 185.468 401.007 187.655 397.954 190.556C397.818 190.684 394.116 195.243 396.343 193.194C398.066 191.609 399.514 189.548 399.565 187.111C399.68 181.672 393.352 184.039 390.843 185.556C389.865 186.146 380.632 192.087 384.51 193.333C388.808 194.715 395.253 192.262 399.065 190.389C401.068 189.405 405.563 185.327 403.732 182.611C401.477 179.267 394.866 182.932 393.121 184.944C391.555 186.749 388.643 191.643 391.093 193.889C393.102 195.731 398.068 193.827 399.954 192.944C400.513 192.683 411.424 185.62 409.065 184.389C406.155 182.87 398.409 187.194 395.954 188.5C392.989 190.077 390.967 192.808 395.01 194.778C398.405 196.432 401.936 194.112 404.315 191.833C405.116 191.066 412.217 184.463 408.954 184.278C406.624 184.145 401.715 184.633 400.287 186.917C399.983 187.404 401.493 187.086 402.01 186.833C403.417 186.144 404.805 184.988 405.954 184C408.412 181.887 413.878 178.234 414.898 174.917C414.935 174.796 411.8 174.874 414.982 176.306C416.788 177.118 418.247 177.556 420.232 177.556C422.344 177.556 416.479 177.699 414.537 181.167M419.898 186.833C418.613 187.704 415.654 189.791 413.898 189.472M414.537 181.167C412.996 182.895 409.488 187.651 411.065 190.167C412.344 192.206 416.776 188.099 417.51 187.528M414.537 181.167C416.421 179.054 412.026 182.61 411.787 182.778C410.097 183.967 407.507 185.137 406.148 186.722C404.285 188.896 410.421 182.906 412.454 180.889C413.834 179.52 415.381 177.851 413.148 180.472C410.233 183.895 407.43 187.635 404.26 190.806C402.251 192.814 403.516 195.815 400.898 197.778C399.94 198.496 392.51 200.955 392.51 199.056C392.51 197.856 393.564 196.956 392.51 195.778C390.885 193.962 388.866 193.105 386.454 193.056C384.908 193.024 389.622 193.236 390.426 193.611C392.813 194.725 394.066 196.985 396.76 198.028C398.742 198.795 401.617 200.056 403.732 200.056C409.492 200.056 416.273 197.07 420.287 193.056C422.039 191.304 423.358 189.16 424.621 187.056C425.573 185.467 416.812 189.533 417.51 187.528M413.898 189.472C413.384 189.379 418.216 185.811 418.565 185.611C423.173 182.978 419.142 186.258 417.51 187.528M413.898 189.472C415.173 188.394 428.074 183.69 427.621 184.278C426.614 185.583 426.047 187.316 426.01 188.944C425.978 190.297 426.597 191.158 426.121 192.444C425.422 194.331 424.51 194.918 424.51 192.556C424.51 190.89 424.087 188.537 424.732 186.944C425.439 185.196 418.129 185.747 417.51 187.528M413.898 189.472C411.535 191.472 414.176 184.778 423.76 187.611C421.567 189.688 421.979 193.309 419.982 195.556C416.893 199.03 412.585 202.823 407.51 201.944C401.942 200.981 399.666 194.689 404.343 191.222C407.911 188.577 404.248 191.688 403.621 193.444C403.217 194.574 406.337 195.654 406.176 195.861C404.976 197.404 397.161 198.213 396.232 196.222C395.093 193.781 393.198 192.061 391.454 190C389.254 187.4 387.203 184.619 384.621 182.389C384.308 182.119 382.219 180.542 383.315 180.056C385.622 179.03 387.683 176.14 390.065 175.611C393.065 174.945 396.283 176.221 399.148 174.583C404.361 171.605 411.534 173.646 417.065 174.167C418.941 174.343 426.01 174.934 426.01 177.556C426.01 181.476 421.584 183.981 419.176 186.389C417.423 188.142 416.534 190.752 414.621 192.333C413.338 193.393 406.703 198.419 406.065 194.75C405.927 193.955 406.571 190.777 405.621 190.333C404.527 189.823 403.168 190.145 402.01 190.056C400.744 189.958 400.24 188.745 399.343 188.028C396.124 185.453 392.325 182.082 388.51 180.556" stroke="white" stroke-width="4" stroke-linecap="round" stroke-linejoin="round"/>
<path d="M284.01 183.556C281.699 183.602 277.133 184.851 277.01 187.944C276.951 189.412 279.601 187.057 280.01 186.722C280.68 186.174 282.367 182.999 281.898 183.056C280.255 183.253 278.706 185.994 277.621 187.167C276.077 188.834 278.768 189.256 279.898 187.778C281.073 186.242 281.464 184.483 279.621 183.278C278.352 182.448 277.449 183.85 277.51 185.056C277.597 186.797 281.05 185.333 279.01 183.583C277.133 181.975 275.473 185.561 275.732 187.111C276.115 189.409 280.325 193.634 281.26 189.583C281.682 187.752 282.976 178.828 279.537 183.556C277.225 186.735 282.2 193.209 285.704 191.972C288.241 191.077 288.628 187.06 286.287 185.722C283.41 184.078 282.189 193.77 282.398 195.056C282.927 198.305 286.577 194.365 287.232 193.056C288.547 190.425 279.949 192.121 281.454 196.333C282.413 199.019 289.571 199.948 288.565 195.222C288.178 193.403 283.729 187.338 281.898 191C279.432 195.933 285.313 200.206 289.898 197.722C294.33 195.322 282.964 191.519 281.232 191.667C279.107 191.848 277.267 196.957 280.51 197.056C282.354 197.111 284.235 195.901 284.01 193.944C283.805 192.174 279.934 192.99 279.621 194.556C279.18 196.758 286.804 199.84 288.648 198.972C291.138 197.801 286.719 195.745 285.204 196.972C283.514 198.341 281.713 201.546 283.232 203.611C284.953 205.953 288.969 206.178 291.593 206.028C293.722 205.906 293.742 204.888 291.76 204.583C291.445 204.535 290.017 204.706 291.065 205.056C292.583 205.562 297.432 206.327 298.398 204.556C299.515 202.508 296.366 203.588 296.621 202.444C296.971 200.869 297.67 199.592 298.565 198.25C298.824 197.862 301.413 193.331 300.787 196.167C300.186 198.89 295.356 200.983 296.954 197.833M296.954 197.833C298.179 195.417 300.508 193.726 302.76 192.361C296.954 197.833 302.061 194.785 300.287 196C295.021 199.608 298.112 192.655 299.565 190.444C300.637 188.814 304.059 184.364 303.676 186.278C303.538 186.971 302.71 187.314 302.176 187.778M296.954 197.833C281.843 197.861 306.129 188.747 305.51 190.528M296.954 197.833C277.843 197.389 294.148 188.057 294.148 189.722M302.176 187.778C299.189 190.371 295.977 192.592 292.51 194.5C290.252 195.743 285.121 199.355 285.121 196.778C285.121 192.839 290.198 189.38 292.954 187.361C296.563 184.718 295.463 186.701 293.287 188.833C291.644 190.443 289.409 192.329 287.621 193.722C286.13 194.883 282.832 198.056 280.621 198.056C276.796 198.056 282.652 189.037 282.954 188.722C284.702 186.903 295.869 177.43 298.065 183.333M302.176 187.778C302.176 185.156 306.941 177.343 305.065 177.167C299.534 176.646 292.361 174.605 287.148 177.583C284.283 179.221 281.065 177.945 278.065 178.611C275.683 179.14 273.622 182.03 271.315 183.056C270.219 183.542 272.308 185.119 272.621 185.389C275.203 187.619 277.254 190.4 279.454 193C281.198 195.061 283.093 196.781 284.232 199.222C285.161 201.213 292.976 200.404 294.176 198.861C294.337 198.654 291.217 197.574 291.621 196.444C292.248 194.688 295.911 191.577 292.343 194.222C287.666 197.689 289.942 203.981 295.51 204.944C300.585 205.823 304.893 202.03 307.982 198.556C309.979 196.309 285.01 194.444 302.621 195.333M302.176 187.778C302.176 191.699 297.065 187.389 307.176 189.389C305.423 191.142 304.534 193.752 302.621 195.333M298.065 183.333C298.874 185.508 295.129 188.568 293.621 189.5C291.624 190.733 287.166 191.98 284.871 191.25C278.976 189.375 298.224 174.46 297.676 181.139C297.408 184.408 293.121 187.993 290.01 188.444C288.015 188.734 281.413 189.581 280.954 186.5C280.421 182.923 289.566 175.526 291.287 180.056C291.848 181.532 290.97 182.307 289.704 182.806C288.75 183.182 286.212 184.958 287.065 184.389C289.493 182.77 296.545 176.034 299.121 179.944C300.394 181.878 298.78 183.735 296.815 184.944C296.351 185.23 294.5 183.922 294.621 183.5C295.179 181.546 305.293 177.4 306.398 179.333C306.897 180.205 302.989 182.603 304.815 183.306C307.99 184.527 304.707 187.786 307.898 189.833M298.065 183.333C299.871 184.146 306.247 180.556 308.232 180.556C310.344 180.556 304.479 180.699 302.537 184.167M298.065 183.333C294.884 181.902 302.935 177.796 302.898 177.917C301.878 181.234 296.412 184.887 293.954 187C292.805 187.988 291.417 189.144 290.01 189.833C289.493 190.086 287.983 190.404 288.287 189.917C289.715 187.633 294.624 187.145 296.954 187.278M307.898 189.833C299.565 190.444 299.179 188.83 297.621 189.972M307.898 189.833C297.621 189.972 299.034 185.872 296.954 187.278M307.898 189.833C306.613 190.704 303.654 192.791 301.898 192.472M297.621 189.972C294.408 192.328 303.971 195.889 300.898 198.333C297.789 200.807 290.26 202.359 287.121 199.444C285.629 198.06 283.518 197.067 282.287 195.444C279.801 192.167 276.022 192.801 272.287 191.667C269.746 190.895 272.092 191.476 272.398 192.056C273.154 193.483 271.976 195.536 272.815 197.028C274.758 200.481 278.788 203.556 282.732 203.556C288.881 203.556 294.814 205.619 301.01 203.944C305.523 202.724 307.712 198.26 310.121 194.833C312.726 191.126 300.347 188.077 302.537 184.167M297.621 189.972C293.344 188.468 289.007 190.655 285.954 193.556C285.818 193.684 282.116 198.243 284.343 196.194C286.066 194.609 287.514 192.548 287.565 190.111C287.68 184.672 281.352 187.039 278.843 188.556C277.865 189.146 268.632 195.087 272.51 196.333C276.808 197.715 283.253 195.262 287.065 193.389C289.068 192.405 293.563 188.327 291.732 185.611C289.477 182.267 282.866 185.932 281.121 187.944C279.555 189.749 276.643 194.643 279.093 196.889C281.102 198.731 286.068 196.827 287.954 195.944C288.513 195.683 299.424 188.62 297.065 187.389C294.155 185.87 286.409 190.194 283.954 191.5C280.989 193.077 278.967 195.808 283.01 197.778C286.405 199.432 289.936 197.112 292.315 194.833C293.116 194.066 300.217 187.463 296.954 187.278M297.621 189.972C301.239 191.244 303.76 195.841 300.787 199.056C298.83 201.172 294.753 202.266 292.287 200.417C289.774 198.532 292.29 194.315 293.732 192.611C296.387 189.473 301.362 187.526 305.398 187.278C310.062 186.991 305.487 193.289 304.065 194.556C303.108 195.408 299.944 196.93 301.787 194.222M297.621 189.972C297.589 191.325 302.375 191.186 301.898 192.472M297.621 189.972C297.659 188.344 298.781 187.083 299.787 185.778M302.537 184.167C300.996 185.895 297.488 190.651 299.065 193.167C300.344 195.206 304.776 191.099 305.51 190.528M302.537 184.167C304.421 182.054 300.026 185.61 299.787 185.778M296.954 187.278C293.952 189.306 303.846 191.198 301.787 194.222M301.787 194.222C300.525 196.326 310.039 194.304 308.287 196.056C304.273 200.07 297.492 203.056 291.732 203.056C289.617 203.056 286.742 201.795 284.76 201.028C282.066 199.985 280.813 197.725 278.426 196.611C277.622 196.236 272.908 196.024 274.454 196.056C276.866 196.105 278.885 196.962 280.51 198.778C281.564 199.956 280.51 200.856 280.51 202.056C280.51 203.955 287.94 201.496 288.898 200.778C291.516 198.815 290.251 195.814 292.26 193.806C295.43 190.635 298.233 186.895 301.148 183.472C303.381 180.851 301.834 182.52 300.454 183.889C298.421 185.906 292.285 191.896 294.148 189.722M301.787 194.222C302.74 192.634 304.812 192.533 305.51 190.528M301.898 192.472C301.384 192.379 306.216 188.811 306.565 188.611C311.173 185.978 307.142 189.258 305.51 190.528M301.898 192.472C301.2 194.359 294.148 192.084 294.148 189.722M301.898 192.472C303.173 191.394 300.241 185.19 299.787 185.778M301.898 192.472C299.535 194.472 293.037 192.5 302.621 195.333M299.787 185.778C298.097 186.967 295.507 188.137 294.148 189.722M302.621 195.333C301.338 196.393 294.703 201.419 294.065 197.75C293.927 196.955 294.571 193.777 293.621 193.333C292.527 192.823 291.168 193.145 290.01 193.056C288.744 192.958 288.24 191.745 287.343 191.028C284.124 188.453 280.325 185.082 276.51 183.556" stroke="white" stroke-width="4" stroke-linecap="round" stroke-linejoin="round"/>
<path d="M232.964 178.023C231.87 175.988 228.677 172.493 225.867 173.793C224.534 174.41 227.838 175.695 228.322 175.907C229.116 176.253 232.711 176.308 232.447 175.916C231.522 174.543 228.376 174.415 226.838 173.983C224.65 173.369 225.501 175.956 227.332 176.289C229.235 176.634 230.978 176.181 231.211 173.99C231.371 172.483 229.712 172.318 228.666 172.922C227.156 173.793 230.034 176.199 230.66 173.586C231.237 171.182 227.288 171.34 226.026 172.276C224.155 173.665 222.314 179.338 226.346 178.323C228.168 177.865 236.701 174.948 230.926 174.043C227.041 173.434 223.547 180.813 226.245 183.368C228.198 185.218 231.95 183.731 232.074 181.038C232.226 177.728 223.043 181.059 221.994 181.831C219.343 183.783 224.513 185.236 225.977 185.222C228.918 185.193 223.49 178.314 220.426 181.573C218.473 183.651 220.909 190.445 224.657 187.396C226.1 186.222 229.469 179.498 225.376 179.538C219.86 179.591 218.738 186.773 223.039 189.722C227.196 192.573 225.4 180.723 224.479 179.248C223.349 177.439 217.962 178.131 219.353 181.062C220.144 182.729 222.079 183.851 223.717 182.759C225.2 181.77 222.709 178.696 221.173 179.131C219.012 179.743 219.743 187.933 221.357 189.18C223.534 190.861 223.35 185.992 221.567 185.202C219.578 184.321 215.905 184.18 214.759 186.473C213.459 189.073 215.089 192.749 216.419 195.016C217.498 196.856 218.413 196.41 217.781 194.506C217.68 194.204 216.877 193.011 217.044 194.103C217.285 195.685 218.814 200.35 220.831 200.403C223.163 200.463 220.766 198.153 221.9 197.858C223.462 197.452 224.917 197.492 226.52 197.677C226.983 197.73 232.196 197.97 229.387 198.705C226.689 199.412 222.625 196.067 226.156 196.053M226.156 196.053C228.865 196.042 231.432 197.345 233.673 198.726C226.156 196.053 231.198 199.209 229.307 198.184C223.695 195.141 231.293 194.723 233.923 195.009C235.863 195.22 241.383 196.237 239.506 196.769C238.825 196.962 238.143 196.382 237.487 196.118M226.156 196.053C219.244 182.616 238.426 200.078 236.558 200.338M226.156 196.053C217.841 178.84 233.579 189.099 232.097 189.859M237.487 196.118C233.817 194.641 230.376 192.794 227.097 190.578C224.962 189.134 219.408 186.214 221.702 185.039C225.208 183.244 230.601 186.186 233.654 187.719C237.652 189.727 235.385 189.652 232.496 188.687C230.313 187.958 227.616 186.828 225.561 185.872C223.848 185.075 219.521 183.584 218.513 181.616C216.77 178.212 227.467 179.313 227.884 179.439C230.3 180.165 243.822 185.787 239.569 190.433M237.487 196.118C239.82 194.923 248.946 195.603 248.248 193.852C246.19 188.691 244.737 181.377 239.711 178.095C236.947 176.291 236.616 172.845 234.656 170.479C233.099 168.6 229.587 168.082 227.623 166.496C226.69 165.743 226.239 168.321 226.141 168.722C225.333 172.038 223.793 175.13 222.481 178.274C221.442 180.765 220.774 183.236 219.121 185.362C217.773 187.097 222.055 193.684 223.975 194.049C224.232 194.098 223.772 190.829 224.961 190.673C226.811 190.43 231.25 192.273 227.269 190.303C222.051 187.721 217.488 192.613 219.168 198.009C220.7 202.927 226.04 205.033 230.54 206.198C233.45 206.951 223.728 183.877 230.964 199.957M237.487 196.118C233.997 197.905 235.503 191.391 238.332 201.302C235.973 200.541 233.244 200.94 230.964 199.957M239.569 190.433C238.002 192.144 233.571 190.205 232.054 189.288C230.047 188.073 226.904 184.674 226.508 182.297C225.491 176.196 247.538 186.529 241.345 189.086C238.313 190.338 233.168 188.156 231.348 185.592C230.181 183.949 226.418 178.459 228.951 176.646C231.892 174.541 242.644 179.309 239.397 182.906C238.338 184.078 237.249 183.65 236.227 182.75C235.458 182.072 232.72 180.623 233.615 181.123C236.163 182.546 245.373 185.752 243.066 189.827C241.926 191.842 239.537 191.252 237.565 190.054C237.099 189.771 237.42 187.528 237.85 187.443C239.844 187.049 248.145 194.162 246.928 196.027C246.379 196.867 242.463 194.482 242.67 196.428C243.031 199.811 238.633 198.374 238.265 202.148M239.569 190.433C239.669 192.411 245.77 196.449 246.675 198.215C247.638 200.095 244.837 194.941 240.866 194.793M239.569 190.433C239.393 186.948 246.717 192.244 246.593 192.266C243.175 192.869 237.432 189.67 234.431 188.445C233.028 187.872 231.366 187.164 230.111 186.225C229.651 185.881 228.68 184.681 229.252 184.73C231.936 184.96 234.607 189.107 235.551 191.242M238.265 202.148C233.923 195.009 235.184 193.929 233.457 193.063M238.265 202.148C233.457 193.063 237.75 192.452 235.551 191.242M238.265 202.148C236.904 201.4 233.698 199.719 233.182 198.01M233.457 193.063C229.896 191.277 231.085 201.413 227.509 199.792C223.89 198.151 219.076 192.158 220.24 188.035C220.793 186.076 220.714 183.745 221.597 181.91C223.381 178.203 221.094 175.128 220.402 171.287C219.93 168.673 220.482 171.026 220.106 171.563C219.18 172.886 216.815 172.774 215.87 174.2C213.682 177.504 212.783 182.492 214.58 186.002C217.383 191.475 218.251 197.697 222.565 202.448C225.709 205.91 230.68 205.823 234.828 206.405C239.315 207.034 236.386 194.626 240.866 194.793M233.457 193.063C232.846 188.571 228.923 185.708 224.95 184.312C224.773 184.25 219.028 183.033 221.867 184.081C224.063 184.892 226.557 185.242 228.75 184.176C233.643 181.799 228.653 177.246 226.159 175.704C225.187 175.103 215.691 169.592 216.349 173.612C217.079 178.068 222.2 182.686 225.605 185.225C227.393 186.559 233.072 188.702 234.655 185.834C236.603 182.302 230.328 178.089 227.741 177.453C225.421 176.882 219.738 176.52 218.855 179.725C218.132 182.353 222.09 185.905 223.735 187.181C224.223 187.56 235.483 194.052 235.503 191.391C235.528 188.108 228.149 183.185 225.868 181.595C223.112 179.675 219.76 179.12 219.85 183.616C219.925 187.392 223.599 189.477 226.712 190.557C227.76 190.92 236.873 194.23 235.551 191.242M233.457 193.063C233.974 196.863 231.032 201.203 226.816 200.022C224.039 199.245 221.208 196.115 221.73 193.077C222.262 189.981 227.162 190.298 229.336 190.805C233.339 191.738 237.339 195.278 239.401 198.758C241.782 202.778 234.091 201.576 232.315 200.888C231.12 200.425 228.324 198.302 231.573 198.709M233.457 193.063C232.239 193.652 234.544 197.848 233.182 198.01M233.457 193.063C234.924 192.355 236.558 192.778 238.178 193.08M240.866 194.793C238.624 194.209 232.792 193.254 231.272 195.805C230.04 197.872 235.716 199.945 236.558 200.338M240.866 194.793C243.605 195.507 238.436 193.216 238.178 193.08M235.551 191.242C232.378 189.494 235.203 199.163 231.573 198.709M231.573 198.709C229.125 198.544 235.262 206.091 232.905 205.33C227.502 203.587 221.753 198.912 219.128 193.785C218.164 191.903 217.975 188.77 217.754 186.655C217.455 183.783 218.895 181.637 218.799 179.005C218.766 178.118 216.806 173.826 217.483 175.216C218.539 177.386 218.695 179.573 217.82 181.847C217.252 183.322 215.97 182.794 214.902 183.341C213.211 184.207 218.787 189.7 219.864 190.225C222.804 191.66 224.899 189.167 227.601 190.039C231.868 191.415 236.475 192.205 240.851 193.24C244.202 194.033 242.011 193.416 240.163 192.812C237.442 191.922 229.312 189.191 232.097 189.859M231.573 198.709C233.421 198.833 234.456 200.631 236.558 200.338M233.182 198.01C233.031 197.51 238.409 200.184 238.746 200.404C243.19 203.305 238.433 201.212 236.558 200.338M233.182 198.01C231.184 198.248 229.995 190.935 232.097 189.859M233.182 198.01C234.722 198.653 238.908 193.215 238.178 193.08M233.182 198.01C230.325 196.818 229.118 190.136 230.964 199.957M238.178 193.08C236.349 192.117 234.127 190.345 232.097 189.859M230.964 199.957C229.436 199.298 221.938 195.684 224.914 193.444C225.558 192.958 228.681 192.083 228.642 191.035C228.598 189.829 227.692 188.766 227.243 187.694C226.753 186.523 227.603 185.522 227.833 184.396C228.658 180.357 229.926 175.44 229.546 171.348" stroke="white" stroke-width="4" stroke-linecap="round" stroke-linejoin="round"/>
<path d="M348.01 174.556C345.699 174.602 341.133 175.851 341.01 178.944C340.951 180.412 343.601 178.057 344.01 177.722C344.68 177.174 346.367 173.999 345.898 174.056C344.255 174.253 342.706 176.994 341.621 178.167C340.077 179.834 342.768 180.256 343.898 178.778C345.073 177.242 345.464 175.483 343.621 174.278C342.352 173.448 341.449 174.85 341.51 176.056C341.597 177.797 345.05 176.333 343.01 174.583C341.133 172.975 339.473 176.561 339.732 178.111C340.115 180.409 344.325 184.634 345.26 180.583C345.682 178.752 346.976 169.828 343.537 174.556C341.225 177.735 346.2 184.209 349.704 182.972C352.241 182.077 352.628 178.06 350.287 176.722C347.41 175.078 346.189 184.77 346.398 186.056C346.927 189.305 350.577 185.365 351.232 184.056C352.547 181.425 343.949 183.121 345.454 187.333C346.413 190.019 353.571 190.948 352.565 186.222C352.178 184.403 347.729 178.338 345.898 182C343.432 186.933 349.313 191.206 353.898 188.722C358.33 186.322 346.964 182.519 345.232 182.667C343.106 182.848 341.267 187.957 344.51 188.056C346.354 188.111 348.235 186.901 348.01 184.944C347.805 183.174 343.934 183.99 343.621 185.556C343.18 187.758 350.804 190.84 352.648 189.972C355.138 188.801 350.719 186.745 349.204 187.972C347.514 189.341 345.713 192.546 347.232 194.611C348.953 196.953 352.969 197.178 355.593 197.028C357.722 196.906 357.742 195.888 355.76 195.583C355.445 195.535 354.017 195.706 355.065 196.056C356.583 196.562 361.432 197.327 362.398 195.556C363.515 193.508 360.366 194.588 360.621 193.444C360.971 191.869 361.67 190.592 362.565 189.25C362.824 188.862 365.413 184.331 364.787 187.167C364.186 189.89 359.356 191.983 360.954 188.833C362.179 186.417 364.508 184.726 366.76 183.361C372.675 179.773 366.061 185.785 364.287 187C359.021 190.608 362.112 183.655 363.565 181.444C364.637 179.814 368.059 175.364 367.676 177.278C367.538 177.971 366.71 178.314 366.176 178.778C363.189 181.371 359.977 183.592 356.51 185.5C354.252 186.743 349.121 190.355 349.121 187.778C349.121 183.839 354.198 180.38 356.954 178.361C360.563 175.718 359.463 177.701 357.287 179.833C355.644 181.443 353.409 183.329 351.621 184.722C350.13 185.883 346.832 189.056 344.621 189.056C340.796 189.056 346.652 180.037 346.954 179.722C348.702 177.903 359.869 168.43 362.065 174.333C362.874 176.508 359.129 179.568 357.621 180.5C355.624 181.733 351.166 182.98 348.871 182.25C342.976 180.375 362.224 165.46 361.676 172.139C361.408 175.408 357.121 178.993 354.01 179.444C352.015 179.734 345.413 180.581 344.954 177.5C344.421 173.923 353.566 166.526 355.287 171.056C355.848 172.532 354.97 173.307 353.704 173.806C352.75 174.182 350.212 175.958 351.065 175.389C353.493 173.77 360.545 167.034 363.121 170.944C364.394 172.878 362.78 174.735 360.815 175.944C360.351 176.23 358.5 174.922 358.621 174.5C359.179 172.546 369.293 168.4 370.398 170.333C370.897 171.205 366.989 173.603 368.815 174.306C371.99 175.527 368.707 178.786 371.898 180.833M371.898 180.833C374.785 182.685 375.845 181.135 374.287 182.278C371.075 184.634 367.971 186.889 364.898 189.333C361.789 191.807 354.26 193.359 351.121 190.444C349.629 189.06 347.518 188.067 346.287 186.444C343.801 183.167 340.022 183.801 336.287 182.667C333.746 181.895 336.092 182.476 336.398 183.056C337.154 184.483 335.976 186.536 336.815 188.028C338.758 191.481 342.788 194.556 346.732 194.556C352.881 194.556 358.814 196.619 365.01 194.944C369.523 193.724 371.712 189.26 374.121 185.833C376.726 182.126 364.347 179.077 366.537 175.167M371.898 180.833C372.331 180.54 376.534 176.206 374.454 177.611C371.452 179.64 367.846 182.198 365.787 185.222C363.944 187.93 367.108 186.408 368.065 185.556C369.487 184.289 374.062 177.991 369.398 178.278C365.362 178.526 360.387 180.473 357.732 183.611C356.29 185.315 353.774 189.532 356.287 191.417C358.753 193.266 362.83 192.172 364.787 190.056C367.76 186.841 365.239 182.244 361.621 180.972C357.344 179.468 353.007 181.655 349.954 184.556C349.818 184.684 346.116 189.243 348.343 187.194C350.066 185.609 351.514 183.548 351.565 181.111C351.68 175.672 345.352 178.039 342.843 179.556C341.865 180.146 332.632 186.087 336.51 187.333C340.808 188.715 347.253 186.262 351.065 184.389C353.068 183.405 357.563 179.327 355.732 176.611C353.477 173.267 346.866 176.932 345.121 178.944C343.555 180.749 340.643 185.643 343.093 187.889C345.102 189.731 350.068 187.827 351.954 186.944C352.513 186.683 363.424 179.62 361.065 178.389C358.155 176.87 350.409 181.194 347.954 182.5C344.989 184.077 342.967 186.808 347.01 188.778C350.405 190.432 353.936 188.112 356.315 185.833C357.116 185.066 364.217 178.463 360.954 178.278C358.624 178.145 353.715 178.633 352.287 180.917C351.983 181.404 353.493 181.086 354.01 180.833C355.417 180.144 356.805 178.988 357.954 178C360.412 175.887 365.878 172.234 366.898 168.917C366.935 168.796 363.8 168.874 366.982 170.306C368.788 171.118 370.247 171.556 372.232 171.556C374.344 171.556 368.479 171.699 366.537 175.167M371.898 180.833C370.613 181.704 367.654 183.791 365.898 183.472M366.537 175.167C364.996 176.895 361.488 181.651 363.065 184.167C364.344 186.206 368.776 182.099 369.51 181.528M366.537 175.167C368.421 173.054 364.026 176.61 363.787 176.778C362.097 177.967 359.507 179.137 358.148 180.722C356.285 182.896 362.421 176.906 364.454 174.889C365.834 173.52 367.381 171.851 365.148 174.472C362.233 177.895 359.43 181.635 356.26 184.806C354.251 186.814 355.516 189.815 352.898 191.778C351.94 192.496 344.51 194.955 344.51 193.056C344.51 191.856 345.564 190.956 344.51 189.778C342.885 187.962 340.866 187.105 338.454 187.056C336.908 187.024 341.622 187.236 342.426 187.611C344.813 188.725 346.066 190.985 348.76 192.028C350.742 192.795 353.617 194.056 355.732 194.056C361.492 194.056 368.273 191.07 372.287 187.056C374.039 185.304 375.358 183.16 376.621 181.056C377.573 179.467 368.812 183.533 369.51 181.528M365.898 183.472C365.384 183.379 370.216 179.811 370.565 179.611C375.173 176.978 371.142 180.258 369.51 181.528M365.898 183.472C367.173 182.394 380.074 177.69 379.621 178.278C378.614 179.583 378.047 181.316 378.01 182.944C377.978 184.297 378.597 185.158 378.121 186.444C377.422 188.331 376.51 188.918 376.51 186.556C376.51 184.89 376.087 182.537 376.732 180.944C377.439 179.196 370.129 179.747 369.51 181.528M365.898 183.472C363.535 185.472 366.176 178.778 375.76 181.611C373.567 183.688 373.979 187.309 371.982 189.556C368.893 193.03 364.585 196.823 359.51 195.944C353.942 194.981 351.666 188.689 356.343 185.222C359.911 182.577 356.248 185.688 355.621 187.444C355.217 188.574 358.337 189.654 358.176 189.861C356.976 191.404 349.161 192.213 348.232 190.222C347.093 187.781 345.198 186.061 343.454 184C341.254 181.4 339.203 178.619 336.621 176.389C336.308 176.119 334.219 174.542 335.315 174.056C337.622 173.03 339.683 170.14 342.065 169.611C345.065 168.945 348.283 170.221 351.148 168.583C356.361 165.605 363.534 167.646 369.065 168.167C370.941 168.343 378.01 168.934 378.01 171.556C378.01 175.476 373.584 177.981 371.176 180.389C369.423 182.142 368.534 184.752 366.621 186.333C365.338 187.393 358.703 192.419 358.065 188.75C357.927 187.955 358.571 184.777 357.621 184.333C356.527 183.823 355.168 184.145 354.01 184.056C352.744 183.958 352.24 182.745 351.343 182.028C348.124 179.453 344.325 176.082 340.51 174.556" stroke="white" stroke-width="4" stroke-linecap="round" stroke-linejoin="round"/>
<path d="M420 178C422.507 181.528 426.68 186.161 423.722 190.5C421.027 194.453 419.777 198.723 416.306 202.194C415.816 202.684 413.682 203.968 414.722 204C416.449 204.052 417.891 204.964 419.5 205.5C421.611 206.204 424.065 206.582 424 203.667C423.935 200.722 423.472 197.635 423.028 194.75C422.85 193.595 422.858 192.544 422.528 191.389C422.174 190.151 422.567 193.966 422.472 195.25C422.262 198.087 420.031 202.055 417.389 203.222C414.054 204.696 419.493 203.719 421 204.389C422.732 205.159 424.405 201.674 424.972 200.444C426.532 197.065 424.483 193.845 422.722 191.028C420.99 188.256 418.616 185.577 418.5 182.111C418.445 180.47 419.893 176.409 421.611 178.722C424.094 182.064 426.676 185.37 426.972 189.667C427.302 194.443 425.679 195.374 422.722 198.528C420.347 201.062 417.973 202.589 415.278 204.611C414.256 205.377 409.352 207.963 411.5 208.5" stroke="white" stroke-width="4" stroke-linecap="round" stroke-linejoin="round"/>
<path d="M342.5 194.5C341.982 194.893 339.941 197.167 339.611 195.667C339.49 195.116 339.742 191.947 339.444 193.583C338.773 197.277 335.505 198.2 335.111 193.778C334.954 192.015 334.721 188.636 336.778 187.722C338.546 186.937 339.061 190.996 338.694 191.972C338.222 193.232 333.027 198.074 336.056 196.056C337.778 194.907 340.102 192.823 342.278 192.611C344.96 192.349 345.281 196.905 344.222 198.417C343.006 200.154 342.993 199.507 344.222 198.278C345.871 196.629 343.543 198.241 342.667 198.5C342.498 198.55 339.222 199.178 339.222 199C339.222 198.741 340.97 197.392 340.694 197.778C340.101 198.608 336.504 200.752 338 201.5" stroke="white" stroke-width="4" stroke-linecap="round" stroke-linejoin="round"/>
<path d="M226 166.5C223.029 168.311 221.565 170.666 219.806 173.667C218.357 176.137 216.22 178.059 216.028 181.139C215.508 189.454 217.115 196.023 220.306 203.639C224.115 212.732 230.28 218.852 237.167 225.667C243.09 231.528 249.109 237.373 258 237.5C264.375 237.591 270.06 236.385 276.278 235.194C282.66 233.972 289.037 231.29 295 228.75C299.184 226.968 302.359 224.879 304.472 220.722C313.578 202.815 314.924 183.756 304.694 166.444C302.021 161.92 299.107 156.464 295.111 153C293.169 151.316 291.549 148.965 289.167 147.889C285.815 146.375 283.001 146 279.333 146C274.809 146 270.332 145.163 265.778 145.528C263.739 145.691 261.555 146.382 259.722 147.25C256.657 148.702 253.026 148.803 249.806 149.75C246.333 150.771 242.908 151.509 239.5 152.611C236.22 153.672 233.858 156.987 231.5 159.278C228.696 162.002 225.59 164.94 223 167.889C220.503 170.733 218.774 173.968 216.5 177" stroke="black" stroke-width="4" stroke-linecap="round" stroke-linejoin="round"/>
<path d="M249.5 151.5C247.109 155.804 245.288 161.356 246.278 166.306C247.021 170.024 248.704 171.381 251 174.111C256.742 180.939 267.452 181.302 275.25 178.25C280.864 176.053 284.365 169.544 288.194 165.25C290.035 163.187 290.651 160.729 292 158.389C293.079 156.517 295 154.729 295 152.5" stroke="black" stroke-width="4" stroke-linecap="round" stroke-linejoin="round"/>
<path d="M305 174C300.35 171.343 298.591 173.046 294.5 175.5" stroke="black" stroke-width="4" stroke-linecap="round" stroke-linejoin="round"/>
<path d="M306 176.5C304.73 173.437 304.388 173.5 301.389 173.5C298.526 173.5 295.735 173.722 293.056 174.889C287.462 177.325 281.287 185.22 279.5 191C276.796 199.749 287.874 204.866 294.778 205.889C299.124 206.533 303.602 206.5 308 206.5" stroke="black" stroke-width="4" stroke-linecap="round" stroke-linejoin="round"/>
<path d="M235 221C237.007 215.215 242.578 209.089 248.25 206.778C254.903 204.067 259.513 205.992 264.778 210C270.527 214.376 274.473 220.57 279.694 225.389C281.75 227.286 280.065 231.74 279.5 234" stroke="black" stroke-width="4" stroke-linecap="round" stroke-linejoin="round"/>
<path d="M226.5 164.5C234.012 163.069 237.1 168.269 241.389 173.556C243.666 176.362 246.232 177.754 246.472 181.722C246.693 185.365 243.715 188.005 241.444 190.528C239.362 192.842 237.843 195.99 235.111 197.667C233.239 198.816 231.209 199.737 229.528 201.25C227.495 203.079 225.288 204.475 223 206" stroke="black" stroke-width="4" stroke-linecap="round" stroke-linejoin="round"/>
<path d="M246.5 155.5C245.333 155.5 244.167 155.5 243 155.5" stroke="black" stroke-width="4" stroke-linecap="round" stroke-linejoin="round"/>
<path d="M298.5 165.5C297.291 166.391 294.985 167.566 294.528 169.167C294.245 170.158 295.641 167.277 295.556 166.25C295.463 165.14 293.94 168.831 292.944 168.333C292.223 167.973 293.807 166.97 294.222 166.278C294.681 165.513 295.111 164.739 295.611 164C296.453 162.756 293.727 165.292 293.583 165.417C291.73 167.023 292.15 166.679 292.778 164.5C293.459 162.136 294.221 155.093 294.944 157.444C295.295 158.584 294.466 160.372 296.25 158.944C297.176 158.204 297.375 157.163 297.611 158.556C297.973 160.689 298.768 162.633 299.611 164.611C300.19 165.97 301.231 167.96 299.722 169.194C298.794 169.954 295.807 167.046 294.389 167C292.333 166.934 291.013 168.916 289.778 170.222C288.484 171.59 283.169 177.138 287.583 172.944C287.744 172.792 291.476 169.6 291.556 169.944C291.686 170.509 289.859 171.294 290.833 171.889C292.655 173.002 296.798 171.876 298.556 171.056C299.744 170.501 295.932 170.055 295.5 170.028C292.487 169.839 289.915 171 287 171C281.94 171 281.061 177.882 278 181C277.739 181.265 275.338 183.718 275.944 183.611C277.835 183.277 279.749 181.56 281.139 180.333C282.943 178.741 281.44 179.788 284.528 177.472C285.841 176.487 287.578 175.62 288.778 174.5C289.142 174.16 286.67 176.231 288 175.111C290.575 172.943 294.348 168.693 297.556 171.722C301.404 175.357 306.125 165.819 300 166.5C299.293 166.579 299.343 168.047 299.167 168.528C298.64 169.964 297.233 171.758 295.806 172.417C294.114 173.197 292.452 174.863 291 176.111C289.089 177.754 287.644 179.287 285.389 180.556C284.104 181.278 275.219 186.352 275.028 184.722C275.017 184.628 274.99 183.255 274.889 183.333C273.64 184.294 272.286 185.182 271.056 186.167C270.133 186.905 272.965 184.732 274.056 184.278C277.989 182.639 275.462 184.618 273.556 186.194C272.677 186.921 270.054 188.856 270.556 187.833C271.612 185.68 276.55 180.629 274.444 181.778C272.627 182.769 264.748 190.671 266.889 184.444C267.758 181.917 265.175 184.944 264.306 185.583C263.359 186.279 255.856 191.199 259.778 187.278C262.472 184.584 261.17 185.981 259.472 187.806C255.736 191.822 258.352 188.414 258.944 188.611C259.203 188.697 248.742 200.031 251.833 194.389C252.21 193.702 255.044 190.532 253.222 192.667C252.446 193.577 245.674 202.026 245.222 201.611C244.512 200.96 245.245 198.757 245.972 198.333C248.02 197.139 243.614 202.591 241.75 204.056C240.571 204.982 241.4 200.661 241.5 200.222C241.954 198.237 242.509 198.231 241.222 199.833C240.924 200.204 237.234 203.352 238.806 201.5C241.471 198.359 244.963 195.73 248.333 193.389C250.198 192.094 250.015 193.488 248.778 194.361C247.392 195.339 248.843 190.97 248.917 190.639C249.244 189.166 248.891 189.493 248 189.889C247.177 190.254 246.805 185.619 246.722 185.111C246.428 183.312 246.059 180.688 246.806 179.028C247.052 178.48 248.121 177.663 247.889 177C247.336 175.421 246.774 174.207 246.5 172.444C246.252 170.853 246.438 168.071 244.389 168C242.724 167.943 241.717 167.047 241.111 165.5C240.589 164.166 240.907 162.66 240.444 161.389C240.113 160.478 237.083 163.283 237.222 160.361C237.251 159.761 238.767 156.591 238.389 158.389C238.286 158.877 236.377 160.655 236.333 160.333C236.154 159.021 238.902 156.245 240 155.806C241.562 155.181 238.003 158.801 236.417 159.361C233.854 160.265 241.234 156.598 243.917 156.167C245.087 155.979 252.322 155.057 249 158.194C247.427 159.68 238.7 159.981 240.722 156.889C241.147 156.24 241.753 155.789 242.361 155.333C245.645 152.871 235.675 160.099 232.25 162.361C229.489 164.185 236.9 158.369 237.333 158.083C237.648 157.876 245.73 153.835 244.5 155.778C242.767 158.514 240.387 160.835 238.111 163.111C236.728 164.494 235.615 164.768 237.389 163.389C238.421 162.586 238.973 165.489 239.222 166.056C239.878 167.545 241.862 164.566 242.361 163.917C242.54 163.684 243.219 166.689 243.389 167.222C244.285 170.028 242.543 165.481 242.389 165.056C241.746 163.28 240.5 160.949 240.5 159C240.5 158.289 241.244 158.456 241.5 158.944C243.669 163.086 244.698 168.536 247.778 172.056C250.02 174.618 251.467 177.932 252.25 181.222C253.336 185.783 250.152 178.548 249.778 177.667C248.097 173.702 245.5 170.088 241.722 168C240.714 167.443 239.045 165.989 238.278 165.222C237.642 164.586 240.26 170.258 241.056 171.222C243.044 173.631 244.679 176.623 246.861 178.806C249.402 181.347 251.903 182.607 253.222 186C254.121 188.312 250.812 190.867 248.611 190.5C246.07 190.076 247.468 184.324 248 183.056C248.216 182.541 250.709 178.68 250.389 181.333C250.276 182.269 250.119 184.238 249.306 184.889C249.22 184.957 249.55 184.551 249.722 184.5C250.701 184.209 251.646 184.771 252.417 185.306C256.044 187.824 246.09 189.484 253.278 184.556C255.371 183.12 259.22 181.261 261.889 182.222C264.451 183.144 261.392 185.701 260.278 186.167C257.5 187.326 248.843 187.799 254.667 183.722C255.14 183.391 259.777 180.316 260.389 181.111C261.85 183.011 253.879 185.77 253 185.889C252.239 185.992 249.69 185.99 250.222 184.333C250.687 182.887 256.32 182.45 257.5 182.944C260.385 184.153 259.598 187.459 256.778 187.972C256.257 188.067 257.609 187.276 258.111 187.111C259.674 186.597 261.664 186.026 261.889 188.278C262.08 190.19 259.74 190.055 258.806 189C257.942 188.025 257.033 183.869 255.75 183.583C253.642 183.115 248.252 186.782 247.056 188.25C242.918 193.327 240.557 198.262 235.111 202.278C234.651 202.617 230.847 204.892 231.333 204.25C232.226 203.072 241.489 194.893 241.806 196C242.389 198.043 239.607 200.865 238.333 202.056C237.595 202.746 234.384 205.662 237.222 203.333C237.424 203.168 240.106 200.838 239.778 200.444C239.635 200.273 239.353 200.598 239.167 200.722C238.531 201.149 235.298 203.661 235 203.889C233.657 204.913 231.377 206.642 230.167 207.5C228.854 208.43 228.079 209.459 226.639 209.639C225.377 209.797 228.295 207.705 229.194 206.806C230.491 205.509 229.956 206.169 229.5 207.194C229.297 207.652 228.429 207.788 228 207.889C226.387 208.268 227.258 207.727 227.444 206.833C227.565 206.254 219.979 205.861 221.833 208.5C222.869 209.974 224.896 211.109 226.167 212.417C228.242 214.551 229.026 213.02 231.139 211.611C234.25 209.537 230.133 212.12 231.222 213.278C232.695 214.843 237.151 207.314 236.278 209.278C235.665 210.657 232.572 214.014 233.306 212.694C233.715 211.957 234.692 211.204 233.417 212.306C232.768 212.866 231.041 213.976 230.944 214.944C230.891 215.481 231.974 214.383 232.5 214.5C233.03 214.618 233.976 219.483 234.472 217.25C234.832 215.63 230.932 215.822 230.222 215C228.436 212.932 229.735 209.185 231.611 207.778C233.066 206.686 236.198 203.834 233.639 207.417C232.186 209.45 243.393 202.829 238.722 208.667C238.133 209.404 237.154 209.838 236.639 210.611C236.188 211.287 238.69 208.163 238.389 208.917C237.524 211.079 235.926 211.671 234.028 212.778C231.801 214.077 231.101 214.728 234.167 212.444C236.857 210.44 240.387 206.745 243.611 205.5C247.239 204.098 252.379 205 256.278 205C260.091 205 263.055 207.662 266.889 208.111C268.908 208.347 271.203 208.282 272.278 210.333C273.618 212.891 275.882 214.962 277.5 217.389C278.659 219.127 279.017 221.991 279.389 224C279.804 226.241 281.268 227.21 282 229.222C283.121 232.305 284.617 229.506 286.278 228.222C287.656 227.157 289.053 226.212 290.028 224.75C290.974 223.33 292.258 223.112 293.361 222.333C295.172 221.055 296.62 218.91 298.167 217.333C299.306 216.171 302 214.338 302 212.5C302 210.987 302.504 210.303 303.722 209.306C305.712 207.677 303.753 210.715 303.278 211.333C301.298 213.913 299.589 216.611 297.778 219.278C296.187 221.62 293.545 223.455 291.556 225.444C290.951 226.049 286.521 228.881 289.056 229.444C293.764 230.491 298.805 225.504 301 221.889C303.068 218.483 304.469 213.636 305.5 209.833C305.843 208.569 305.756 208.744 304.889 209.611C303.258 211.242 301.279 212.905 300.556 215.167C299.921 217.151 298.615 219.286 297.472 221C296.387 222.628 294.583 226.232 292.611 226.889C291.184 227.365 287.907 224.895 286.389 224.389C284.302 223.693 281.978 223.252 280.639 221.361C278.643 218.544 275.93 215.486 273.472 213.028C272.016 211.572 270.205 211.182 268.611 210C266.732 208.606 265.368 206.466 263.194 205.5C259.363 203.797 254.223 202.711 250 202.5C249.224 202.461 247.301 202.967 247.528 201.722C247.993 199.161 250.883 197.97 252.556 196.417C256.426 192.823 260.843 190.771 265 188" stroke="black" stroke-width="4" stroke-linecap="round" stroke-linejoin="round"/>
<path d="M269 188.5C266.36 191.089 258.129 198.524 260.778 195.944C263.476 193.317 272.267 186.248 269.667 188.972C265.915 192.903 261.058 196.087 256.389 198.833C253.4 200.592 255.244 197.774 256.194 196.306C257.876 193.707 259.842 191.438 262 189.222C262.882 188.317 263.796 187.444 264.694 186.556C265.584 185.676 268.449 184.273 267.278 183.833C265.787 183.274 261.219 187.878 259.278 188.389C255.975 189.258 257.214 184.615 257.556 182.833C257.99 180.567 260.787 177.073 257.389 178.444C256.124 178.955 251.444 179.675 250.611 180.611C250.357 180.896 251.099 181.199 251.333 181.5C252.987 183.626 253.032 186.57 252.583 189.111C252.007 192.377 249.697 194.643 248.833 197.667C248.602 198.476 250.544 197.57 250.778 197.528C254.965 196.766 256.813 200.327 259.111 203C261.784 206.109 265.509 208.061 269.222 209.639C271.349 210.543 273.185 212.211 275.278 213.278C279.187 215.27 286.444 218.559 287.917 223.222C288.402 224.76 284.404 229.944 282.833 229.944C282.291 229.944 283.37 228.999 283.583 228.5C284.079 227.344 285.714 226.214 286.5 225.167C289.648 220.97 282.5 224.926 282.5 222.5C282.5 218.642 277.564 214.416 275.278 211.528C273.974 209.88 272.157 209.077 270.778 207.556C267.902 204.384 266.847 199.228 267.333 195.056C267.549 193.207 269.817 189.632 267 191.667C266.649 191.92 259.81 196.738 262.889 196.528C265.369 196.359 267.855 194.817 269.889 193.556C272.221 192.109 277.566 186.563 276.889 189.222C275.907 193.079 270.011 197.504 267.083 200.139C263.698 203.185 269.783 197.667 270 197.472C271.322 196.286 275.252 194.234 273.611 193.556C272.08 192.922 267.93 196.657 266.889 197.444C265.773 198.288 262.845 200.023 265.667 198.861C266.425 198.549 264.416 203.064 263.278 203.667C262.413 204.124 259.47 201.909 258.444 201.25C255.538 199.382 261.633 202.105 262.472 202.722C265.239 204.756 267.882 207.001 270.75 208.889C274.311 211.233 278.926 211.568 282.278 214.111C284.713 215.958 287.578 221.378 291.111 221C292.491 220.852 294.163 218.164 295.111 217.278C296.803 215.697 298.149 213.851 299.778 212.222C300.314 211.686 302.691 210 300.889 210C298.582 210 296.28 210.665 293.972 210.472C288.746 210.037 283.637 206.281 279.389 203.389C276.067 201.127 276.172 197.216 274.5 194.111C274.048 193.271 275.363 193.314 275.889 193.611C277.078 194.283 272.844 199.317 272.361 200.083C269.675 204.35 272.955 207.561 277.25 209.667C280.521 211.27 283.558 212.901 286.5 214.889C287.117 215.306 289.99 217.158 289.167 214.944C287.864 211.443 283.755 207.79 280.5 206C277.896 204.568 277.381 203.321 275.889 200.889C275.098 199.6 267.942 194.956 272 198" stroke="black" stroke-width="4" stroke-linecap="round" stroke-linejoin="round"/>
<path d="M270 179.5C268.672 179.814 264.404 180.015 266.75 181.278C268.176 182.046 272.881 183.365 271.333 182.889C269.349 182.278 264.131 179.815 262.472 181.889C261.396 183.234 260.018 185.068 259.5 186.75C258.734 189.239 256.084 189.859 255 192.028C254.414 193.2 254.346 194.983 253.667 195.972C252.917 197.063 250.909 197.112 250.556 198.528C249.723 201.857 253.592 204.531 256.667 203.972C257.195 203.876 257.615 200.058 258.306 199.444C260.616 197.391 262.07 197.753 264.528 199.75C265.739 200.734 267.251 201.989 268.194 203.222C268.976 204.244 270.137 204.203 271 205.306C273.812 208.898 277.135 209.5 281.611 209.5C282.281 209.5 285.211 209.961 284.278 209.056C282.861 207.68 281.405 207.053 279.611 206.389C278.126 205.839 274.859 204.415 273.722 203.278C272.07 201.625 270.898 200.401 268.833 199.111C268.058 198.627 273.798 200.701 274.667 201.111C277.7 202.543 279.646 205.202 282.556 206.611C285.619 208.095 288.356 209.414 291.111 211.389C293.534 213.125 295.948 214.109 298.778 215C301.052 215.716 299.112 213.997 298.222 213.5C296.436 212.502 291.703 211.729 290.611 210C289.069 207.558 285.976 204.985 283.5 203.5" stroke="black" stroke-width="4" stroke-linecap="round" stroke-linejoin="round"/>
<path d="M293.5 216.5C291.573 216.974 287.4 218.897 289.611 215.5C291.706 212.28 293.896 215.847 291.333 217.556C289.499 218.778 289.135 216.707 289.611 215.278C290.001 214.11 291.173 213.256 292.278 212.833C293.227 212.47 294.942 213.271 295.611 212.889C296.228 212.536 291.467 210.02 291.028 209.778C288.688 208.491 287.087 206.785 285.028 205.056C281.181 201.824 273.764 197.382 275 191.556C275.634 188.569 275.692 186.036 277.389 183.333C279.052 180.683 281.214 177.858 283.389 175.611C284.355 174.613 295.477 164.617 292.417 163.278C291.279 162.78 288.111 163.636 288.111 165.222C288.111 167.229 298.275 171.282 299.944 172.056C302.331 173.162 300.783 172.641 299.5 172C295.551 170.025 290.928 168.465 286.556 170.278C284.656 171.065 282.765 173.057 281.056 174.222C279.274 175.437 277.414 176.656 276 178.306C274.048 180.583 272.645 183.094 270.444 185.25C265.998 189.608 263.481 195.429 259 199.611C256.144 202.276 252.492 204.001 249.111 205.889C245.816 207.729 243.533 210.461 240.556 212.722C238.451 214.32 235.406 215.092 232.833 215.389C231.881 215.499 227.344 215.265 230.639 215.75C233.822 216.218 236.984 214.807 239.194 212.5C241.742 209.842 245.055 207.826 247.861 205.389C253.903 200.142 262.837 203.252 270.222 201.611C275.008 200.548 280.287 200.867 285.111 201.5C285.989 201.615 290.025 201.499 290.556 202.361C291.612 204.077 294.4 207.8 292 209" stroke="black" stroke-width="4" stroke-linecap="round" stroke-linejoin="round"/>
<path d="M285.5 221C284.671 224.868 282.073 227.5 278 227.5" stroke="black" stroke-width="4" stroke-linecap="round" stroke-linejoin="round"/>
<path d="M252 196.5C252.399 197.002 257.655 202.227 255.5 201.639C254.45 201.353 250 200.187 250 199.5" stroke="black" stroke-width="4" stroke-linecap="round" stroke-linejoin="round"/>
<path d="M276 187.5C276.898 186.357 277.698 185.203 278.5 184" stroke="black" stroke-width="4" stroke-linecap="round" stroke-linejoin="round"/>
<path d="M299 172.5C299.317 172.311 304.22 170.025 303.889 169.611C302.497 167.871 299.907 167.332 298.75 165.25C298.135 164.143 298.797 162.944 298.972 161.806C299.228 160.144 295.607 159.443 294.5 159" stroke="black" stroke-width="4" stroke-linecap="round" stroke-linejoin="round"/>
<path d="M341.914 166.064C338.944 167.876 337.479 170.23 335.72 173.231C334.272 175.701 332.135 177.623 331.942 180.703C331.422 189.018 333.029 195.587 336.22 203.203C340.029 212.296 346.194 218.416 353.081 225.231C359.004 231.092 365.023 236.937 373.914 237.064C380.289 237.155 385.974 235.949 392.192 234.759C398.574 233.537 404.951 230.854 410.914 228.314C415.098 226.532 418.273 224.443 420.387 220.286C429.492 202.379 430.838 183.32 420.609 166.009C417.935 161.485 415.022 156.028 411.025 152.564C409.083 150.881 407.464 148.529 405.081 147.453C401.729 145.939 398.915 145.564 395.248 145.564C390.723 145.564 386.246 144.728 381.692 145.092C379.654 145.255 377.47 145.946 375.637 146.814C372.571 148.266 368.94 148.367 365.72 149.314C362.247 150.335 358.822 151.073 355.414 152.175C352.134 153.236 349.773 156.551 347.414 158.842C344.61 161.566 341.504 164.504 338.914 167.453C336.417 170.297 334.688 173.533 332.414 176.564" stroke="black" stroke-width="4" stroke-linecap="round" stroke-linejoin="round"/>
<path d="M365.414 151.064C363.023 155.368 361.202 160.92 362.192 165.87C362.936 169.588 364.619 170.945 366.914 173.675C372.656 180.503 383.366 180.866 391.164 177.814C396.778 175.617 400.279 169.108 404.109 164.814C405.949 162.751 406.566 160.293 407.914 157.953C408.993 156.081 410.914 154.293 410.914 152.064" stroke="black" stroke-width="4" stroke-linecap="round" stroke-linejoin="round"/>
<path d="M420.914 173.564C416.265 170.907 414.505 172.61 410.414 175.064" stroke="black" stroke-width="4" stroke-linecap="round" stroke-linejoin="round"/>
<path d="M421.914 176.064C420.644 173.001 420.303 173.064 417.303 173.064C414.44 173.064 411.649 173.286 408.97 174.453C403.376 176.889 397.201 184.784 395.414 190.564C392.71 199.313 403.788 204.43 410.692 205.453C415.038 206.097 419.516 206.064 423.914 206.064" stroke="black" stroke-width="4" stroke-linecap="round" stroke-linejoin="round"/>
<path d="M350.914 220.564C352.922 214.779 358.492 208.653 364.164 206.342C370.818 203.631 375.427 205.556 380.692 209.564C386.441 213.94 390.388 220.134 395.609 224.953C397.664 226.85 395.979 231.304 395.414 233.564" stroke="black" stroke-width="4" stroke-linecap="round" stroke-linejoin="round"/>
<path d="M342.414 164.064C349.927 162.633 353.014 167.833 357.303 173.12C359.58 175.926 362.146 177.318 362.387 181.286C362.607 184.929 359.63 187.569 357.359 190.092C355.276 192.406 353.757 195.554 351.025 197.231C349.153 198.38 347.124 199.301 345.442 200.814C343.41 202.644 341.202 204.039 338.914 205.564" stroke="black" stroke-width="4" stroke-linecap="round" stroke-linejoin="round"/>
<path d="M362.414 155.064C361.248 155.064 360.081 155.064 358.914 155.064" stroke="black" stroke-width="4" stroke-linecap="round" stroke-linejoin="round"/>
<path d="M414.414 165.064C413.206 165.955 410.899 167.13 410.442 168.731C410.159 169.722 411.555 166.841 411.47 165.814C411.377 164.704 409.855 168.395 408.859 167.897C408.137 167.537 409.721 166.534 410.137 165.842C410.595 165.077 411.026 164.303 411.525 163.564C412.367 162.32 409.642 164.856 409.498 164.981C407.644 166.587 408.064 166.244 408.692 164.064C409.373 161.7 410.135 154.657 410.859 157.009C411.21 158.148 410.38 159.936 412.164 158.509C413.09 157.768 413.289 156.727 413.525 158.12C413.887 160.253 414.682 162.197 415.525 164.175C416.104 165.534 417.145 167.524 415.637 168.759C414.709 169.518 411.721 166.61 410.303 166.564C408.247 166.498 406.928 168.48 405.692 169.786C404.398 171.154 399.084 176.702 403.498 172.509C403.658 172.356 407.39 169.164 407.47 169.509C407.6 170.073 405.774 170.858 406.748 171.453C408.569 172.566 412.712 171.44 414.47 170.62C415.658 170.065 411.846 169.619 411.414 169.592C408.401 169.404 405.829 170.564 402.914 170.564C397.854 170.564 396.975 177.446 393.914 180.564C393.654 180.83 391.253 183.282 391.859 183.175C393.75 182.842 395.663 181.124 397.053 179.897C398.858 178.305 397.354 179.352 400.442 177.036C401.756 176.051 403.492 175.184 404.692 174.064C405.057 173.724 402.585 175.795 403.914 174.675C406.489 172.507 410.262 168.257 413.47 171.286C417.319 174.921 422.039 165.384 415.914 166.064C415.207 166.143 415.257 167.612 415.081 168.092C414.554 169.528 413.147 171.322 411.72 171.981C410.029 172.761 408.366 174.427 406.914 175.675C405.004 177.318 403.558 178.851 401.303 180.12C400.018 180.843 391.134 185.916 390.942 184.286C390.931 184.192 390.905 182.819 390.803 182.897C389.554 183.858 388.2 184.746 386.97 185.731C386.047 186.469 388.879 184.296 389.97 183.842C393.903 182.203 391.377 184.182 389.47 185.759C388.592 186.485 385.968 188.42 386.47 187.397C387.526 185.244 392.465 180.193 390.359 181.342C388.541 182.333 380.663 190.235 382.803 184.009C383.672 181.481 381.089 184.508 380.22 185.147C379.274 185.843 371.771 190.763 375.692 186.842C378.386 184.148 377.084 185.545 375.387 187.37C371.65 191.386 374.266 187.978 374.859 188.175C375.117 188.261 364.656 199.596 367.748 193.953C368.124 193.266 370.958 190.096 369.137 192.231C368.36 193.141 361.589 201.59 361.137 201.175C360.426 200.524 361.16 198.321 361.887 197.897C363.934 196.703 359.528 202.155 357.664 203.62C356.485 204.546 357.314 200.226 357.414 199.786C357.868 197.801 358.423 197.795 357.137 199.397C356.839 199.768 353.148 202.916 354.72 201.064C357.385 197.923 360.877 195.294 364.248 192.953C366.113 191.658 365.93 193.052 364.692 193.925C363.307 194.903 364.757 190.534 364.831 190.203C365.158 188.73 364.805 189.057 363.914 189.453C363.092 189.819 362.719 185.183 362.637 184.675C362.343 182.876 361.973 180.252 362.72 178.592C362.966 178.044 364.035 177.227 363.803 176.564C363.25 174.985 362.689 173.771 362.414 172.009C362.166 170.417 362.353 167.635 360.303 167.564C358.638 167.507 357.631 166.611 357.025 165.064C356.503 163.73 356.821 162.224 356.359 160.953C356.027 160.042 352.997 162.847 353.137 159.925C353.165 159.325 354.682 156.155 354.303 157.953C354.2 158.441 352.292 160.219 352.248 159.897C352.069 158.585 354.816 155.809 355.914 155.37C357.477 154.745 353.918 158.365 352.331 158.925C349.769 159.83 357.148 156.162 359.831 155.731C361.001 155.543 368.236 154.621 364.914 157.759C363.342 159.244 354.615 159.545 356.637 156.453C357.061 155.804 357.668 155.353 358.275 154.897C361.559 152.435 351.589 159.663 348.164 161.925C345.403 163.749 352.814 157.933 353.248 157.647C353.562 157.44 361.645 153.399 360.414 155.342C358.681 158.078 356.302 160.399 354.025 162.675C352.643 164.058 351.53 164.332 353.303 162.953C354.336 162.15 354.887 165.053 355.137 165.62C355.792 167.109 357.776 164.13 358.275 163.481C358.454 163.248 359.133 166.253 359.303 166.786C360.199 169.592 358.457 165.045 358.303 164.62C357.66 162.844 356.414 160.513 356.414 158.564C356.414 157.853 357.159 158.021 357.414 158.509C359.584 162.65 360.613 168.1 363.692 171.62C365.934 174.182 367.381 177.496 368.164 180.786C369.25 185.347 366.066 178.112 365.692 177.231C364.011 173.266 361.414 169.652 357.637 167.564C356.628 167.007 354.959 165.553 354.192 164.786C353.556 164.15 356.174 169.822 356.97 170.786C358.958 173.195 360.593 176.187 362.775 178.37C365.317 180.911 367.817 182.171 369.137 185.564C370.036 187.876 366.726 190.431 364.525 190.064C361.984 189.64 363.382 183.888 363.914 182.62C364.13 182.105 366.624 178.244 366.303 180.897C366.19 181.833 366.033 183.803 365.22 184.453C365.135 184.521 365.465 184.115 365.637 184.064C366.615 183.773 367.561 184.335 368.331 184.87C371.958 187.389 362.005 189.048 369.192 184.12C371.285 182.685 375.134 180.826 377.803 181.786C380.365 182.709 377.307 185.265 376.192 185.731C373.414 186.891 364.757 187.363 370.581 183.286C371.054 182.955 375.691 179.88 376.303 180.675C377.765 182.575 369.794 185.334 368.914 185.453C368.154 185.556 365.604 185.554 366.137 183.897C366.601 182.451 372.235 182.014 373.414 182.509C376.3 183.717 375.512 187.024 372.692 187.536C372.172 187.631 373.523 186.84 374.025 186.675C375.589 186.161 377.578 185.59 377.803 187.842C377.994 189.754 375.654 189.619 374.72 188.564C373.856 187.589 372.948 183.433 371.664 183.147C369.556 182.679 364.166 186.346 362.97 187.814C358.833 192.891 356.471 197.826 351.025 201.842C350.565 202.181 346.762 204.456 347.248 203.814C348.14 202.636 357.404 194.457 357.72 195.564C358.304 197.607 355.521 200.429 354.248 201.62C353.51 202.31 350.298 205.226 353.137 202.897C353.338 202.732 356.02 200.402 355.692 200.009C355.549 199.837 355.267 200.162 355.081 200.286C354.445 200.713 351.213 203.225 350.914 203.453C349.572 204.478 347.292 206.206 346.081 207.064C344.768 207.994 343.993 209.023 342.553 209.203C341.291 209.361 344.209 207.269 345.109 206.37C346.406 205.073 345.87 205.733 345.414 206.759C345.211 207.216 344.344 207.352 343.914 207.453C342.302 207.832 343.173 207.291 343.359 206.397C343.48 205.818 335.893 205.425 337.748 208.064C338.784 209.538 340.81 210.673 342.081 211.981C344.156 214.115 344.94 212.584 347.053 211.175C350.164 209.101 346.047 211.685 347.137 212.842C348.609 214.407 353.065 206.878 352.192 208.842C351.579 210.221 348.487 213.578 349.22 212.259C349.63 211.521 350.606 210.768 349.331 211.87C348.682 212.43 346.956 213.54 346.859 214.509C346.805 215.045 347.888 213.947 348.414 214.064C348.945 214.182 349.89 219.047 350.387 216.814C350.747 215.194 346.846 215.386 346.137 214.564C344.35 212.496 345.649 208.749 347.525 207.342C348.981 206.251 352.112 203.398 349.553 206.981C348.101 209.014 359.307 202.393 354.637 208.231C354.047 208.968 353.068 209.402 352.553 210.175C352.103 210.851 354.605 207.727 354.303 208.481C353.438 210.644 351.84 211.235 349.942 212.342C347.715 213.641 347.016 214.292 350.081 212.009C352.771 210.004 356.302 206.31 359.525 205.064C363.153 203.663 368.294 204.564 372.192 204.564C376.005 204.564 378.97 207.227 382.803 207.675C384.823 207.912 387.117 207.846 388.192 209.897C389.532 212.455 391.797 214.526 393.414 216.953C394.573 218.691 394.931 221.555 395.303 223.564C395.718 225.805 397.183 226.774 397.914 228.786C399.035 231.869 400.531 229.07 402.192 227.786C403.571 226.721 404.968 225.776 405.942 224.314C406.889 222.894 408.172 222.676 409.275 221.897C411.086 220.619 412.535 218.474 414.081 216.897C415.221 215.735 417.914 213.902 417.914 212.064C417.914 210.551 418.418 209.867 419.637 208.87C421.627 207.241 419.667 210.279 419.192 210.897C417.212 213.478 415.503 216.175 413.692 218.842C412.101 221.184 409.46 223.019 407.47 225.009C406.865 225.614 402.435 228.445 404.97 229.009C409.678 230.055 414.72 225.068 416.914 221.453C418.982 218.047 420.383 213.2 421.414 209.397C421.757 208.134 421.671 208.308 420.803 209.175C419.172 210.806 417.194 212.469 416.47 214.731C415.835 216.715 414.529 218.85 413.387 220.564C412.301 222.192 410.497 225.796 408.525 226.453C407.098 226.929 403.821 224.459 402.303 223.953C400.216 223.257 397.892 222.816 396.553 220.925C394.558 218.108 391.845 215.05 389.387 212.592C387.93 211.136 386.119 210.747 384.525 209.564C382.647 208.17 381.282 206.03 379.109 205.064C375.278 203.361 370.138 202.275 365.914 202.064C365.139 202.025 363.216 202.531 363.442 201.286C363.908 198.725 366.797 197.534 368.47 195.981C372.34 192.387 376.757 190.335 380.914 187.564" stroke="black" stroke-width="4" stroke-linecap="round" stroke-linejoin="round"/>
<path d="M384.914 188.064C382.275 190.653 374.043 198.088 376.692 195.508C379.39 192.881 388.181 185.812 385.581 188.536C381.829 192.467 376.972 195.651 372.303 198.397C369.314 200.156 371.159 197.338 372.109 195.87C373.79 193.271 375.756 191.002 377.914 188.786C378.796 187.881 379.71 187.008 380.609 186.12C381.499 185.24 384.363 183.837 383.192 183.397C381.702 182.838 377.134 187.442 375.192 187.953C371.889 188.822 373.128 184.179 373.47 182.397C373.905 180.131 376.701 176.637 373.303 178.008C372.038 178.519 367.358 179.239 366.525 180.175C366.272 180.46 367.013 180.763 367.248 181.064C368.902 183.19 368.946 186.134 368.498 188.675C367.921 191.941 365.611 194.207 364.748 197.231C364.517 198.04 366.458 197.134 366.692 197.092C370.88 196.33 372.728 199.891 375.025 202.564C377.699 205.674 381.423 207.625 385.137 209.203C387.263 210.107 389.1 211.775 391.192 212.842C395.102 214.834 402.359 218.124 403.831 222.786C404.317 224.324 400.319 229.508 398.748 229.508C398.205 229.508 399.284 228.563 399.498 228.064C399.993 226.908 401.629 225.778 402.414 224.731C405.562 220.534 398.414 224.49 398.414 222.064C398.414 218.206 393.479 213.98 391.192 211.092C389.888 209.444 388.071 208.641 386.692 207.12C383.817 203.948 382.761 198.792 383.248 194.62C383.463 192.771 385.732 189.196 382.914 191.231C382.563 191.484 375.724 196.302 378.803 196.092C381.284 195.923 383.769 194.381 385.803 193.12C388.135 191.673 393.48 186.127 392.803 188.786C391.821 192.643 385.925 197.068 382.998 199.703C379.613 202.75 385.698 197.231 385.914 197.036C387.236 195.85 391.166 193.799 389.525 193.12C387.994 192.486 383.844 196.221 382.803 197.008C381.688 197.852 378.759 199.587 381.581 198.425C382.339 198.113 380.33 202.628 379.192 203.231C378.328 203.688 375.385 201.474 374.359 200.814C371.453 198.946 377.547 201.669 378.387 202.286C381.153 204.32 383.797 206.565 386.664 208.453C390.226 210.797 394.84 211.132 398.192 213.675C400.627 215.522 403.493 220.943 407.025 220.564C408.405 220.416 410.077 217.728 411.025 216.842C412.717 215.262 414.064 213.415 415.692 211.786C416.229 211.25 418.606 209.564 416.803 209.564C414.496 209.564 412.195 210.229 409.887 210.036C404.661 209.601 399.551 205.845 395.303 202.953C391.981 200.691 392.086 196.78 390.414 193.675C389.962 192.835 391.277 192.878 391.803 193.175C392.992 193.847 388.758 198.881 388.275 199.647C385.589 203.914 388.869 207.125 393.164 209.231C396.435 210.834 399.472 212.465 402.414 214.453C403.031 214.87 405.905 216.722 405.081 214.508C403.778 211.007 399.67 207.354 396.414 205.564C393.81 204.132 393.296 202.885 391.803 200.453C391.012 199.164 383.856 194.52 387.914 197.564" stroke="black" stroke-width="4" stroke-linecap="round" stroke-linejoin="round"/>
<path d="M385.914 179.064C384.587 179.378 380.318 179.579 382.664 180.842C384.09 181.61 388.795 182.929 387.248 182.453C385.263 181.842 380.045 179.379 378.387 181.453C377.31 182.798 375.932 184.632 375.414 186.314C374.648 188.803 371.999 189.423 370.914 191.592C370.328 192.764 370.261 194.548 369.581 195.536C368.831 196.627 366.824 196.676 366.47 198.092C365.638 201.421 369.507 204.095 372.581 203.536C373.109 203.44 373.529 199.622 374.22 199.009C376.53 196.955 377.984 197.317 380.442 199.314C381.653 200.298 383.165 201.553 384.109 202.786C384.89 203.808 386.051 203.767 386.914 204.87C389.726 208.462 393.049 209.064 397.525 209.064C398.195 209.064 401.125 209.525 400.192 208.62C398.775 207.244 397.319 206.617 395.525 205.953C394.04 205.403 390.774 203.979 389.637 202.842C387.984 201.189 386.812 199.965 384.748 198.675C383.973 198.191 389.713 200.265 390.581 200.675C393.614 202.107 395.561 204.766 398.47 206.175C401.534 207.659 404.27 208.978 407.025 210.953C409.448 212.689 411.862 213.673 414.692 214.564C416.966 215.28 415.026 213.561 414.137 213.064C412.35 212.066 407.617 211.293 406.525 209.564C404.983 207.122 401.89 204.549 399.414 203.064" stroke="black" stroke-width="4" stroke-linecap="round" stroke-linejoin="round"/>
<path d="M409.414 216.064C407.487 216.538 403.315 218.461 405.525 215.064C407.621 211.844 409.811 215.411 407.248 217.12C405.414 218.342 405.049 216.271 405.525 214.842C405.915 213.674 407.087 212.82 408.192 212.397C409.141 212.034 410.856 212.835 411.525 212.453C412.143 212.1 407.382 209.584 406.942 209.342C404.602 208.055 403.001 206.349 400.942 204.62C397.095 201.388 389.678 196.946 390.914 191.12C391.548 188.133 391.607 185.6 393.303 182.897C394.967 180.247 397.128 177.422 399.303 175.175C400.27 174.177 411.391 164.181 408.331 162.842C407.193 162.344 404.025 163.2 404.025 164.786C404.025 166.793 414.189 170.846 415.859 171.62C418.246 172.726 416.697 172.206 415.414 171.564C411.465 169.589 406.842 168.029 402.47 169.842C400.57 170.629 398.68 172.621 396.97 173.786C395.188 175.001 393.328 176.22 391.914 177.87C389.962 180.147 388.559 182.658 386.359 184.814C381.912 189.172 379.395 194.993 374.914 199.175C372.059 201.84 368.406 203.565 365.025 205.453C361.73 207.293 359.447 210.025 356.47 212.286C354.366 213.884 351.321 214.656 348.748 214.953C347.795 215.063 343.258 214.829 346.553 215.314C349.736 215.782 352.898 214.371 355.109 212.064C357.656 209.406 360.969 207.39 363.775 204.953C369.817 199.706 378.751 202.816 386.137 201.175C390.923 200.112 396.202 200.431 401.025 201.064C401.903 201.179 405.939 201.063 406.47 201.925C407.526 203.641 410.315 207.364 407.914 208.564" stroke="black" stroke-width="4" stroke-linecap="round" stroke-linejoin="round"/>
<path d="M401.414 220.564C400.585 224.432 397.987 227.064 393.914 227.064" stroke="black" stroke-width="4" stroke-linecap="round" stroke-linejoin="round"/>
<path d="M367.914 196.064C368.313 196.566 373.569 201.791 371.414 201.203C370.364 200.917 365.914 199.751 365.914 199.064" stroke="black" stroke-width="4" stroke-linecap="round" stroke-linejoin="round"/>
<path d="M391.914 187.064C392.813 185.921 393.612 184.768 394.414 183.564" stroke="black" stroke-width="4" stroke-linecap="round" stroke-linejoin="round"/>
<path d="M414.914 172.064C415.232 171.875 420.134 169.589 419.803 169.175C418.411 167.435 415.821 166.896 414.664 164.814C414.049 163.707 414.711 162.508 414.887 161.37C415.142 159.708 411.521 159.007 410.414 158.564" stroke="black" stroke-width="4" stroke-linecap="round" stroke-linejoin="round"/>
</svg>
