<svg width="226" height="97" viewBox="0 0 226 97" fill="none" xmlns="http://www.w3.org/2000/svg">
<path d="M168.5 10.5C166.189 10.5462 161.624 11.7951 161.5 14.8889C161.441 16.3564 164.091 14.0011 164.5 13.6667C165.17 13.1184 166.858 9.94375 166.389 9.99999C164.745 10.1972 163.197 12.9386 162.111 14.1111C160.567 15.7786 163.259 16.2002 164.389 14.7222C165.564 13.1861 165.955 11.4276 164.111 10.2222C162.842 9.39254 161.94 10.794 162 12C162.087 13.7411 165.541 12.277 163.5 10.5278C161.623 8.91903 159.964 12.5053 160.222 14.0555C160.605 16.3538 164.815 20.5783 165.75 16.5278C166.173 14.6962 167.466 5.77212 164.028 10.5C161.715 13.6799 166.691 20.1533 170.194 18.9167C172.731 18.0214 173.119 14.0042 170.778 12.6667C167.9 11.0224 166.68 20.7141 166.889 22C167.418 25.2492 171.067 21.3098 171.722 20C173.037 17.3696 164.44 19.0651 165.944 23.2778C166.904 25.9635 174.061 26.8925 173.056 22.1667C172.668 20.347 168.22 14.2828 166.389 17.9444C163.922 22.8779 169.803 27.1504 174.389 24.6667C178.821 22.266 167.455 18.4636 165.722 18.6111C163.597 18.792 161.758 23.9017 165 24C166.844 24.0559 168.726 22.845 168.5 20.8889C168.296 19.1187 164.424 19.9341 164.111 21.5C163.671 23.7025 171.294 26.7847 173.139 25.9167C175.628 24.7451 171.21 22.6898 169.694 23.9167C168.004 25.285 166.204 28.4904 167.722 30.5555C169.444 32.8971 173.46 33.1221 176.083 32.9722C178.213 32.8505 178.233 31.8328 176.25 31.5278C175.935 31.4794 174.508 31.6506 175.556 32C177.074 32.506 181.922 33.2719 182.889 31.5C184.006 29.4525 180.857 30.5329 181.111 29.3889C181.461 27.8136 182.161 26.5366 183.056 25.1944C183.314 24.8067 185.903 20.2759 185.278 23.1111C184.677 25.8349 179.847 27.9274 181.444 24.7778C182.67 22.3619 184.999 20.671 187.25 19.3055C193.165 15.7175 186.552 21.729 184.778 22.9444C179.511 26.5529 182.602 19.5993 184.056 17.3889C185.128 15.7586 188.549 11.309 188.167 13.2222C188.028 13.9156 187.201 14.2586 186.667 14.7222C183.68 17.3157 180.467 19.5361 177 21.4444C174.742 22.6872 169.611 26.2996 169.611 23.7222C169.611 19.783 174.688 16.3243 177.444 14.3055C181.054 11.6621 179.954 13.6459 177.778 15.7778C176.134 17.3878 173.899 19.2732 172.111 20.6667C170.621 21.828 167.322 25 165.111 25C161.287 25 167.142 15.9811 167.444 15.6667C169.192 13.8474 180.359 4.37468 182.556 10.2778C183.365 12.4527 179.62 15.5128 178.111 16.4444C176.115 17.6774 171.657 18.9249 169.361 18.1944C163.467 16.319 182.714 1.40497 182.167 8.08333C181.899 11.3526 177.611 14.9372 174.5 15.3889C172.505 15.6785 165.903 16.5252 165.444 13.4444C164.912 9.86756 174.057 2.4708 175.778 6.99999C176.339 8.47629 175.461 9.25117 174.194 9.74999C173.24 10.126 170.702 11.9023 171.556 11.3333C173.984 9.71464 181.036 2.97805 183.611 6.88888C184.884 8.82245 183.27 10.6798 181.306 11.8889C180.841 12.1746 178.991 10.8665 179.111 10.4444C179.669 8.49059 189.784 4.34414 190.889 6.27777C191.387 7.14947 187.479 9.5475 189.306 10.25C192.481 11.4712 195.586 10.2302 198.778 12.2778C201.665 14.1297 196.336 17.0796 194.778 18.2222C191.565 20.5782 188.462 22.8334 185.389 25.2778C182.279 27.7513 174.75 29.3038 171.611 26.3889C170.12 25.0041 168.009 24.0115 166.778 22.3889C164.291 19.1114 160.512 19.7456 156.778 18.6111C154.236 17.839 156.582 18.4206 156.889 19C157.645 20.4275 156.467 22.481 157.306 23.9722C159.248 27.4258 163.278 30.5 167.222 30.5C173.371 30.5 179.304 32.5634 185.5 30.8889C190.014 29.6689 192.203 25.2048 194.611 21.7778C197.216 18.0706 199.754 14.1885 201.944 10.2778C203.886 6.81026 194.834 7.49999 192.722 7.49999C190.737 7.49999 189.278 7.06274 187.472 6.24999C184.291 4.81837 187.426 4.74091 187.389 4.86111C186.368 8.17853 180.903 11.8317 178.444 13.9444C177.295 14.9321 175.907 16.0888 174.5 16.7778C173.984 17.0305 172.473 17.3485 172.778 16.8611C174.205 14.577 179.114 14.0896 181.444 14.2222C184.707 14.4079 177.607 21.0105 176.806 21.7778C174.426 24.0567 170.895 26.3764 167.5 24.7222C163.458 22.7528 165.479 20.0216 168.444 18.4444C170.9 17.1386 178.645 12.8148 181.556 14.3333C183.914 15.564 173.003 22.6274 172.444 22.8889C170.559 23.7712 165.593 25.6751 163.583 23.8333C161.133 21.5876 164.045 16.6939 165.611 14.8889C167.357 12.8768 173.967 9.21182 176.222 12.5555C178.054 15.2714 173.558 19.3496 171.556 20.3333C167.743 22.2061 161.299 24.6595 157 23.2778C153.122 22.0314 162.356 16.0909 163.333 15.5C165.843 13.9832 172.17 11.6169 172.056 17.0555C172.004 19.4929 170.556 21.5537 168.833 23.1389C166.606 25.1879 170.309 20.6289 170.444 20.5C173.497 17.5997 177.834 15.4128 182.111 16.9167C185.729 18.189 188.251 22.7851 185.278 26C183.32 28.1167 179.244 29.2106 176.778 27.3611C174.265 25.4762 176.78 21.2597 178.222 19.5555C180.878 16.4175 185.852 14.4706 189.889 14.2222C194.553 13.9352 189.977 20.233 188.556 21.5C187.599 22.3527 184.435 23.874 186.278 21.1667C188.337 18.1428 191.942 15.584 194.944 13.5555C197.024 12.1503 192.822 16.4846 192.389 16.7778C191.103 17.6489 188.145 19.7359 186.389 19.4167C185.875 19.3231 190.706 15.7552 191.056 15.5555C195.664 12.9222 191.633 16.2022 190 17.4722C189.266 18.0431 184.834 22.1502 183.556 20.1111C181.978 17.5956 185.486 12.8396 187.028 11.1111C188.912 8.99859 184.517 12.5542 184.278 12.7222C182.587 13.9114 179.998 15.0815 178.639 16.6667C176.775 18.8407 182.912 12.8501 184.944 10.8333C186.324 9.46426 187.872 7.79535 185.639 10.4167C182.723 13.8396 179.92 17.5797 176.75 20.75C174.742 22.7581 176.006 25.7591 173.389 27.7222C172.431 28.4408 165 30.8999 165 29C165 27.8001 166.054 26.9004 165 25.7222C163.376 23.9066 161.357 23.0492 158.944 23C157.399 22.9684 162.112 23.1801 162.917 23.5555C165.304 24.6695 166.557 26.9297 169.25 27.9722C171.233 28.7397 174.108 30 176.222 30C181.983 30 188.763 27.0144 192.778 23C194.529 21.2487 195.849 19.1042 197.111 17C198.064 15.4119 200.469 14.8385 201.167 12.8333C201.786 11.0522 197.93 15.1408 197.222 16.8889C196.578 18.4817 197 20.8343 197 22.5C197 24.862 197.912 24.2752 198.611 22.3889C199.088 21.1023 198.469 20.2414 198.5 18.8889C198.538 17.2605 199.104 15.5272 200.111 14.2222C200.564 13.6347 204.469 10.255 203.194 11.3333C200.831 13.333 198.497 15.427 196.25 17.5555C194.058 19.6323 194.469 23.2536 192.472 25.5C189.384 28.9743 185.076 32.7674 180 31.8889C174.432 30.9252 172.157 24.6338 176.833 21.1667C180.402 18.5211 176.739 21.6321 176.111 23.3889C175.708 24.5183 178.827 25.5989 178.667 25.8055C177.467 27.3484 169.651 28.1574 168.722 26.1667C167.583 23.7259 165.688 22.005 163.944 19.9444C161.744 17.3442 159.694 14.5639 157.111 12.3333C156.799 12.0633 154.71 10.4869 155.806 9.99999C158.112 8.97477 160.174 6.0848 162.556 5.55555C165.555 4.88901 168.774 6.1651 171.639 4.52777C176.851 1.54937 184.024 3.59049 189.556 4.11111C191.432 4.28768 198.5 4.87828 198.5 7.49999C198.5 11.4208 194.074 13.9255 191.667 16.3333C189.914 18.0861 189.025 20.697 187.111 22.2778C185.828 23.3377 179.194 28.3639 178.556 24.6944C178.417 23.8992 179.062 20.7214 178.111 20.2778C177.018 19.7676 175.659 20.0891 174.5 20C173.234 19.9026 172.73 18.6898 171.833 17.9722C168.614 15.3971 164.816 12.0264 161 10.5" stroke="white" stroke-width="4" stroke-linecap="round" stroke-linejoin="round"/>
<path d="M54.0095 10.5555C51.6986 10.6017 47.1333 11.8506 47.0095 14.9444C46.9508 16.4119 49.6008 14.0566 50.0095 13.7222C50.6796 13.1739 52.3671 9.99928 51.8984 10.0555C50.2547 10.2528 48.7063 12.9941 47.6206 14.1666C46.0767 15.8341 48.7682 16.2557 49.8984 14.7777C51.0731 13.2416 51.4642 11.4831 49.6206 10.2777C48.3517 9.44806 47.4492 10.8496 47.5095 12.0555C47.5966 13.7967 51.0503 12.3326 49.0095 10.5833C47.1327 8.97455 45.4734 12.5608 45.7318 14.1111C46.1148 16.4094 50.3248 20.6338 51.2595 16.5833C51.6822 14.7517 52.9758 5.82765 49.5373 10.5555C47.2246 13.7355 52.2003 20.2088 55.704 18.9722C58.2407 18.0769 58.628 14.0597 56.2873 12.7222C53.4098 11.0779 52.1891 20.7696 52.3984 22.0555C52.9274 25.3047 56.5769 21.3653 57.2318 20.0555C58.5469 17.4252 49.9495 19.1206 51.454 23.3333C52.4132 26.019 59.5706 26.948 58.5651 22.2222C58.1779 20.4026 53.7292 14.3383 51.8984 18C49.4317 22.9334 55.313 27.206 59.8984 24.7222C64.3303 22.3216 52.9644 18.5192 51.2318 18.6666C49.1065 18.8475 47.2674 23.9573 50.5095 24.0555C52.3539 24.1114 54.2352 22.9005 54.0095 20.9444C53.8053 19.1742 49.9338 19.9896 49.6206 21.5555C49.1801 23.758 56.8038 26.8402 58.6484 25.9722C61.138 24.8006 56.7195 22.7454 55.204 23.9722C53.5136 25.3406 51.7133 28.5459 53.2318 30.6111C54.9535 32.9526 58.9691 33.1777 61.5929 33.0277C63.7224 32.9061 63.7424 31.8884 61.7595 31.5833C61.4448 31.5349 60.0171 31.7062 61.0651 32.0555C62.5831 32.5615 67.4319 33.3275 68.3984 31.5555C69.5152 29.5081 66.3664 30.5884 66.6206 29.4444C66.9707 27.8691 67.6703 26.5921 68.5651 25.25C68.8236 24.8623 71.4127 20.3314 70.7873 23.1666C70.1865 25.8904 65.3563 27.9829 66.954 24.8333C68.1794 22.4175 70.5085 20.7265 72.7595 19.3611C78.675 15.773 72.0612 21.7845 70.2873 23C65.0209 26.6084 68.1116 19.6549 69.5651 17.4444C70.6371 15.8141 74.0588 11.3645 73.6762 13.2777C73.5375 13.9711 72.7101 14.3142 72.1762 14.7777C69.189 17.3712 65.9768 19.5916 62.5095 21.5C60.2516 22.7427 55.1206 26.3551 55.1206 23.7777C55.1206 19.8385 60.1977 16.3798 62.954 14.3611C66.5633 11.7176 65.4633 13.7015 63.2873 15.8333C61.644 17.4433 59.4087 19.3288 57.6206 20.7222C56.1304 21.8835 52.8317 25.0555 50.6206 25.0555C46.7961 25.0555 52.6519 16.0366 52.954 15.7222C54.7017 13.903 65.8686 4.4302 68.0651 10.3333C68.8744 12.5082 65.129 15.5683 63.6206 16.5C61.6243 17.733 57.1665 18.9805 54.8706 18.25C48.9765 16.3745 68.2236 1.46049 67.6762 8.13885C67.4082 11.4081 63.1209 14.9928 60.0095 15.4444C58.0146 15.734 51.4128 16.5807 50.954 13.5C50.4213 9.92309 59.5662 2.52632 61.2873 7.05552C61.8483 8.53181 60.9702 9.30669 59.704 9.80552C58.7496 10.1815 56.2116 11.9579 57.0651 11.3889C59.4931 9.77017 66.5452 3.03358 69.1206 6.94441C70.394 8.87798 68.7799 10.7353 66.8151 11.9444C66.3508 12.2302 64.5001 10.922 64.6206 10.5C65.1789 8.54611 75.2935 4.39967 76.3984 6.3333C76.8965 7.205 72.9886 9.60302 74.8151 10.3055C77.9903 11.5268 81.0956 10.2858 84.2873 12.3333C87.1741 14.1852 81.8454 17.1352 80.2873 18.2777C77.0747 20.6337 73.9713 22.889 70.8984 25.3333C67.7888 27.8069 60.2598 29.3594 57.1206 26.4444C55.6293 25.0596 53.5182 24.067 52.2873 22.4444C49.8009 19.1669 46.0218 19.8012 42.2873 18.6666C39.7457 17.8945 42.0917 18.4761 42.3984 19.0555C43.1542 20.4831 41.9763 22.5365 42.8151 24.0277C44.7577 27.4813 48.7878 30.5555 52.7318 30.5555C58.8807 30.5555 64.8138 32.6189 71.0095 30.9444C75.5235 29.7244 77.7124 25.2604 80.1206 21.8333C82.7257 18.1261 85.264 14.244 87.454 10.3333C89.3958 6.86579 80.3435 7.55552 78.2318 7.55552C76.2467 7.55552 74.7878 7.11826 72.9818 6.30552C69.8004 4.8739 72.9354 4.79644 72.8984 4.91663C71.8777 8.23406 66.4124 11.8872 63.954 14C62.8047 14.9876 61.4168 16.1443 60.0095 16.8333C59.4933 17.086 57.9827 17.404 58.2873 16.9166C59.7149 14.6325 64.6239 14.1451 66.954 14.2777C70.2167 14.4634 63.1162 21.066 62.3151 21.8333C59.9356 24.1123 56.4049 26.4319 53.0095 24.7777C48.967 22.8083 50.989 20.0771 53.954 18.5C56.409 17.1941 64.1546 12.8704 67.0651 14.3889C69.4239 15.6195 58.5129 22.6829 57.954 22.9444C56.0683 23.8267 51.1021 25.7307 49.0929 23.8889C46.643 21.6431 49.5547 16.7495 51.1206 14.9444C52.8663 12.9323 59.4767 9.26734 61.7318 12.6111C63.5634 15.327 59.0678 19.4051 57.0651 20.3889C53.2526 22.2617 46.8083 24.715 42.5095 23.3333C38.6318 22.0869 47.8653 16.1464 48.8429 15.5555C51.3524 14.0388 57.6796 11.6724 57.5651 17.1111C57.5138 19.5485 56.0659 21.6092 54.3429 23.1944C52.1157 25.2434 55.8183 20.6844 55.954 20.5555C59.0069 17.6553 63.3439 15.4683 67.6206 16.9722C71.2388 18.2445 73.7602 22.8406 70.7873 26.0555C68.83 28.1722 64.7533 29.2661 62.2873 27.4166C59.7742 25.5318 62.2898 21.3153 63.7318 19.6111C66.387 16.473 71.3618 14.5262 75.3984 14.2777C80.0622 13.9907 75.4866 20.2886 74.0651 21.5555C73.1084 22.4082 69.944 23.9295 71.7873 21.2222C73.8461 18.1983 77.4518 15.6396 80.454 13.6111C82.5338 12.2058 78.3311 16.5402 77.8984 16.8333C76.6125 17.7044 73.6543 19.7914 71.8984 19.4722C71.3841 19.3787 76.2157 15.8107 76.5651 15.6111C81.1734 12.9778 77.1424 16.2578 75.5095 17.5277C74.7756 18.0986 70.3438 22.2057 69.0651 20.1666C67.4876 17.6511 70.9957 12.8951 72.5373 11.1666C74.4214 9.05412 70.0262 12.6097 69.7873 12.7777C68.0966 13.967 65.5071 15.137 64.1484 16.7222C62.285 18.8962 68.4214 12.9056 70.454 10.8889C71.8337 9.51979 73.3814 7.85088 71.1484 10.4722C68.2326 13.8951 65.4298 17.6352 62.2595 20.8055C60.2514 22.8136 61.5158 25.8147 58.8984 27.7777C57.9403 28.4963 50.5095 30.9554 50.5095 29.0555C50.5095 27.8557 51.5637 26.9559 50.5095 25.7777C48.8851 23.9621 46.8665 23.1048 44.454 23.0555C42.9081 23.024 47.6218 23.2357 48.4262 23.6111C50.8132 24.725 52.0663 26.9852 54.7595 28.0277C56.7422 28.7952 59.6174 30.0555 61.7318 30.0555C67.492 30.0555 74.2729 27.0699 78.2873 23.0555C80.0386 21.3042 81.3581 19.1597 82.6206 17.0555C83.5735 15.4675 85.9788 14.894 86.6762 12.8889C87.2957 11.1077 83.4393 15.1964 82.7318 16.9444C82.0871 18.5372 82.5095 20.8899 82.5095 22.5555C82.5095 24.9176 83.422 24.3308 84.1206 22.4444C84.5972 21.1578 83.9781 20.2969 84.0095 18.9444C84.0474 17.3161 84.614 15.5827 85.6206 14.2777C86.0739 13.6902 89.9783 10.3105 88.704 11.3889C86.3407 13.3886 84.0064 15.4825 81.7595 17.6111C79.5674 19.6879 79.9786 23.3091 77.9818 25.5555C74.8935 29.0299 70.5855 32.8229 65.5095 31.9444C59.9416 30.9807 57.6662 24.6894 62.3429 21.2222C65.9113 18.5766 62.2481 21.6876 61.6206 23.4444C61.2173 24.5738 64.3369 25.6545 64.1762 25.8611C62.9762 27.4039 55.1608 28.2129 54.2318 26.2222C53.0927 23.7814 51.1976 22.0606 49.454 20C47.2538 17.3998 45.2034 14.6194 42.6206 12.3889C42.308 12.1189 40.2195 10.5425 41.3151 10.0555C43.6218 9.0303 45.6835 6.14032 48.0651 5.61108C51.0645 4.94454 54.2831 6.22062 57.1484 4.5833C62.3606 1.6049 69.5336 3.64602 75.0651 4.16663C76.9412 4.34321 84.0095 4.9338 84.0095 7.55552C84.0095 11.4764 79.584 13.981 77.1762 16.3889C75.4235 18.1416 74.5343 20.7525 72.6206 22.3333C71.3375 23.3933 64.7033 28.4195 64.0651 24.75C63.9268 23.9547 64.5712 20.7769 63.6206 20.3333C62.5275 19.8231 61.1684 20.1447 60.0095 20.0555C58.7436 19.9581 58.2399 18.7454 57.3429 18.0277C54.124 15.4526 50.3254 12.0819 46.5095 10.5555" stroke="white" stroke-width="4" stroke-linecap="round" stroke-linejoin="round"/>
<path d="M164.01 71.5555C161.699 71.6017 157.133 72.8506 157.01 75.9444C156.951 77.4119 159.601 75.0566 160.01 74.7222C160.68 74.1739 162.367 70.9993 161.898 71.0555C160.255 71.2528 158.706 73.9941 157.621 75.1666C156.077 76.8341 158.768 77.2557 159.898 75.7777C161.073 74.2416 161.464 72.4831 159.621 71.2777C158.352 70.4481 157.449 71.8496 157.51 73.0555C157.597 74.7967 161.05 73.3326 159.01 71.5833C157.133 69.9746 155.473 73.5608 155.732 75.1111C156.115 77.4094 160.325 81.6338 161.26 77.5833C161.682 75.7517 162.976 66.8277 159.537 71.5555C157.225 74.7355 162.2 81.2088 165.704 79.9722C168.241 79.0769 168.628 75.0597 166.287 73.7222C163.41 72.0779 162.189 81.7696 162.398 83.0555C162.927 86.3047 166.577 82.3653 167.232 81.0555C168.547 78.4252 159.949 80.1206 161.454 84.3333C162.413 87.019 169.571 87.948 168.565 83.2222C168.178 81.4026 163.729 75.3383 161.898 79C159.432 83.9334 165.313 88.206 169.898 85.7222C174.33 83.3216 162.964 79.5192 161.232 79.6666C159.106 79.8475 157.267 84.9573 160.51 85.0555C162.354 85.1114 164.235 83.9005 164.01 81.9444C163.805 80.1742 159.934 80.9896 159.621 82.5555C159.18 84.758 166.804 87.8402 168.648 86.9722C171.138 85.8006 166.719 83.7454 165.204 84.9722C163.514 86.3406 161.713 89.5459 163.232 91.6111C164.953 93.9526 168.969 94.1777 171.593 94.0277C173.722 93.9061 173.742 92.8884 171.76 92.5833C171.445 92.5349 170.017 92.7062 171.065 93.0555C172.583 93.5615 177.432 94.3275 178.398 92.5555C179.515 90.5081 176.366 91.5884 176.621 90.4444C176.971 88.8691 177.67 87.5921 178.565 86.25C178.824 85.8623 181.413 81.3314 180.787 84.1666C180.186 86.8904 175.356 88.9829 176.954 85.8333C178.179 83.4175 180.508 81.7265 182.76 80.3611C188.675 76.773 182.061 82.7845 180.287 84C175.021 87.6084 178.112 80.6549 179.565 78.4444C180.637 76.8141 184.059 72.3645 183.676 74.2777C183.538 74.9711 182.71 75.3142 182.176 75.7777C179.189 78.3712 175.977 80.5916 172.51 82.5C170.252 83.7427 165.121 87.3551 165.121 84.7777C165.121 80.8385 170.198 77.3798 172.954 75.3611C176.563 72.7176 175.463 74.7015 173.287 76.8333C171.644 78.4433 169.409 80.3288 167.621 81.7222C166.13 82.8835 162.832 86.0555 160.621 86.0555C156.796 86.0555 162.652 77.0366 162.954 76.7222C164.702 74.903 175.869 65.4302 178.065 71.3333C178.874 73.5082 175.129 76.5683 173.621 77.5C171.624 78.733 167.166 79.9805 164.871 79.25C158.976 77.3745 178.224 62.4605 177.676 69.1389C177.408 72.4081 173.121 75.9928 170.01 76.4444C168.015 76.734 161.413 77.5807 160.954 74.5C160.421 70.9231 169.566 63.5263 171.287 68.0555C171.848 69.5318 170.97 70.3067 169.704 70.8055C168.75 71.1815 166.212 72.9579 167.065 72.3889C169.493 70.7702 176.545 64.0336 179.121 67.9444C180.394 69.878 178.78 71.7353 176.815 72.9444C176.351 73.2302 174.5 71.922 174.621 71.5C175.179 69.5461 185.293 65.3997 186.398 67.3333C186.897 68.205 182.989 70.603 184.815 71.3055C187.99 72.5268 191.096 71.2858 194.287 73.3333C197.174 75.1852 191.845 78.1352 190.287 79.2777C187.075 81.6337 183.971 83.889 180.898 86.3333C177.789 88.8069 170.26 90.3594 167.121 87.4444C165.629 86.0596 163.518 85.067 162.287 83.4444C159.801 80.1669 156.022 80.8012 152.287 79.6666C149.746 78.8945 152.092 79.4761 152.398 80.0555C153.154 81.4831 151.976 83.5365 152.815 85.0277C154.758 88.4813 158.788 91.5555 162.732 91.5555C168.881 91.5555 174.814 93.6189 181.01 91.9444C185.523 90.7244 187.712 86.2604 190.121 82.8333C192.726 79.1261 195.264 75.244 197.454 71.3333C199.396 67.8658 190.344 68.5555 188.232 68.5555C186.247 68.5555 184.788 68.1183 182.982 67.3055C179.8 65.8739 182.935 65.7964 182.898 65.9166C181.878 69.2341 176.412 72.8872 173.954 75C172.805 75.9876 171.417 77.1443 170.01 77.8333C169.493 78.086 167.983 78.404 168.287 77.9166C169.715 75.6325 174.624 75.1451 176.954 75.2777C180.217 75.4634 173.116 82.066 172.315 82.8333C169.936 85.1123 166.405 87.4319 163.01 85.7777C158.967 83.8083 160.989 81.0771 163.954 79.5C166.409 78.1941 174.155 73.8704 177.065 75.3889C179.424 76.6195 168.513 83.6829 167.954 83.9444C166.068 84.8267 161.102 86.7307 159.093 84.8889C156.643 82.6431 159.555 77.7495 161.121 75.9444C162.866 73.9323 169.477 70.2673 171.732 73.6111C173.563 76.327 169.068 80.4051 167.065 81.3889C163.253 83.2617 156.808 85.715 152.51 84.3333C148.632 83.0869 157.865 77.1464 158.843 76.5555C161.352 75.0388 167.68 72.6724 167.565 78.1111C167.514 80.5485 166.066 82.6092 164.343 84.1944C162.116 86.2434 165.818 81.6844 165.954 81.5555C169.007 78.6553 173.344 76.4683 177.621 77.9722C181.239 79.2445 183.76 83.8406 180.787 87.0555C178.83 89.1722 174.753 90.2661 172.287 88.4166C169.774 86.5318 172.29 82.3153 173.732 80.6111C176.387 77.473 181.362 75.5262 185.398 75.2777C190.062 74.9907 185.487 81.2886 184.065 82.5555C183.108 83.4082 179.944 84.9295 181.787 82.2222C183.846 79.1983 187.452 76.6396 190.454 74.6111C192.534 73.2058 188.331 77.5402 187.898 77.8333C186.613 78.7044 183.654 80.7914 181.898 80.4722C181.384 80.3787 186.216 76.8107 186.565 76.6111C191.173 73.9778 187.142 77.2578 185.51 78.5277C184.776 79.0986 180.344 83.2057 179.065 81.1666C177.488 78.6511 180.996 73.8951 182.537 72.1666C184.421 70.0541 180.026 73.6097 179.787 73.7777C178.097 74.967 175.507 76.137 174.148 77.7222C172.285 79.8962 178.421 73.9056 180.454 71.8889C181.834 70.5198 183.381 68.8509 181.148 71.4722C178.233 74.8951 175.43 78.6352 172.26 81.8055C170.251 83.8136 171.516 86.8147 168.898 88.7777C167.94 89.4963 160.51 91.9554 160.51 90.0555C160.51 88.8557 161.564 87.9559 160.51 86.7777C158.885 84.9621 156.866 84.1048 154.454 84.0555C152.908 84.024 157.622 84.2357 158.426 84.6111C160.813 85.725 162.066 87.9852 164.76 89.0277C166.742 89.7952 169.617 91.0555 171.732 91.0555C177.492 91.0555 184.273 88.0699 188.287 84.0555C190.039 82.3042 191.358 80.1597 192.621 78.0555C193.573 76.4675 195.979 75.894 196.676 73.8889C197.296 72.1077 193.439 76.1964 192.732 77.9444C192.087 79.5372 192.51 81.8899 192.51 83.5555C192.51 85.9176 193.422 85.3308 194.121 83.4444C194.597 82.1578 193.978 81.2969 194.01 79.9444C194.047 78.3161 194.614 76.5827 195.621 75.2777C196.074 74.6902 199.978 71.3105 198.704 72.3889C196.341 74.3886 194.006 76.4825 191.76 78.6111C189.567 80.6879 189.979 84.3091 187.982 86.5555C184.893 90.0299 180.585 93.8229 175.51 92.9444C169.942 91.9807 167.666 85.6894 172.343 82.2222C175.911 79.5766 172.248 82.6876 171.621 84.4444C171.217 85.5738 174.337 86.6545 174.176 86.8611C172.976 88.4039 165.161 89.2129 164.232 87.2222C163.093 84.7814 161.198 83.0606 159.454 81C157.254 78.3998 155.203 75.6194 152.621 73.3889C152.308 73.1189 150.219 71.5425 151.315 71.0555C153.622 70.0303 155.683 67.1403 158.065 66.6111C161.065 65.9445 164.283 67.2206 167.148 65.5833C172.361 62.6049 179.534 64.646 185.065 65.1666C186.941 65.3432 194.01 65.9338 194.01 68.5555C194.01 72.4764 189.584 74.981 187.176 77.3889C185.423 79.1416 184.534 81.7525 182.621 83.3333C181.338 84.3933 174.703 89.4195 174.065 85.75C173.927 84.9547 174.571 81.7769 173.621 81.3333C172.527 80.8231 171.168 81.1447 170.01 81.0555C168.744 80.9581 168.24 79.7454 167.343 79.0277C164.124 76.4526 160.325 73.0819 156.51 71.5555" stroke="white" stroke-width="4" stroke-linecap="round" stroke-linejoin="round"/>
<path d="M47.0095 71.5555C44.6986 71.6017 40.1333 72.8506 40.0095 75.9444C39.9508 77.4119 42.6008 75.0566 43.0095 74.7222C43.6796 74.1739 45.3671 70.9993 44.8984 71.0555C43.2547 71.2528 41.7063 73.9941 40.6206 75.1666C39.0767 76.8341 41.7682 77.2557 42.8984 75.7777C44.0731 74.2416 44.4642 72.4831 42.6206 71.2777C41.3517 70.4481 40.4492 71.8496 40.5095 73.0555C40.5966 74.7967 44.0503 73.3326 42.0095 71.5833C40.1327 69.9746 38.4734 73.5608 38.7318 75.1111C39.1148 77.4094 43.3248 81.6338 44.2595 77.5833C44.6822 75.7517 45.9758 66.8277 42.5373 71.5555C40.2246 74.7355 45.2003 81.2088 48.704 79.9722C51.2407 79.0769 51.628 75.0597 49.2873 73.7222C46.4098 72.0779 45.1891 81.7696 45.3984 83.0555C45.9274 86.3047 49.5769 82.3653 50.2318 81.0555C51.5469 78.4252 42.9495 80.1206 44.454 84.3333C45.4132 87.019 52.5706 87.948 51.5651 83.2222C51.1779 81.4026 46.7292 75.3383 44.8984 79C42.4317 83.9334 48.313 88.206 52.8984 85.7222C57.3303 83.3216 45.9644 79.5192 44.2318 79.6666C42.1065 79.8475 40.2674 84.9573 43.5095 85.0555C45.3539 85.1114 47.2352 83.9005 47.0095 81.9444C46.8053 80.1742 42.9338 80.9896 42.6206 82.5555C42.1801 84.758 49.8038 87.8402 51.6484 86.9722C54.138 85.8006 49.7195 83.7454 48.204 84.9722C46.5136 86.3406 44.7133 89.5459 46.2318 91.6111C47.9535 93.9526 51.9691 94.1777 54.5929 94.0277C56.7224 93.9061 56.7424 92.8884 54.7595 92.5833C54.4448 92.5349 53.0171 92.7062 54.0651 93.0555C55.5831 93.5615 60.4319 94.3275 61.3984 92.5555C62.5152 90.5081 59.3664 91.5884 59.6206 90.4444C59.9707 88.8691 60.6703 87.5921 61.5651 86.25C61.8236 85.8623 64.4127 81.3314 63.7873 84.1666C63.1865 86.8904 58.3563 88.9829 59.954 85.8333C61.1794 83.4175 63.5085 81.7265 65.7595 80.3611C71.675 76.773 65.0612 82.7845 63.2873 84C58.0209 87.6084 61.1116 80.6549 62.5651 78.4444C63.6371 76.8141 67.0588 72.3645 66.6762 74.2777C66.5375 74.9711 65.7101 75.3142 65.1762 75.7777C62.189 78.3712 58.9768 80.5916 55.5095 82.5C53.2516 83.7427 48.1206 87.3551 48.1206 84.7777C48.1206 80.8385 53.1977 77.3798 55.954 75.3611C59.5633 72.7176 58.4633 74.7015 56.2873 76.8333C54.644 78.4433 52.4087 80.3288 50.6206 81.7222C49.1304 82.8835 45.8317 86.0555 43.6206 86.0555C39.7961 86.0555 45.6519 77.0366 45.954 76.7222C47.7017 74.903 58.8686 65.4302 61.0651 71.3333C61.8744 73.5082 58.129 76.5683 56.6206 77.5C54.6243 78.733 50.1665 79.9805 47.8706 79.25C41.9765 77.3745 61.2236 62.4605 60.6762 69.1389C60.4082 72.4081 56.1209 75.9928 53.0095 76.4444C51.0146 76.734 44.4128 77.5807 43.954 74.5C43.4213 70.9231 52.5662 63.5263 54.2873 68.0555C54.8483 69.5318 53.9702 70.3067 52.704 70.8055C51.7496 71.1815 49.2116 72.9579 50.0651 72.3889C52.4931 70.7702 59.5452 64.0336 62.1206 67.9444C63.394 69.878 61.7799 71.7353 59.8151 72.9444C59.3508 73.2302 57.5001 71.922 57.6206 71.5C58.1789 69.5461 68.2935 65.3997 69.3984 67.3333C69.8965 68.205 65.9886 70.603 67.8151 71.3055C70.9903 72.5268 74.0956 71.2858 77.2873 73.3333C80.1741 75.1852 74.8454 78.1352 73.2873 79.2777C70.0747 81.6337 66.9713 83.889 63.8984 86.3333C60.7888 88.8069 53.2598 90.3594 50.1206 87.4444C48.6293 86.0596 46.5182 85.067 45.2873 83.4444C42.8009 80.1669 39.0218 80.8012 35.2873 79.6666C32.7457 78.8945 35.0917 79.4761 35.3984 80.0555C36.1542 81.4831 34.9763 83.5365 35.8151 85.0277C37.7577 88.4813 41.7878 91.5555 45.7318 91.5555C51.8807 91.5555 57.8138 93.6189 64.0095 91.9444C68.5235 90.7244 70.7124 86.2604 73.1206 82.8333C75.7257 79.1261 78.264 75.244 80.454 71.3333C82.3958 67.8658 73.3435 68.5555 71.2318 68.5555C69.2467 68.5555 67.7878 68.1183 65.9818 67.3055C62.8004 65.8739 65.9354 65.7964 65.8984 65.9166C64.8777 69.2341 59.4124 72.8872 56.954 75C55.8047 75.9876 54.4168 77.1443 53.0095 77.8333C52.4933 78.086 50.9827 78.404 51.2873 77.9166C52.7149 75.6325 57.6239 75.1451 59.954 75.2777C63.2167 75.4634 56.1162 82.066 55.3151 82.8333C52.9356 85.1123 49.4049 87.4319 46.0095 85.7777C41.967 83.8083 43.989 81.0771 46.954 79.5C49.409 78.1941 57.1546 73.8704 60.0651 75.3889C62.4239 76.6195 51.5129 83.6829 50.954 83.9444C49.0683 84.8267 44.1021 86.7307 42.0929 84.8889C39.643 82.6431 42.5547 77.7495 44.1206 75.9444C45.8663 73.9323 52.4767 70.2673 54.7318 73.6111C56.5634 76.327 52.0678 80.4051 50.0651 81.3889C46.2526 83.2617 39.8083 85.715 35.5095 84.3333C31.6318 83.0869 40.8653 77.1464 41.8429 76.5555C44.3524 75.0388 50.6796 72.6724 50.5651 78.1111C50.5138 80.5485 49.0659 82.6092 47.3429 84.1944C45.1157 86.2434 48.8183 81.6844 48.954 81.5555C52.0069 78.6553 56.3439 76.4683 60.6206 77.9722C64.2388 79.2445 66.7602 83.8406 63.7873 87.0555C61.83 89.1722 57.7533 90.2661 55.2873 88.4166C52.7742 86.5318 55.2898 82.3153 56.7318 80.6111C59.387 77.473 64.3618 75.5262 68.3984 75.2777C73.0622 74.9907 68.4866 81.2886 67.0651 82.5555C66.1084 83.4082 62.944 84.9295 64.7873 82.2222C66.8461 79.1983 70.4518 76.6396 73.454 74.6111C75.5338 73.2058 71.3311 77.5402 70.8984 77.8333C69.6125 78.7044 66.6543 80.7914 64.8984 80.4722C64.3841 80.3787 69.2157 76.8107 69.5651 76.6111C74.1734 73.9778 70.1424 77.2578 68.5095 78.5277C67.7756 79.0986 63.3438 83.2057 62.0651 81.1666C60.4876 78.6511 63.9957 73.8951 65.5373 72.1666C67.4214 70.0541 63.0262 73.6097 62.7873 73.7777C61.0966 74.967 58.5071 76.137 57.1484 77.7222C55.285 79.8962 61.4214 73.9056 63.454 71.8889C64.8337 70.5198 66.3814 68.8509 64.1484 71.4722C61.2326 74.8951 58.4298 78.6352 55.2595 81.8055C53.2514 83.8136 54.5158 86.8147 51.8984 88.7777C50.9403 89.4963 43.5095 91.9554 43.5095 90.0555C43.5095 88.8557 44.5637 87.9559 43.5095 86.7777C41.8851 84.9621 39.8665 84.1048 37.454 84.0555C35.9081 84.024 40.6218 84.2357 41.4262 84.6111C43.8132 85.725 45.0663 87.9852 47.7595 89.0277C49.7422 89.7952 52.6174 91.0555 54.7318 91.0555C60.492 91.0555 67.2729 88.0699 71.2873 84.0555C73.0386 82.3042 74.3581 80.1597 75.6206 78.0555C76.5735 76.4675 78.9788 75.894 79.6762 73.8889C80.2957 72.1077 76.4393 76.1964 75.7318 77.9444C75.0871 79.5372 75.5095 81.8899 75.5095 83.5555C75.5095 85.9176 76.422 85.3308 77.1206 83.4444C77.5972 82.1578 76.9781 81.2969 77.0095 79.9444C77.0474 78.3161 77.614 76.5827 78.6206 75.2777C79.0739 74.6902 82.9783 71.3105 81.704 72.3889C79.3407 74.3886 77.0064 76.4825 74.7595 78.6111C72.5674 80.6879 72.9786 84.3091 70.9818 86.5555C67.8935 90.0299 63.5855 93.8229 58.5095 92.9444C52.9416 91.9807 50.6662 85.6894 55.3429 82.2222C58.9113 79.5766 55.2481 82.6876 54.6206 84.4444C54.2173 85.5738 57.3369 86.6545 57.1762 86.8611C55.9762 88.4039 48.1608 89.2129 47.2318 87.2222C46.0927 84.7814 44.1976 83.0606 42.454 81C40.2538 78.3998 38.2034 75.6194 35.6206 73.3889C35.308 73.1189 33.2195 71.5425 34.3151 71.0555C36.6218 70.0303 38.6835 67.1403 41.0651 66.6111C44.0645 65.9445 47.2831 67.2206 50.1484 65.5833C55.3606 62.6049 62.5336 64.646 68.0651 65.1666C69.9412 65.3432 77.0095 65.9338 77.0095 68.5555C77.0095 72.4764 72.584 74.981 70.1762 77.3889C68.4235 79.1416 67.5343 81.7525 65.6206 83.3333C64.3375 84.3933 57.7033 89.4195 57.0651 85.75C56.9268 84.9547 57.5712 81.7769 56.6206 81.3333C55.5275 80.8231 54.1684 81.1447 53.0095 81.0555C51.7436 80.9581 51.2399 79.7454 50.3429 79.0277C47.124 76.4526 43.3254 73.0819 39.5095 71.5555" stroke="white" stroke-width="4" stroke-linecap="round" stroke-linejoin="round"/>
<path d="M192.01 37.5555C189.699 37.6017 185.133 38.8506 185.01 41.9444C184.951 43.4119 187.601 41.0566 188.01 40.7222C188.68 40.1739 190.367 36.9993 189.898 37.0555C188.255 37.2528 186.706 39.9941 185.621 41.1666C184.077 42.8341 186.768 43.2557 187.898 41.7777C189.073 40.2416 189.464 38.4831 187.621 37.2777C186.352 36.4481 185.449 37.8496 185.51 39.0555C185.597 40.7967 189.05 39.3326 187.01 37.5833C185.133 35.9746 183.473 39.5608 183.732 41.1111C184.115 43.4094 188.325 47.6338 189.26 43.5833C189.682 41.7517 190.976 32.8277 187.537 37.5555C185.225 40.7355 190.2 47.2088 193.704 45.9722C196.241 45.0769 196.628 41.0597 194.287 39.7222C191.41 38.0779 190.189 47.7696 190.398 49.0555C190.927 52.3047 194.577 48.3653 195.232 47.0555C196.547 44.4252 187.949 46.1206 189.454 50.3333C190.413 53.019 197.571 53.948 196.565 49.2222C196.178 47.4026 191.729 41.3383 189.898 45C187.432 49.9334 193.313 54.206 197.898 51.7222C202.33 49.3216 190.964 45.5192 189.232 45.6666C187.106 45.8475 185.267 50.9573 188.51 51.0555C190.354 51.1114 192.235 49.9005 192.01 47.9444C191.805 46.1742 187.934 46.9896 187.621 48.5555C187.18 50.758 194.804 53.8402 196.648 52.9722C199.138 51.8006 194.719 49.7454 193.204 50.9722C191.514 52.3406 189.713 55.5459 191.232 57.6111C192.953 59.9526 196.969 60.1777 199.593 60.0277C201.722 59.9061 201.742 58.8884 199.76 58.5833C199.445 58.5349 198.017 58.7062 199.065 59.0555C200.583 59.5615 205.432 60.3275 206.398 58.5555C207.515 56.5081 204.366 57.5884 204.621 56.4444C204.971 54.8691 205.67 53.5921 206.565 52.25C206.824 51.8623 209.413 47.3314 208.787 50.1666C208.186 52.8904 203.356 54.9829 204.954 51.8333C206.179 49.4175 208.508 47.7265 210.76 46.3611C216.675 42.773 210.061 48.7845 208.287 50C203.021 53.6084 206.112 46.6549 207.565 44.4444C208.637 42.8141 212.059 38.3645 211.676 40.2777C211.538 40.9711 210.71 41.3142 210.176 41.7777C207.189 44.3712 203.977 46.5916 200.51 48.5C198.252 49.7427 193.121 53.3551 193.121 50.7777C193.121 46.8385 198.198 43.3798 200.954 41.3611C204.563 38.7176 203.463 40.7015 201.287 42.8333C199.644 44.4433 197.409 46.3288 195.621 47.7222C194.13 48.8835 190.832 52.0555 188.621 52.0555C184.796 52.0555 190.652 43.0366 190.954 42.7222C192.702 40.903 203.869 31.4302 206.065 37.3333C206.874 39.5082 203.129 42.5683 201.621 43.5C199.624 44.733 195.166 45.9805 192.871 45.25C186.976 43.3745 206.224 28.4605 205.676 35.1389C205.408 38.4081 201.121 41.9928 198.01 42.4444C196.015 42.734 189.413 43.5807 188.954 40.5C188.421 36.9231 197.566 29.5263 199.287 34.0555C199.848 35.5318 198.97 36.3067 197.704 36.8055C196.75 37.1815 194.212 38.9579 195.065 38.3889C197.493 36.7702 204.545 30.0336 207.121 33.9444C208.394 35.878 206.78 37.7353 204.815 38.9444C204.351 39.2302 202.5 37.922 202.621 37.5C203.179 35.5461 213.293 31.3997 214.398 33.3333C214.897 34.205 210.989 36.603 212.815 37.3055C215.99 38.5268 212.707 41.7858 215.898 43.8333M215.898 43.8333C218.785 45.6852 219.845 44.1352 218.287 45.2777C215.075 47.6337 211.971 49.889 208.898 52.3333C205.789 54.8069 198.26 56.3594 195.121 53.4444C193.629 52.0596 191.518 51.067 190.287 49.4444C187.801 46.1669 184.022 46.8012 180.287 45.6666C177.746 44.8945 180.092 45.4761 180.398 46.0555C181.154 47.4831 179.976 49.5365 180.815 51.0277C182.758 54.4813 186.788 57.5555 190.732 57.5555C196.881 57.5555 202.814 59.6189 209.01 57.9444C213.523 56.7244 215.712 52.2604 218.121 48.8333C220.726 45.1261 208.347 42.0773 210.537 38.1666M215.898 43.8333C216.331 43.5402 220.534 39.2058 218.454 40.6111C215.452 42.6396 211.846 45.1983 209.787 48.2222C207.944 50.9295 211.108 49.4082 212.065 48.5555C213.487 47.2886 218.062 40.9907 213.398 41.2777C209.362 41.5262 204.387 43.473 201.732 46.6111C200.29 48.3153 197.774 52.5318 200.287 54.4166C202.753 56.2661 206.83 55.1722 208.787 53.0555C211.76 49.8406 209.239 45.2445 205.621 43.9722C201.344 42.4683 197.007 44.6553 193.954 47.5555C193.818 47.6844 190.116 52.2434 192.343 50.1944C194.066 48.6092 195.514 46.5485 195.565 44.1111C195.68 38.6724 189.352 41.0388 186.843 42.5555C185.865 43.1464 176.632 49.0869 180.51 50.3333C184.808 51.715 191.253 49.2617 195.065 47.3889C197.068 46.4051 201.563 42.327 199.732 39.6111C197.477 36.2673 190.866 39.9323 189.121 41.9444C187.555 43.7495 184.643 48.6431 187.093 50.8889C189.102 52.7307 194.068 50.8267 195.954 49.9444C196.513 49.6829 207.424 42.6195 205.065 41.3889C202.155 39.8704 194.409 44.1941 191.954 45.5C188.989 47.0771 186.967 49.8083 191.01 51.7777C194.405 53.4319 197.936 51.1123 200.315 48.8333C201.116 48.066 208.217 41.4634 204.954 41.2777C202.624 41.1451 197.715 41.6325 196.287 43.9166C195.983 44.404 197.493 44.086 198.01 43.8333C199.417 43.1443 200.805 41.9876 201.954 41C204.412 38.8872 209.878 35.2341 210.898 31.9166C210.935 31.7964 207.8 31.8739 210.982 33.3055C212.788 34.1183 214.247 34.5555 216.232 34.5555C218.344 34.5555 212.479 34.6991 210.537 38.1666M215.898 43.8333C214.613 44.7044 211.654 46.7914 209.898 46.4722M210.537 38.1666C208.996 39.8951 205.488 44.6511 207.065 47.1666C208.344 49.2057 212.776 45.0986 213.51 44.5277M210.537 38.1666C212.421 36.0541 208.026 39.6097 207.787 39.7777C206.097 40.967 203.507 42.137 202.148 43.7222C200.285 45.8962 206.421 39.9056 208.454 37.8889C209.834 36.5198 211.381 34.8509 209.148 37.4722C206.233 40.8951 203.43 44.6352 200.26 47.8055C198.251 49.8136 199.516 52.8147 196.898 54.7777C195.94 55.4963 188.51 57.9554 188.51 56.0555C188.51 54.8557 189.564 53.9559 188.51 52.7777C186.885 50.9621 184.866 50.1048 182.454 50.0555C180.908 50.024 185.622 50.2357 186.426 50.6111C188.813 51.725 190.066 53.9852 192.76 55.0277C194.742 55.7952 197.617 57.0555 199.732 57.0555C205.492 57.0555 212.273 54.0699 216.287 50.0555C218.039 48.3042 219.358 46.1597 220.621 44.0555C221.573 42.4675 212.812 46.5329 213.51 44.5277M209.898 46.4722C209.384 46.3787 214.216 42.8107 214.565 42.6111C219.173 39.9778 215.142 43.2578 213.51 44.5277M209.898 46.4722C211.173 45.3939 224.074 40.6902 223.621 41.2777C222.614 42.5827 222.047 44.3161 222.01 45.9444C221.978 47.2969 222.597 48.1578 222.121 49.4444C221.422 51.3308 220.51 51.9176 220.51 49.5555C220.51 47.8899 220.087 45.5372 220.732 43.9444C221.439 42.1964 214.129 42.7466 213.51 44.5277M209.898 46.4722C207.535 48.4719 210.176 41.7777 219.76 44.6111C217.567 46.6879 217.979 50.3091 215.982 52.5555C212.893 56.0299 208.585 59.8229 203.51 58.9444C197.942 57.9807 195.666 51.6894 200.343 48.2222C203.911 45.5766 200.248 48.6876 199.621 50.4444C199.217 51.5738 202.337 52.6545 202.176 52.8611C200.976 54.4039 193.161 55.2129 192.232 53.2222C191.093 50.7814 189.198 49.0606 187.454 47C185.254 44.3998 183.203 41.6194 180.621 39.3889C180.308 39.1189 178.219 37.5425 179.315 37.0555C181.622 36.0303 183.683 33.1403 186.065 32.6111C189.065 31.9445 192.283 33.2206 195.148 31.5833C200.361 28.6049 207.534 30.646 213.065 31.1666C214.941 31.3432 222.01 31.9338 222.01 34.5555C222.01 38.4764 217.584 40.981 215.176 43.3889C213.423 45.1416 212.534 47.7525 210.621 49.3333C209.338 50.3933 202.703 55.4195 202.065 51.75C201.927 50.9547 202.571 47.7769 201.621 47.3333C200.527 46.8231 199.168 47.1447 198.01 47.0555C196.744 46.9581 196.24 45.7454 195.343 45.0277C192.124 42.4526 188.325 39.0819 184.51 37.5555" stroke="white" stroke-width="4" stroke-linecap="round" stroke-linejoin="round"/>
<path d="M80.0095 40.5555C77.6987 40.6017 73.1333 41.8506 73.0095 44.9444C72.9508 46.4119 75.6008 44.0566 76.0095 43.7222C76.6796 43.1739 78.3671 39.9993 77.8984 40.0555C76.2547 40.2528 74.7063 42.9941 73.6207 44.1666C72.0767 45.8341 74.7682 46.2557 75.8984 44.7777C77.0731 43.2416 77.4642 41.4831 75.6207 40.2777C74.3517 39.4481 73.4492 40.8496 73.5095 42.0555C73.5966 43.7967 77.0503 42.3326 75.0095 40.5833C73.1327 38.9746 71.4734 42.5608 71.7318 44.1111C72.1148 46.4094 76.3248 50.6338 77.2595 46.5833C77.6822 44.7517 78.9758 35.8277 75.5373 40.5555C73.2246 43.7355 78.2003 50.2088 81.704 48.9722C84.2407 48.0769 84.6281 44.0597 82.2873 42.7222C79.4098 41.0779 78.1891 50.7696 78.3984 52.0555C78.9274 55.3047 82.5769 51.3653 83.2318 50.0555C84.5469 47.4252 75.9495 49.1206 77.454 53.3333C78.4132 56.019 85.5706 56.948 84.5651 52.2222C84.1779 50.4026 79.7293 44.3383 77.8984 48C75.4317 52.9334 81.313 57.206 85.8984 54.7222C90.3304 52.3216 78.9644 48.5192 77.2318 48.6666C75.1065 48.8475 73.2674 53.9573 76.5095 54.0555C78.3539 54.1114 80.2352 52.9005 80.0095 50.9444C79.8053 49.1742 75.9338 49.9896 75.6207 51.5555C75.1802 53.758 82.8038 56.8402 84.6484 55.9722C87.138 54.8006 82.7195 52.7454 81.204 53.9722C79.5136 55.3406 77.7133 58.5459 79.2318 60.6111C80.9535 62.9526 84.9691 63.1777 87.5929 63.0277C89.7224 62.9061 89.7424 61.8884 87.7595 61.5833C87.4449 61.5349 86.0171 61.7062 87.0651 62.0555C88.5831 62.5615 93.4319 63.3275 94.3984 61.5555C95.5152 59.5081 92.3664 60.5884 92.6207 59.4444C92.9707 57.8691 93.6703 56.5921 94.5651 55.25C94.8236 54.8623 97.4127 50.3314 96.7873 53.1666C96.1865 55.8904 91.3564 57.9829 92.954 54.8333M92.954 54.8333C94.1794 52.4175 96.5085 50.7265 98.7595 49.3611C92.954 54.8333 98.0612 51.7845 96.2873 53C91.0209 56.6084 94.1116 49.6549 95.5651 47.4444C96.6371 45.8141 100.059 41.3645 99.6762 43.2777C99.5375 43.9711 98.7102 44.3142 98.1762 44.7777M92.954 54.8333C77.8429 54.8611 102.129 45.7466 101.51 47.5277M92.954 54.8333C73.8429 54.3889 90.1484 45.0565 90.1484 46.7222M98.1762 44.7777C95.1891 47.3712 91.9768 49.5916 88.5095 51.5C86.2516 52.7427 81.1207 56.3551 81.1207 53.7777C81.1207 49.8385 86.1977 46.3798 88.954 44.3611C92.5633 41.7176 91.4633 43.7015 89.2873 45.8333C87.644 47.4433 85.4088 49.3288 83.6207 50.7222C82.1304 51.8835 78.8317 55.0555 76.6207 55.0555C72.7962 55.0555 78.6519 46.0366 78.954 45.7222C80.7017 43.903 91.8686 34.4302 94.0651 40.3333M98.1762 44.7777C98.1762 42.156 102.941 34.3432 101.065 34.1666C95.5336 33.646 88.3606 31.6049 83.1484 34.5833C80.2831 36.2206 77.0645 34.9445 74.0651 35.6111C71.6835 36.1403 69.6218 39.0303 67.3151 40.0555C66.2195 40.5425 68.308 42.1189 68.6207 42.3889C71.2034 44.6194 73.2538 47.3998 75.454 50C77.1976 52.0606 79.0927 53.7814 80.2318 56.2222C81.1608 58.2129 88.9763 57.4039 90.1762 55.8611C90.3369 55.6545 87.2173 54.5738 87.6207 53.4444C88.2481 51.6876 91.9113 48.5766 88.3429 51.2222C83.6662 54.6894 85.9416 60.9807 91.5095 61.9444C96.5855 62.8229 100.893 59.0299 103.982 55.5555C105.979 53.3091 81.0095 51.4444 98.6207 52.3333M98.1762 44.7777C98.1762 48.6986 93.0651 44.3889 103.176 46.3889C101.423 48.1416 100.534 50.7525 98.6207 52.3333M94.0651 40.3333C94.8744 42.5082 91.129 45.5683 89.6207 46.5C87.6244 47.733 83.1665 48.9805 80.8707 48.25C74.9765 46.3745 94.2236 31.4605 93.6762 38.1389C93.4082 41.4081 89.1209 44.9928 86.0095 45.4444C84.0146 45.734 77.4128 46.5807 76.954 43.5C76.4213 39.9231 85.5662 32.5263 87.2873 37.0555C87.8483 38.5318 86.9702 39.3067 85.704 39.8055C84.7496 40.1815 82.2116 41.9579 83.0651 41.3889C85.4931 39.7702 92.5452 33.0336 95.1207 36.9444C96.394 38.878 94.7799 40.7353 92.8151 41.9444C92.3508 42.2302 90.5001 40.922 90.6207 40.5C91.1789 38.5461 101.293 34.3997 102.398 36.3333C102.897 37.205 98.9886 39.603 100.815 40.3055C103.99 41.5268 100.707 44.7858 103.898 46.8333M94.0651 40.3333C95.8712 41.146 102.247 37.5555 104.232 37.5555C106.344 37.5555 100.479 37.6991 98.5373 41.1666M94.0651 40.3333C90.8837 38.9017 98.9354 34.7964 98.8984 34.9166C97.8777 38.2341 92.4124 41.8872 89.954 44C88.8047 44.9876 87.4168 46.1443 86.0095 46.8333C85.4933 47.086 83.9827 47.404 84.2873 46.9166C85.7149 44.6325 90.6239 44.1451 92.954 44.2777M103.898 46.8333C95.5651 47.4444 95.1787 45.8296 93.6207 46.9722M103.898 46.8333C93.6207 46.9722 95.0338 42.8725 92.954 44.2777M103.898 46.8333C102.613 47.7044 99.6543 49.7914 97.8984 49.4722M93.6207 46.9722C90.408 49.3281 99.9713 52.889 96.8984 55.3333C93.7888 57.8069 86.2598 59.3594 83.1207 56.4444C81.6293 55.0596 79.5183 54.067 78.2873 52.4444C75.8009 49.1669 72.0218 49.8012 68.2873 48.6666C65.7458 47.8945 68.0917 48.4761 68.3984 49.0555C69.1542 50.4831 67.9763 52.5365 68.8151 54.0277C70.7577 57.4813 74.7878 60.5555 78.7318 60.5555C84.8807 60.5555 90.8138 62.6189 97.0095 60.9444C101.523 59.7244 103.712 55.2604 106.121 51.8333C108.726 48.1261 96.3473 45.0773 98.5373 41.1666M93.6207 46.9722C89.3439 45.4683 85.0069 47.6553 81.954 50.5555C81.8183 50.6844 78.1157 55.2434 80.3429 53.1944C82.0659 51.6092 83.5138 49.5485 83.5651 47.1111C83.6796 41.6724 77.3524 44.0388 74.8429 45.5555C73.8653 46.1464 64.6318 52.0869 68.5095 53.3333C72.8083 54.715 79.2526 52.2617 83.0651 50.3889C85.0678 49.4051 89.5634 45.327 87.7318 42.6111C85.4767 39.2673 78.8663 42.9323 77.1207 44.9444C75.5547 46.7495 72.643 51.6431 75.0929 53.8889C77.1021 55.7307 82.0683 53.8267 83.954 52.9444C84.5129 52.6829 95.4239 45.6195 93.0651 44.3889C90.1546 42.8704 82.409 47.1941 79.954 48.5C76.989 50.0771 74.967 52.8083 79.0095 54.7777C82.4049 56.4319 85.9356 54.1123 88.3151 51.8333C89.1162 51.066 96.2167 44.4634 92.954 44.2777M93.6207 46.9722C97.2388 48.2445 99.7602 52.8406 96.7873 56.0555C94.83 58.1722 90.7533 59.2661 88.2873 57.4166C85.7742 55.5318 88.2898 51.3153 89.7318 49.6111C92.387 46.473 97.3618 44.5262 101.398 44.2777C106.062 43.9907 101.487 50.2886 100.065 51.5555C99.1084 52.4082 95.944 53.9295 97.7873 51.2222M93.6207 46.9722C93.5892 48.3247 98.375 48.1856 97.8984 49.4722M93.6207 46.9722C93.6585 45.3438 94.7806 44.0827 95.7873 42.7777M98.5373 41.1666C96.9957 42.8951 93.4876 47.6511 95.0651 50.1666C96.3438 52.2057 100.776 48.0986 101.51 47.5277M98.5373 41.1666C100.421 39.0541 96.0262 42.6097 95.7873 42.7777M92.954 44.2777C89.9518 46.3062 99.8461 48.1983 97.7873 51.2222M97.7873 51.2222C96.5248 53.3264 106.039 51.3042 104.287 53.0555C100.273 57.0699 93.492 60.0555 87.7318 60.0555C85.6174 60.0555 82.7422 58.7952 80.7595 58.0277C78.0663 56.9852 76.8132 54.725 74.4262 53.6111C73.6218 53.2357 68.9081 53.024 70.454 53.0555C72.8665 53.1048 74.8851 53.9621 76.5095 55.7777C77.5637 56.9559 76.5095 57.8557 76.5095 59.0555C76.5095 60.9554 83.9403 58.4963 84.8984 57.7777C87.5159 55.8147 86.2515 52.8136 88.2595 50.8055C91.4298 47.6352 94.2326 43.8951 97.1484 40.4722C99.3814 37.8509 97.8337 39.5198 96.454 40.8889C94.4214 42.9056 88.285 48.8962 90.1484 46.7222M97.7873 51.2222C98.7402 49.6341 100.812 49.5329 101.51 47.5277M97.8984 49.4722C97.3841 49.3787 102.216 45.8107 102.565 45.6111C107.173 42.9778 103.142 46.2578 101.51 47.5277M97.8984 49.4722C97.1998 51.3586 90.1484 49.0842 90.1484 46.7222M97.8984 49.4722C99.1728 48.3939 96.2406 42.1902 95.7873 42.7777M97.8984 49.4722C95.5351 51.4719 89.0373 49.5 98.6207 52.3333M95.7873 42.7777C94.0966 43.967 91.5071 45.137 90.1484 46.7222M98.6207 52.3333C97.3375 53.3933 90.7033 58.4195 90.0651 54.75C89.9268 53.9547 90.5712 50.7769 89.6207 50.3333C88.5275 49.8231 87.1684 50.1447 86.0095 50.0555C84.7436 49.9581 84.2399 48.7454 83.3429 48.0277C80.124 45.4526 76.3254 42.0819 72.5095 40.5555" stroke="white" stroke-width="4" stroke-linecap="round" stroke-linejoin="round"/>
<path d="M28.9642 35.0234C27.8697 32.9876 24.6772 29.4933 21.867 30.7934C20.5341 31.4101 23.8383 32.6951 24.3224 32.9065C25.1158 33.253 28.7107 33.308 28.4469 32.9164C27.5222 31.5433 24.3763 31.4147 22.8379 30.9828C20.6499 30.3686 21.5015 32.9565 23.3322 33.2887C25.2349 33.6341 26.9783 33.1806 27.2109 30.9903C27.371 29.4827 25.7122 29.3183 24.6663 29.9216C23.1562 30.7928 26.0336 33.1995 26.6604 30.5857C27.2368 28.1818 23.2884 28.3396 22.0263 29.2762C20.1553 30.6648 18.3142 36.3376 22.3455 35.3232C24.1684 34.8646 32.7011 31.9482 26.9257 31.0428C23.0411 30.4338 19.5474 37.8131 22.2451 40.368C24.1983 42.2178 27.9504 40.7315 28.0739 38.0384C28.2259 34.7277 19.0431 38.0588 17.994 38.8313C15.3431 40.7831 20.5129 42.2358 21.9772 42.2217C24.9179 42.1933 19.49 35.3137 16.4262 38.5731C14.4729 40.651 16.9085 47.4451 20.6565 44.396C22.0996 43.222 25.4695 36.4982 21.3758 36.5376C15.8603 36.5908 14.7382 43.7731 19.0391 46.7223C23.196 49.5728 21.3996 37.7231 20.4785 36.2481C19.3488 34.4389 13.9625 35.1312 15.3528 38.0617C16.1438 39.7287 18.0791 40.8513 19.7173 39.7588C21.1998 38.7701 18.7094 35.6959 17.1729 36.1309C15.0117 36.7428 15.7433 44.9333 17.3567 46.1795C19.5343 47.8614 19.3496 42.9918 17.5668 42.2021C15.5784 41.3213 11.9047 41.1798 10.7587 43.4728C9.45939 46.0725 11.0895 49.7493 12.4189 52.0163C13.4979 53.8563 14.4128 53.4102 13.7805 51.5063C13.6802 51.2041 12.8769 50.0113 13.0437 51.1034C13.2852 52.6852 14.8136 57.3501 16.8314 57.4027C19.1628 57.4635 16.7659 55.1533 17.9001 54.8581C19.4618 54.4516 20.9173 54.4922 22.5197 54.6769C22.9826 54.7302 28.1956 54.9695 25.387 55.7052C22.6887 56.412 18.6246 53.0666 22.1562 53.0529M22.1562 53.0529C24.865 53.0425 27.4318 54.3447 29.6732 55.726C22.1562 53.0529 27.1978 56.2091 25.3074 55.1842C19.6951 52.1415 27.2931 51.7229 29.9231 52.009C31.8628 52.2201 37.383 53.2375 35.5056 53.769C34.8253 53.9616 34.1428 53.3815 33.4868 53.1176M22.1562 53.0529C15.2436 39.6156 34.4262 57.0776 32.5585 57.338M22.1562 53.0529C13.8406 35.8401 29.5795 46.0994 28.0969 46.8586M33.4868 53.1176C29.8168 51.641 26.3763 49.7939 23.0973 47.5777C20.9619 46.1344 15.4079 43.2141 17.7019 42.0393C21.2081 40.2437 26.6008 43.1861 29.654 44.7192C33.652 46.7269 31.3849 46.652 28.4956 45.687C26.3134 44.9582 23.6164 43.8281 21.5611 42.8717C19.8482 42.0746 15.5213 40.5844 14.5134 38.6164C12.7701 35.2123 23.4668 36.3134 23.8843 36.4389C26.3002 37.1653 39.8217 42.7868 35.5687 47.4326M33.4868 53.1176C35.8203 51.9226 44.9463 52.6026 44.2483 50.8522C42.1903 45.6915 40.7375 38.3766 35.7107 35.095C32.9473 33.291 32.616 29.8445 30.6555 27.4786C29.0989 25.6001 25.5869 25.0823 23.6229 23.4965C22.6901 22.7433 22.2389 25.3208 22.1411 25.7221C21.333 29.0377 19.7929 32.13 18.4814 35.2735C17.4421 37.7647 16.7743 40.236 15.121 42.3623C13.7726 44.0966 18.0551 50.6842 19.9753 51.049C20.2324 51.0979 19.7723 47.8286 20.9614 47.6728C22.8111 47.4305 27.2499 49.273 23.2686 47.3027C18.0508 44.7205 13.4882 49.6135 15.1684 55.0086C16.7001 59.927 22.0399 62.0325 26.54 63.1977C29.4497 63.951 19.7281 40.8768 26.9644 56.9571M33.4868 53.1176C29.9969 54.9048 31.5032 48.3911 34.3319 58.3023C31.9729 57.5412 29.2437 57.9398 26.9644 56.9571M35.5687 47.4326C34.0018 49.1442 29.5709 47.2055 28.0541 46.2876C26.0467 45.0727 22.9044 41.6735 22.5081 39.2971C21.4907 33.196 43.5385 43.5293 37.3447 46.0862C34.3127 47.3378 29.1679 45.1558 27.3476 42.5923C26.1806 40.9486 22.4177 35.4585 24.9506 33.6458C27.8915 31.5413 38.6436 36.3094 35.3968 39.9058C34.3385 41.078 33.2485 40.6497 32.2274 39.75C31.4577 39.0719 28.7197 37.6226 29.6152 38.1229C32.1627 39.5462 41.3733 42.7524 39.0662 46.8274C37.9256 48.8421 35.5368 48.252 33.565 47.0543C33.099 46.7713 33.4197 44.5278 33.8504 44.4427C35.8439 44.049 44.1449 51.1617 42.9275 53.0266C42.3787 53.8673 38.463 51.482 38.6702 53.4279C39.0306 56.8107 34.6331 55.3736 34.2655 59.1478M35.5687 47.4326C35.6686 49.4106 41.7705 53.4486 42.6753 55.2155C43.6379 57.0951 40.837 51.9408 36.8655 51.793M35.5687 47.4326C35.3929 43.9483 42.7169 49.2437 42.5931 49.2656C39.1751 49.8692 33.4323 46.6699 30.4312 45.4447C29.0283 44.872 27.3661 44.1638 26.1114 43.2253C25.6512 42.8811 24.6796 41.6814 25.2522 41.7304C27.9359 41.9599 30.6074 46.1071 31.5514 48.2415M34.2655 59.1478C29.9231 52.009 31.1842 50.9291 29.4571 50.0631M34.2655 59.1478C29.4571 50.0631 33.7503 49.4522 31.5514 48.2415M34.2655 59.1478C32.904 58.4003 29.698 56.7185 29.1818 55.0102M29.4571 50.0631C25.8957 48.2775 27.0854 58.4126 23.5091 56.7917C19.8901 55.1514 15.0764 49.1577 16.24 45.0349C16.7928 43.0763 16.714 40.7449 17.5972 38.9096C19.3811 35.2026 17.0939 32.128 16.4015 28.2869C15.9303 25.6728 16.4819 28.0259 16.106 28.5631C15.1799 29.8865 12.8153 29.774 11.8703 31.2004C9.68184 34.5037 8.78258 39.492 10.5803 43.0024C13.3831 48.4755 14.2509 54.6969 18.5655 59.4482C21.7089 62.9099 26.68 62.8234 30.828 63.4048C35.3151 64.0337 32.3865 51.6263 36.8655 51.793M29.4571 50.0631C28.8462 45.571 24.9228 42.7076 20.9498 41.3122C20.7732 41.2502 15.0276 40.0327 17.8666 41.0811C20.0629 41.8922 22.5571 42.2416 24.7499 41.1762C29.643 38.7991 24.6527 34.2461 22.1588 32.7038C21.1872 32.1029 11.691 26.5923 12.3491 30.6119C13.0787 35.0679 18.1999 39.6855 21.6046 42.2252C23.3931 43.5594 29.0721 45.7019 30.6545 42.8337C32.6028 39.3024 26.3276 35.0891 23.741 34.4526C21.4205 33.8815 15.7376 33.5205 14.8554 36.7247C14.1319 39.3527 18.0903 42.9051 19.7351 44.1813C20.2227 44.5596 31.483 51.0516 31.5032 48.3911C31.5281 45.1084 24.1491 40.1851 21.8677 38.5951C19.1125 36.6749 15.7598 36.1202 15.8496 40.616C15.9249 44.3922 19.5989 46.4774 22.712 47.5565C23.7601 47.9199 32.8734 51.2303 31.5514 48.2415M29.4571 50.0631C29.9738 53.8634 27.0323 58.2027 22.8157 57.022C20.0395 56.2446 17.2076 53.1147 17.7297 50.0768C18.2618 46.9808 23.1615 47.2979 25.3356 47.8045C29.339 48.7376 33.3395 52.278 35.4006 55.7577C37.7818 59.778 30.0907 58.576 28.315 57.8883C27.12 57.4254 24.3236 55.3023 27.5735 55.709M29.4571 50.0631C28.2389 50.6516 30.5442 54.8479 29.1818 55.0102M29.4571 50.0631C30.9237 49.3546 32.5576 49.7785 34.178 50.0797M36.8655 51.793C34.6244 51.2087 28.7921 50.2541 27.2722 52.8048C26.0401 54.8725 31.7158 56.9449 32.5585 57.338M36.8655 51.793C39.6047 52.5071 34.4365 50.2157 34.178 50.0797M31.5514 48.2415C28.3775 46.494 31.2034 56.1631 27.5735 55.709M27.5735 55.709C25.1251 55.5443 31.2616 63.0906 28.9045 62.3301C23.5016 60.5868 17.7533 55.9122 15.1277 50.7852C14.1639 48.9032 13.9751 45.7696 13.7545 43.6551C13.4548 40.7827 14.8954 38.6371 14.7988 36.0047C14.7663 35.1176 12.8061 30.8256 13.4827 32.2159C14.5385 34.3857 14.6955 36.5732 13.8199 38.8467C13.2518 40.3219 11.9704 39.7938 10.9025 40.3407C9.21144 41.2067 14.7873 46.6998 15.8636 47.225C18.8039 48.6599 20.8988 46.1666 23.6014 47.0386C27.8683 48.4153 32.4748 49.2052 36.8506 50.2403C40.2015 51.0329 38.0106 50.4161 36.1632 49.8121C33.4416 48.9223 25.3125 46.191 28.0969 46.8586M27.5735 55.709C29.4213 55.8332 30.4558 57.6312 32.5585 57.338M29.1818 55.0102C29.0306 54.5097 34.4087 57.1839 34.7456 57.4039C39.19 60.3053 34.4331 58.2125 32.5585 57.338M29.1818 55.0102C27.1843 55.2482 25.9945 47.9353 28.0969 46.8586M29.1818 55.0102C30.7224 55.6529 34.9076 50.2153 34.178 50.0797M29.1818 55.0102C26.3246 53.8182 25.118 47.1358 26.9644 56.9571M34.178 50.0797C32.3489 49.1169 30.1271 47.3454 28.0969 46.8586M26.9644 56.9571C25.4361 56.2982 17.9384 52.6843 20.9136 50.4436C21.5584 49.958 24.6806 49.0831 24.6422 48.0348C24.5979 46.8293 23.6923 45.7662 23.2434 44.6941C22.753 43.5229 23.6029 42.5218 23.8328 41.3963C24.6576 37.3574 25.9263 32.44 25.5456 28.3478" stroke="white" stroke-width="4" stroke-linecap="round" stroke-linejoin="round"/>
<path d="M144.01 31.5555C141.699 31.6017 137.133 32.8506 137.01 35.9444C136.951 37.4119 139.601 35.0566 140.01 34.7222C140.68 34.1739 142.367 30.9993 141.898 31.0555C140.255 31.2528 138.706 33.9941 137.621 35.1666C136.077 36.8341 138.768 37.2557 139.898 35.7777C141.073 34.2416 141.464 32.4831 139.621 31.2777C138.352 30.4481 137.449 31.8496 137.51 33.0555C137.597 34.7967 141.05 33.3326 139.01 31.5833C137.133 29.9746 135.473 33.5608 135.732 35.1111C136.115 37.4094 140.325 41.6338 141.26 37.5833C141.682 35.7517 142.976 26.8277 139.537 31.5555C137.225 34.7355 142.2 41.2088 145.704 39.9722C148.241 39.0769 148.628 35.0597 146.287 33.7222C143.41 32.0779 142.189 41.7696 142.398 43.0555C142.927 46.3047 146.577 42.3653 147.232 41.0555C148.547 38.4252 139.949 40.1206 141.454 44.3333C142.413 47.019 149.571 47.948 148.565 43.2222C148.178 41.4026 143.729 35.3383 141.898 39C139.432 43.9334 145.313 48.206 149.898 45.7222C154.33 43.3216 142.964 39.5192 141.232 39.6666C139.106 39.8475 137.267 44.9573 140.51 45.0555C142.354 45.1114 144.235 43.9005 144.01 41.9444C143.805 40.1742 139.934 40.9896 139.621 42.5555C139.18 44.758 146.804 47.8402 148.648 46.9722C151.138 45.8006 146.719 43.7454 145.204 44.9722C143.514 46.3406 141.713 49.5459 143.232 51.6111C144.953 53.9526 148.969 54.1777 151.593 54.0277C153.722 53.9061 153.742 52.8884 151.76 52.5833C151.445 52.5349 150.017 52.7062 151.065 53.0555C152.583 53.5615 157.432 54.3275 158.398 52.5555C159.515 50.5081 156.366 51.5884 156.621 50.4444C156.971 48.8691 157.67 47.5921 158.565 46.25C158.824 45.8623 161.413 41.3314 160.787 44.1666C160.186 46.8904 155.356 48.9829 156.954 45.8333C158.179 43.4175 160.508 41.7265 162.76 40.3611C168.675 36.773 162.061 42.7845 160.287 44C155.021 47.6084 158.112 40.6549 159.565 38.4444C160.637 36.8141 164.059 32.3645 163.676 34.2777C163.538 34.9711 162.71 35.3142 162.176 35.7777C159.189 38.3712 155.977 40.5916 152.51 42.5C150.252 43.7427 145.121 47.3551 145.121 44.7777C145.121 40.8385 150.198 37.3798 152.954 35.3611C156.563 32.7176 155.463 34.7015 153.287 36.8333C151.644 38.4433 149.409 40.3288 147.621 41.7222C146.13 42.8835 142.832 46.0555 140.621 46.0555C136.796 46.0555 142.652 37.0366 142.954 36.7222C144.702 34.903 155.869 25.4302 158.065 31.3333C158.874 33.5082 155.129 36.5683 153.621 37.5C151.624 38.733 147.166 39.9805 144.871 39.25C138.976 37.3745 158.224 22.4605 157.676 29.1389C157.408 32.4081 153.121 35.9928 150.01 36.4444C148.015 36.734 141.413 37.5807 140.954 34.5C140.421 30.9231 149.566 23.5263 151.287 28.0555C151.848 29.5318 150.97 30.3067 149.704 30.8055C148.75 31.1815 146.212 32.9579 147.065 32.3889C149.493 30.7702 156.545 24.0336 159.121 27.9444C160.394 29.878 158.78 31.7353 156.815 32.9444C156.351 33.2302 154.5 31.922 154.621 31.5C155.179 29.5461 165.293 25.3997 166.398 27.3333C166.897 28.205 162.989 30.603 164.815 31.3055C167.99 32.5268 164.707 35.7858 167.898 37.8333M167.898 37.8333C170.785 39.6852 171.845 38.1352 170.287 39.2777C167.075 41.6337 163.971 43.889 160.898 46.3333C157.789 48.8069 150.26 50.3594 147.121 47.4444C145.629 46.0596 143.518 45.067 142.287 43.4444C139.801 40.1669 136.022 40.8012 132.287 39.6666C129.746 38.8945 132.092 39.4761 132.398 40.0555C133.154 41.4831 131.976 43.5365 132.815 45.0277C134.758 48.4813 138.788 51.5555 142.732 51.5555C148.881 51.5555 154.814 53.6189 161.01 51.9444C165.523 50.7244 167.712 46.2604 170.121 42.8333C172.726 39.1261 160.347 36.0773 162.537 32.1666M167.898 37.8333C168.331 37.5402 172.534 33.2058 170.454 34.6111C167.452 36.6396 163.846 39.1983 161.787 42.2222C159.944 44.9295 163.108 43.4082 164.065 42.5555C165.487 41.2886 170.062 34.9907 165.398 35.2777C161.362 35.5262 156.387 37.473 153.732 40.6111C152.29 42.3153 149.774 46.5318 152.287 48.4166C154.753 50.2661 158.83 49.1722 160.787 47.0555C163.76 43.8406 161.239 39.2445 157.621 37.9722C153.344 36.4683 149.007 38.6553 145.954 41.5555C145.818 41.6844 142.116 46.2434 144.343 44.1944C146.066 42.6092 147.514 40.5485 147.565 38.1111C147.68 32.6724 141.352 35.0388 138.843 36.5555C137.865 37.1464 128.632 43.0869 132.51 44.3333C136.808 45.715 143.253 43.2617 147.065 41.3889C149.068 40.4051 153.563 36.327 151.732 33.6111C149.477 30.2673 142.866 33.9323 141.121 35.9444C139.555 37.7495 136.643 42.6431 139.093 44.8889C141.102 46.7307 146.068 44.8267 147.954 43.9444C148.513 43.6829 159.424 36.6195 157.065 35.3889C154.155 33.8704 146.409 38.1941 143.954 39.5C140.989 41.0771 138.967 43.8083 143.01 45.7777C146.405 47.4319 149.936 45.1123 152.315 42.8333C153.116 42.066 160.217 35.4634 156.954 35.2777C154.624 35.1451 149.715 35.6325 148.287 37.9166C147.983 38.404 149.493 38.086 150.01 37.8333C151.417 37.1443 152.805 35.9876 153.954 35C156.412 32.8872 161.878 29.2341 162.898 25.9166C162.935 25.7964 159.8 25.8739 162.982 27.3055C164.788 28.1183 166.247 28.5555 168.232 28.5555C170.344 28.5555 164.479 28.6991 162.537 32.1666M167.898 37.8333C166.613 38.7044 163.654 40.7914 161.898 40.4722M162.537 32.1666C160.996 33.8951 157.488 38.6511 159.065 41.1666C160.344 43.2057 164.776 39.0986 165.51 38.5277M162.537 32.1666C164.421 30.0541 160.026 33.6097 159.787 33.7777C158.097 34.967 155.507 36.137 154.148 37.7222C152.285 39.8962 158.421 33.9056 160.454 31.8889C161.834 30.5198 163.381 28.8509 161.148 31.4722C158.233 34.8951 155.43 38.6352 152.26 41.8055C150.251 43.8136 151.516 46.8147 148.898 48.7777C147.94 49.4963 140.51 51.9554 140.51 50.0555C140.51 48.8557 141.564 47.9559 140.51 46.7777C138.885 44.9621 136.866 44.1048 134.454 44.0555C132.908 44.024 137.622 44.2357 138.426 44.6111C140.813 45.725 142.066 47.9852 144.76 49.0277C146.742 49.7952 149.617 51.0555 151.732 51.0555C157.492 51.0555 164.273 48.0699 168.287 44.0555C170.039 42.3042 171.358 40.1597 172.621 38.0555C173.573 36.4675 164.812 40.5329 165.51 38.5277M161.898 40.4722C161.384 40.3787 166.216 36.8107 166.565 36.6111C171.173 33.9778 167.142 37.2578 165.51 38.5277M161.898 40.4722C163.173 39.3939 176.074 34.6902 175.621 35.2777C174.614 36.5827 174.047 38.3161 174.01 39.9444C173.978 41.2969 174.597 42.1578 174.121 43.4444C173.422 45.3308 172.51 45.9176 172.51 43.5555C172.51 41.8899 172.087 39.5372 172.732 37.9444C173.439 36.1964 166.129 36.7466 165.51 38.5277M161.898 40.4722C159.535 42.4719 162.176 35.7777 171.76 38.6111C169.567 40.6879 169.979 44.3091 167.982 46.5555C164.893 50.0299 160.585 53.8229 155.51 52.9444C149.942 51.9807 147.666 45.6894 152.343 42.2222C155.911 39.5766 152.248 42.6876 151.621 44.4444C151.217 45.5738 154.337 46.6545 154.176 46.8611C152.976 48.4039 145.161 49.2129 144.232 47.2222C143.093 44.7814 141.198 43.0606 139.454 41C137.254 38.3998 135.203 35.6194 132.621 33.3889C132.308 33.1189 130.219 31.5425 131.315 31.0555C133.622 30.0303 135.683 27.1403 138.065 26.6111C141.065 25.9445 144.283 27.2206 147.148 25.5833C152.361 22.6049 159.534 24.646 165.065 25.1666C166.941 25.3432 174.01 25.9338 174.01 28.5555C174.01 32.4764 169.584 34.981 167.176 37.3889C165.423 39.1416 164.534 41.7525 162.621 43.3333C161.338 44.3933 154.703 49.4195 154.065 45.75C153.927 44.9547 154.571 41.7769 153.621 41.3333C152.527 40.8231 151.168 41.1447 150.01 41.0555C148.744 40.9581 148.24 39.7454 147.343 39.0277C144.124 36.4526 140.325 33.0819 136.51 31.5555" stroke="white" stroke-width="4" stroke-linecap="round" stroke-linejoin="round"/>
<path d="M216 35C218.507 38.5285 222.68 43.1614 219.722 47.5C217.027 51.4535 215.777 55.7227 212.306 59.1944C211.816 59.6844 209.682 60.9685 210.722 61C212.449 61.0523 213.891 61.9638 215.5 62.5C217.611 63.2038 220.065 63.5819 220 60.6667C219.935 57.7219 219.472 54.6349 219.028 51.75C218.85 50.5947 218.858 49.5442 218.528 48.3889C218.174 47.1512 218.567 50.9663 218.472 52.25C218.262 55.0869 216.031 59.0549 213.389 60.2222C210.054 61.6959 215.493 60.719 217 61.3889C218.732 62.1586 220.405 58.674 220.972 57.4444C222.532 54.0655 220.483 50.8453 218.722 48.0278C216.99 45.2562 214.616 42.5775 214.5 39.1111C214.445 37.4704 215.893 33.409 217.611 35.7222C220.094 39.0639 222.676 42.3701 222.972 46.6667C223.302 51.4427 221.679 52.3737 218.722 55.5278C216.347 58.0617 213.973 59.5894 211.278 61.6111C210.256 62.3773 205.352 64.963 207.5 65.5" stroke="white" stroke-width="4" stroke-linecap="round" stroke-linejoin="round"/>
<path d="M138.5 51.5C137.982 51.8928 135.941 54.1673 135.611 52.6667C135.49 52.1163 135.742 48.9467 135.444 50.5833C134.773 54.2765 131.505 55.2001 131.111 50.7778C130.954 49.0148 130.721 45.6363 132.778 44.7222C134.546 43.9365 135.061 47.9957 134.694 48.9722C134.222 50.2319 129.027 55.0743 132.056 53.0556C133.778 51.9074 136.102 49.8234 138.278 49.6111C140.96 49.3494 141.281 53.9045 140.222 55.4167C139.006 57.1537 138.993 56.5072 140.222 55.2778C141.871 53.6286 139.543 55.2414 138.667 55.5C138.498 55.5496 135.222 56.1783 135.222 56C135.222 55.7408 136.97 54.3924 136.694 54.7778C136.101 55.6082 132.504 57.7518 134 58.5" stroke="white" stroke-width="4" stroke-linecap="round" stroke-linejoin="round"/>
<path d="M22 23.5C19.0293 25.3114 17.5646 27.666 15.8056 30.6667C14.3575 33.1369 12.2203 35.0589 12.0278 38.1389C11.5081 46.4543 13.1151 53.0229 16.3056 60.6389C20.1148 69.732 26.2798 75.8523 33.1667 82.6667C39.0898 88.5275 45.1088 94.373 54 94.5C60.3751 94.5911 66.0597 93.3851 72.2778 92.1944C78.6595 90.9724 85.0367 88.2899 91 85.75C95.1838 83.968 98.3589 81.8785 100.472 77.7222C109.578 59.8151 110.924 40.7561 100.694 23.4444C98.0212 18.9204 95.1075 13.4635 91.1111 10C89.1685 8.31642 87.5493 5.96489 85.1667 4.88889C81.8148 3.37516 79.0012 3 75.3333 3C70.8089 3 66.3317 2.16346 61.7778 2.52778C59.7392 2.69086 57.5552 3.38176 55.7222 4.25C52.657 5.70194 49.0261 5.80278 45.8056 6.75C42.3332 7.77129 38.9076 8.50864 35.5 9.61111C32.2201 10.6723 29.8583 13.9869 27.5 16.2778C24.6961 19.0015 21.5897 21.9395 19 24.8889C16.5031 27.7326 14.7737 30.9684 12.5 34" stroke="black" stroke-width="4" stroke-linecap="round" stroke-linejoin="round"/>
<path d="M45.5 8.5C43.1089 12.804 41.2878 18.3558 42.2778 23.3056C43.0214 27.0236 44.7043 28.3811 47 31.1111C52.7415 37.9389 63.4517 38.3015 71.25 35.25C76.8637 33.0533 80.3648 26.5438 84.1944 22.25C86.0347 20.1866 86.6513 17.7293 88 15.3889C89.0786 13.5172 91 11.7285 91 9.5" stroke="black" stroke-width="4" stroke-linecap="round" stroke-linejoin="round"/>
<path d="M101 31C96.3503 28.343 94.5907 30.0456 90.5 32.5" stroke="black" stroke-width="4" stroke-linecap="round" stroke-linejoin="round"/>
<path d="M102 33.5C100.73 30.437 100.388 30.5 97.3889 30.5C94.5256 30.5 91.735 30.722 89.0555 31.8889C83.4615 34.325 77.2866 42.2197 75.5 48C72.7957 56.7493 83.8739 61.8661 90.7778 62.8889C95.1235 63.5327 99.6019 63.5 104 63.5" stroke="black" stroke-width="4" stroke-linecap="round" stroke-linejoin="round"/>
<path d="M31 78C33.0072 72.2145 38.5776 66.0887 44.25 63.7778C50.9035 61.0671 55.5126 62.9922 60.7778 67C66.5266 71.376 70.4735 77.5695 75.6944 82.3889C77.7495 84.2859 76.0649 88.7403 75.5 91" stroke="black" stroke-width="4" stroke-linecap="round" stroke-linejoin="round"/>
<path d="M22.5 21.5C30.0123 20.0691 33.0996 25.2687 37.3889 30.5556C39.666 33.3622 42.2317 34.7542 42.4722 38.7222C42.693 42.3645 39.7153 45.0046 37.4444 47.5278C35.362 49.8416 33.8429 52.9903 31.1111 54.6667C29.239 55.8154 27.2092 56.7367 25.5278 58.25C23.4952 60.0793 21.2881 61.4746 19 63" stroke="black" stroke-width="4" stroke-linecap="round" stroke-linejoin="round"/>
<path d="M42.5 12.5C41.3333 12.5 40.1667 12.5 39 12.5" stroke="black" stroke-width="4" stroke-linecap="round" stroke-linejoin="round"/>
<path d="M94.5 22.5C93.2915 23.3905 90.985 24.5663 90.5278 26.1667C90.2446 27.1578 91.6412 24.2773 91.5556 23.25C91.4631 22.1404 89.9404 25.8313 88.9444 25.3333C88.2228 24.9725 89.8071 23.9696 90.2222 23.2778C90.6809 22.5133 91.1114 21.7387 91.6111 21C92.4527 19.7559 89.7274 22.2918 89.5833 22.4167C87.7297 24.0231 88.1498 23.6794 88.7778 21.5C89.459 19.1359 90.2209 12.093 90.9444 14.4444C91.2952 15.5844 90.4662 17.3715 92.25 15.9444C93.1756 15.204 93.375 14.1627 93.6111 15.5556C93.9727 17.6886 94.768 19.633 95.6111 21.6111C96.1901 22.9696 97.2311 24.9599 95.7222 26.1944C94.7943 26.9537 91.8069 24.0457 90.3889 24C88.3329 23.9337 87.0132 25.9162 85.7778 27.2222C84.4837 28.5902 79.1694 34.1376 83.5833 29.9444C83.7435 29.7923 87.476 26.5998 87.5556 26.9444C87.6858 27.5087 85.8594 28.2937 86.8333 28.8889C88.6547 30.002 92.7976 28.8759 94.5556 28.0556C95.744 27.5009 91.9316 27.0547 91.5 27.0278C88.487 26.8395 85.9146 28 83 28C77.9399 28 77.0605 34.8817 74 38C73.7394 38.2655 71.3384 40.7181 71.9445 40.6111C73.8353 40.2774 75.7489 38.5598 77.1389 37.3333C78.9432 35.7413 77.4401 36.788 80.5278 34.4722C81.8414 33.487 83.5781 32.6197 84.7778 31.5C85.1424 31.1597 82.6705 33.2307 84 32.1111C86.5748 29.9429 90.3478 25.6926 93.5556 28.7222C97.4043 32.3572 102.125 22.8195 96 23.5C95.2926 23.5786 95.3428 25.0474 95.1667 25.5278C94.64 26.9642 93.2328 28.7579 91.8056 29.4167C90.1143 30.1972 88.4517 31.8627 87 33.1111C85.0894 34.7542 83.6438 36.2872 81.3889 37.5556C80.1037 38.2785 71.2195 43.3517 71.0278 41.7222C71.0167 41.6282 70.9903 40.2554 70.8889 40.3333C69.6399 41.2941 68.286 42.1823 67.0556 43.1667C66.1328 43.9049 68.9648 41.7323 70.0556 41.2778C73.9886 39.639 71.4622 41.6178 69.5556 43.1944C68.6774 43.9206 66.0537 45.8564 66.5556 44.8333C67.6121 42.6796 72.5504 37.6291 70.4445 38.7778C68.627 39.7691 60.7484 47.6713 62.8889 41.4444C63.7577 38.9169 61.1747 41.9443 60.3056 42.5833C59.3592 43.2792 51.8562 48.1993 55.7778 44.2778C58.472 41.5835 57.1695 42.981 55.4722 44.8056C51.7356 48.8224 54.3517 45.4135 54.9445 45.6111C55.2031 45.6973 44.7415 57.0314 47.8333 51.3889C48.2097 50.702 51.0441 47.5316 49.2222 49.6667C48.4455 50.5768 41.6745 59.0257 41.2222 58.6111C40.5119 57.96 41.2453 55.7573 41.9722 55.3333C44.0198 54.1389 39.6139 59.591 37.75 61.0556C36.5705 61.9823 37.3996 57.6615 37.5 57.2222C37.9537 55.2373 38.5087 55.2309 37.2222 56.8333C36.9245 57.2042 33.2339 60.3523 34.8056 58.5C37.4709 55.3587 40.9627 52.7296 44.3333 50.3889C46.1984 49.0937 46.0152 50.4877 44.7778 51.3611C43.3922 52.3392 44.843 47.9703 44.9167 47.6389C45.244 46.1658 44.8911 46.4928 44 46.8889C43.1774 47.2545 42.8051 42.6187 42.7222 42.1111C42.4284 40.3116 42.0585 37.6878 42.8056 36.0278C43.052 35.4802 44.1208 34.6626 43.8889 34C43.3361 32.4207 42.7745 31.2068 42.5 29.4444C42.2521 27.8526 42.4382 25.0707 40.3889 25C38.7235 24.9426 37.7166 24.0474 37.1111 22.5C36.5891 21.1659 36.9066 19.6597 36.4444 18.3889C36.1131 17.4777 33.0831 20.2831 33.2222 17.3611C33.2508 16.7607 34.7673 13.5912 34.3889 15.3889C34.2861 15.8773 32.3772 17.6553 32.3333 17.3333C32.1544 16.0212 34.9016 13.2449 36 12.8056C37.5623 12.1806 34.0034 15.8011 32.4167 16.3611C29.8543 17.2655 37.2338 13.5978 39.9167 13.1667C41.0869 12.9786 48.322 12.057 45 15.1944C43.4274 16.6797 34.7004 16.9811 36.7222 13.8889C37.1467 13.2398 37.7534 12.7891 38.3611 12.3333C41.6447 9.87062 31.6751 17.0993 28.25 19.3611C25.4886 21.1847 32.8999 15.3691 33.3333 15.0833C33.6478 14.876 41.7303 10.8351 40.5 12.7778C38.7672 15.5138 36.3873 17.8349 34.1111 20.1111C32.7284 21.4938 31.6154 21.7682 33.3889 20.3889C34.4214 19.5858 34.9728 22.4888 35.2222 23.0556C35.8777 24.5452 37.8617 21.5659 38.3611 20.9167C38.5399 20.6842 39.2185 23.6889 39.3889 24.2222C40.2851 27.0278 38.5428 22.4807 38.3889 22.0556C37.746 20.2801 36.5 17.9488 36.5 16C36.5 15.2891 37.2444 15.4564 37.5 15.9444C39.6694 20.0859 40.6982 25.536 43.7778 29.0556C46.0196 31.6176 47.4665 34.9316 48.25 38.2222C49.336 42.7833 46.1515 35.5482 45.7778 34.6667C44.0966 30.7016 41.4997 27.0875 37.7222 25C36.7135 24.4426 35.0449 22.9893 34.2778 22.2222C33.6416 21.586 36.2595 27.2578 37.0556 28.2222C39.044 30.6313 40.6787 33.6231 42.8611 35.8056C45.4023 38.3467 47.9026 39.6065 49.2222 43C50.1214 45.3121 46.8119 47.8668 44.6111 47.5C42.0696 47.0764 43.4678 41.3239 44 40.0556C44.2159 39.5411 46.7092 35.6795 46.3889 38.3333C46.276 39.2689 46.1186 41.2384 45.3056 41.8889C45.2204 41.957 45.5504 41.5511 45.7222 41.5C46.7012 41.209 47.6463 41.7706 48.4167 42.3056C52.0438 44.8244 42.0905 46.484 49.2778 41.5556C51.3706 40.1205 55.2201 38.2615 57.8889 39.2222C60.4506 40.1445 57.3923 42.7014 56.2778 43.1667C53.4996 44.3265 44.8429 44.7989 50.6667 40.7222C51.1401 40.3908 55.777 37.3156 56.3889 38.1111C57.8502 40.0108 49.8794 42.77 49 42.8889C48.2392 42.9917 45.6898 42.9898 46.2222 41.3333C46.687 39.8874 52.3202 39.4502 53.5 39.9444C56.3853 41.1532 55.5979 44.4595 52.7778 44.9722C52.2572 45.0669 53.6085 44.2764 54.1111 44.1111C55.6743 43.5972 57.6637 43.0259 57.8889 45.2778C58.0801 47.1896 55.7396 47.0546 54.8056 46C53.9417 45.0247 53.0335 40.8685 51.75 40.5833C49.6418 40.1148 44.2518 43.7819 43.0556 45.25C38.9185 50.3273 36.557 55.2621 31.1111 59.2778C30.6508 59.6172 26.8472 61.8917 27.3333 61.25C28.2258 60.0719 37.4893 51.8929 37.8056 53C38.3894 55.0433 35.6069 57.8647 34.3333 59.0556C33.5953 59.7457 30.3842 62.662 33.2222 60.3333C33.424 60.1677 36.1056 57.8378 35.7778 57.4444C35.6345 57.2725 35.3525 57.5976 35.1667 57.7222C34.5308 58.1487 31.2983 60.6613 31 60.8889C29.6572 61.9134 27.3774 63.6424 26.1667 64.5C24.854 65.4298 24.0791 66.4589 22.6389 66.6389C21.3769 66.7966 24.2951 64.7049 25.1944 63.8056C26.4914 62.5086 25.956 63.1685 25.5 64.1944C25.2965 64.6523 24.4293 64.7879 24 64.8889C22.3872 65.2684 23.2584 64.7266 23.4444 63.8333C23.5652 63.2537 15.9789 62.861 17.8333 65.5C18.8693 66.9743 20.8956 68.1093 22.1667 69.4167C24.242 71.5513 25.0258 70.0198 27.1389 68.6111C30.2501 66.537 26.133 69.1205 27.2222 70.2778C28.695 71.8426 33.1505 64.3141 32.2778 66.2778C31.6647 67.6572 28.5725 71.014 29.3056 69.6944C29.7152 68.957 30.6917 68.2044 29.4167 69.3056C28.7679 69.8658 27.0413 70.9757 26.9444 71.9444C26.8908 72.481 27.9736 71.383 28.5 71.5C29.0305 71.6179 29.9759 76.4834 30.4722 74.25C30.8323 72.6298 26.9319 72.8218 26.2222 72C24.436 69.9318 25.7347 66.1851 27.6111 64.7778C29.0662 63.6865 32.198 60.8339 29.6389 64.4167C28.1863 66.4503 39.3927 59.8286 34.7222 65.6667C34.1326 66.4037 33.1542 66.8382 32.6389 67.6111C32.1885 68.2867 34.6905 65.1628 34.3889 65.9167C33.5238 68.0795 31.9259 68.6706 30.0278 69.7778C27.8007 71.0769 27.1015 71.7283 30.1667 69.4444C32.857 67.4399 36.3875 63.7455 39.6111 62.5C43.2387 61.0984 48.3792 62 52.2778 62C56.0906 62 59.0552 64.6625 62.8889 65.1111C64.9083 65.3474 67.2031 65.2817 68.2778 67.3333C69.6176 69.8912 71.8822 71.9622 73.5 74.3889C74.6587 76.127 75.0169 78.9911 75.3889 81C75.8039 83.2411 77.2682 84.2097 78 86.2222C79.121 89.3048 80.6168 86.5057 82.2778 85.2222C83.6563 84.157 85.0533 83.2118 86.0278 81.75C86.9745 80.3299 88.2578 80.1121 89.3611 79.3333C91.172 78.0551 92.6203 75.9103 94.1667 74.3333C95.3065 73.171 98 71.3381 98 69.5C98 67.9868 98.5036 67.3026 99.7222 66.3056C101.712 64.6772 99.7526 67.7146 99.2778 68.3333C97.2977 70.9135 95.589 73.6113 93.7778 76.2778C92.1866 78.6204 89.5453 80.4547 87.5556 82.4444C86.9506 83.0494 82.5209 85.8812 85.0556 86.4444C89.764 87.4908 94.8052 82.5038 97 78.8889C99.068 75.4828 100.469 70.6356 101.5 66.8333C101.843 65.5695 101.756 65.7436 100.889 66.6111C99.2581 68.2419 97.2794 69.9047 96.5556 72.1667C95.9207 74.1506 94.615 76.2859 93.4722 78C92.3868 79.6281 90.5826 83.2317 88.6111 83.8889C87.184 84.3646 83.9068 81.8949 82.3889 81.3889C80.3018 80.6932 77.9781 80.2518 76.6389 78.3611C74.6434 75.544 71.9304 72.4859 69.4722 70.0278C68.016 68.5715 66.2049 68.1825 64.6111 67C62.7324 65.6061 61.3675 63.4658 59.1945 62.5C55.3634 60.7973 50.2232 59.7112 46 59.5C45.2244 59.4612 43.3015 59.9669 43.5278 58.7222C43.9934 56.1612 46.8831 54.9697 48.5556 53.4167C52.4256 49.823 56.843 47.7714 61 45" stroke="black" stroke-width="4" stroke-linecap="round" stroke-linejoin="round"/>
<path d="M65 45.5C62.3604 48.0888 54.1288 55.5237 56.7778 52.9444C59.4758 50.3174 68.2668 43.2483 65.6667 45.9722C61.9146 49.903 57.0578 53.0869 52.3889 55.8333C49.3997 57.5917 51.2442 54.7741 52.1944 53.3056C53.8758 50.7071 55.8419 48.4384 58 46.2222C58.8816 45.3169 59.7957 44.4438 60.6944 43.5556C61.5842 42.6762 64.4491 41.2726 63.2778 40.8333C61.7874 40.2744 57.2193 44.878 55.2778 45.3889C51.9746 46.2581 53.2138 41.6152 53.5556 39.8333C53.9903 37.5667 56.7867 34.0734 53.3889 35.4444C52.124 35.9548 47.4436 36.6746 46.6111 37.6111C46.3575 37.8964 47.099 38.1986 47.3333 38.5C48.9872 40.6264 49.0318 43.57 48.5833 46.1111C48.007 49.3771 45.6972 51.6433 44.8333 54.6667C44.6022 55.4756 46.5439 54.5703 46.7778 54.5278C50.9653 53.7664 52.8135 57.3272 55.1111 60C57.7842 63.1095 61.5089 65.0607 65.2222 66.6389C67.3488 67.5427 69.1854 69.2115 71.2778 70.2778C75.1873 72.2701 82.4442 75.5595 83.9167 80.2222C84.4022 81.7597 80.4042 86.9444 78.8333 86.9444C78.2908 86.9444 79.3696 85.9987 79.5833 85.5C80.0789 84.3438 81.7145 83.2141 82.5 82.1667C85.6475 77.9699 78.5 81.9263 78.5 79.5C78.5 75.642 73.5643 71.416 71.2778 68.5278C69.9736 66.8804 68.1569 66.0766 66.7778 64.5556C63.9023 61.384 62.8465 56.2281 63.3333 52.0556C63.549 50.2068 65.8173 46.6319 63 48.6667C62.6488 48.9203 55.8101 53.7377 58.8889 53.5278C61.3693 53.3587 63.8547 51.8171 65.8889 50.5556C68.221 49.1092 73.5658 43.5628 72.8889 46.2222C71.9072 50.079 66.0107 54.5043 63.0833 57.1389C59.6982 60.1855 65.7833 54.6667 66 54.4722C67.3216 53.2862 71.252 51.2345 69.6111 50.5556C68.0799 49.9219 63.9297 53.6573 62.8889 54.4444C61.7735 55.288 58.8448 57.023 61.6667 55.8611C62.4249 55.5489 60.4161 60.064 59.2778 60.6667C58.4132 61.1244 55.4703 58.9095 54.4444 58.25C51.5382 56.3817 57.6331 59.1052 58.4722 59.7222C61.2387 61.7564 63.8824 64.0013 66.75 65.8889C70.3112 68.233 74.9257 68.5682 78.2778 71.1111C80.7127 72.9583 83.5782 78.3785 87.1111 78C88.4907 77.8522 90.1629 75.1636 91.1111 74.2778C92.8027 72.6975 94.1493 70.8507 95.7778 69.2222C96.3143 68.6857 98.6914 67 96.8889 67C94.5817 67 92.2803 67.6646 89.9722 67.4722C84.7465 67.0367 79.6371 63.2813 75.3889 60.3889C72.0667 58.127 72.172 54.2163 70.5 51.1111C70.0477 50.2712 71.3631 50.3139 71.8889 50.6111C73.0778 51.2831 68.8435 56.3172 68.3611 57.0833C65.6747 61.35 68.9549 64.5612 73.25 66.6667C76.521 68.2701 79.558 69.901 82.5 71.8889C83.1169 72.3057 85.9904 74.1582 85.1667 71.9444C83.8638 68.4429 79.7552 64.7904 76.5 63C73.896 61.5678 73.3815 60.3212 71.8889 57.8889C71.0981 56.6001 63.9419 51.9564 68 55" stroke="black" stroke-width="4" stroke-linecap="round" stroke-linejoin="round"/>
<path d="M66 36.5C64.6722 36.8135 60.404 37.0145 62.75 38.2778C64.1759 39.0455 68.8811 40.3651 67.3333 39.8889C65.3487 39.2782 60.1311 36.8153 58.4722 38.8889C57.3961 40.234 56.0176 42.0679 55.5 43.75C54.7342 46.239 52.0844 46.859 51 49.0278C50.4138 50.2002 50.3465 51.9835 49.6667 52.9722C48.9166 54.0633 46.9095 54.1121 46.5556 55.5278C45.7233 58.8569 49.5924 61.5312 52.6667 60.9722C53.195 60.8762 53.6151 57.0582 54.3056 56.4444C56.6157 54.391 58.0696 54.7527 60.5278 56.75C61.7386 57.7338 63.2512 58.9887 64.1945 60.2222C64.976 61.2442 66.1369 61.2027 67 62.3056C69.8115 65.898 73.1349 66.5 77.6111 66.5C78.2811 66.5 81.2107 66.961 80.2778 66.0556C78.8608 64.6803 77.4048 64.0532 75.6111 63.3889C74.1256 62.8387 70.8592 61.4147 69.7222 60.2778C68.0698 58.6253 66.8975 57.4012 64.8333 56.1111C64.0584 55.6268 69.7982 57.7012 70.6667 58.1111C73.7001 59.5429 75.6462 62.2024 78.5556 63.6111C81.6193 65.0946 84.356 66.4144 87.1111 68.3889C89.5336 70.125 91.9478 71.1091 94.7778 72C97.0521 72.716 95.1118 70.9971 94.2222 70.5C92.4357 69.5016 87.7029 68.7287 86.6111 67C85.0688 64.5581 81.9756 61.9854 79.5 60.5" stroke="black" stroke-width="4" stroke-linecap="round" stroke-linejoin="round"/>
<path d="M89.5 73.5C87.573 73.9743 83.4004 75.897 85.6111 72.5C87.7065 69.2804 89.8962 72.847 87.3334 74.5556C85.4994 75.7782 85.1346 73.7073 85.6111 72.2778C86.0005 71.1096 87.1726 70.2559 88.2778 69.8333C89.227 69.4704 90.9417 70.2714 91.6111 69.8889C92.2284 69.5361 87.4675 67.0196 87.0278 66.7778C84.6878 65.4908 83.0866 63.785 81.0278 62.0556C77.1812 58.8244 69.7641 54.3818 71 48.5556C71.6335 45.569 71.6923 43.0364 73.3889 40.3333C75.0525 37.6829 77.2136 34.8577 79.3889 32.6111C80.3552 31.6131 91.4768 21.6166 88.4167 20.2778C87.2789 19.78 84.1111 20.6363 84.1111 22.2222C84.1111 24.2286 94.2748 28.2818 95.9445 29.0556C98.3313 30.1616 96.7829 29.6415 95.5 29C91.5509 27.0254 86.9279 25.4649 82.5556 27.2778C80.6559 28.0654 78.7652 30.0565 77.0556 31.2222C75.2738 32.437 73.4141 33.6557 72 35.3056C70.0477 37.5832 68.6449 40.0935 66.4445 42.25C61.9975 46.608 59.4806 52.4293 55 56.6111C52.1444 59.2764 48.4918 61.0006 45.1111 62.8889C41.8161 64.7294 39.5331 67.4608 36.5556 69.7222C34.4514 71.3203 31.4063 72.092 28.8334 72.3889C27.881 72.4988 23.3438 72.2654 26.6389 72.75C29.8219 73.2181 32.9836 71.807 35.1945 69.5C37.7418 66.8419 41.0546 64.8261 43.8611 62.3889C49.9026 57.1423 58.8367 60.2523 66.2222 58.6111C71.0082 57.5476 76.2872 57.8674 81.1111 58.5C81.9887 58.6151 86.0251 58.499 86.5556 59.3611C87.6115 61.0771 90.4004 64.7998 88 66" stroke="black" stroke-width="4" stroke-linecap="round" stroke-linejoin="round"/>
<path d="M81.5 78C80.6711 81.8681 78.0727 84.5 74 84.5" stroke="black" stroke-width="4" stroke-linecap="round" stroke-linejoin="round"/>
<path d="M48 53.5C48.3989 54.0021 53.6548 59.2266 51.5 58.6389C50.45 58.3525 46 57.1874 46 56.5" stroke="black" stroke-width="4" stroke-linecap="round" stroke-linejoin="round"/>
<path d="M72 44.5C72.8984 43.3566 73.6977 42.2034 74.5 41" stroke="black" stroke-width="4" stroke-linecap="round" stroke-linejoin="round"/>
<path d="M95 29.5C95.3174 29.3111 100.22 27.0248 99.8889 26.6111C98.4967 24.8709 95.9067 24.332 94.75 22.25C94.1349 21.1429 94.7971 19.9436 94.9722 18.8056C95.2279 17.1439 91.6069 16.4428 90.5 16" stroke="black" stroke-width="4" stroke-linecap="round" stroke-linejoin="round"/>
<path d="M137.914 23.0641C134.944 24.8755 133.479 27.2302 131.72 30.2308C130.272 32.7011 128.135 34.623 127.942 37.703C127.422 46.0184 129.029 52.5871 132.22 60.203C136.029 69.2961 142.194 75.4164 149.081 82.2308C155.004 88.0916 161.023 93.9371 169.914 94.0641C176.289 94.1552 181.974 92.9493 188.192 91.7586C194.574 90.5365 200.951 87.854 206.914 85.3141C211.098 83.5321 214.273 81.4426 216.387 77.2863C225.492 59.3792 226.838 40.3202 216.609 23.0086C213.935 18.4845 211.022 13.0276 207.025 9.56411C205.083 7.88053 203.464 5.52901 201.081 4.453C197.729 2.93927 194.915 2.56411 191.248 2.56411C186.723 2.56411 182.246 1.72758 177.692 2.09189C175.654 2.25498 173.47 2.94588 171.637 3.81411C168.571 5.26606 164.94 5.3669 161.72 6.31411C158.247 7.33541 154.822 8.07276 151.414 9.17523C148.134 10.2364 145.773 13.551 143.414 15.8419C140.61 18.5657 137.504 21.5037 134.914 24.453C132.417 27.2967 130.688 30.5326 128.414 33.5641" stroke="black" stroke-width="4" stroke-linecap="round" stroke-linejoin="round"/>
<path d="M161.414 8.06412C159.023 12.3681 157.202 17.9199 158.192 22.8697C158.936 26.5878 160.619 27.9452 162.914 30.6752C168.656 37.503 179.366 37.8656 187.164 34.8141C192.778 32.6175 196.279 26.108 200.109 21.8141C201.949 19.7508 202.566 17.2935 203.914 14.953C204.993 13.0813 206.914 11.2926 206.914 9.06412" stroke="black" stroke-width="4" stroke-linecap="round" stroke-linejoin="round"/>
<path d="M216.914 30.5641C212.265 27.9071 210.505 29.6097 206.414 32.0641" stroke="black" stroke-width="4" stroke-linecap="round" stroke-linejoin="round"/>
<path d="M217.914 33.0641C216.644 30.0011 216.303 30.0641 213.303 30.0641C210.44 30.0641 207.649 30.2861 204.97 31.453C199.376 33.8891 193.201 41.7838 191.414 47.5641C188.71 56.3134 199.788 61.4302 206.692 62.453C211.038 63.0968 215.516 63.0641 219.914 63.0641" stroke="black" stroke-width="4" stroke-linecap="round" stroke-linejoin="round"/>
<path d="M146.914 77.5641C148.922 71.7786 154.492 65.6529 160.164 63.3419C166.818 60.6312 171.427 62.5563 176.692 66.5641C182.441 70.9401 186.388 77.1336 191.609 81.953C193.664 83.85 191.979 88.3045 191.414 90.5641" stroke="black" stroke-width="4" stroke-linecap="round" stroke-linejoin="round"/>
<path d="M138.414 21.0641C145.927 19.6332 149.014 24.8328 153.303 30.1197C155.58 32.9263 158.146 34.3183 158.387 38.2863C158.607 41.9286 155.63 44.5687 153.359 47.0919C151.276 49.4057 149.757 52.5544 147.025 54.2308C145.153 55.3796 143.124 56.3008 141.442 57.8141C139.41 59.6435 137.202 61.0387 134.914 62.5641" stroke="black" stroke-width="4" stroke-linecap="round" stroke-linejoin="round"/>
<path d="M158.414 12.0641C157.248 12.0641 156.081 12.0641 154.914 12.0641" stroke="black" stroke-width="4" stroke-linecap="round" stroke-linejoin="round"/>
<path d="M210.414 22.0641C209.206 22.9546 206.899 24.1304 206.442 25.7308C206.159 26.7219 207.555 23.8414 207.47 22.8141C207.377 21.7045 205.855 25.3954 204.859 24.8974C204.137 24.5366 205.721 23.5337 206.137 22.8419C206.595 22.0774 207.026 21.3028 207.525 20.5641C208.367 19.32 205.642 21.8559 205.498 21.9808C203.644 23.5872 204.064 23.2436 204.692 21.0641C205.373 18.7 206.135 11.6571 206.859 14.0086C207.21 15.1485 206.38 16.9356 208.164 15.5086C209.09 14.7681 209.289 13.7269 209.525 15.1197C209.887 17.2527 210.682 19.1971 211.525 21.1752C212.104 22.5337 213.145 24.524 211.637 25.7586C210.709 26.5178 207.721 23.6099 206.303 23.5641C204.247 23.4978 202.928 25.4804 201.692 26.7863C200.398 28.1543 195.084 33.7018 199.498 29.5086C199.658 29.3564 203.39 26.1639 203.47 26.5086C203.6 27.0728 201.774 27.8578 202.748 28.453C204.569 29.5661 208.712 28.4401 210.47 27.6197C211.658 27.065 207.846 26.6189 207.414 26.5919C204.401 26.4036 201.829 27.5641 198.914 27.5641C193.854 27.5641 192.975 34.4458 189.914 37.5641C189.654 37.8296 187.253 40.2822 187.859 40.1752C189.75 39.8415 191.663 38.124 193.053 36.8974C194.858 35.3054 193.354 36.3521 196.442 34.0363C197.756 33.0511 199.492 32.1839 200.692 31.0641C201.057 30.7238 198.585 32.7948 199.914 31.6752C202.489 29.507 206.262 25.2567 209.47 28.2863C213.319 31.9213 218.039 22.3836 211.914 23.0641C211.207 23.1427 211.257 24.6115 211.081 25.0919C210.554 26.5283 209.147 28.3221 207.72 28.9808C206.029 29.7614 204.366 31.4268 202.914 32.6752C201.004 34.3183 199.558 35.8513 197.303 37.1197C196.018 37.8426 187.134 42.9159 186.942 41.2863C186.931 41.1923 186.905 39.8195 186.803 39.8974C185.554 40.8582 184.2 41.7464 182.97 42.7308C182.047 43.469 184.879 41.2964 185.97 40.8419C189.903 39.2031 187.377 41.1819 185.47 42.7586C184.592 43.4847 181.968 45.4205 182.47 44.3974C183.526 42.2437 188.465 37.1932 186.359 38.3419C184.541 39.3333 176.663 47.2354 178.803 41.0086C179.672 38.481 177.089 41.5084 176.22 42.1474C175.274 42.8433 167.771 47.7634 171.692 43.8419C174.386 41.1476 173.084 42.5451 171.387 44.3697C167.65 48.3865 170.266 44.9776 170.859 45.1752C171.117 45.2615 160.656 56.5955 163.748 50.953C164.124 50.2661 166.958 47.0957 165.137 49.2308C164.36 50.141 157.589 58.5898 157.137 58.1752C156.426 57.5241 157.16 55.3215 157.887 54.8974C159.934 53.7031 155.528 59.1552 153.664 60.6197C152.485 61.5464 153.314 57.2256 153.414 56.7863C153.868 54.8014 154.423 54.795 153.137 56.3974C152.839 56.7683 149.148 59.9165 150.72 58.0641C153.385 54.9228 156.877 52.2938 160.248 49.953C162.113 48.6578 161.93 50.0518 160.692 50.9252C159.307 51.9033 160.757 47.5344 160.831 47.203C161.158 45.7299 160.805 46.057 159.914 46.453C159.092 46.8186 158.719 42.1828 158.637 41.6752C158.343 39.8757 157.973 37.252 158.72 35.5919C158.966 35.0443 160.035 34.2268 159.803 33.5641C159.25 31.9848 158.689 30.7709 158.414 29.0086C158.166 27.4167 158.353 24.6348 156.303 24.5641C154.638 24.5067 153.631 23.6115 153.025 22.0641C152.503 20.7301 152.821 19.2238 152.359 17.953C152.027 17.0418 148.997 19.8472 149.137 16.9252C149.165 16.3248 150.682 13.1554 150.303 14.953C150.2 15.4414 148.292 17.2194 148.248 16.8974C148.069 15.5854 150.816 12.809 151.914 12.3697C153.477 11.7447 149.918 15.3652 148.331 15.9252C145.769 16.8296 153.148 13.162 155.831 12.7308C157.001 12.5427 164.236 11.6211 160.914 14.7586C159.342 16.2438 150.615 16.5453 152.637 13.453C153.061 12.8039 153.668 12.3532 154.275 11.8974C157.559 9.43473 147.589 16.6634 144.164 18.9252C141.403 20.7488 148.814 14.9332 149.248 14.6474C149.562 14.4401 157.645 10.3993 156.414 12.3419C154.681 15.078 152.302 17.399 150.025 19.6752C148.643 21.0579 147.53 21.3324 149.303 19.953C150.336 19.15 150.887 22.0529 151.137 22.6197C151.792 24.1094 153.776 21.13 154.275 20.4808C154.454 20.2484 155.133 23.253 155.303 23.7863C156.199 26.5919 154.457 22.0448 154.303 21.6197C153.66 19.8442 152.414 17.5129 152.414 15.5641C152.414 14.8532 153.159 15.0205 153.414 15.5086C155.584 19.6501 156.613 25.1002 159.692 28.6197C161.934 31.1818 163.381 34.4957 164.164 37.7863C165.25 42.3474 162.066 35.1123 161.692 34.2308C160.011 30.2657 157.414 26.6517 153.637 24.5641C152.628 24.0067 150.959 22.5535 150.192 21.7863C149.556 21.1502 152.174 26.8219 152.97 27.7863C154.958 30.1954 156.593 33.1873 158.775 35.3697C161.317 37.9108 163.817 39.1707 165.137 42.5641C166.036 44.8763 162.726 47.4309 160.525 47.0641C157.984 46.6405 159.382 40.888 159.914 39.6197C160.13 39.1052 162.624 35.2436 162.303 37.8974C162.19 38.8331 162.033 40.8025 161.22 41.453C161.135 41.5211 161.465 41.1152 161.637 41.0641C162.615 40.7731 163.561 41.3347 164.331 41.8697C167.958 44.3885 158.005 46.0481 165.192 41.1197C167.285 39.6846 171.134 37.8256 173.803 38.7863C176.365 39.7086 173.307 42.2655 172.192 42.7308C169.414 43.8906 160.757 44.363 166.581 40.2863C167.054 39.9549 171.691 36.8798 172.303 37.6752C173.765 39.5749 165.794 42.3342 164.914 42.453C164.154 42.5558 161.604 42.5539 162.137 40.8974C162.601 39.4515 168.235 39.0143 169.414 39.5086C172.3 40.7173 171.512 44.0236 168.692 44.5363C168.172 44.631 169.523 43.8405 170.025 43.6752C171.589 43.1613 173.578 42.59 173.803 44.8419C173.994 46.7537 171.654 46.6187 170.72 45.5641C169.856 44.5888 168.948 40.4327 167.664 40.1474C165.556 39.6789 160.166 43.3461 158.97 44.8141C154.833 49.8914 152.471 54.8262 147.025 58.8419C146.565 59.1813 142.762 61.4558 143.248 60.8141C144.14 59.636 153.404 51.457 153.72 52.5641C154.304 54.6074 151.521 57.4288 150.248 58.6197C149.51 59.3098 146.298 62.2261 149.137 59.8974C149.338 59.7319 152.02 57.4019 151.692 57.0086C151.549 56.8367 151.267 57.1617 151.081 57.2863C150.445 57.7128 147.213 60.2254 146.914 60.453C145.572 61.4776 143.292 63.2065 142.081 64.0641C140.768 64.994 139.993 66.023 138.553 66.203C137.291 66.3608 140.209 64.269 141.109 63.3697C142.406 62.0727 141.87 62.7326 141.414 63.7586C141.211 64.2164 140.344 64.352 139.914 64.453C138.302 64.8325 139.173 64.2907 139.359 63.3974C139.48 62.8178 131.893 62.4251 133.748 65.0641C134.784 66.5384 136.81 67.6734 138.081 68.9808C140.156 71.1154 140.94 69.5839 143.053 68.1752C146.164 66.1011 142.047 68.6846 143.137 69.8419C144.609 71.4067 149.065 63.8782 148.192 65.8419C147.579 67.2213 144.487 70.5781 145.22 69.2586C145.63 68.5211 146.606 67.7685 145.331 68.8697C144.682 69.43 142.956 70.5399 142.859 71.5086C142.805 72.0452 143.888 70.9471 144.414 71.0641C144.945 71.182 145.89 76.0475 146.387 73.8141C146.747 72.1939 142.846 72.3859 142.137 71.5641C140.35 69.4959 141.649 65.7492 143.525 64.3419C144.981 63.2506 148.112 60.398 145.553 63.9808C144.101 66.0144 155.307 59.3927 150.637 65.2308C150.047 65.9678 149.068 66.4023 148.553 67.1752C148.103 67.8508 150.605 64.7269 150.303 65.4808C149.438 67.6436 147.84 68.2347 145.942 69.3419C143.715 70.641 143.016 71.2924 146.081 69.0086C148.771 67.004 152.302 63.3096 155.525 62.0641C159.153 60.6626 164.294 61.5641 168.192 61.5641C172.005 61.5641 174.97 64.2266 178.803 64.6752C180.823 64.9115 183.117 64.8458 184.192 66.8974C185.532 69.4554 187.797 71.5263 189.414 73.953C190.573 75.6911 190.931 78.5552 191.303 80.5641C191.718 82.8052 193.183 83.7738 193.914 85.7863C195.035 88.8689 196.531 86.0698 198.192 84.7863C199.571 83.7211 200.968 82.7759 201.942 81.3141C202.889 79.894 204.172 79.6763 205.275 78.8975C207.086 77.6192 208.535 75.4744 210.081 73.8974C211.221 72.7351 213.914 70.9022 213.914 69.0641C213.914 67.551 214.418 66.8667 215.637 65.8697C217.627 64.2413 215.667 67.2787 215.192 67.8974C213.212 70.4776 211.503 73.1754 209.692 75.8419C208.101 78.1845 205.46 80.0188 203.47 82.0086C202.865 82.6135 198.435 85.4453 200.97 86.0086C205.678 87.0549 210.72 82.0679 212.914 78.453C214.982 75.0469 216.383 70.1997 217.414 66.3974C217.757 65.1336 217.671 65.3077 216.803 66.1752C215.172 67.806 213.194 69.4688 212.47 71.7308C211.835 73.7147 210.529 75.85 209.387 77.5641C208.301 79.1922 206.497 82.7959 204.525 83.453C203.098 83.9287 199.821 81.459 198.303 80.953C196.216 80.2573 193.892 79.8159 192.553 77.9252C190.558 75.1081 187.845 72.0501 185.387 69.5919C183.93 68.1356 182.119 67.7466 180.525 66.5641C178.647 65.1702 177.282 63.0299 175.109 62.0641C171.278 60.3614 166.138 59.2753 161.914 59.0641C161.139 59.0253 159.216 59.531 159.442 58.2863C159.908 55.7253 162.797 54.5338 164.47 52.9808C168.34 49.3872 172.757 47.3355 176.914 44.5641" stroke="black" stroke-width="4" stroke-linecap="round" stroke-linejoin="round"/>
<path d="M180.914 45.0641C178.275 47.6529 170.043 55.0878 172.692 52.5086C175.39 49.8815 184.181 42.8124 181.581 45.5363C177.829 49.4671 172.972 52.651 168.303 55.3974C165.314 57.1558 167.159 54.3383 168.109 52.8697C169.79 50.2713 171.756 48.0025 173.914 45.7863C174.796 44.881 175.71 44.008 176.609 43.1197C177.499 42.2403 180.363 40.8367 179.192 40.3974C177.702 39.8385 173.134 44.4421 171.192 44.953C167.889 45.8223 169.128 41.1793 169.47 39.3974C169.905 37.1308 172.701 33.6375 169.303 35.0086C168.038 35.519 163.358 36.2387 162.525 37.1752C162.272 37.4606 163.013 37.7628 163.248 38.0641C164.902 40.1905 164.946 43.1341 164.498 45.6752C163.921 48.9412 161.611 51.2074 160.748 54.2308C160.517 55.0397 162.458 54.1344 162.692 54.0919C166.88 53.3305 168.728 56.8914 171.025 59.5641C173.699 62.6736 177.423 64.6248 181.137 66.203C183.263 67.1068 185.1 68.7756 187.192 69.8419C191.102 71.8342 198.359 75.1236 199.831 79.7863C200.317 81.3239 196.319 86.5086 194.748 86.5086C194.205 86.5086 195.284 85.5628 195.498 85.0641C195.993 83.9079 197.629 82.7782 198.414 81.7308C201.562 77.5341 194.414 81.4904 194.414 79.0641C194.414 75.2061 189.479 70.9801 187.192 68.0919C185.888 66.4445 184.071 65.6407 182.692 64.1197C179.817 60.9482 178.761 55.7922 179.248 51.6197C179.463 49.7709 181.732 46.196 178.914 48.2308C178.563 48.4844 171.724 53.3018 174.803 53.0919C177.284 52.9228 179.769 51.3813 181.803 50.1197C184.135 48.6733 189.48 43.1269 188.803 45.7863C187.821 49.6431 181.925 54.0684 178.998 56.703C175.613 59.7496 181.698 54.2308 181.914 54.0363C183.236 52.8503 187.166 50.7986 185.525 50.1197C183.994 49.4861 179.844 53.2214 178.803 54.0086C177.688 54.8521 174.759 56.5872 177.581 55.4252C178.339 55.113 176.33 59.6281 175.192 60.2308C174.328 60.6885 171.385 58.4736 170.359 57.8141C167.453 55.9458 173.547 58.6694 174.387 59.2863C177.153 61.3205 179.797 63.5655 182.664 65.453C186.226 67.7971 190.84 68.1323 194.192 70.6752C196.627 72.5224 199.493 77.9426 203.025 77.5641C204.405 77.4163 206.077 74.7277 207.025 73.8419C208.717 72.2616 210.064 70.4148 211.692 68.7863C212.229 68.2498 214.606 66.5641 212.803 66.5641C210.496 66.5641 208.195 67.2287 205.887 67.0363C200.661 66.6009 195.551 62.8454 191.303 59.953C187.981 57.6911 188.086 53.7804 186.414 50.6752C185.962 49.8353 187.277 49.878 187.803 50.1752C188.992 50.8472 184.758 55.8813 184.275 56.6474C181.589 60.9141 184.869 64.1253 189.164 66.2308C192.435 67.8342 195.472 69.4652 198.414 71.453C199.031 71.8698 201.905 73.7223 201.081 71.5086C199.778 68.007 195.67 64.3545 192.414 62.5641C189.81 61.1319 189.296 59.8853 187.803 57.453C187.012 56.1643 179.856 51.5205 183.914 54.5641" stroke="black" stroke-width="4" stroke-linecap="round" stroke-linejoin="round"/>
<path d="M181.914 36.0641C180.587 36.3776 176.318 36.5786 178.664 37.8419C180.09 38.6097 184.795 39.9293 183.248 39.453C181.263 38.8423 176.045 36.3794 174.387 38.453C173.31 39.7981 171.932 41.6321 171.414 43.3141C170.648 45.8031 167.999 46.4231 166.914 48.5919C166.328 49.7644 166.261 51.5476 165.581 52.5363C164.831 53.6274 162.824 53.6763 162.47 55.0919C161.638 58.4211 165.507 61.0953 168.581 60.5363C169.109 60.4403 169.529 56.6223 170.22 56.0086C172.53 53.9551 173.984 54.3168 176.442 56.3141C177.653 57.2979 179.165 58.5528 180.109 59.7863C180.89 60.8083 182.051 60.7668 182.914 61.8697C185.726 65.4622 189.049 66.0641 193.525 66.0641C194.195 66.0641 197.125 66.5251 196.192 65.6197C194.775 64.2444 193.319 63.6173 191.525 62.953C190.04 62.4028 186.774 60.9788 185.637 59.8419C183.984 58.1894 182.812 56.9653 180.748 55.6752C179.973 55.1909 185.713 57.2653 186.581 57.6752C189.614 59.107 191.561 61.7665 194.47 63.1752C197.534 64.6587 200.27 65.9785 203.025 67.953C205.448 69.6891 207.862 70.6732 210.692 71.5641C212.966 72.2801 211.026 70.5612 210.137 70.0641C208.35 69.0657 203.617 68.2928 202.525 66.5641C200.983 64.1222 197.89 61.5495 195.414 60.0641" stroke="black" stroke-width="4" stroke-linecap="round" stroke-linejoin="round"/>
<path d="M205.414 73.0641C203.487 73.5384 199.315 75.4611 201.525 72.0641C203.621 68.8445 205.811 72.4111 203.248 74.1197C201.414 75.3423 201.049 73.2714 201.525 71.8419C201.915 70.6737 203.087 69.82 204.192 69.3974C205.141 69.0345 206.856 69.8355 207.525 69.453C208.143 69.1003 203.382 66.5837 202.942 66.3419C200.602 65.0549 199.001 63.3491 196.942 61.6197C193.095 58.3885 185.678 53.9459 186.914 48.1197C187.548 45.1331 187.607 42.6005 189.303 39.8974C190.967 37.247 193.128 34.4218 195.303 32.1752C196.27 31.1772 207.391 21.1807 204.331 19.8419C203.193 19.3441 200.025 20.2004 200.025 21.7863C200.025 23.7928 210.189 27.8459 211.859 28.6197C214.246 29.7258 212.697 29.2056 211.414 28.5641C207.465 26.5895 202.842 25.029 198.47 26.8419C196.57 27.6295 194.68 29.6206 192.97 30.7863C191.188 32.0012 189.328 33.2199 187.914 34.8697C185.962 37.1474 184.559 39.6576 182.359 41.8141C177.912 46.1721 175.395 51.9934 170.914 56.1752C168.059 58.8405 164.406 60.5647 161.025 62.453C157.73 64.2935 155.447 67.0249 152.47 69.2863C150.366 70.8845 147.321 71.6561 144.748 71.953C143.795 72.0629 139.258 71.8295 142.553 72.3141C145.736 72.7822 148.898 71.3711 151.109 69.0641C153.656 66.406 156.969 64.3903 159.775 61.953C165.817 56.7065 174.751 59.8165 182.137 58.1752C186.923 57.1117 192.202 57.4315 197.025 58.0641C197.903 58.1792 201.939 58.0631 202.47 58.9252C203.526 60.6412 206.315 64.3639 203.914 65.5641" stroke="black" stroke-width="4" stroke-linecap="round" stroke-linejoin="round"/>
<path d="M197.414 77.5641C196.585 81.4322 193.987 84.0641 189.914 84.0641" stroke="black" stroke-width="4" stroke-linecap="round" stroke-linejoin="round"/>
<path d="M163.914 53.0641C164.313 53.5662 169.569 58.7907 167.414 58.203C166.364 57.9167 161.914 56.7515 161.914 56.0641" stroke="black" stroke-width="4" stroke-linecap="round" stroke-linejoin="round"/>
<path d="M187.914 44.0641C188.813 42.9208 189.612 41.7676 190.414 40.5641" stroke="black" stroke-width="4" stroke-linecap="round" stroke-linejoin="round"/>
<path d="M210.914 29.0641C211.232 28.8752 216.134 26.5889 215.803 26.1752C214.411 24.435 211.821 23.8961 210.664 21.8141C210.049 20.707 210.711 19.5078 210.887 18.3697C211.142 16.708 207.521 16.0069 206.414 15.5641" stroke="black" stroke-width="4" stroke-linecap="round" stroke-linejoin="round"/>
</svg>
