<svg width="160" height="97" viewBox="0 0 160 97" fill="none" xmlns="http://www.w3.org/2000/svg">
<path d="M69.9614 36.8744C75.4485 56.6861 66.4902 77.9552 50.1312 84.4781C33.7722 91.001 15.986 80.3958 10.4989 60.5841C5.01187 40.7724 13.9701 19.5033 30.3291 12.9804C46.6881 6.45751 64.4743 17.0627 69.9614 36.8744Z" fill="white" stroke="black"/>
<path d="M55.4368 64.4829C57.6573 72.5003 54.0195 81.0308 47.4902 83.6343C40.961 86.2377 33.7915 82.0164 31.571 73.9991C29.3505 65.9817 32.9882 57.4512 39.5175 54.8477C46.0468 52.2443 53.2163 56.4656 55.4368 64.4829Z" fill="black" stroke="black"/>
<path d="M149.501 36.4159C154.988 56.2276 146.03 77.4967 129.671 84.0196C113.312 90.5425 95.5257 79.9373 90.0386 60.1256C84.5515 40.3139 93.5098 19.0448 109.869 12.5219C126.228 5.999 144.014 16.6042 149.501 36.4159Z" fill="white" stroke="black"/>
<path d="M134.976 64.0244C137.197 72.0418 133.559 80.5723 127.03 83.1758C120.501 85.7792 113.331 81.5579 111.111 73.5405C108.89 65.5232 112.528 56.9927 119.057 54.3892C125.586 51.7858 132.756 56.0071 134.976 64.0244Z" fill="black" stroke="black"/>
</svg>
