<svg width="757" height="449" viewBox="0 0 757 449" fill="none" xmlns="http://www.w3.org/2000/svg">
<path d="M296.961 171.874C302.448 191.686 293.49 212.955 277.131 219.478C260.772 226.001 242.986 215.396 237.499 195.584C232.012 175.772 240.97 154.503 257.329 147.98C273.688 141.457 291.474 152.063 296.961 171.874Z" fill="white" stroke="black"/>
<path d="M282.437 199.483C284.657 207.5 281.02 216.031 274.49 218.634C267.961 221.238 260.791 217.016 258.571 208.999C256.35 200.982 259.988 192.451 266.517 189.848C273.047 187.244 280.216 191.466 282.437 199.483Z" fill="black" stroke="black"/>
<path d="M376.501 171.416C381.988 191.228 373.03 212.497 356.671 219.02C340.312 225.542 322.526 214.937 317.039 195.126C311.552 175.314 320.51 154.045 336.869 147.522C353.228 140.999 371.014 151.604 376.501 171.416Z" fill="white" stroke="black"/>
<path d="M361.976 199.024C364.197 207.042 360.559 215.572 354.03 218.176C347.501 220.779 340.331 216.558 338.111 208.541C335.89 200.523 339.528 191.993 346.057 189.389C352.586 186.786 359.756 191.007 361.976 199.024Z" fill="black" stroke="black"/>
</svg>
