<svg width="757" height="449" viewBox="0 0 757 449" fill="none" xmlns="http://www.w3.org/2000/svg">
<g clip-path="url(#clip0)">
<path d="M371.849 397.815C374.588 399.185 376.2 402.367 376.477 406.567C376.753 410.753 375.687 415.849 373.188 420.847C370.688 425.845 367.249 429.754 363.734 432.044C360.208 434.342 356.696 434.96 353.956 433.59C351.217 432.22 349.605 429.039 349.328 424.839C349.052 420.653 350.118 415.556 352.617 410.558C355.117 405.561 358.556 401.651 362.071 399.361C365.597 397.064 369.11 396.445 371.849 397.815Z" fill="#FFC691" stroke="black"/>
<path d="M465.849 415.815C468.588 417.185 470.2 420.367 470.477 424.567C470.753 428.753 469.687 433.849 467.188 438.847C464.688 443.845 461.249 447.754 457.734 450.044C454.208 452.342 450.696 452.96 447.956 451.59C445.217 450.22 443.605 447.039 443.328 442.839C443.052 438.653 444.118 433.556 446.617 428.558C449.117 423.561 452.556 419.651 456.071 417.361C459.597 415.064 463.11 414.445 465.849 415.815Z" fill="#FFC691" stroke="black"/>
<path d="M286.849 357.815C289.588 359.185 291.2 362.367 291.477 366.567C291.753 370.753 290.687 375.849 288.188 380.847C285.688 385.845 282.249 389.754 278.734 392.044C275.208 394.342 271.696 394.96 268.956 393.59C266.217 392.22 264.605 389.039 264.328 384.839C264.052 380.653 265.118 375.556 267.617 370.558C270.117 365.561 273.556 361.651 277.071 359.361C280.597 357.064 284.11 356.445 286.849 357.815Z" fill="#FFC691" stroke="black"/>
<path d="M565.338 407.133C568.407 407.256 571.187 409.42 573.168 412.995C575.143 416.561 576.274 421.456 576.059 426.83C575.844 432.204 574.326 436.993 572.072 440.389C569.812 443.795 566.869 445.731 563.799 445.608C560.73 445.486 557.95 443.321 555.969 439.746C553.994 436.18 552.863 431.285 553.078 425.911C553.292 420.537 554.81 415.748 557.065 412.352C559.325 408.946 562.268 407.01 565.338 407.133Z" fill="#FFC691" stroke="black"/>
</g>
<defs>
<clipPath id="clip0">
<rect width="757" height="449" fill="white"/>
</clipPath>
</defs>
</svg>
