<svg width="757" height="449" viewBox="0 0 757 449" fill="none" xmlns="http://www.w3.org/2000/svg">
<g clip-path="url(#clip0)">
<path d="M370.507 400.498C371.901 401.195 373.242 403.1 373.483 406.764C373.718 410.331 372.809 414.898 370.505 419.505C368.201 424.111 365.092 427.579 362.097 429.53C359.02 431.535 356.692 431.604 355.298 430.907C353.905 430.21 352.563 428.305 352.322 424.641C352.087 421.074 352.996 416.507 355.3 411.9C357.604 407.294 360.713 403.826 363.708 401.875C366.785 399.871 369.113 399.801 370.507 400.498Z" fill="#FFDADA" stroke="black" stroke-width="7"/>
<path d="M464.507 418.498C465.901 419.195 467.242 421.1 467.483 424.764C467.718 428.331 466.809 432.898 464.505 437.505C462.201 442.111 459.092 445.579 456.097 447.53C453.02 449.535 450.692 449.604 449.298 448.907C447.905 448.21 446.563 446.305 446.322 442.641C446.087 439.074 446.996 434.507 449.3 429.9C451.604 425.294 454.713 421.826 457.708 419.875C460.785 417.871 463.113 417.801 464.507 418.498Z" fill="#FFDADA" stroke="black" stroke-width="7"/>
<path d="M285.507 360.498C286.901 361.195 288.242 363.1 288.483 366.764C288.718 370.331 287.809 374.898 285.505 379.505C283.201 384.111 280.092 387.579 277.097 389.53C274.02 391.535 271.692 391.604 270.298 390.907C268.905 390.21 267.563 388.305 267.322 384.641C267.087 381.074 267.996 376.507 270.3 371.9C272.604 367.294 275.713 363.826 278.708 361.875C281.785 359.871 284.113 359.801 285.507 360.498Z" fill="#FFDADA" stroke="black" stroke-width="7"/>
<path d="M565.218 410.13C566.839 410.195 568.84 411.374 570.543 414.449C572.211 417.46 573.258 421.792 573.062 426.71C572.865 431.628 571.476 435.863 569.573 438.731C567.629 441.66 565.541 442.675 563.919 442.611C562.298 442.546 560.297 441.367 558.593 438.292C556.925 435.281 555.879 430.949 556.075 426.031C556.272 421.113 557.661 416.878 559.564 414.01C561.508 411.081 563.596 410.066 565.218 410.13Z" fill="#FFDADA" stroke="black" stroke-width="7"/>
</g>
<defs>
<clipPath id="clip0">
<rect width="757" height="449" fill="white"/>
</clipPath>
</defs>
</svg>
