<svg width="757" height="449" viewBox="0 0 757 449" fill="none" xmlns="http://www.w3.org/2000/svg">
<path d="M315 213C311.324 216.893 307.556 223.486 307.556 228.917C307.556 232.798 311.575 237.891 315.028 239.445C319.057 241.258 320.958 241.427 324.222 238.5C326.969 236.038 328.817 232.794 330.917 229.806C332.817 227.101 334.712 222.909 333 219.889C331.113 216.559 329.641 214.042 326.278 212C323.698 210.433 320.999 210.82 318.5 212C316.375 213.004 313.396 212.906 312 215" stroke="#FEFFBE" stroke-width="4" stroke-linecap="round" stroke-linejoin="round"/>
<path d="M324 241C323.82 247.127 323 253.069 323 259.222C323 263.705 322.889 268.03 322.5 272.5" stroke="#FEFFBE" stroke-width="4" stroke-linecap="round" stroke-linejoin="round"/>
<path d="M298 255C300.188 262.49 305.87 277.562 316.222 276.472C317.614 276.326 319.686 275.439 320.472 274.194C321.139 273.139 322.231 269.983 323.25 269.417C323.701 269.166 324.202 271.023 324.306 271.222C324.948 272.457 326.17 273.758 327.111 274.778C329.668 277.547 334.125 278.549 337.389 276.778C341.456 274.571 344.446 270.794 347.167 267.167C348.494 265.397 350.861 263.166 350.5 261" stroke="#FEFFBE" stroke-width="4" stroke-linecap="round" stroke-linejoin="round"/>
<path d="M318.5 276C317.991 280.923 314.815 295.889 324.695 293.194C328.034 292.284 331.264 287.384 333.333 284.917C334.808 283.158 336.04 281.252 337.5 279.5" stroke="#FEFFBE" stroke-width="4" stroke-linecap="round" stroke-linejoin="round"/>
<path d="M325.5 275C325.369 280.654 324 286.22 324 292" stroke="#FEFFBE" stroke-width="4" stroke-linecap="round" stroke-linejoin="round"/>
</svg>
