<svg width="52" height="40" viewBox="0 0 52 40" fill="none" xmlns="http://www.w3.org/2000/svg">
<path d="M44.6956 18.9811C45.6194 23.938 47.3101 29.1217 49.1956 33.9245" stroke="black" stroke-width="4" stroke-linecap="round" stroke-linejoin="round"/>
<path d="M42.1956 18.6415C35.7296 20.48 29.8869 24.176 24.3623 27.0189C23.9337 27.2394 10.8318 33.3205 11.529 34.1887C12.8271 35.8052 22.3922 34.9434 24.4456 34.9434C28.9442 34.9434 32.7116 35.5295 37.0567 36.434C40.2425 37.0971 44.3377 38 47.6956 38" stroke="black" stroke-width="4" stroke-linecap="round" stroke-linejoin="round"/>
<path d="M49.6956 34.9434C48.8797 35.8387 47.1956 36.8916 47.1956 38" stroke="black" stroke-width="4" stroke-linecap="round" stroke-linejoin="round"/>
<path d="M43.1956 17.283C43.0066 15.4423 41.4382 14.2718 40.1956 12.717C39.094 11.3386 38.2927 10.0236 37.3067 8.60377C35.8419 6.49441 35.26 4.16884 34.1956 2" stroke="black" stroke-width="4" stroke-linecap="round" stroke-linejoin="round"/>
<path d="M30.6956 2C26.8922 2 24.1138 2.68597 20.8067 3.96226C19.4726 4.47714 17.7314 4.87254 16.2234 5.01887C14.7574 5.16112 13.3792 5.67968 11.9734 5.73585C8.74794 5.86472 5.29377 6.64591 2.41785 7.62264C0.259055 8.35582 7.09003 10.4898 8.66785 10.8113C10.7253 11.2306 11.9679 12.5269 13.9734 13.0566C15.4272 13.4406 17.0311 13.4293 18.4456 13.8868C20.4375 14.5311 23.2797 14.2264 25.4734 14.2264C27.6288 14.2264 29.4141 14.2323 31.4734 14.7358C33.6273 15.2625 36.2855 15.2758 38.1956 15.9245" stroke="black" stroke-width="4" stroke-linecap="round" stroke-linejoin="round"/>
<path d="M36.6956 16.2642C38.0676 16.2863 39.3705 16.3787 40.6956 16.6038" stroke="black" stroke-width="4" stroke-linecap="round" stroke-linejoin="round"/>
</svg>
