<svg width="757" height="449" viewBox="0 0 757 449" fill="none" xmlns="http://www.w3.org/2000/svg">
<path d="M346.696 253.981C347.619 258.938 349.31 264.122 351.196 268.924" stroke="black" stroke-width="4" stroke-linecap="round" stroke-linejoin="round"/>
<path d="M344.196 253.641C337.73 255.48 331.887 259.176 326.362 262.019C325.934 262.239 312.832 268.32 313.529 269.189C314.827 270.805 324.392 269.943 326.446 269.943C330.944 269.943 334.712 270.529 339.057 271.434C342.243 272.097 346.338 273 349.696 273" stroke="black" stroke-width="4" stroke-linecap="round" stroke-linejoin="round"/>
<path d="M351.696 269.943C350.88 270.839 349.196 271.892 349.196 273" stroke="black" stroke-width="4" stroke-linecap="round" stroke-linejoin="round"/>
<path d="M345.196 252.283C345.007 250.442 343.438 249.272 342.196 247.717C341.094 246.339 340.293 245.024 339.307 243.604C337.842 241.494 337.26 239.169 336.196 237" stroke="black" stroke-width="4" stroke-linecap="round" stroke-linejoin="round"/>
<path d="M332.696 237C328.892 237 326.114 237.686 322.807 238.962C321.473 239.477 319.731 239.873 318.223 240.019C316.757 240.161 315.379 240.68 313.973 240.736C310.748 240.865 307.294 241.646 304.418 242.623C302.259 243.356 309.09 245.49 310.668 245.811C312.725 246.231 313.968 247.527 315.973 248.057C317.427 248.441 319.031 248.429 320.446 248.887C322.437 249.531 325.28 249.226 327.473 249.226C329.629 249.226 331.414 249.232 333.473 249.736C335.627 250.263 338.285 250.276 340.196 250.925" stroke="black" stroke-width="4" stroke-linecap="round" stroke-linejoin="round"/>
<path d="M338.696 251.264C340.068 251.286 341.37 251.379 342.696 251.604" stroke="black" stroke-width="4" stroke-linecap="round" stroke-linejoin="round"/>
</svg>
