<svg width="105" height="55" viewBox="0 0 105 55" fill="none" xmlns="http://www.w3.org/2000/svg">
<path d="M92.2444 26.0566C94.1752 33.0788 97.7092 40.4224 101.65 47.2264" stroke="black" stroke-width="4" stroke-linecap="round" stroke-linejoin="round"/>
<path d="M87.0187 25.5755C73.5031 28.18 61.2905 33.416 49.7427 37.4434C48.8468 37.7558 21.4606 46.3707 22.9178 47.6006C25.6312 49.8907 45.6246 48.6698 49.9169 48.6698C59.3201 48.6698 67.1948 49.5001 76.2772 50.7814C82.9363 51.7209 91.4963 53 98.5151 53" stroke="black" stroke-width="4" stroke-linecap="round" stroke-linejoin="round"/>
<path d="M102.696 48.6698C100.99 49.9381 97.47 51.4297 97.47 53" stroke="black" stroke-width="4" stroke-linecap="round" stroke-linejoin="round"/>
<path d="M89.109 23.6509C88.7139 21.0433 85.4356 19.385 82.8383 17.1824C80.5356 15.2296 78.8608 13.3668 76.7998 11.3553C73.7379 8.36707 72.5215 5.07252 70.2968 2" stroke="black" stroke-width="4" stroke-linecap="round" stroke-linejoin="round"/>
<path d="M72 4.77987C64.0499 4.77987 49.2232 2.97179 42.3107 4.77987C39.5221 5.50929 35.8825 6.06943 32.7304 6.27673C29.6662 6.47825 26.7853 7.21288 23.8469 7.29245C17.1049 7.47503 9.8848 8.58171 3.8734 9.96541C-0.639005 11.0041 13.6394 14.0272 16.9374 14.4827C21.2381 15.0767 23.8355 16.9131 28.0274 17.6635C31.0662 18.2076 34.4187 18.1915 37.3754 18.8396C41.5389 19.7523 47.4799 19.3208 52.0652 19.3208C56.5706 19.3208 60.3021 19.3291 64.6067 20.0425C69.1088 20.7886 74.6651 20.8074 78.6578 21.7264" stroke="black" stroke-width="4" stroke-linecap="round" stroke-linejoin="round"/>
<path d="M75.5224 22.2075C78.3902 22.239 81.1135 22.3699 83.8834 22.6887" stroke="black" stroke-width="4" stroke-linecap="round" stroke-linejoin="round"/>
</svg>
