<svg width="757" height="449" viewBox="0 0 757 449" fill="none" xmlns="http://www.w3.org/2000/svg">
<path d="M276 227C281.008 231.153 285.31 237.401 291.056 230.889C293.359 228.278 295.854 225.843 297.944 223.056C299.775 220.615 299.841 221.263 302.167 223.667C308.372 230.079 311.03 232.778 319.889 233.778C325.299 234.389 328.175 228.767 331 225" stroke="black" stroke-width="4" stroke-linecap="round" stroke-linejoin="round"/>
<path d="M289 232C291.729 237.661 290.446 246.854 294.222 251.889C296.673 255.157 304.845 254.371 308.778 254.778C315.526 255.476 314 234.91 314 232" stroke="black" stroke-width="4" stroke-linecap="round" stroke-linejoin="round"/>
<path d="M300 226C300.191 234.034 302 242.067 302 250" stroke="black" stroke-width="4" stroke-linecap="round" stroke-linejoin="round"/>
<path d="M289 235C295.707 232.383 308.952 232.183 315.5 230" stroke="black" stroke-width="4" stroke-linecap="round" stroke-linejoin="round"/>
</svg>
