<svg width="757" height="449" viewBox="0 0 757 449" fill="none" xmlns="http://www.w3.org/2000/svg">
<path d="M367.244 264.057C369.175 271.079 372.709 278.422 376.65 285.226" stroke="black" stroke-width="4" stroke-linecap="round" stroke-linejoin="round"/>
<path d="M362.019 263.575C348.503 266.18 336.29 271.416 324.743 275.443C323.847 275.756 296.461 284.371 297.918 285.601C300.631 287.891 320.625 286.67 324.917 286.67C334.32 286.67 342.195 287.5 351.277 288.781C357.936 289.721 366.496 291 373.515 291" stroke="black" stroke-width="4" stroke-linecap="round" stroke-linejoin="round"/>
<path d="M377.696 286.67C375.99 287.938 372.47 289.43 372.47 291" stroke="black" stroke-width="4" stroke-linecap="round" stroke-linejoin="round"/>
<path d="M364.109 261.651C363.714 259.043 360.436 257.385 357.838 255.182C355.536 253.23 353.861 251.367 351.8 249.355C348.738 246.367 347.522 243.073 345.297 240" stroke="black" stroke-width="4" stroke-linecap="round" stroke-linejoin="round"/>
<path d="M347 242.78C339.05 242.78 324.223 240.972 317.311 242.78C314.522 243.509 310.883 244.069 307.73 244.277C304.666 244.478 301.785 245.213 298.847 245.292C292.105 245.475 284.885 246.582 278.873 247.965C274.361 249.004 288.639 252.027 291.937 252.483C296.238 253.077 298.835 254.913 303.027 255.664C306.066 256.208 309.419 256.192 312.375 256.84C316.539 257.752 322.48 257.321 327.065 257.321C331.571 257.321 335.302 257.329 339.607 258.042C344.109 258.789 349.665 258.807 353.658 259.726" stroke="black" stroke-width="4" stroke-linecap="round" stroke-linejoin="round"/>
<path d="M350.522 260.208C353.39 260.239 356.114 260.37 358.883 260.689" stroke="black" stroke-width="4" stroke-linecap="round" stroke-linejoin="round"/>
</svg>
