<svg width="757" height="449" viewBox="0 0 757 449" fill="none" xmlns="http://www.w3.org/2000/svg">
<path d="M625.944 345.006C619.351 338.92 619.244 329.867 608 331.117C609.956 332.421 606.284 355.007 610.778 355.117C615.271 355.226 617.319 357.028 621 359.672C625.289 362.753 629.498 364.532 634.778 363.895C639.764 363.293 637.403 366.626 638.444 370.561C641.046 380.389 656.967 373.844 661.556 383.895C663.303 387.723 660.528 392.868 662.444 397.339C663.363 399.482 664.908 403.28 667.278 404.228C670.837 405.651 675.55 408.02 677.056 411.783C678.469 415.318 680.039 422.719 683.556 424.561C692.723 429.363 699.459 420.557 699.833 411.95C700.33 400.532 687.319 395.014 681 387.228C675.838 380.868 674.12 374.102 673.111 366.117C672.546 361.64 672.789 356.609 667.833 354.783C655.11 350.096 636.728 354.96 625.944 345.006Z" fill="#FFDDA9" stroke="black" stroke-width="3" stroke-linecap="round" stroke-linejoin="round"/>
</svg>
