<svg width="757" height="449" viewBox="0 0 757 449" fill="none" xmlns="http://www.w3.org/2000/svg">
<path d="M519.465 206.536C511.109 199.17 503.156 190.866 494.082 184.402C493.71 183.019 492.807 181.931 492.169 180.537C491.195 178.408 491.589 175.611 491.56 173.331C491.49 167.976 490.454 161.287 492.367 156.213C495.182 148.75 498.608 141.826 502.497 134.936C506.559 127.738 512.26 121.989 517.15 115.404C530.436 97.5143 548.373 84.4323 570.527 81.6057C581.127 80.2533 592.073 80.8109 602.602 82.2542C610.262 83.3042 616.966 87.0744 623.989 90.1405C630.02 92.7737 636.165 94.4271 641.261 98.8552C646.312 103.244 650.416 108.738 655.28 113.354C659.002 116.887 663.129 119.934 666.897 123.399C672.083 128.167 673.974 135.976 675.54 142.617C678.262 154.161 678.095 165.923 677.264 177.71C676.064 194.714 670.264 214.967 658.886 227.88C643.57 245.259 620.126 246.249 600.559 256.021C595.834 258.381 585.232 247.081 581.931 243.983C572.504 235.139 561.172 230.136 550.164 223.835C546.024 221.465 541.602 220.624 537.434 218.346C530.95 214.801 525.043 211.454 519.465 206.536Z" fill="#00DB09"/>
<path d="M493.386 183.911C502.751 190.442 510.896 198.982 519.465 206.536C525.043 211.454 530.95 214.801 537.434 218.346C541.602 220.624 546.024 221.465 550.164 223.835C561.172 230.136 572.504 235.139 581.931 243.983C585.232 247.081 595.834 258.381 600.559 256.021C620.126 246.249 643.57 245.259 658.886 227.88C670.264 214.967 676.064 194.714 677.264 177.71C678.095 165.923 678.262 154.161 675.54 142.617C673.974 135.976 672.083 128.167 666.897 123.399C663.129 119.934 659.002 116.887 655.28 113.354C650.416 108.738 646.312 103.244 641.261 98.8552C636.165 94.4271 630.02 92.7737 623.989 90.1405C616.966 87.0744 610.262 83.3042 602.602 82.2542C592.073 80.8109 581.127 80.2533 570.527 81.6057C548.373 84.4323 530.436 97.5143 517.15 115.404C512.26 121.989 506.559 127.738 502.497 134.936C498.608 141.826 495.182 148.75 492.367 156.213C490.454 161.287 491.49 167.976 491.56 173.331C491.589 175.611 491.195 178.408 492.169 180.537C492.982 182.313 494.225 183.592 494.252 185.617" stroke="black" stroke-width="4" stroke-linecap="round" stroke-linejoin="round"/>
<path d="M430.292 144.716C422.222 139.785 414.353 133.979 405.817 129.947C405.302 128.819 404.387 128.035 403.649 126.943C402.521 125.274 402.438 122.798 402.077 120.84C401.229 116.238 399.378 110.653 400.229 105.959C401.48 99.0547 403.323 92.5106 405.558 85.918C407.891 79.031 411.808 73.1138 414.924 66.6152C423.389 48.9576 436.45 34.6539 454.548 28.4692C463.207 25.5102 472.436 24.1377 481.448 23.5986C488.004 23.2064 494.162 25.3189 500.483 26.771C505.911 28.0182 511.29 28.4021 516.202 31.3535C521.069 34.2787 525.309 38.3156 530.054 41.4686C533.685 43.8812 537.583 45.8073 541.243 48.154C546.279 51.3831 549.011 57.7887 551.298 63.2431C555.275 72.7253 556.869 82.8843 557.912 93.177C559.416 108.026 557.554 126.452 549.949 139.499C539.712 157.061 520.266 161.882 505.354 173.611C501.754 176.443 491.228 168.504 488.013 166.395C478.832 160.373 468.624 157.982 458.496 154.418C454.687 153.078 450.867 153.103 447.049 151.846C441.107 149.89 435.678 148.007 430.292 144.716Z" fill="#00DB09"/>
<path d="M405.162 129.642C413.951 133.682 422.017 139.659 430.292 144.716C435.678 148.007 441.107 149.89 447.049 151.846C450.867 153.103 454.687 153.078 458.496 154.418C468.624 157.982 478.832 160.373 488.013 166.395C491.228 168.504 501.754 176.443 505.354 173.611C520.266 161.882 539.712 157.061 549.949 139.499C557.554 126.452 559.416 108.026 557.912 93.177C556.869 82.8843 555.275 72.7253 551.298 63.2431C549.011 57.7887 546.279 51.3831 541.243 48.154C537.583 45.8073 533.685 43.8812 530.054 41.4686C525.309 38.3156 521.069 34.2787 516.202 31.3535C511.29 28.4021 505.911 28.0182 500.483 26.771C494.162 25.3189 488.004 23.2064 481.448 23.5986C472.436 24.1377 463.207 25.5102 454.548 28.4692C436.45 34.6539 423.389 48.9576 414.924 66.6152C411.808 73.1138 407.891 79.031 405.558 85.918C403.323 92.5106 401.48 99.0547 400.229 105.959C399.378 110.653 401.229 116.238 402.077 120.84C402.438 122.798 402.521 125.274 403.649 126.943C404.59 128.334 405.817 129.226 406.138 130.966" stroke="black" stroke-width="4" stroke-linecap="round" stroke-linejoin="round"/>
</svg>
