<svg width="293" height="251" viewBox="0 0 293 251" fill="none" xmlns="http://www.w3.org/2000/svg">
<path d="M132.465 198.536C124.109 191.17 116.156 182.866 107.082 176.402C106.71 175.019 105.807 173.931 105.169 172.537C104.195 170.408 104.589 167.611 104.56 165.331C104.49 159.976 103.454 153.287 105.367 148.213C108.182 140.75 111.608 133.826 115.497 126.936C119.559 119.738 125.26 113.988 130.15 107.404C143.436 89.5143 161.373 76.4323 183.527 73.6056C194.127 72.2533 205.073 72.8108 215.602 74.2542C223.262 75.3042 229.966 79.0744 236.989 82.1405C243.02 84.7737 249.165 86.4271 254.261 90.8552C259.312 95.244 263.416 100.738 268.28 105.354C272.002 108.887 276.129 111.934 279.897 115.399C285.083 120.167 286.974 127.976 288.54 134.617C291.262 146.161 291.095 157.923 290.264 169.71C289.064 186.714 283.264 206.967 271.886 219.88C256.57 237.259 233.126 238.249 213.559 248.021C208.834 250.381 198.232 239.081 194.931 235.983C185.504 227.139 174.172 222.136 163.164 215.835C159.024 213.465 154.602 212.624 150.434 210.346C143.95 206.801 138.043 203.454 132.465 198.536Z" fill="#00DB09"/>
<path d="M106.386 175.911C115.751 182.442 123.896 190.982 132.465 198.536C138.043 203.454 143.95 206.801 150.434 210.346C154.602 212.624 159.024 213.465 163.164 215.835C174.172 222.136 185.504 227.139 194.931 235.983C198.232 239.081 208.834 250.381 213.559 248.021C233.126 238.249 256.57 237.259 271.886 219.88C283.264 206.967 289.064 186.714 290.264 169.71C291.095 157.923 291.262 146.161 288.54 134.617C286.974 127.976 285.083 120.167 279.897 115.399C276.129 111.934 272.002 108.887 268.28 105.354C263.416 100.738 259.312 95.244 254.261 90.8552C249.165 86.4271 243.02 84.7737 236.989 82.1405C229.966 79.0744 223.262 75.3042 215.602 74.2542C205.073 72.8108 194.127 72.2533 183.527 73.6056C161.373 76.4323 143.436 89.5143 130.15 107.404C125.26 113.988 119.559 119.738 115.497 126.936C111.608 133.826 108.182 140.75 105.367 148.213C103.454 153.287 104.49 159.976 104.56 165.331C104.589 167.611 104.195 170.408 105.169 172.537C105.982 174.313 107.225 175.592 107.252 177.617" stroke="black" stroke-width="4" stroke-linecap="round" stroke-linejoin="round"/>
<path d="M43.2918 136.716C35.2224 131.785 27.3525 125.979 18.8168 121.947C18.3023 120.819 17.3873 120.035 16.6487 118.943C15.5208 117.274 15.438 114.798 15.077 112.84C14.2291 108.238 12.3777 102.653 13.2287 97.9586C14.4804 91.0547 16.3235 84.5106 18.5575 77.918C20.8913 71.031 24.808 65.1138 27.9236 58.6152C36.3893 40.9576 49.4504 26.6539 67.5481 20.4692C76.2067 17.5102 85.436 16.1377 94.448 15.5986C101.004 15.2064 107.162 17.3189 113.483 18.771C118.911 20.0182 124.29 20.4021 129.202 23.3535C134.069 26.2787 138.309 30.3156 143.054 33.4686C146.685 35.8812 150.583 37.8073 154.243 40.154C159.279 43.3831 162.011 49.7887 164.298 55.2431C168.275 64.7253 169.869 74.8843 170.912 85.177C172.416 100.026 170.554 118.452 162.949 131.499C152.712 149.061 133.266 153.882 118.354 165.611C114.754 168.443 104.228 160.504 101.013 158.395C91.8315 152.373 81.6239 149.982 71.4956 146.418C67.6869 145.078 63.8673 145.103 60.0488 143.846C54.1072 141.89 48.678 140.007 43.2918 136.716Z" fill="#00DB09"/>
<path d="M18.1623 121.642C26.9512 125.682 35.0166 131.659 43.2918 136.716C48.678 140.007 54.1072 141.89 60.0488 143.846C63.8673 145.103 67.6869 145.078 71.4956 146.418C81.6239 149.982 91.8315 152.373 101.013 158.395C104.228 160.504 114.754 168.443 118.354 165.611C133.266 153.882 152.712 149.061 162.949 131.499C170.554 118.452 172.416 100.026 170.912 85.177C169.869 74.8843 168.275 64.7253 164.298 55.2431C162.011 49.7887 159.279 43.3831 154.243 40.154C150.583 37.8073 146.685 35.8812 143.054 33.4686C138.309 30.3156 134.069 26.2787 129.202 23.3535C124.29 20.4021 118.911 20.0182 113.483 18.771C107.162 17.3189 101.004 15.2064 94.448 15.5986C85.436 16.1377 76.2067 17.5102 67.5481 20.4692C49.4504 26.6539 36.3893 40.9576 27.9236 58.6152C24.808 65.1138 20.8913 71.031 18.5575 77.918C16.3235 84.5106 14.4804 91.0547 13.2287 97.9586C12.3777 102.653 14.2291 108.238 15.077 112.84C15.438 114.798 15.5208 117.274 16.6487 118.943C17.5897 120.334 18.8171 121.226 19.1377 122.966" stroke="black" stroke-width="4" stroke-linecap="round" stroke-linejoin="round"/>
</svg>
