<svg width="231" height="217" viewBox="0 0 231 217" fill="none" xmlns="http://www.w3.org/2000/svg">
<path d="M81.446 142.302C72.8999 136.567 50.0885 126.22 41.7771 120.124C33.5274 114.072 27.5751 111.529 29.0655 100.783C29.8469 95.1494 31.3836 89.5681 35.2483 85.2603C40.6635 79.2243 44.7137 91.9163 45.0427 96.0132C45.6001 102.952 37.474 90.2539 36.7816 88.8318C33.1467 81.3661 27.3283 69.9448 28.3164 61.5704C30.029 47.0566 45.8704 29.6334 53.0529 51.6297C53.4745 52.921 53.5718 59.981 53.2208 57.7677C51.6544 47.892 55.8815 36.1336 56.9466 26.2979C57.6801 19.5247 68.034 15.9616 73.7269 16.0771C90.6306 16.4201 105.908 29.9988 114.563 44.2485C122.48 57.2829 118.105 65.0852 112.165 78.1447C105.928 91.8561 99.4345 106.095 90.3452 118.056C86.6361 122.937 77.7631 131.436 76.537 137.415" stroke="#FFDFDF" stroke-width="4" stroke-linecap="round" stroke-linejoin="round"/>
<path d="M91.533 44.0694C89.6429 49.2603 88.309 54.6195 86.2908 59.7641C83.7248 66.3049 82.6348 68.3315 79.8292 74.7938C79.0739 76.5335 76.2946 80.8221 78.0901 80.2113C80.9178 79.2493 84.2375 73.9536 86.131 71.801C87.2506 70.5283 93.8677 61.434 95.8185 61.9726C96.6005 62.1885 85.6042 81.8343 85.4407 82.1186C83.2288 85.9653 80.0311 91.4188 77.6 95.3839C77.233 95.9824 76.8731 96.5878 76.4532 97.1504C76.2826 97.379 76.6956 96.6323 76.8482 96.3913C81.0965 89.6799 86.1112 83.2926 91.1171 77.1395C98.9818 67.4727 90.7763 83.6332 90.2633 84.7862C89.0446 87.5257 85.9698 94.2333 84.5418 97.1822C83.9493 98.4057 82.4023 102.084 82.5311 100.73C82.8742 97.1275 86.1446 92.8916 88.0604 90.1027C89.029 88.6927 93.0276 83.124 94.2392 81.6261C95.9181 79.5505 95.5713 80.5104 94.7278 82.2849C92.1654 87.6758 88.9245 92.6968 86.0521 97.9171C84.082 101.497 82.7408 105.365 80.8066 108.953C80.6308 109.279 79.9176 110.095 80.0228 109.74C80.3392 108.673 81.6225 106.652 82.0565 105.964C82.5378 105.202 88.2457 95.8623 86.9853 100.476C86.5096 102.218 80.0951 120.142 81.3926 120.713C81.6528 120.827 85.7719 112.885 86.1139 112.252C86.1205 112.239 89.2873 105.935 87.4782 109.471C85.6984 112.95 84.2512 116.698 82.1294 119.988C80.8518 121.97 81.8202 119.491 82.029 119.105C82.4091 118.402 86.1316 112.036 84.1896 115.815C82.1494 119.786 79.675 123.49 77.4447 127.349C75.2844 131.088 80.256 125.579 75.1974 128.883C73.085 130.263 70.5783 133.263 67.832 132.283C62.6211 130.424 57.0783 129.991 51.9198 128.055C46.8414 126.148 41.9657 123.729 38.0528 119.937C36.1773 118.119 34.2939 116.341 32.2185 114.749C31.065 113.865 29.6472 112.994 29.1938 111.512C28.6162 109.624 30.6744 107.539 31.5296 105.951C32.2576 104.6 34.9974 101.008 34.975 101.072C33.8545 104.251 31.8721 114.008 31.7059 110.641C31.6336 109.177 32.661 107.178 33.148 105.885C33.4324 105.129 35.4622 101.386 33.4581 104.155C31.5452 106.799 30.7571 104.465 30.4677 102.12C30.1227 99.3247 30.2727 92.8291 34.997 93.883C41.3843 95.3078 41.0849 103.485 39.8318 108.226C39.7429 108.562 37.3876 113.839 38.2882 109.966C40.2067 101.715 46.5546 93.7815 51.858 87.4472C59.1563 78.7304 53.6131 93.0256 52.8424 94.9952C51.3563 98.7933 49.4081 102.826 47.4879 106.44C46.5555 108.194 45.8806 110.207 44.4124 111.546C43.8542 112.055 43.6227 110.166 43.6531 109.411C43.9329 102.462 46.8238 95.8215 50.1273 89.832C52.8893 84.8245 60.5996 70.8447 68.6491 73.1903C77.3409 75.723 72.4366 90.8755 70.0981 95.9125C70.0592 95.9961 66.9122 103.502 63.9612 102.165C61.0171 100.832 60.1064 91.9102 59.9666 90.9005C58.3556 79.2708 60.2707 70.1281 70.0741 62.9063C70.9731 62.244 77.6894 56.6964 80.3127 60.1555C83.0307 63.7394 79.8165 73.6412 79.1563 75.9582C78.9263 76.7657 73.4966 97.2279 68.4811 93.2843C62.8798 88.8802 64.8455 77.954 66.8955 72.5188C68.5678 68.0846 71.0327 63.8005 74.9878 60.9853C80.0594 57.3756 85.318 59.4229 86.7447 65.5927C88.4931 73.1534 85.1561 85.4092 79.349 90.807C73.2829 96.4456 70.7551 75.2899 70.6972 73.7628C70.3077 63.4894 75.0255 50.6706 83.1495 43.9402C83.6641 43.5139 84.8993 43.1701 85.1487 43.7901C85.6334 44.9948 85.0156 46.4088 84.6433 47.6529C83.6867 50.8502 80.9249 56.5105 79.2818 59.4351C77.8648 61.9572 75.0266 67.567 71.0252 66.361C65.9464 64.8303 65.2663 56.895 65.7914 52.7499C66.2605 49.0471 68.0766 44.2132 70.2893 41.2054C71.3106 39.8172 75.0721 35.5626 77.9008 37.1802C80.9784 38.9403 80.9733 45.5125 80.7939 47.8192C80.4068 52.7982 78.5514 59.9776 74.79 63.6807C70.4839 67.9201 69.1427 54.81 69.1019 53.8969C68.8313 47.8377 69.6059 38.4914 73.9325 33.6306C76.5263 30.7165 73.7261 41.5305 72.5618 45.254C72.5284 45.3605 68.4619 59.9592 66.2261 53.8095C64.5556 49.2147 66.9059 44.5718 69.6681 40.9869C71.3635 38.7865 76.28 34.0906 75.9326 40.4416C75.6835 44.9939 73.4633 52.6264 69.8803 55.7767C65.9021 59.2744 62.939 48.5567 62.8001 47.0373C61.9154 37.3643 68.1917 29.5748 77.9311 28.5024C86.0043 27.6134 90.4129 32.8246 88.2205 40.3965C87.2002 43.9202 83.6871 52.4789 79.3377 53.2517C69.9104 54.9269 73.3432 38.7636 74.8083 35.2156C75.9399 32.4753 79.3058 25.7708 83.2684 24.6673C86.9329 23.6468 86.3566 30.4377 86.3437 30.9571C86.186 37.2814 84.2726 45.2554 80.8754 50.6985C79.4128 53.042 78.0557 51.6552 77.2276 49.7409C75.3515 45.4037 73.9478 39.575 75.1533 34.8848C75.7404 32.6003 77.1662 32.1019 78.0281 34.5793C79.2546 38.1046 78.9111 43.7162 75.8642 46.3461C71.4019 50.1976 64.324 43.706 62.4218 39.9907C61.1052 37.4192 61.3009 34.8004 62.6549 32.3219C62.8292 32.0028 65.4661 28.2794 67.0635 29.4358C70.4882 31.9151 68.3364 42.1584 67.7147 45.5092C67.561 46.3381 66.43 50.4366 65.8173 47.1322C65.099 43.2582 65.7086 39.4642 67.4483 35.9481C67.4717 35.9009 69.6723 32.0432 70.0389 31.7543C70.2353 31.5994 70.2289 32.2484 70.1742 32.4925C69.6509 34.826 66.2847 44.9198 66.1469 45.344C63.1714 54.5019 60.7941 64.4584 56.3058 73.0469C54.1109 77.2469 52.8809 75.9808 53.1993 71.758C53.4589 68.3147 56.8888 58.4475 55.9882 61.7811C55.2826 64.3928 52.2242 73.8391 48.6509 73.682C43.6427 73.4618 49.5016 61.7764 50.3912 60.5453C51.2254 59.3907 53.2353 56.5014 53.7042 57.8464C54.3755 59.7717 52.3179 61.6971 51.3528 63.4932C49.7655 66.4473 46.6051 73.8544 42.7767 74.7881C37.7384 76.0171 35.8932 65.4799 36.4462 62.5153C37.2513 58.1997 42.5986 52.4456 46.3118 58.1626C49.6452 63.295 49.3218 71.7984 46.4748 77.0578C44.3785 80.9304 41.7302 77.804 40.5066 75.0057C39.078 71.7383 38.1269 67.6399 39.4277 64.1031C40.2874 61.7657 43.3576 58.2927 46.3653 60.8495C50.6511 64.4929 50.8585 76.9508 46.6252 80.7972C42.6287 84.4284 33.552 77.9808 30.7106 75.587C26.2585 71.8361 28.1326 67.6796 32.3736 64.6228C39.9016 59.1969 45.9232 65.0717 50.405 71.2658C52.4406 74.079 57.1378 82.1795 58.7044 85.4981C59.406 86.9843 61.4492 91.0902 60.4045 93.3351C58.3934 97.6569 52.9212 93.9478 51.6554 91.4625C47.7779 83.8492 50.9332 75.1602 59.8538 73.3174C70.1565 71.189 77.5448 82.802 77.6935 91.7774C77.7739 96.6261 71.3874 104.616 67.1649 98.1351C64.7086 94.3648 67.7707 89.7735 70.6671 87.4651C84.8319 76.1757 74.9795 99.8752 71.57 98.702C69.2874 97.9166 69.5142 92.9641 70.7829 91.5464C74.5334 87.3555 76.0331 94.3084 75.4742 96.7874C74.3689 101.689 72.0672 103.34 67.6903 100.978C65.2835 99.6789 61.7622 97.5173 59.6639 95.7725C58.9867 95.2093 57.8029 94.6889 57.8915 93.8125C57.9585 93.1491 59.2445 94.0394 59.8021 94.405C66.8272 99.0118 70.7194 107.442 68.9985 115.777C67.8351 121.412 63.2965 125.346 57.4951 123.54C54.6522 122.654 47.1779 118.212 49.7023 114.146C51.6392 111.026 56.567 109.227 59.6195 108.41C65.7457 106.77 73.6575 106.394 77.6254 112.559C81.0079 117.814 76.9977 124.387 71.5369 125.906C64.6249 127.829 53.9452 120.527 49.7415 115.768C41.2107 106.11 64.3458 106.256 67.6024 106.942C72.6111 107.996 80.5485 111.28 83.3384 116.332C85.8196 120.825 82.145 123.993 78.2912 124.869C72.148 126.265 58.8785 123.098 56.9225 115.735C55.1211 108.954 67.8837 106.815 71.7826 107.12C75.7801 107.433 85.8117 112.452 80.0576 117.707C72.9922 124.159 61.0216 121.163 53.8572 116.854C51.0921 115.191 47.3115 111.028 53.064 110.429C54.9682 110.231 58.126 111.745 57.1702 114.155C55.7915 117.632 50.0409 117.025 47.3899 116.39C43.0191 115.344 38.2265 112.958 35.3915 109.348C33.3271 106.719 37.1717 102.503 37.3677 99.5735C37.5515 96.8261 39.9991 96.3627 35.8997 96.8114C33.2601 97.1003 28.6009 97.8983 27.5111 94.5216C26.8488 92.4696 28.1367 90.0791 28.9929 88.2994C30.5672 85.0271 33.9756 81.6625 33.737 77.87C33.4191 72.8172 31.6472 67.7482 31.9486 62.6636C32.1588 59.1171 33.842 55.0155 35.1554 51.6996C35.627 50.509 39.237 43.1892 39.3262 47.9498C39.351 49.269 38.3651 56.1641 35.3269 54.4255C33.1696 53.191 30.4555 43.3448 34.7475 45.4152C37.3968 46.6932 39.5108 49.7052 41.2528 51.9365C42.0854 53.0029 45.7978 56.7589 45.2911 58.4794C45.2861 58.4966 44.6569 59.1952 44.5463 59.149C43.8109 58.8414 44.2722 57.565 44.3128 56.7689C44.3863 55.328 44.4355 47.0455 47.4809 47.6632C51.077 48.3926 52.7229 58.8116 48.6655 60.0662C46.0578 60.8725 48.196 56.615 48.3892 56.2328C49.7312 53.5769 52.8948 46.5866 56.7182 46.714C62.641 46.9114 56.0178 60.2533 56.876 50.312C57.1413 47.2395 57.8987 44.1635 61.606 43.8425C65.0194 43.5469 63.102 47.7477 61.4959 48.6864C58.9511 50.1737 57.7612 44.0922 57.7503 42.9992C57.6996 37.9178 61.0306 33.3828 65.1061 30.6465C67.3774 29.1216 73.4111 26.7153 72.4278 31.9686C71.6138 36.3178 67.6812 38.2434 63.6604 38.8564C57.9347 39.7292 54.1975 37.1803 55.5375 31.0544C57.3671 22.6906 66.4621 25.5572 71.6706 29.0752C78.1482 33.4504 81.9214 43.3138 72.1052 46.5554C66.874 48.283 62.0342 44.0198 62.6309 38.7252C63.3709 32.1595 70.3571 28.6018 76.1255 27.4735C81.491 26.424 86.3411 28.3361 82.3284 34.0387C78.5096 39.4657 72.7146 38.6411 67.0773 36.8722C60.922 34.9408 59.0584 33.0168 63.0559 27.548C66.3581 23.0304 69.5382 20.8767 74.4576 24.8808C81.5024 30.615 71.7508 36.3374 65.9813 33.5789C57.1893 29.3753 76.3669 14.3189 76.3031 26.1846C76.2875 29.0905 73.7839 31.9968 71.6699 33.7067C70.9325 34.3032 64.7315 37.0389 65.5095 33.4229C66.9354 26.7956 80.0943 23.8667 85.2537 23.649C91.1657 23.3995 102.137 26.4902 101.645 34.46C101.307 39.9451 93.8475 42.7009 89.3621 43.0375C81.2886 43.6434 82.4306 34.0554 86.7266 30.1155C96.0642 21.5522 99.173 38.6234 94.1623 44.5856C94.0101 44.7667 89.8991 48.3727 90.7076 45.5367C91.8134 41.658 95.682 37.5805 99.5878 36.5273C105.645 34.8939 106.308 41.3053 105.533 45.5719C105.3 46.8553 103.431 54.6633 100.523 51.2683C98.4288 48.8242 97.8795 44.0334 99.9019 41.3938C101.346 39.5091 103.542 38.556 105.9 39.3996C110.817 41.1587 107.818 46.692 105.38 48.9625C100.305 53.6904 92.1199 55.083 85.491 53.8734C81.6849 53.1789 75.8344 50.6109 79.045 45.8278C81.1471 42.696 87.5987 36.936 90.7816 41.9892C93.5038 46.3109 93.9976 52.078 89.9499 55.5834C89.0366 56.3743 80.828 62.9804 79.5125 60.6367C78.014 57.9669 80.1922 53.7884 82.3366 52.2546C83.248 51.6027 86.57 49.9034 87.7174 51.8096C89.7554 55.1954 85.2176 60.2577 83.6636 61.7738C79.0546 66.2707 71.8597 70.228 66.0832 72.9175C64.1785 73.8043 62.1969 74.5485 60.1684 75.0962C59.4642 75.2863 58.5648 75.5416 57.9803 75.1053C56.5699 74.0528 60.5274 69.9045 61.3847 69.5582C66.0618 67.669 68.2987 72.9425 68.8655 76.6114C69.7426 82.2892 68.6071 88.7827 66.4639 94.0827C65.1259 97.3913 67.0292 86.9271 67.9548 83.4804C69.2034 78.8313 70.7129 74.1332 72.2192 69.5558C73.0961 66.8912 73.2342 66.8801 71.9622 70.4914C68.1914 81.1961 63.8463 91.7941 58.3111 101.723C58.066 102.163 55.5066 107.164 56.3107 103.024C56.7151 100.942 59.0406 93.1251 59.4882 91.2788C59.8597 89.7464 60.9788 86.0983 58.7058 89.3715C54.6732 95.1785 51.5126 101.635 47.7736 107.633C41.6415 117.471 46.3799 101.849 46.7067 100.097C47.6425 95.0804 48.4457 90.545 49.021 85.5016C49.1628 84.2583 49.5868 82.9731 49.2909 81.7572C49.1748 81.2801 48.5952 82.4781 48.3941 82.9261C43.7276 93.3228 39.9099 104.649 36.7185 115.583C36.385 116.726 35.8406 120.002 36.676 119.154C38.2435 117.563 42.4742 110.537 42.8568 109.919C49.5177 99.1685 55.7471 88.1627 62.2912 77.3421C63.5347 75.2858 66.0835 69.1437 66.5238 71.5061C67.1721 74.9848 64.9956 78.423 63.9793 81.8124C63.3762 83.8235 62.8389 85.8609 62.0726 87.8157C61.8285 88.4385 61.4784 89.9252 60.9689 89.4918C60.2348 88.8674 60.6885 87.5803 60.6634 86.6169C60.6148 84.7513 60.7218 82.8849 60.7482 81.0188C60.7601 80.1789 60.9369 74.0541 60.6806 72.4394C60.3817 70.5569 57.7026 74.9357 56.7346 76.5775C53.9187 81.3533 51.5437 86.517 48.4019 91.0932C47.5984 92.2635 47.3485 88.4105 47.245 86.9947C46.8876 82.1066 46.4208 77.2469 45.6309 72.4086C45.4814 71.4929 45.2182 71.0995 44.5106 70.4942C42.2116 68.5274 40.1675 66.3232 38.2332 63.996C34.7953 59.8596 41.8728 57.1059 41.7335 52.5403C41.6488 49.7635 42.2672 48.4559 43.5093 46.0228C44.7798 43.5339 42.9446 43.5261 41.4018 45.2343C37.74 49.2885 39.9329 57.5341 40.6375 62.3835C41.2109 66.3298 39.5218 70.199 37.6275 73.5434C33.8394 80.2317 34.4057 86.2742 38.3488 92.61C40.8948 96.7008 41.6397 101.706 43.8845 105.981C45.1002 108.296 45.3028 110.873 42.0873 111.772C39.7047 112.438 40.5067 108.646 41.7011 107.954C44.5922 106.28 52.0715 111.565 54.1342 112.772C57.7586 114.894 60.9278 117.518 64.3728 119.874C65.2708 120.488 70.7209 126.612 69.9994 126.916C68.2034 127.671 61.641 123.918 60.28 123.388C56.8667 122.058 53.1758 120.252 49.554 119.5C47.8014 119.137 48.6375 123.571 45.8268 121.474C44.7443 120.666 43.0368 118.214 41.6311 118.097C41.325 118.072 46.9038 121.798 46.9433 121.817C49.7595 123.155 53.0435 124.909 56.1874 125.358C57.29 125.515 58.1009 125.373 59.1741 125.822C64.2791 127.957 66.7838 131.443 72.5866 131.199C75.242 131.087 76.9762 132.669 76.4854 135.236C76.2617 136.406 74.5691 138.094 75.0574 139.317C76.1057 141.943 79.7562 137.069 80.0148 135.958C82.2711 126.265 86.0866 116.877 89.2883 107.44C89.8444 105.8 90.5345 104.246 91.2332 102.666C92.0224 100.881 88.9419 105.825 87.7639 107.38C84.7051 111.419 81.5413 116.031 77.1846 118.798C76.341 119.334 72.1712 122.168 71.6717 119.88C70.9609 116.623 72.6466 113.194 74.2421 110.524C74.9892 109.274 77.4815 105.684 76.6297 106.865C75.1193 108.96 73.707 111.123 72.2845 113.279C70.8471 115.456 68.1862 119.51 66.8135 121.989C66.5496 122.466 66.2097 122.945 66.161 123.487C66.1424 123.695 66.5631 123.334 66.7063 123.184C69.7775 119.949 72.329 115.525 73.9771 111.405C74.1481 110.977 74.4994 109.742 74.1427 110.033C73.0354 110.937 72.2848 112.207 71.3929 113.324C71.1802 113.59 66.6087 119.86 66.1516 119.559C65.074 118.849 69.0926 110.141 69.3408 109.44C72.0264 101.852 65.442 111.391 64.4259 112.512C62.4283 114.716 62.8322 113.836 63.9997 111.703C64.9998 109.876 67.0989 106.516 68.2845 104.681C68.7822 103.91 69.7475 102.475 68.6139 104.437C67.4379 106.472 66.137 108.518 64.8295 110.46C64.1043 111.537 62.1982 114.442 60.9604 115.513C59.8007 116.517 59.8938 115.407 60.0859 114.518C61.0758 109.937 64.6734 106.283 65.673 101.776C65.87 100.888 63.827 102.223 63.1614 102.843C61.3041 104.573 58.9273 107.197 57.2484 109.092C56.825 109.569 51.6358 114.307 55.2147 112.868C63.7189 109.447 72.2322 105.362 81.1818 103.228C90.2308 101.071 86.5146 108.528 83.8067 113.373C83.1507 114.546 80.531 118.887 79.141 120.479C78.5237 121.185 79.8201 118.727 80.223 117.879C81.6391 114.9 83.7665 111.409 84.3048 108.108C84.4122 107.448 83.5039 109.178 83.138 109.737C81.3741 112.431 80.7702 113.279 78.7849 116.095C78.2912 116.796 72.128 126.814 74.7454 120.556C75.0022 119.942 78.9963 111.353 76.1551 112.099C72.9985 112.927 69.3737 117.009 67.7744 119.716C67.3213 120.483 66.3299 122.521 67.1992 122.326C70.5 121.587 72.5478 118.169 75.017 115.857C78.4028 112.687 85.6461 105.525 89.457 102.419C89.9364 102.028 93.8993 98.5141 92.4808 101.979C91.5411 104.275 87.6018 112.285 84.9882 113.005C83.4185 113.437 85.3401 109.731 85.9196 108.21C87.4113 104.293 89.7655 99.4224 91.6331 95.7588C94.0833 90.9524 95.6569 88.2851 98.1882 83.6909C98.6225 82.9026 99.1606 82.1599 99.471 81.3151C99.6111 80.9338 98.9393 81.9316 98.7112 82.2676C97.1933 84.5027 93.8806 89.745 92.6293 91.7966C91.2947 93.9848 89.0359 95.9564 88.8898 98.5153C88.7921 100.228 91.3166 96.0875 92.4479 94.7984C93.1444 94.0046 97.6997 88.7532 98.6694 87.7752C100.261 86.1701 100.271 86.5108 99.5039 88.4961C99.1755 89.3458 95.9237 96.5779 95.6592 97.1948C95.5693 97.4046 93.8428 101.023 94.0211 102.149C94.1055 102.681 95.3808 102.771 95.5943 102.93C97.9324 104.675 95.6344 110.884 95.029 112.949C95.0079 113.021 93.0439 119.427 91.6688 117.255C90.5971 115.562 91.7631 112.792 92.1805 111.118C93.574 105.526 95.2487 100.075 96.9335 94.5676C99.0888 87.5229 101.317 80.7576 104.124 73.9304C106.022 69.3156 105.272 64.6465 105.949 59.827C106.211 57.9551 109.028 51.1949 107.622 49.8999C105.675 48.1075 99.5429 59.4676 99.5053 59.5282C99.2982 59.8623 95.6636 65.865 94.8181 67.4512C93.7151 69.5204 97.4573 63.5725 98.8663 61.6982C103.311 55.7855 97.5577 65.5861 97.4852 65.7163C93.6586 72.5921 89.8115 79.4903 85.4501 86.047C84.5788 87.3569 83.6619 90.6773 82.4419 89.684C81.9531 89.286 82.3814 88.4125 82.5041 87.7943C82.8158 86.2237 83.2846 84.6875 83.7383 83.1519C84.6861 79.9436 91.5265 64.6489 83.0288 75.564C81.1664 77.9561 73.2859 88.7203 71.3752 91.1797C70.6081 92.1671 66.832 97.564 68.943 92.5997C71.6645 86.1998 81.5231 67.8424 77.7602 73.6909C72.6756 81.5941 68.4484 90.1183 62.457 97.4157C61.6204 98.4347 58.9906 101.11 59.328 99.8352C60.9135 93.8446 66.3359 87.4295 69.6848 82.4431C72.0493 78.9223 80.5825 67.1605 72.5674 80.4523C66.5952 90.3562 59.9573 99.7928 53.407 109.313C52.2716 110.963 52.3022 111.207 53.8139 108.636C56.5179 104.037 58.9356 99.6086 61.4373 94.8411C62.9498 91.9589 64.5424 89.1123 65.8713 86.1409C66.5391 84.6478 67.6901 83.0939 67.4119 81.4821C67.2805 80.7213 65.7909 81.5853 65.1622 82.0335C63.0964 83.5066 61.3343 85.3676 59.5018 87.1225C53.2068 93.1511 47.4128 99.5898 42.0747 106.468C41.1743 107.628 43.6813 103.979 44.1789 102.598C44.8945 100.611 42.5524 106.524 42.1308 108.593C41.4728 111.824 40.7569 116.125 42.2231 119.274C42.8518 120.625 46.9385 125.862 48.911 124.927C51.059 123.909 40.6459 114.691 39.888 113.635C38.4151 111.583 39.0025 109.563 36.6057 107.852C35.7525 107.243 34.0239 106.305 33.9868 105.089C33.8676 101.185 38.8581 96.1287 41.0296 93.2872C46.0056 86.7756 34.4704 99.5498 40.1523 91.1129C44.5239 84.6217 48.4563 78.287 52.0553 71.419C53.4445 68.768 54.8785 66.248 56.8065 63.9358C58.9104 61.4125 65.2518 54.0592 63.8296 57.0208C61.8712 61.0991 57.9832 64.9193 55.2225 68.4887C54.8976 68.9087 47.6981 76.6054 47.4336 75.543C46.7338 72.7314 51.5458 64.7699 50.9974 67.6149C50.0503 72.5275 44.2545 77.9358 41.0644 81.5491C40.2614 82.4586 38.293 85.165 37.6492 82.5786C36.7228 78.857 43.1302 74.4934 45.286 72.7394C45.6391 72.4521 50.8229 67.832 52.838 68.4983C55.1067 69.2485 53.0805 73.4199 52.1911 75.6377C49.714 81.815 45.5661 89.135 39.2235 92.0619C35.2435 93.8985 32.6424 91.5924 35.3668 87.5417C38.1738 83.3683 42.6343 79.1515 46.6813 76.3541C51.9724 72.6968 57.2771 71.6199 54.7779 79.7249C54.1607 81.7265 50.3605 90.9643 47.1374 91.2769C45.8834 91.3986 46.35 88.807 46.4842 87.5544C46.9805 82.9217 48.4161 77.5222 50.4967 73.4419C52.9755 68.5805 57.2657 62.4528 62.3828 59.8134C65.4072 58.2534 69.9274 58.2002 71.7606 61.763C76.488 70.9511 61.9241 76.8409 55.6989 77.1771C52.0604 77.3736 45.4542 76.4012 42.9449 72.855C40.514 69.4195 43.8116 66.1554 46.6426 65.0758C51.3299 63.2883 64.4626 66.4387 57.009 73.057C55.0209 74.8223 47.2554 76.9281 49.0146 71.3555C50.1178 67.861 58.7018 59.4552 62.6751 63.7568C65.1039 66.3863 62.3411 72.1017 61.1202 73.9193C60.1736 75.3284 58.9339 76.7876 57.3177 77.3068C56.4677 77.5799 55.1604 76.7537 55.0594 75.8666C54.444 70.4633 67.0955 54.9035 70.0309 64.5406C71.5371 69.4857 67.5578 75.3125 64.706 78.5069C63.3822 79.9897 61.8238 81.7558 59.847 81.9638C58.8242 82.0714 59.796 79.6954 60.5037 78.9491C66.9596 72.1404 77.1584 65.8769 86.1273 63.6614C93.4479 61.8531 104.089 61.2218 108.031 69.9101C109.921 74.0757 107.251 82.1117 103.053 84.3314C98.2434 86.8746 96.2045 80.0364 95.5182 77.679C94.5949 74.507 93.7878 65.7411 93.5484 62.1902C93.434 60.4942 93.9486 55.457 93.4812 57.0913C91.4842 64.0738 89.4416 71.2752 87.6394 78.3185C86.4471 82.9782 88.4353 79.8085 90.2615 77.4323C95.2266 70.9714 99.4436 62.9658 105.613 57.5179C105.96 57.2113 106.864 56.8147 106.98 57.2633C107.273 58.3975 106.69 59.5915 106.446 60.7372C105.536 64.998 103.958 70.3294 102.672 74.366C100.698 80.5601 98.5334 86.4528 95.2187 92.0379C94.5173 93.2197 93.8398 94.5034 95.0932 92.1404C98.2137 86.2573 102.275 80.8521 105.923 75.2971C107.899 72.2876 112.085 67.476 113.084 63.7305C113.999 60.3003 109.443 69.8411 107.956 73.0648C105.093 79.2747 103.353 85.8161 100.758 92.1033C99.8561 94.2876 98.0816 96.449 96.8565 98.4805C95.9483 99.9865 94.621 101.331 93.913 102.95C93.5669 103.741 96.4786 100.871 96.6182 100.705C100.841 95.6696 102.366 89.904 103.837 83.5438C105.837 74.8922 107.919 65.7098 107.3 56.7675C106.929 51.3886 106.421 45.7723 105.219 40.509C104.533 37.5065 103.359 35.3802 100.642 33.932C96.9896 31.985 93.6445 29.4813 89.9577 27.6251C84.2929 24.7729 76.7877 22.1827 70.4928 21.1623C68.7481 20.8795 65.1725 19.9545 63.4802 21.0023C63.0433 21.2728 60.4369 23.7781 60.5445 23.7867C63.0536 23.9858 66.4469 21.5431 68.8026 20.7342C75.0429 18.5913 80.5376 22.2131 85.0045 26.1834C91.8163 32.238 96.2072 37.4838 98.3118 46.6774C101.358 59.9844 97.9093 73.1964 90.1994 84.3464C90.0412 84.5752 88.7499 86.1745 89.0797 85.9126C92.9097 82.8692 96.3625 78.9612 99.7398 75.4376C104.213 70.771 106.695 65.9444 107.779 59.6734C108.563 55.1352 110.532 51.0381 111.495 46.6144C112.109 43.7981 112.078 46.8199 112.254 48.3568C112.823 53.3509 113.333 58.3334 114.144 63.2958C114.784 67.2193 115.618 70.3614 113.084 73.7793C111.183 76.3447 108.806 78.9496 106.463 81.1412C103.365 84.0395 108.44 75.7055 109.009 74.7083C111.084 71.072 112.338 67.9447 112.919 63.7545C113.372 60.4886 116.723 50.6136 113.211 47.9931C107.594 43.8014 109.088 51.676 109.618 55.1396C110.6 61.5553 110.34 65.6048 106.962 71.4408C106.148 72.8475 93.7605 92.047 91.2637 85.8759C88.7194 79.5873 97.3422 70.4378 100.838 66.38C108.62 57.3455 98.3429 73.6842 97.8597 74.4757C96.4829 76.7312 95.0409 78.9473 93.7039 81.2267C93.356 81.82 94.5804 80.1655 94.9846 79.6091C102.897 68.7182 90.7029 85.4676 100.032 72.6163C101.056 71.2049 103.599 66.8637 103.377 68.5935C102.917 72.173 100.542 75.2354 98.9457 78.4722C96.5273 83.3759 94.5859 87.1697 91.9341 91.8415C91.3072 92.9458 90.9176 94.2624 89.9659 95.1029C89.6769 95.358 89.3578 94.5115 89.3468 94.1262C89.1861 88.4972 90.3296 82.9056 90.6893 77.2859C90.8919 74.1197 91.2701 70.9394 91.0476 67.7744C90.9669 66.6273 90.9322 64.7287 89.7946 64.5601C88.5393 64.374 87.8191 66.1841 87.0314 67.1791C85.5301 69.0753 84.3412 71.1993 82.9641 73.1874C78.883 79.0796 66.1328 96.3675 70.7421 90.8787C74.4958 86.4086 77.999 81.7333 81.6971 77.2171C81.9705 76.8832 90.3797 65.9546 93.1856 64.9095C95.88 63.9059 94.4366 70.6729 93.929 73.503C92.9695 78.8533 91.6496 83.8102 90.0298 88.9744C88.7404 93.0852 87.9574 94.1664 89.5432 90.8416C93.6742 82.1806 95.807 77.9178 100.513 68.5885C102.73 64.1938 105.025 59.8383 107.219 55.4321C108.219 53.4229 109.528 51.5157 110.095 49.344C110.318 48.4906 108.843 50.5934 108.301 51.289C105.515 54.8611 101.679 60.7171 98.3531 63.9621C92.491 69.6816 97.9528 54.567 98.5467 52.9308C99.2476 50.9998 99.8267 49.7543 101.01 48.2501C101.775 47.2792 104.005 43.9848 101.808 43.3063C99.3678 42.5529 95.7016 45.855 94.0625 47.1825C93.6069 47.5514 92.3768 48.614 92.017 49.3323C91.8982 49.5694 92.5686 49.2361 92.7627 49.0555C95.2286 46.7621 96.9464 43.7322 99.4071 41.4657C102.198 38.8955 97.2188 48.8973 94.9499 51.9377C92.3722 55.3917 98.0956 42.3807 95.4022 39.0161C94.078 37.362 92.0438 36.2001 90.5598 34.6672C88.1724 32.2011 85.7476 29.9439 83.052 27.8144C80.6245 25.8966 77.8978 23.2595 75.9251 20.8782C72.9177 17.2481 76.4777 15.6903 80.0919 17.1009C83.4447 18.4096 84.9949 21.582 87.1249 24.1631C87.7473 24.9173 84.0051 22.432 83.4268 21.8935C81.8132 20.391 79.0718 19.0049 76.7988 19.9373C74.6357 20.8246 72.8965 24.9695 71.9359 26.6507C68.1793 33.2249 64.6909 39.9444 60.8974 46.4997C57.6919 52.039 54.7785 58.2728 50.8261 63.3452C49.4254 65.1427 48.237 66.1708 46.9456 63.6844C44.817 59.586 41.7501 54.6141 45.2253 50.6856C45.3916 50.4976 46.8248 48.6362 47.1299 48.7247C47.7416 48.9022 46.9902 53.2889 46.9682 53.4077C45.4472 61.6307 38.7602 68.0159 37.7831 76.1593C37.213 80.9099 36.9336 85.9774 38.2852 90.6263C38.6484 91.8757 39.4955 92.7109 39.88 93.8752C40.235 94.9501 39.9815 100.285 42.5093 97.6755C43.7585 96.3858 48.1069 86.7395 46.2796 85.7596C44.9001 85.0199 39.7067 89.2126 40.2143 90.7671C41.8818 95.8727 69.5012 86.3298 72.1868 85.5601C83.6155 82.2848 95.5034 79.2662 106.289 74.1491C109.293 72.7241 112.953 70.824 115.263 68.2979C118.146 65.1456 118.386 60.6878 117.514 56.7431C117.467 56.5293 115.937 52.2654 115.04 53.622C114.669 54.182 113.817 59.5398 113.709 59.1485C112.896 56.1951 112.889 53.0953 111.979 50.137C111.209 47.6337 109.844 45.6253 108.635 43.3528C107.06 40.3913 105.108 39.0477 102.672 36.8931C100.284 34.7802 97.9356 33.4134 95.3058 31.5917C93.6478 30.4431 92.3009 28.5286 90.402 27.7851C86.6231 26.3055 82.1028 26.0842 78.0899 25.925C72.3679 25.6979 66.4758 26.1846 60.8674 27.3607C56.2824 28.3222 54.4844 30.1281 55.354 34.8143C55.7127 36.7469 57.2076 37.7189 57.4709 39.5311C58.5254 46.7881 52.7744 56.0288 49.7077 62.2165C45.3025 71.1049 40.6823 80.0519 37.5007 89.4772C36.7214 91.7856 36.1368 94.2332 35.7343 96.6389C35.5449 97.7714 35.8575 99.5741 35.3589 100.623C34.5998 102.22 31.7087 100.998 30.8065 102.52C29.5333 104.667 30.0053 107.438 30.3406 109.745C31.6782 118.951 42.6252 125.04 50.2634 128.632C59.2751 132.87 68.2279 136.38 78.4566 134.893" stroke="#FFDFDF" stroke-width="4" stroke-linecap="round" stroke-linejoin="round"/>
<path d="M67.6386 46.5307C45.4002 80.1073 82.7771 30.0311 57.6535 61.6514C56.9982 62.4761 57.1593 62.1547 57.6175 61.404C58.613 59.7732 59.9665 56.8194 61.6977 55.8709C62.5658 55.3953 61.5291 57.8605 61.2254 58.8026C59.5682 63.9446 58.0412 69.0645 56.7134 74.307C56.3742 75.6464 54.987 80.9955 54.7584 83.068C54.4795 85.5971 57.4007 83.3209 58.258 82.8122C60.4813 81.4928 74.7896 69.8592 74.9239 76.9661C74.96 78.8754 73.7985 85.2962 73.549 86.8218C73.1629 89.1826 70.796 96.5418 72.2307 98.999C73.1403 100.557 75.3126 96.9817 76.3865 95.5321C80.2259 90.3494 83.2164 84.6496 86.7696 79.287C88.1213 77.247 88.468 77.1764 87.4622 79.8039C85.2606 85.5555 82.4086 91.1086 79.4765 96.5147C78.8505 97.669 78.2046 98.8129 77.5323 99.9409C77.3613 100.228 76.865 101.079 76.9489 100.756C77.1259 100.074 77.5136 99.4658 77.8204 98.8324C80.0842 94.1594 82.4537 89.5299 85.0195 85.0148C85.3823 84.3763 86.5443 82.5126 86.2407 83.1813C83.7019 88.7747 80.7797 94.2942 77.8302 99.6731C75.8631 103.26 72.5224 111.349 68.6874 113.829C68.465 113.973 68.0898 113.527 68.1282 113.265C68.485 110.829 71.5579 103.746 72.1172 102.468C77.5422 90.0741 84.3061 78.2078 89.4556 65.7041C90.6763 62.7398 86.0434 71.1323 84.3525 73.8559C83.8282 74.7003 81.013 80.8287 81.007 76.1384C81.0016 71.8738 81.6972 66.4164 82.3295 62.4448C82.8636 59.0904 83.5583 55.7634 84.2148 52.4308C84.7538 49.6949 85.5163 46.9997 85.9158 44.24C86.1162 42.8555 86.7131 41.2524 86.0079 40.0443C84.912 38.1667 81.9221 41.7435 80.2878 43.1771C79.3216 44.0247 78.4726 44.9977 77.5366 45.8785C76.2523 47.087 75.9488 47.4738 76.7699 45.625C78.4115 41.9292 78.3657 42.7443 80.0926 38.7424C82.1896 33.8826 79.1246 37.3483 77.6456 38.9015C75.2395 41.4282 73.0809 44.2325 70.5774 46.6651C68.8726 48.3216 68.9771 46.9188 69.3641 45.2695C69.5521 44.468 72.4156 37.2272 70.7482 37.6019C69.3079 37.9256 68.1529 38.5509 67.7171 36.6389C66.9271 33.1733 65.5411 30.7024 61.5466 30.49C58.3351 30.3193 58.0447 32.1284 56.2882 34.482C52.0796 40.1216 53.9862 47.7794 50.8035 53.9171C50.3582 54.7759 48.8448 58.0433 47.4325 56.9893C45.5178 55.5604 44.0299 54.853 41.5848 54.4145C36.8721 53.5693 36.6983 55.0137 34.6315 59.2984C32.0812 64.5851 29.8736 70.7954 33.4703 76.421C34.8156 78.5251 39.2123 77.9014 41.2284 77.8481C46.031 77.7212 49.4994 75.3838 53.544 72.971C59.6487 69.3293 65.3711 65.269 71.2409 61.2771C72.1965 60.6272 76.1079 58.0468 77.3759 57.5226C81.0289 56.0123 78.647 61.4826 78.3187 62.4662C76.4263 68.1367 67.9972 83.7494 71.8809 79.2047C75.564 74.8946 78.4785 69.9312 82.0777 65.541C86.8468 59.7239 83.2427 66.2528 82.5382 67.5512C82.4128 67.7824 75.7887 79.038 78.7933 73.6531C82.3496 67.2793 93.4697 48.57 90.8765 55.3926C87.9866 62.996 83.8433 70.1609 79.3511 76.9123C78.8753 77.6274 78.3587 78.3169 77.9223 79.0567C77.3929 79.9544 77.1495 80.3303 78.341 80.0064C81.1643 79.2389 83.9128 78.0431 86.7175 77.1893C90.1911 76.1319 93.0779 75.5189 93.2848 80.0806C93.335 81.1888 91.5196 87.3097 92.688 86.7917C95.1774 85.6881 97.8571 84.0378 99.7163 82.0373C101.207 80.4331 101.392 79.81 103.529 79.6869C105.443 79.5766 105.489 80.537 104.911 82.4334C102.933 88.9213 97.8921 93.6365 92.6983 97.6812C84.3878 104.153 75.1384 108.749 65.2266 112.227C61.5487 113.517 52.6166 118.388 51.5314 111.859C50.8849 107.969 51.9075 104.668 53.816 101.31C56.7053 96.2253 54.9561 101.345 53.8127 103.219C52.871 104.763 50.2129 109.243 50.413 107.446C50.6145 105.637 56.4979 92.2314 57.4773 93.0867C57.6369 93.2261 52.443 106.227 48.7204 99.4677C44.2904 91.4244 45.4252 79.7412 50.203 72.1934C51.6147 69.9631 51.2776 70.7561 50.8529 71.2569C48.7241 73.7662 46.4011 76.3023 43.7278 78.2428C38.0881 82.3367 34.1702 79.0018 32.8331 72.8085C31.8159 68.0966 32.3504 60.7365 37.0442 57.9373C41.7102 55.1546 39.7567 64.8854 39.1895 66.3271C38.6681 67.6522 38.3192 68.2615 37.6961 69.3791C37.6898 69.3906 37.6619 69.418 37.6726 69.4106C40.7919 67.2641 40.2045 67.4832 44.9143 65.1585C50.8068 62.2499 59.5415 56.8595 66.454 57.1166C69.415 57.2268 66.3042 61.8277 65.8229 62.6257C65.3964 63.333 64.9164 63.8577 65.2022 62.6037C66.0828 58.7394 67.7209 54.8402 69.3352 51.2525C71.7102 45.9743 80.755 31.1811 78.5356 36.5266C78.1992 37.3368 75.4553 42.6249 74.4451 41.0226C72.2322 37.5126 74.5177 31.1565 77.5037 28.8451C80.2602 26.7114 87.8273 25.4552 84.0141 30.9587C83.445 31.7802 78.9316 37.119 79.4897 36.3318C80.2152 35.3085 82.7198 32.4961 81.9696 33.5014C81.0038 34.7956 77.6232 38.2512 78.5365 36.9194C79.1072 36.0873 79.8115 35.355 80.4401 34.5657C80.9256 33.956 81.4054 33.3418 81.8853 32.7277C82.5784 31.8407 83.0526 31.1963 82.0302 32.5663C80.4739 34.6518 78.4393 38.7686 75.8722 39.8328C73.6274 40.7634 73.808 36.9678 74.5233 35.9587C75.3513 34.7909 82.4308 30.3981 82.1284 34.2081C82.0018 35.8035 83.4985 33.3448 84.2618 32.6631C87.0429 30.1791 82.2596 35.1966 81.8493 35.7644C78.2322 40.7702 77.2309 49.3862 76.3846 55.3369C76.0513 57.6809 76.3718 60.0149 76.9473 62.3006C79.0771 70.759 82.2892 78.9972 85.0366 87.2579C86.394 91.339 89.1195 99.2211 90.1679 104.028C90.7281 106.596 90.4178 107.263 89.1511 109.2C87.8961 111.119 86.3459 112.637 84.6177 114.125C82.2534 116.161 79.782 117.978 78.006 120.587C76.4856 122.821 75.618 125.385 74.3304 127.746C73.6454 129.002 72.3979 129.935 70.9185 130.15C68.2113 130.544 76.7283 120.096 77.6493 119.292C78.7966 118.29 82.7937 115.062 84.7873 116.065C86.2315 116.792 87.0999 116.26 88.5374 115.408C90.0245 114.527 91.0161 113.476 92.1124 112.194C93.2863 110.822 95.2154 110.144 96.6225 109.041C101.711 105.05 105.769 99.5537 109.504 94.3411C111.952 90.9233 116.92 85.1298 116.526 80.465C116.42 79.2158 115.452 79.7995 114.705 79.5226C113.163 78.9511 115.713 74.9193 114.826 74.1719C114.189 73.6361 109.101 81.3416 108.759 81.8742C105.998 86.1796 104.738 90.7203 102.985 95.4567C102.848 95.8269 101.204 98.9269 101.962 98.0754C103.51 96.3384 104.802 94.4891 105.98 92.4954C107.236 90.3676 108.333 88.0944 110.078 86.3141C116.548 79.7133 115.406 71.4026 108.312 65.659C104.26 62.3788 101.54 57.9567 97.3569 54.7878C94.0679 52.2963 91.8476 50.0348 89.8728 46.3597C88.732 44.2364 89.1637 42.9293 88.9636 40.6814C88.8897 39.8519 87.4825 41.5275 86.9637 42.179C83.0599 47.0808 79.1834 52.0687 74.954 56.6956C64.8704 67.7269 52.4608 76.3502 39.1904 83.1406C35.5221 85.0176 31.7178 86.1098 30.4094 81.0481C29.3903 77.1056 33.441 72.2869 34.9174 68.8004C36.4336 65.2199 37.7049 61.504 39.0828 57.8657C40.0725 55.2525 41.9104 50.3451 44.427 48.6683C47.5805 46.5671 52.0919 48.1207 55.5288 48.7675C57.9353 49.2203 60.41 48.088 62.7028 49.0724C69.009 51.7801 78.6192 49.7345 84.3097 46.1295C87.5972 44.0468 90.1143 40.2336 94.1741 39.6437C96.3055 39.334 98.3425 40.0485 100.503 39.7346" stroke="#FFDFDF" stroke-width="4" stroke-linecap="round" stroke-linejoin="round"/>
<path d="M81.6149 154.788C84.4673 144.899 87.3549 120.018 90.6229 110.242C93.8667 100.538 94.471 94.0939 105.159 92.2321C110.762 91.2562 116.546 91.0154 121.828 93.3803C129.229 96.694 118.38 104.426 114.579 105.99C108.142 108.64 117.752 97.0244 118.895 95.9308C124.895 90.19 133.994 81.1623 142.27 79.5464C156.614 76.7457 178.042 86.5111 159.289 100.066C158.188 100.862 151.495 103.111 153.495 102.1C162.421 97.5935 174.909 98.0288 184.6 96.0399C191.274 94.6703 197.828 103.442 199.456 108.898C204.291 125.1 196.025 143.793 185.098 156.386C175.103 167.905 166.338 166.121 152.088 164.451C137.127 162.699 121.585 160.863 107.42 155.86C101.64 153.818 90.8385 147.963 84.7701 148.621" stroke="#FFDFDF" stroke-width="4" stroke-linecap="round" stroke-linejoin="round"/>
<path d="M178.237 134.401C172.717 134.186 167.206 134.552 161.691 134.201C154.679 133.755 152.417 133.335 145.406 132.637C143.519 132.449 138.587 131.111 139.717 132.635C141.496 135.034 147.552 136.578 150.18 137.724C151.734 138.401 162.415 141.926 162.497 143.948C162.53 144.759 140.465 140.286 140.145 140.217C135.806 139.285 129.637 137.905 125.119 136.801C124.437 136.634 123.75 136.476 123.087 136.248C122.817 136.155 123.654 136.321 123.93 136.392C131.618 138.389 139.231 141.214 146.619 144.102C158.226 148.639 140.331 145.76 139.077 145.624C136.096 145.299 128.77 144.419 125.526 143.96C124.18 143.769 120.205 143.419 121.533 143.129C125.069 142.355 130.101 144.176 133.342 145.149C134.98 145.641 141.504 147.748 143.3 148.445C145.789 149.41 144.769 149.373 142.822 149.111C136.906 148.317 131.135 146.764 125.287 145.623C121.276 144.84 117.184 144.743 113.177 143.997C112.813 143.929 111.818 143.499 112.188 143.491C113.301 143.466 115.617 144.071 116.405 144.275C117.278 144.5 127.914 147.084 123.135 147.293C121.332 147.371 102.305 146.736 102.157 148.146C102.128 148.428 110.949 149.926 111.656 150.058C111.67 150.061 118.64 151.151 114.72 150.508C110.864 149.876 106.854 149.642 103.072 148.626C100.796 148.014 103.452 148.18 103.883 148.261C104.668 148.408 111.867 150.009 107.675 149.314C103.271 148.583 98.9883 147.358 94.6322 146.413C90.4129 145.497 97.1762 148.549 92.4858 144.741C90.5272 143.15 86.9051 141.679 86.9994 138.765C87.1782 133.236 85.8983 127.825 86.1673 122.322C86.432 116.904 87.247 111.522 89.6639 106.638C90.8224 104.297 91.9406 101.961 92.8221 99.4989C93.3121 98.1304 93.709 96.5142 94.9816 95.6301C96.6028 94.5036 99.2162 95.8271 100.99 96.1567C102.499 96.4372 106.755 97.9496 106.688 97.9477C103.319 97.8514 93.4221 98.9427 96.5773 97.7565C97.9496 97.2405 100.167 97.6086 101.547 97.6774C102.354 97.7176 106.538 98.5075 103.289 97.4447C100.187 96.4303 102.169 94.9673 104.314 93.9756C106.87 92.7937 113.102 90.9533 113.54 95.7737C114.134 102.291 106.255 104.503 101.359 104.757C101.011 104.775 95.2671 104.143 99.2305 103.818C107.673 103.126 117.166 106.748 124.817 109.865C135.346 114.153 120.041 113.239 117.93 113.107C113.859 112.851 109.424 112.227 105.397 111.502C103.442 111.15 101.319 111.122 99.5955 110.132C98.9404 109.756 100.669 108.959 101.397 108.757C108.099 106.902 115.305 107.628 122.018 108.945C127.629 110.046 143.296 113.12 143.52 121.501C143.762 130.551 127.835 130.507 122.325 129.818C122.233 129.807 114.125 129.102 114.497 125.884C114.868 122.673 123.085 119.082 124.004 118.64C134.587 113.555 143.878 112.588 153.748 119.718C154.653 120.372 161.986 125.074 159.493 128.628C156.91 132.31 146.5 132.273 144.092 132.352C143.253 132.379 122.11 133.456 124.334 127.476C126.818 120.798 137.822 119.333 143.624 119.626C148.357 119.865 153.189 120.904 157.077 123.811C162.063 127.538 161.719 133.17 156.28 136.413C149.614 140.386 136.924 140.95 130.011 137.069C122.79 133.014 142.163 124.147 143.6 123.626C153.264 120.118 166.911 120.697 175.8 126.378C176.364 126.738 177.068 127.809 176.554 128.236C175.555 129.066 174.019 128.909 172.721 128.934C169.384 129 163.151 128.098 159.864 127.426C157.03 126.847 150.822 125.857 150.748 121.678C150.655 116.375 158.004 113.304 162.112 112.539C165.781 111.855 170.938 112.108 174.478 113.297C176.112 113.846 181.312 116.129 180.635 119.316C179.899 122.784 173.639 124.786 171.387 125.319C166.528 126.471 159.125 126.896 154.45 124.445C149.099 121.639 161.173 116.359 162.03 116.041C167.717 113.934 176.854 111.818 182.804 114.454C186.371 116.034 175.218 116.669 171.317 116.697C171.205 116.698 156.062 117.283 161.235 113.276C165.101 110.283 170.239 111.103 174.497 112.639C177.11 113.581 183.082 116.829 176.929 118.438C172.518 119.59 164.572 119.807 160.478 117.357C155.932 114.636 165.234 108.542 166.638 107.946C175.579 104.15 184.913 107.749 188.908 116.695C192.219 124.112 188.603 129.901 180.723 130.125C177.056 130.229 167.834 129.497 165.77 125.591C161.296 117.126 177.736 115.46 181.562 115.772C184.517 116.012 191.929 117.17 194.189 120.607C196.28 123.785 189.637 125.31 189.139 125.456C183.068 127.237 174.891 127.849 168.671 126.276C165.992 125.599 166.899 123.883 168.469 122.51C172.026 119.399 177.148 116.283 181.982 115.999C184.337 115.861 185.247 117.066 183.151 118.643C180.168 120.888 174.72 122.274 171.285 120.175C166.255 117.102 170.276 108.38 173.233 105.434C175.279 103.396 177.833 102.782 180.606 103.315C180.964 103.383 185.314 104.758 184.701 106.632C183.386 110.65 172.974 111.728 169.594 112.16C168.757 112.266 164.509 112.441 167.469 110.848C170.939 108.981 174.738 108.404 178.617 108.987C178.669 108.994 183.014 109.912 183.401 110.173C183.609 110.313 182.989 110.505 182.74 110.527C180.358 110.741 169.718 110.618 169.272 110.616C159.643 110.579 149.436 111.355 139.888 109.703C135.218 108.896 136.048 107.338 140.166 106.352C143.525 105.547 153.968 105.801 150.518 105.961C147.816 106.087 137.887 106.058 136.946 102.608C135.626 97.7715 148.542 99.7828 149.986 100.254C151.341 100.696 154.706 101.728 153.568 102.585C151.94 103.812 149.478 102.44 147.473 102.07C144.175 101.46 136.157 100.712 134.099 97.3518C131.39 92.9293 140.861 87.955 143.853 87.5764C148.208 87.0254 155.32 90.3606 151.01 95.6419C147.14 100.383 138.944 102.672 133.067 101.566C128.739 100.753 130.907 97.2761 133.198 95.2566C135.874 92.8985 139.486 90.7416 143.251 90.9004C145.739 91.0053 149.984 92.8686 148.467 96.5133C146.307 101.707 134.507 105.708 129.552 102.851C124.874 100.154 128.242 89.5424 129.654 86.1058C131.866 80.721 136.397 81.2366 140.602 84.3418C148.068 89.8536 144.312 97.3814 139.782 103.54C137.725 106.338 131.445 113.284 128.763 115.789C127.562 116.911 124.276 120.11 121.82 119.801C117.09 119.205 118.951 112.862 120.931 110.898C126.997 104.881 136.235 105.232 140.713 113.164C145.886 122.325 137.083 132.907 128.582 135.789C123.989 137.345 114.431 133.704 119.313 127.704C122.153 124.214 127.46 125.728 130.543 127.781C145.618 137.822 120.042 135.677 120.118 132.072C120.169 129.658 124.954 128.362 126.692 129.137C131.828 131.429 125.665 134.98 123.133 135.205C118.128 135.649 115.853 133.961 116.766 129.072C117.268 126.384 118.252 122.37 119.273 119.84C119.602 119.023 119.736 117.737 120.598 117.553C121.25 117.415 120.795 118.911 120.617 119.554C118.375 127.65 111.536 133.93 103.073 134.836C97.3522 135.449 92.2206 132.328 92.1692 126.252C92.144 123.275 94.0924 114.801 98.7351 115.963C102.297 116.855 105.514 120.999 107.225 123.656C110.657 128.989 113.431 136.408 108.772 142.069C104.8 146.894 97.3168 145.082 94.2028 140.346C90.2613 134.351 93.954 121.952 97.2022 116.496C103.794 105.424 110.719 127.499 111.061 130.809C111.586 135.901 110.882 144.462 106.923 148.661C103.403 152.395 99.2639 149.863 97.2531 146.461C94.0476 141.038 93.0121 127.435 99.426 123.324C105.333 119.538 111.267 131.038 112.167 134.844C113.09 138.746 111.373 149.832 104.612 145.957C96.3107 141.199 95.5091 128.885 97.4245 120.747C98.1637 117.606 100.974 112.735 103.3 118.03C104.071 119.783 103.593 123.252 101.006 123.078C97.2747 122.826 96.0964 117.165 95.8915 114.447C95.5538 109.965 96.3622 104.673 98.9342 100.871C100.807 98.1028 105.996 100.476 108.845 99.7686C111.518 99.1048 112.706 101.294 111.027 97.5274C109.946 95.102 107.764 90.909 110.647 88.8402C112.398 87.5831 115.068 88.0796 117.024 88.3515C120.621 88.8515 124.865 91.0699 128.404 89.6847C133.119 87.8393 137.404 84.6043 142.338 83.3388C145.78 82.4562 150.199 82.8067 153.758 83.045C155.036 83.1306 163.108 84.3333 158.602 85.8718C157.353 86.2981 150.487 87.4645 151.214 84.0406C151.731 81.6093 160.279 76.0186 159.618 80.7378C159.21 83.6508 156.987 86.5835 155.394 88.9236C154.633 90.042 152.19 94.7239 150.397 94.7667C150.379 94.7672 149.521 94.3813 149.531 94.262C149.6 93.4677 150.956 93.5173 151.727 93.3129C153.121 92.9429 161.023 90.4609 161.365 93.5495C161.768 97.1966 152.349 101.945 149.916 98.4645C148.352 96.2274 153.059 96.9637 153.482 97.0309C156.421 97.4979 164.043 98.3762 165.089 102.056C166.709 107.756 151.982 105.523 161.711 103.305C164.718 102.619 167.878 102.401 169.316 105.834C170.639 108.994 166.054 108.451 164.669 107.208C162.476 105.238 167.904 102.249 168.942 101.905C173.765 100.305 179.1 102.092 182.95 105.138C185.096 106.835 189.23 111.846 183.927 112.513C179.537 113.066 176.502 109.909 174.691 106.268C172.112 101.082 173.398 96.7447 179.64 96.1504C188.163 95.3389 188.211 104.875 186.451 110.909C184.262 118.413 176.022 125.017 169.938 116.66C166.696 112.206 169.278 106.295 174.502 105.247C180.98 103.947 186.501 109.514 189.336 114.662C191.974 119.451 191.634 124.653 184.978 122.573C178.645 120.594 177.66 114.824 177.624 108.915C177.584 102.464 178.847 100.102 185.275 102.239C190.585 104.004 193.607 106.375 191.296 112.282C187.986 120.741 179.56 113.202 180.425 106.866C181.744 97.2106 201.936 110.875 190.618 114.438C187.846 115.31 184.314 113.813 182.04 112.322C181.247 111.802 176.749 106.733 180.43 106.369C187.176 105.704 193.983 117.34 195.765 122.187C197.808 127.74 198.214 139.131 190.475 141.096C185.149 142.449 180.247 136.187 178.557 132.018C175.515 124.515 184.994 122.676 190.057 125.564C201.063 131.841 185.756 140.013 178.548 137.062C178.329 136.973 173.64 134.159 176.588 134.063C180.619 133.932 185.683 136.37 187.878 139.768C191.283 145.038 185.38 147.626 181.081 148.191C179.788 148.361 171.782 148.965 174.127 145.159C175.815 142.419 180.209 140.433 183.34 141.553C185.576 142.353 187.154 144.153 187.07 146.656C186.897 151.875 180.712 150.709 177.806 149.081C171.754 145.692 167.929 138.322 167.056 131.641C166.556 127.804 167.215 121.449 172.75 123.046C176.374 124.092 183.829 128.476 179.989 133.05C176.704 136.962 171.363 139.193 166.79 136.409C165.758 135.781 156.961 129.981 158.791 128.013C160.876 125.771 165.52 126.569 167.635 128.143C168.534 128.812 171.166 131.456 169.701 133.131C167.1 136.105 160.894 133.33 158.975 132.313C153.286 129.297 147.321 123.654 142.996 118.974C141.57 117.431 140.256 115.771 139.116 114.007C138.719 113.395 138.202 112.616 138.439 111.926C139.01 110.262 144.169 112.764 144.76 113.474C147.987 117.351 143.649 121.092 140.328 122.752C135.189 125.32 128.659 126.222 122.958 125.799C119.399 125.535 129.944 124.153 133.509 123.982C138.317 123.751 143.252 123.754 148.071 123.791C150.876 123.812 150.929 123.94 147.101 123.832C135.756 123.509 124.338 122.608 113.193 120.368C112.699 120.269 107.155 119.359 111.343 118.861C113.449 118.61 121.603 118.438 123.498 118.3C125.071 118.186 128.886 118.138 125.075 116.973C118.314 114.906 111.201 113.867 104.348 112.138C93.1074 109.303 109.43 109.045 111.198 108.822C116.261 108.181 120.825 107.561 125.803 106.569C127.031 106.324 128.384 106.336 129.451 105.683C129.87 105.427 128.553 105.24 128.065 105.186C116.739 103.916 104.789 103.739 93.402 104.039C92.212 104.07 88.9259 104.552 89.9886 105.088C91.9825 106.095 99.9645 107.979 100.669 108.155C112.941 111.215 125.323 113.786 137.625 116.714C139.963 117.271 146.59 117.822 144.475 118.963C141.36 120.642 137.421 119.62 133.884 119.687C131.784 119.726 129.68 119.837 127.585 119.704C126.917 119.662 125.395 119.782 125.652 119.165C126.022 118.275 127.386 118.314 128.296 117.996C130.058 117.38 131.868 116.912 133.653 116.368C134.456 116.122 140.343 114.421 141.802 113.684C143.503 112.824 138.516 111.61 136.656 111.19C131.249 109.966 125.607 109.281 120.29 107.687C118.93 107.279 122.523 105.865 123.839 105.334C128.385 103.501 132.87 101.573 137.236 99.3432C138.062 98.9212 138.357 98.5505 138.717 97.6919C139.888 94.9021 141.363 92.2826 142.988 89.7302C145.878 85.1936 150.661 91.0923 154.966 89.5657C157.584 88.6372 159.018 88.8268 161.714 89.2667C164.472 89.7167 163.919 87.9667 161.822 87.0191C156.843 84.77 149.661 89.3757 145.258 91.5273C141.675 93.2782 137.475 92.8511 133.712 92.0685C126.186 90.5033 120.605 92.8875 115.776 98.5768C112.658 102.25 108.119 104.488 104.734 107.931C102.901 109.795 100.509 110.775 98.6708 107.987C97.3091 105.922 101.165 105.528 102.188 106.454C104.665 108.696 101.916 117.431 101.396 119.764C100.483 123.864 98.9515 127.682 97.76 131.682C97.4494 132.725 93.2814 139.785 92.7722 139.19C91.5049 137.711 93.075 130.316 93.1642 128.858C93.3881 125.202 93.9814 121.135 93.5908 117.457C93.4018 115.677 89.4347 117.827 90.5739 114.51C91.0126 113.233 92.8263 110.858 92.5078 109.484C92.4385 109.185 90.5939 115.635 90.5881 115.678C90.1733 118.769 89.5061 122.431 90.0387 125.562C90.2255 126.66 90.6082 127.389 90.5085 128.548C90.034 134.061 87.4787 137.511 89.4831 142.962C90.4003 145.456 89.4233 147.591 86.8294 147.907C85.6471 148.051 83.5227 146.955 82.5072 147.793C80.3268 149.593 86.0824 151.581 87.2192 151.488C97.1383 150.677 107.243 151.444 117.208 151.612C118.938 151.641 120.629 151.823 122.347 152.006C124.287 152.213 118.639 150.789 116.798 150.142C112.018 148.462 106.661 146.858 102.696 143.554C101.928 142.914 97.9562 139.809 99.9827 138.635C102.867 136.963 106.647 137.522 109.676 138.226C111.095 138.555 115.275 139.832 113.89 139.382C111.434 138.583 108.942 137.899 106.456 137.203C103.943 136.499 99.2703 135.203 96.4907 134.652C95.9563 134.547 95.3963 134.369 94.8648 134.488C94.6617 134.534 95.1331 134.825 95.3205 134.915C99.3387 136.852 104.33 137.931 108.757 138.242C109.216 138.274 110.5 138.232 110.113 137.981C108.914 137.203 107.476 136.876 106.14 136.367C105.822 136.246 98.4556 133.807 98.6027 133.28C98.9494 132.037 108.469 133.205 109.212 133.227C117.258 133.468 106.164 130.11 104.787 129.485C102.078 128.256 103.039 128.372 105.426 128.832C107.471 129.227 111.312 130.2 113.421 130.769C114.307 131.007 115.969 131.488 113.755 131.008C111.458 130.509 109.112 129.895 106.863 129.243C105.616 128.881 102.269 127.953 100.87 127.102C99.5599 126.304 100.646 126.053 101.551 125.965C106.215 125.509 110.793 127.819 115.39 127.395C116.296 127.311 114.401 125.774 113.607 125.329C111.393 124.088 108.169 122.626 105.852 121.606C105.268 121.349 99.1718 117.854 101.635 120.822C107.489 127.876 113.978 134.736 118.743 142.606C123.56 150.565 115.324 149.303 109.884 148.203C108.566 147.937 103.633 146.768 101.693 145.93C100.831 145.558 103.568 146.042 104.498 146.167C107.768 146.606 111.741 147.566 115.05 147.07C115.71 146.971 113.786 146.634 113.142 146.456C110.038 145.599 109.046 145.283 105.758 144.253C104.941 143.996 93.5188 141.186 100.277 141.768C100.94 141.825 110.339 143.006 108.761 140.528C107.008 137.775 102.015 135.57 98.9485 134.873C98.0798 134.676 95.8369 134.354 96.2877 135.123C97.9991 138.04 101.88 138.946 104.835 140.592C108.887 142.848 117.918 147.559 122.04 150.239C122.559 150.576 127.115 153.277 123.382 152.985C120.909 152.791 112.078 151.485 110.595 149.216C109.705 147.853 113.82 148.552 115.446 148.639C119.631 148.864 124.988 149.618 129.046 150.278C134.371 151.144 137.392 151.828 142.54 152.836C143.423 153.008 144.294 153.294 145.194 153.332C145.599 153.349 144.444 153.014 144.055 152.899C141.463 152.136 135.459 150.582 133.124 150.017C130.632 149.414 128.065 147.865 125.584 148.507C123.924 148.937 128.637 150.077 130.21 150.761C131.178 151.182 137.57 153.916 138.797 154.541C140.811 155.566 140.49 155.68 138.366 155.556C137.456 155.502 129.577 154.614 128.908 154.55C128.681 154.529 124.709 153.989 123.691 154.503C123.209 154.746 123.513 155.988 123.427 156.24C122.479 158.999 115.865 158.706 113.714 158.76C113.639 158.762 106.94 158.848 108.588 156.875C109.872 155.338 112.866 155.603 114.588 155.489C120.338 155.109 126.04 155.039 131.799 154.962C139.166 154.863 146.288 154.919 153.646 155.508C158.62 155.906 162.837 153.766 167.633 152.939C169.496 152.618 176.794 153.236 177.597 151.502C178.71 149.101 166.02 146.73 165.951 146.712C165.569 146.617 158.743 144.989 156.975 144.668C154.668 144.249 161.474 145.997 163.689 146.766C170.676 149.193 159.587 146.707 159.441 146.678C151.725 145.134 143.982 143.576 136.407 141.425C134.893 140.995 131.451 141.136 132.025 139.671C132.255 139.084 133.217 139.225 133.843 139.153C135.434 138.971 137.04 138.948 138.641 138.911C141.985 138.834 158.638 140.678 145.65 135.919C142.803 134.876 130.147 130.658 127.222 129.589C126.047 129.16 119.755 127.212 125.127 127.707C132.052 128.344 152.543 132.127 145.825 130.33C136.747 127.901 127.339 126.478 118.561 123.001C117.335 122.516 113.984 120.828 115.301 120.76C121.49 120.441 129.254 123.646 135.025 125.312C139.1 126.489 152.905 131.023 137.801 127.449C126.546 124.786 115.534 121.347 104.468 118.016C102.55 117.438 102.327 117.542 105.237 118.197C110.442 119.367 115.397 120.317 120.701 121.244C123.907 121.804 127.104 122.452 130.339 122.81C131.965 122.99 133.796 123.612 135.246 122.854C135.931 122.497 134.653 121.342 134.034 120.881C132.001 119.363 129.691 118.253 127.46 117.044C119.797 112.891 111.897 109.339 103.717 106.356C102.337 105.853 106.578 107.126 108.045 107.178C110.156 107.253 103.81 106.828 101.711 107.058C98.4337 107.418 94.1188 108.05 91.5677 110.407C90.4738 111.418 86.734 116.909 88.2269 118.502C89.8526 120.236 95.4511 107.506 96.2249 106.462C97.7289 104.433 99.8322 104.375 100.729 101.571C101.049 100.572 101.414 98.6399 102.561 98.2332C106.242 96.9277 112.581 100.136 115.95 101.336C123.67 104.087 107.983 97.0025 117.752 99.8371C125.268 102.018 132.501 103.828 140.14 105.159C143.089 105.672 145.926 106.268 148.716 107.398C151.762 108.631 160.7 112.425 157.446 111.975C152.964 111.355 148.139 108.819 143.897 107.28C143.398 107.099 133.871 102.593 134.802 102.017C137.265 100.492 146.316 102.643 143.439 102.99C138.472 103.588 131.553 99.7201 127.138 97.7855C126.027 97.2986 122.848 96.2505 125.115 94.8477C128.376 92.8293 134.487 97.5985 136.816 99.1157C137.197 99.3642 143.179 102.89 143.16 105.012C143.138 107.402 138.548 106.746 136.164 106.576C129.526 106.103 121.289 104.388 116.565 99.2424C113.601 96.0132 115.003 92.8322 119.692 94.1897C124.523 95.5885 129.9 98.5484 133.8 101.548C138.898 105.47 141.543 110.192 133.062 110.287C130.968 110.311 121.011 109.512 119.729 106.539C119.23 105.382 121.84 105.035 123.074 104.78C127.637 103.838 133.217 103.557 137.738 104.292C143.124 105.168 150.269 107.383 154.345 111.45C156.754 113.853 158.184 118.141 155.351 120.975C148.045 128.282 137.99 116.212 135.769 110.386C134.471 106.982 133.38 100.394 135.991 96.9218C138.52 93.558 142.635 95.7015 144.528 98.0677C147.661 101.985 148.671 115.453 140.093 110.376C137.805 109.022 133.428 102.27 139.272 102.244C142.937 102.227 153.562 107.835 150.679 112.932C148.916 116.048 142.63 115.162 140.527 114.554C138.896 114.083 137.128 113.348 136.14 111.968C135.62 111.241 136.008 109.744 136.822 109.377C141.779 107.142 160.459 114.438 152.178 120.176C147.929 123.12 141.166 121.11 137.253 119.369C135.437 118.562 133.279 117.617 132.478 115.798C132.063 114.857 134.622 115.057 135.549 115.503C144.004 119.572 153.082 127.371 157.93 135.235C161.887 141.654 165.737 151.594 158.668 158.001C155.278 161.073 146.81 160.983 143.415 157.664C139.525 153.86 145.414 149.831 147.449 148.458C150.188 146.61 158.289 143.165 161.597 141.853C163.177 141.226 168.131 140.178 166.432 140.232C159.173 140.462 151.692 140.716 144.435 141.15C139.633 141.438 143.259 142.363 146.079 143.376C153.747 146.132 162.658 147.703 169.73 151.915C170.128 152.152 170.781 152.891 170.389 153.138C169.399 153.764 168.084 153.574 166.918 153.691C162.583 154.125 157.025 154.25 152.788 154.258C146.287 154.27 140.015 154.008 133.684 152.556C132.345 152.249 130.916 151.996 133.549 152.468C140.103 153.643 146.491 155.861 152.894 157.638C156.363 158.601 162.223 161.118 166.095 160.926C169.64 160.749 159.164 159.324 155.641 158.893C148.853 158.062 142.093 158.403 135.313 157.851C132.958 157.659 130.358 156.629 128.05 156.083C126.338 155.678 124.652 154.825 122.895 154.645C122.035 154.557 125.658 156.453 125.859 156.535C131.943 159.019 137.899 158.711 144.404 158.17C153.254 157.433 162.633 156.611 170.959 153.292C175.968 151.296 181.161 149.098 185.806 146.346C188.456 144.776 190.122 143.009 190.672 139.98C191.41 135.907 192.773 131.957 193.415 127.88C194.402 121.615 194.577 113.677 193.626 107.371C193.363 105.624 193.152 101.936 191.638 100.645C191.247 100.311 188.065 98.5942 188.09 98.6993C188.666 101.149 192.028 103.635 193.518 105.631C197.464 110.919 195.693 117.257 193.276 122.723C189.59 131.058 185.935 136.841 177.823 141.652C166.082 148.616 152.448 149.366 139.476 145.428C139.21 145.348 137.293 144.606 137.643 144.84C141.71 147.558 146.486 149.653 150.872 151.793C156.682 154.628 162.036 155.518 168.338 154.635C172.899 153.996 177.402 154.62 181.909 154.187C184.778 153.911 181.891 154.805 180.481 155.441C175.899 157.508 171.31 159.515 166.832 161.802C163.292 163.61 160.554 165.363 156.526 163.994C153.503 162.967 150.296 161.499 147.494 159.937C143.788 157.872 153.274 160.16 154.397 160.397C158.493 161.262 161.854 161.502 166.022 160.776C169.27 160.21 179.696 160.386 181.12 156.242C183.396 149.613 176.354 153.44 173.217 155.002C167.408 157.896 163.472 158.885 156.884 157.451C155.296 157.105 133.231 151.171 138.345 146.909C143.556 142.566 154.902 147.983 159.833 150.073C170.812 154.726 152.116 149.928 151.214 149.709C148.646 149.087 146.096 148.39 143.517 147.813C142.846 147.663 144.795 148.324 145.448 148.539C158.235 152.748 138.562 146.25 153.648 151.21C155.305 151.754 160.215 152.85 158.5 153.167C154.951 153.822 151.31 152.495 147.74 151.963C142.332 151.158 138.127 150.467 132.869 149.369C131.626 149.109 130.253 149.14 129.162 148.49C128.831 148.293 129.54 147.731 129.903 147.602C135.214 145.731 140.888 145.112 146.349 143.739C149.426 142.965 152.57 142.354 155.516 141.176C156.584 140.749 158.381 140.136 158.194 139.002C157.988 137.749 156.044 137.616 154.856 137.17C152.592 136.319 150.207 135.836 147.893 135.132C141.036 133.044 120.681 126.181 127.315 128.895C132.718 131.104 138.239 133.013 143.669 135.155C144.071 135.314 157.045 139.985 158.897 142.337C160.675 144.597 153.79 145.288 150.941 145.669C145.553 146.389 140.43 146.646 135.017 146.68C130.709 146.707 129.441 146.292 133.091 146.787C142.599 148.076 147.31 148.805 157.631 150.438C162.492 151.207 167.34 152.063 172.206 152.807C174.425 153.146 176.641 153.81 178.882 153.687C179.763 153.639 177.31 152.877 176.482 152.572C172.23 151.01 165.482 149.145 161.377 146.969C154.14 143.133 170.201 143.719 171.94 143.785C173.993 143.863 175.356 144.034 177.15 144.702C178.308 145.133 182.126 146.251 182.101 143.952C182.073 141.398 177.809 138.916 176.045 137.76C175.555 137.439 174.167 136.592 173.373 136.469C173.111 136.428 173.633 136.964 173.865 137.094C176.801 138.742 180.211 139.453 183.121 141.104C186.42 142.976 175.376 141.289 171.788 140.057C167.712 138.657 181.849 140.134 184.23 136.542C185.401 134.776 185.887 132.485 186.893 130.603C188.513 127.577 189.922 124.579 191.126 121.362C192.211 118.465 193.89 115.063 195.555 112.457C198.094 108.485 200.664 111.4 200.425 115.272C200.202 118.864 197.654 121.309 195.847 124.125C195.319 124.948 196.543 120.626 196.879 119.911C197.817 117.916 198.3 114.882 196.718 113.002C195.213 111.213 190.735 110.823 188.841 110.421C181.433 108.851 173.97 107.581 166.569 105.97C160.316 104.609 153.49 103.738 147.453 101.523C145.314 100.738 143.972 99.9203 145.945 97.9315C149.198 94.6532 152.996 90.2147 157.798 92.3245C158.028 92.4254 160.238 93.2218 160.247 93.5393C160.265 94.176 155.858 94.7999 155.738 94.8152C147.443 95.8775 139.321 91.4594 131.268 93.0153C126.571 93.9229 121.66 95.2041 117.645 97.9105C116.567 98.6379 116.03 99.6995 115.039 100.421C114.123 101.087 108.966 102.475 112.223 104.085C113.832 104.881 124.346 106.076 124.721 104.037C125.004 102.498 119.426 98.8325 118.1 99.7905C113.748 102.937 131.268 126.324 132.821 128.646C139.429 138.529 145.933 148.928 154.099 157.636C156.373 160.062 159.3 162.967 162.411 164.396C166.293 166.178 170.611 165.046 174.101 163.011C174.29 162.901 177.884 160.142 176.318 159.702C175.671 159.52 170.309 160.344 170.649 160.122C173.213 158.446 176.163 157.493 178.702 155.723C180.851 154.226 182.346 152.313 184.141 150.468C186.48 148.063 187.164 145.794 188.472 142.817C189.755 139.898 190.339 137.244 191.271 134.184C191.858 132.254 193.27 130.387 193.398 128.352C193.654 124.302 192.484 119.93 191.411 116.06C189.88 110.542 187.617 105.079 184.785 100.098C182.469 96.0255 180.201 94.8647 176.004 97.1236C174.273 98.0552 173.804 99.7755 172.159 100.58C165.57 103.799 155.015 101.144 148.186 100.113C138.377 98.6324 128.447 96.9646 118.5 96.8126C116.064 96.7754 113.555 96.966 111.141 97.3173C110.005 97.4826 108.384 98.3308 107.233 98.1762C105.48 97.941 105.761 94.8148 104.037 94.4203C101.603 93.8636 99.1085 95.1591 97.014 96.1827C88.6558 100.267 86.1999 112.551 85.1116 120.921C83.8275 130.796 83.2191 140.393 87.7574 149.68" stroke="#FFDFDF" stroke-width="4" stroke-linecap="round" stroke-linejoin="round"/>
<path d="M168.598 112.399C129.835 101.474 188.932 121.777 151.15 107.507C150.165 107.135 150.52 107.19 151.375 107.397C153.232 107.848 156.458 108.234 157.89 109.593C158.608 110.275 155.944 110.04 154.954 110.039C149.551 110.031 144.21 110.14 138.812 110.476C137.433 110.562 131.916 110.874 129.873 111.289C127.379 111.796 130.438 113.883 131.185 114.544C133.12 116.258 148.567 126.331 141.84 128.629C140.033 129.246 133.564 130.101 132.035 130.329C129.669 130.682 121.939 130.675 120.037 132.791C118.831 134.133 122.899 135.11 124.607 135.69C130.715 137.764 137.055 138.871 143.247 140.618C145.602 141.282 145.775 141.59 142.966 141.435C136.817 141.095 130.658 140.074 124.615 138.933C123.325 138.689 122.038 138.423 120.759 138.128C120.433 138.052 119.471 137.839 119.805 137.821C120.508 137.781 121.205 137.965 121.902 138.063C127.043 138.792 132.175 139.635 137.258 140.7C137.977 140.85 140.106 141.388 139.377 141.303C133.275 140.593 127.127 139.496 121.105 138.329C117.088 137.552 108.366 136.84 104.833 133.945C104.628 133.778 104.938 133.284 105.2 133.241C107.628 132.837 115.311 133.6 116.699 133.743C130.157 135.124 143.522 137.942 157.001 139.028C160.197 139.286 150.79 137.436 147.681 136.658C146.716 136.416 140.021 135.607 144.486 134.169C148.545 132.862 153.954 131.858 157.929 131.247C161.286 130.732 164.667 130.377 168.04 129.985C170.81 129.663 173.61 129.566 176.36 129.104C177.739 128.872 179.448 128.951 180.383 127.911C181.836 126.294 177.517 124.539 175.653 123.42C174.551 122.759 173.365 122.247 172.241 121.625C170.698 120.771 170.237 120.6 172.248 120.818C176.269 121.252 175.479 121.458 179.817 121.88C185.085 122.393 180.849 120.533 178.918 119.599C175.777 118.079 172.448 116.88 169.367 115.238C167.269 114.121 168.637 113.792 170.326 113.657C171.146 113.591 178.916 114.107 178.05 112.634C177.302 111.361 176.354 110.452 178.041 109.453C181.1 107.643 183.03 105.569 182.012 101.7C181.194 98.5899 179.383 98.8657 176.606 97.9117C169.95 95.626 163.24 99.7797 156.424 98.6229C155.47 98.4611 151.897 98.0176 152.469 96.3509C153.245 94.0914 153.465 92.4585 153.136 89.9963C152.502 85.2506 151.073 85.5261 146.362 84.8661C140.549 84.0518 133.961 83.8457 129.702 88.9884C128.109 90.9118 130.046 94.9081 130.712 96.8117C132.299 101.346 135.584 103.935 139.117 107.05C144.448 111.751 150.062 115.961 155.655 120.332C156.566 121.043 160.217 123.98 161.104 125.027C163.657 128.045 157.721 127.447 156.684 127.434C150.707 127.364 133.266 124.104 138.779 126.415C144.008 128.606 149.624 129.866 154.904 131.953C161.899 134.718 154.582 133.279 153.13 133.005C152.872 132.956 140.131 130.085 146.176 131.302C153.332 132.742 174.543 137.619 167.254 137.233C159.131 136.802 151.044 135.045 143.243 132.828C142.417 132.594 141.603 132.312 140.765 132.123C139.748 131.892 139.316 131.775 139.988 132.811C141.581 135.265 143.559 137.517 145.228 139.927C147.296 142.912 148.761 145.474 144.48 147.064C143.44 147.45 137.057 147.59 137.907 148.545C139.718 150.578 142.108 152.626 144.581 153.786C146.563 154.716 147.213 154.701 147.983 156.699C148.672 158.488 147.772 158.824 145.789 158.853C139.007 158.95 132.978 155.59 127.541 151.879C118.841 145.942 111.64 138.537 105.302 130.161C102.95 127.052 95.5847 120.034 101.471 117.007C104.978 115.204 108.433 115.17 112.214 115.962C117.938 117.161 112.529 117.058 110.395 116.541C108.638 116.116 103.559 114.953 105.332 114.595C107.116 114.234 121.678 115.744 121.162 116.937C121.078 117.132 107.113 116.155 112.412 110.547C118.719 103.873 130.191 101.386 138.837 103.631C141.392 104.295 140.534 104.216 139.927 103.964C136.888 102.703 133.764 101.265 131.099 99.3123C125.479 95.1918 127.458 90.4428 132.948 87.2786C137.124 84.8714 144.296 83.1331 148.395 86.7481C152.469 90.3417 142.607 91.4525 141.06 91.3525C139.639 91.2607 138.953 91.1144 137.698 90.8624C137.685 90.8598 137.651 90.8416 137.661 90.8496C140.657 93.1645 140.269 92.6721 143.921 96.4472C148.49 101.17 156.29 107.842 158.156 114.503C158.955 117.356 153.624 115.799 152.717 115.584C151.913 115.394 151.267 115.097 152.548 114.986C156.497 114.645 160.71 115.014 164.619 115.456C170.371 116.106 187.219 120.202 181.451 119.721C180.577 119.648 174.704 118.65 175.921 117.199C178.588 114.02 185.338 114.255 188.451 116.393C191.324 118.366 194.831 125.189 188.426 123.238C187.47 122.947 181.008 120.279 181.928 120.57C183.124 120.949 186.567 122.475 185.381 122.067C183.853 121.543 179.53 119.379 181.077 119.842C182.044 120.131 182.956 120.578 183.9 120.936C184.629 121.212 185.36 121.481 186.092 121.751C187.148 122.14 187.906 122.395 186.289 121.84C183.828 120.994 179.287 120.314 177.49 118.194C175.918 116.341 179.588 115.354 180.767 115.727C182.132 116.159 188.476 121.559 184.756 122.434C183.198 122.801 185.996 123.476 186.879 123.994C190.093 125.884 183.855 122.861 183.189 122.644C177.318 120.728 168.807 122.405 162.882 123.416C160.549 123.814 158.424 124.832 156.423 126.078C149.019 130.689 142.155 136.263 135.127 141.401C131.656 143.94 124.982 148.942 120.725 151.408C118.451 152.725 117.721 152.633 115.489 152.018C113.279 151.409 111.36 150.397 109.415 149.205C106.754 147.576 104.27 145.777 101.243 144.882C98.6518 144.117 95.9455 144.073 93.3039 143.568C91.8985 143.299 90.6289 142.396 89.9725 141.053C88.7714 138.595 101.32 143.516 102.368 144.147C103.672 144.934 107.967 147.754 107.619 149.959C107.368 151.556 108.14 152.221 109.39 153.33C110.683 154.477 111.987 155.1 113.542 155.753C115.207 156.451 116.442 158.081 117.922 159.084C123.276 162.712 129.749 164.898 135.853 166.863C139.855 168.151 146.889 171.113 151.21 169.313C152.368 168.831 151.516 168.086 151.552 167.291C151.625 165.649 156.243 166.846 156.684 165.772C157 165.003 148.108 162.51 147.497 162.347C142.554 161.032 137.845 161.219 132.8 160.996C132.406 160.979 128.952 160.359 129.994 160.821C132.121 161.765 134.276 162.431 136.534 162.943C138.944 163.49 141.444 163.84 143.672 164.958C151.933 169.104 159.498 165.479 162.801 156.97C164.688 152.11 168.068 148.17 169.809 143.219C171.177 139.326 172.653 136.522 175.549 133.519C177.223 131.785 178.599 131.797 180.679 130.92C181.446 130.596 179.421 129.768 178.642 129.473C172.782 127.252 166.849 125.083 161.152 122.469C147.569 116.235 135.568 107.05 125.05 96.487C122.143 93.567 119.941 90.2777 124.362 87.4864C127.805 85.3122 133.63 87.6982 137.401 88.0396C141.273 88.3902 145.2 88.4662 149.085 88.6675C151.876 88.8121 157.11 89.0638 159.475 90.9483C162.439 93.3097 162.337 98.08 162.77 101.55C163.074 103.98 164.908 105.991 164.67 108.475C164.017 115.307 168.9 123.833 174.07 128.151C177.057 130.646 181.457 131.879 183.258 135.564C184.204 137.5 184.145 139.658 185.104 141.619" stroke="#FFDFDF" stroke-width="4" stroke-linecap="round" stroke-linejoin="round"/>
<path d="M71.0001 144.5C65.627 139.872 60.2566 135.245 54.9167 130.583C53.0901 128.989 50.9896 126.894 48.8334 125.833C46.1775 124.527 44.0795 121.625 41.8056 119.806C39.5977 118.039 37.4194 116.259 35.2501 114.444C32.968 112.536 30.4043 110.563 28.4167 108.361C26.5358 106.278 24.5138 104.011 22.9445 101.694C21.3032 99.2715 21.4128 95.8594 22.139 93.1528C22.723 90.9759 23.9213 88.8877 24.6251 86.7222C25.2153 84.9062 25.5591 83.025 26.1945 81.2222C26.5952 80.0854 27.1544 79.0388 27.3751 77.8472C27.7457 75.8458 27.883 73.7903 28.1945 71.7778C28.4001 70.4493 28.7501 69.3108 28.7501 67.9583C28.7501 65.5307 28.6873 63.0937 28.7501 60.6667C28.8111 58.3065 30.1734 56.2326 30.889 54.0278C32.6469 48.6114 33.9777 43.0247 36.8056 38C38.4403 35.0956 40.8112 33.187 44.1667 34.3056C46.4433 35.0644 48.6467 35.9949 50.6945 37.25C51.6669 37.846 52.557 38.8444 53.2362 39.75C54.064 40.8537 54.8803 42.3537 55.6251 40.4722C56.8717 37.3228 57.6427 33.9504 59.1945 30.9306C61.0999 27.2227 63.7327 24.4688 66.2362 21.25C70.2372 16.1058 76.0463 17.6204 81.5001 18.5C84.682 19.0132 87.6781 19.8838 90.639 21.1528C92.7114 22.041 94.6528 23.4016 96.4723 24.7222C98.8189 26.4254 101.06 28.0455 103.528 29.5833C105.221 30.6383 106.532 31.9379 108.056 33.1944C109.638 34.4997 111.287 35.5998 112.445 37.3472C115.21 41.5232 116.887 46.4665 119.306 50.8611C120.538 53.1001 121.918 55.2567 123.139 57.5C125.032 60.9779 122.093 65.1268 121.25 68.5C120.551 71.2958 120.023 73.9929 118.75 76.5972C118.082 77.9631 117.165 79.1905 116.445 80.5278C114.541 84.059 113.307 87.7863 112.042 91.5833C111.132 94.3131 110.321 96.6287 108.306 98.6944C104.453 102.643 101.63 107.046 96.8195 110.028C91.204 113.508 85.1264 116.39 80.8334 121.542C78.1469 124.765 75.3037 127.807 72.6667 131.083C69.6828 134.791 71.2501 140.603 71.2501 145" stroke="black" stroke-width="4" stroke-linecap="round" stroke-linejoin="round"/>
<path d="M83.0001 121.75C81.8858 124.879 81.6287 128.534 81.7639 131.847C81.8336 133.553 82.3064 135.391 81.5973 137.028C79.8848 140.98 79.0001 145.219 79.0001 149.556C79.0001 150.241 79.0001 150.926 79.0001 151.611C79.0001 152.571 86.0469 152.962 87.2223 153.125C92.1582 153.811 96.8709 155.758 101.528 157.444C104.305 158.45 107.244 158.911 110.028 159.875C110.998 160.211 112.054 160.477 113.083 160.5C114.367 160.529 113.175 162.551 114.056 162.75C115.218 163.013 116.442 161.359 116.75 163.167C117.07 165.044 118.548 165.259 120.306 165.472C122.146 165.695 123.771 165.151 125.417 166.139C126.63 166.867 127.949 167.883 129.361 168.139C131.065 168.447 132.741 168.318 134.445 168.75C135.703 169.069 136.946 168.916 138.222 169.014C139.379 169.103 140.455 169.5 141.639 169.5C146.04 169.5 150.291 169.542 154.667 169.056C157.276 168.766 159.672 167.625 162.083 166.639C164.75 165.548 167.615 164.5 170.514 164.5C173.735 164.5 176.084 162.916 178.25 160.75C179.256 159.744 180.381 158.869 181.389 157.861C182.992 156.258 184.039 154.318 185.333 152.472C187.097 149.957 188.857 147.429 190.597 144.903C191.368 143.784 192.287 142.542 192.875 141.319C195.216 136.457 197.191 131.564 198.139 126.222C198.676 123.197 198.75 120.402 198.75 117.361C198.75 115.954 198.691 114.783 198.195 113.444C197.167 110.673 196.348 107.828 195.25 105.083C194.254 102.593 193.084 99.3807 190.986 97.5972C189.855 96.6357 189.3 95.1916 187.917 94.5C187.046 94.0644 186.094 93.9269 185.195 93.5556C184.001 93.0628 182.998 92.8332 181.722 92.7222C178.061 92.4039 174.573 90.9041 170.875 90.6667C167.2 90.4307 165.323 91.5938 162.695 93.8333C162.109 94.3318 162.25 92.7823 162.25 92.5833C162.25 90.8603 162.041 89.3258 161.75 87.6389C161.393 85.5715 161.077 83.5202 160.264 81.5694C159.897 80.6891 157.751 80.4844 156.903 80.1389C156.203 79.8539 155.608 79.8186 154.889 79.6389C150.641 78.577 146.524 77.0521 142.195 76.3056C136.453 75.3157 129.256 76.3582 124.347 79.7639C121.66 81.6287 119.092 83.8621 116.25 85.4861C114.933 86.2386 116.137 86.5946 117.278 86.5833C118.912 86.5672 120.717 85.2084 122.111 84.5C123.101 83.9972 123.911 83.5179 124.75 82.8056C126.197 81.577 127.705 80.2945 129.389 79.4028C131.817 78.1173 134.556 78.25 137.222 78.25C143.887 78.25 151.087 78.5395 157 82.0556C159.079 83.2916 160.117 85.5876 162 87" stroke="black" stroke-width="4" stroke-linecap="round" stroke-linejoin="round"/>
</svg>
