<svg width="757" height="449" viewBox="0 0 757 449" fill="none" xmlns="http://www.w3.org/2000/svg">
<path d="M468.446 150.302C459.9 144.567 437.089 134.22 428.777 128.124C420.527 122.072 414.575 119.529 416.066 108.783C416.847 103.149 418.384 97.5681 422.248 93.2603C427.664 87.2243 431.714 99.9163 432.043 104.013C432.6 110.952 424.474 98.2539 423.782 96.8318C420.147 89.3661 414.328 77.9448 415.316 69.5704C417.029 55.0566 432.87 37.6334 440.053 59.6297C440.475 60.921 440.572 67.981 440.221 65.7677C438.654 55.892 442.882 44.1336 443.947 34.2979C444.68 27.5247 455.034 23.9616 460.727 24.0771C477.631 24.4201 492.908 37.9988 501.563 52.2485C509.48 65.2829 505.105 73.0852 499.165 86.1447C492.928 99.8561 486.434 114.095 477.345 126.056C473.636 130.937 464.763 139.436 463.537 145.415" stroke="#FFDFDF" stroke-width="4" stroke-linecap="round" stroke-linejoin="round"/>
<path d="M478.533 52.0694C476.643 57.2603 475.309 62.6195 473.291 67.7641C470.725 74.3049 469.635 76.3315 466.829 82.7938C466.074 84.5335 463.295 88.8221 465.09 88.2113C467.918 87.2493 471.238 81.9536 473.131 79.801C474.251 78.5283 480.868 69.434 482.818 69.9726C483.6 70.1885 472.604 89.8343 472.441 90.1186C470.229 93.9653 467.031 99.4188 464.6 103.384C464.233 103.982 463.873 104.588 463.453 105.15C463.283 105.379 463.696 104.632 463.848 104.391C468.097 97.6799 473.111 91.2926 478.117 85.1395C485.982 75.4727 477.776 91.6332 477.263 92.7862C476.045 95.5257 472.97 102.233 471.542 105.182C470.949 106.406 469.402 110.084 469.531 108.73C469.874 105.128 473.145 100.892 475.06 98.1027C476.029 96.6927 480.028 91.124 481.239 89.6261C482.918 87.5505 482.571 88.5104 481.728 90.2849C479.165 95.6758 475.924 100.697 473.052 105.917C471.082 109.497 469.741 113.365 467.807 116.953C467.631 117.279 466.918 118.095 467.023 117.74C467.339 116.673 468.622 114.652 469.057 113.964C469.538 113.202 475.246 103.862 473.985 108.476C473.51 110.218 467.095 128.142 468.393 128.713C468.653 128.827 472.772 120.885 473.114 120.252C473.12 120.239 476.287 113.935 474.478 117.471C472.698 120.95 471.251 124.698 469.129 127.988C467.852 129.97 468.82 127.491 469.029 127.105C469.409 126.402 473.132 120.036 471.19 123.815C469.149 127.786 466.675 131.49 464.445 135.349C462.284 139.088 467.256 133.579 462.197 136.883C460.085 138.263 457.578 141.263 454.832 140.283C449.621 138.424 444.078 137.991 438.92 136.055C433.841 134.148 428.966 131.729 425.053 127.937C423.177 126.119 421.294 124.341 419.219 122.749C418.065 121.865 416.647 120.994 416.194 119.512C415.616 117.624 417.674 115.539 418.53 113.951C419.258 112.6 421.997 109.008 421.975 109.072C420.855 112.251 418.872 122.008 418.706 118.641C418.634 117.177 419.661 115.178 420.148 113.885C420.432 113.129 422.462 109.386 420.458 112.155C418.545 114.799 417.757 112.465 417.468 110.12C417.123 107.325 417.273 100.829 421.997 101.883C428.384 103.308 428.085 111.485 426.832 116.226C426.743 116.562 424.388 121.839 425.288 117.966C427.207 109.715 433.555 101.781 438.858 95.4472C446.156 86.7304 440.613 101.026 439.842 102.995C438.356 106.793 436.408 110.826 434.488 114.44C433.555 116.194 432.881 118.207 431.412 119.546C430.854 120.055 430.623 118.166 430.653 117.411C430.933 110.462 433.824 103.821 437.127 97.832C439.889 92.8245 447.6 78.8447 455.649 81.1903C464.341 83.723 459.437 98.8755 457.098 103.912C457.059 103.996 453.912 111.502 450.961 110.165C448.017 108.832 447.106 99.9102 446.967 98.9005C445.356 87.2708 447.271 78.1281 457.074 70.9063C457.973 70.244 464.689 64.6964 467.313 68.1555C470.031 71.7394 466.816 81.6412 466.156 83.9582C465.926 84.7657 460.497 105.228 455.481 101.284C449.88 96.8802 451.846 85.954 453.895 80.5188C455.568 76.0846 458.033 71.8005 461.988 68.9853C467.059 65.3756 472.318 67.4229 473.745 73.5927C475.493 81.1534 472.156 93.4092 466.349 98.807C460.283 104.446 457.755 83.2899 457.697 81.7628C457.308 71.4894 462.025 58.6706 470.15 51.9402C470.664 51.5139 471.899 51.1701 472.149 51.7901C472.633 52.9948 472.016 54.4088 471.643 55.6529C470.687 58.8502 467.925 64.5105 466.282 67.4351C464.865 69.9572 462.027 75.567 458.025 74.361C452.946 72.8303 452.266 64.895 452.791 60.7499C453.261 57.0471 455.077 52.2132 457.289 49.2054C458.311 47.8172 462.072 43.5626 464.901 45.1802C467.978 46.9403 467.973 53.5125 467.794 55.8192C467.407 60.7982 465.551 67.9776 461.79 71.6807C457.484 75.9201 456.143 62.81 456.102 61.8969C455.831 55.8377 456.606 46.4914 460.932 41.6306C463.526 38.7165 460.726 49.5305 459.562 53.254C459.528 53.3605 455.462 67.9592 453.226 61.8095C451.556 57.2147 453.906 52.5718 456.668 48.9869C458.364 46.7865 463.28 42.0906 462.933 48.4416C462.684 52.9939 460.463 60.6264 456.88 63.7767C452.902 67.2744 449.939 56.5567 449.8 55.0373C448.915 45.3643 455.192 37.5748 464.931 36.5024C473.004 35.6134 477.413 40.8246 475.22 48.3965C474.2 51.9202 470.687 60.4789 466.338 61.2517C456.91 62.9269 460.343 46.7636 461.808 43.2156C462.94 40.4753 466.306 33.7708 470.268 32.6673C473.933 31.6468 473.357 38.4377 473.344 38.9571C473.186 45.2814 471.273 53.2554 467.875 58.6985C466.413 61.042 465.056 59.6552 464.228 57.7409C462.352 53.4037 460.948 47.575 462.153 42.8848C462.74 40.6003 464.166 40.1019 465.028 42.5793C466.255 46.1046 465.911 51.7162 462.864 54.3461C458.402 58.1976 451.324 51.706 449.422 47.9907C448.105 45.4192 448.301 42.8004 449.655 40.3219C449.829 40.0028 452.466 36.2794 454.063 37.4358C457.488 39.9151 455.336 50.1584 454.715 53.5092C454.561 54.3381 453.43 58.4366 452.817 55.1322C452.099 51.2582 452.709 47.4642 454.448 43.9481C454.472 43.9009 456.672 40.0432 457.039 39.7543C457.235 39.5994 457.229 40.2484 457.174 40.4925C456.651 42.826 453.285 52.9198 453.147 53.344C450.171 62.5019 447.794 72.4584 443.306 81.0469C441.111 85.2469 439.881 83.9808 440.199 79.758C440.459 76.3147 443.889 66.4475 442.988 69.7811C442.283 72.3928 439.224 81.8391 435.651 81.682C430.643 81.4618 436.502 69.7764 437.391 68.5453C438.225 67.3907 440.235 64.5014 440.704 65.8464C441.375 67.7717 439.318 69.6971 438.353 71.4932C436.765 74.4473 433.605 81.8544 429.777 82.7881C424.738 84.0171 422.893 73.4799 423.446 70.5153C424.251 66.1997 429.599 60.4456 433.312 66.1626C436.645 71.295 436.322 79.7984 433.475 85.0578C431.378 88.9304 428.73 85.804 427.507 83.0057C426.078 79.7383 425.127 75.6399 426.428 72.1031C427.287 69.7657 430.358 66.2927 433.365 68.8495C437.651 72.4929 437.859 84.9508 433.625 88.7972C429.629 92.4284 420.552 85.9808 417.711 83.587C413.258 79.8361 415.133 75.6796 419.374 72.6228C426.902 67.1969 432.923 73.0717 437.405 79.2658C439.441 82.079 444.138 90.1795 445.704 93.4981C446.406 94.9843 448.449 99.0902 447.405 101.335C445.393 105.657 439.921 101.948 438.655 99.4625C434.778 91.8492 437.933 83.1602 446.854 81.3174C457.157 79.189 464.545 90.802 464.694 99.7774C464.774 104.626 458.387 112.616 454.165 106.135C451.709 102.365 454.771 97.7735 457.667 95.4651C471.832 84.1757 461.98 107.875 458.57 106.702C456.287 105.917 456.514 100.964 457.783 99.5464C461.533 95.3555 463.033 102.308 462.474 104.787C461.369 109.689 459.067 111.34 454.69 108.978C452.284 107.679 448.762 105.517 446.664 103.772C445.987 103.209 444.803 102.689 444.891 101.813C444.959 101.149 446.244 102.039 446.802 102.405C453.827 107.012 457.719 115.442 455.998 123.777C454.835 129.412 450.297 133.346 444.495 131.54C441.652 130.654 434.178 126.212 436.702 122.146C438.639 119.026 443.567 117.227 446.62 116.41C452.746 114.77 460.658 114.394 464.625 120.559C468.008 125.814 463.998 132.387 458.537 133.906C451.625 135.829 440.945 128.527 436.742 123.768C428.211 114.11 451.346 114.256 454.602 114.942C459.611 115.996 467.549 119.28 470.338 124.332C472.82 128.825 469.145 131.993 465.291 132.869C459.148 134.265 445.878 131.098 443.923 123.735C442.121 116.954 454.884 114.815 458.783 115.12C462.78 115.433 472.812 120.452 467.058 125.707C459.992 132.159 448.022 129.163 440.857 124.854C438.092 123.191 434.312 119.028 440.064 118.429C441.968 118.231 445.126 119.745 444.17 122.155C442.792 125.632 437.041 125.025 434.39 124.39C430.019 123.344 425.227 120.958 422.392 117.348C420.327 114.719 424.172 110.503 424.368 107.573C424.551 104.826 426.999 104.363 422.9 104.811C420.26 105.1 415.601 105.898 414.511 102.522C413.849 100.47 415.137 98.0791 415.993 96.2994C417.567 93.0271 420.976 89.6625 420.737 85.87C420.419 80.8172 418.647 75.7482 418.949 70.6636C419.159 67.1171 420.842 63.0155 422.155 59.6996C422.627 58.509 426.237 51.1892 426.326 55.9498C426.351 57.269 425.365 64.1641 422.327 62.4255C420.17 61.191 417.455 51.3448 421.748 53.4152C424.397 54.6932 426.511 57.7052 428.253 59.9365C429.085 61.0029 432.798 64.7589 432.291 66.4794C432.286 66.4966 431.657 67.1952 431.546 67.149C430.811 66.8414 431.272 65.565 431.313 64.7689C431.386 63.328 431.435 55.0455 434.481 55.6632C438.077 56.3926 439.723 66.8116 435.665 68.0662C433.058 68.8725 435.196 64.615 435.389 64.2328C436.731 61.5769 439.895 54.5866 443.718 54.714C449.641 54.9114 443.018 68.2533 443.876 58.312C444.141 55.2395 444.899 52.1635 448.606 51.8425C452.019 51.5469 450.102 55.7477 448.496 56.6864C445.951 58.1737 444.761 52.0922 444.75 50.9992C444.7 45.9178 448.031 41.3828 452.106 38.6465C454.377 37.1216 460.411 34.7153 459.428 39.9686C458.614 44.3178 454.681 46.2434 450.66 46.8564C444.935 47.7292 441.197 45.1803 442.538 39.0544C444.367 30.6906 453.462 33.5572 458.671 37.0752C465.148 41.4504 468.921 51.3138 459.105 54.5554C453.874 56.283 449.034 52.0198 449.631 46.7252C450.371 40.1595 457.357 36.6018 463.125 35.4735C468.491 34.424 473.341 36.3361 469.328 42.0387C465.51 47.4657 459.715 46.6411 454.077 44.8722C447.922 42.9408 446.058 41.0168 450.056 35.548C453.358 31.0304 456.538 28.8767 461.458 32.8808C468.502 38.615 458.751 44.3374 452.981 41.5789C444.189 37.3753 463.367 22.3189 463.303 34.1846C463.287 37.0905 460.784 39.9968 458.67 41.7067C457.932 42.3032 451.731 45.0389 452.51 41.4229C453.935 34.7956 467.094 31.8667 472.254 31.649C478.166 31.3995 489.137 34.4902 488.645 42.46C488.307 47.9451 480.848 50.7009 476.362 51.0375C468.289 51.6434 469.431 42.0554 473.727 38.1155C483.064 29.5522 486.173 46.6234 481.162 52.5856C481.01 52.7667 476.899 56.3727 477.708 53.5367C478.813 49.658 482.682 45.5805 486.588 44.5273C492.645 42.8939 493.308 49.3053 492.533 53.5719C492.3 54.8553 490.431 62.6633 487.523 59.2683C485.429 56.8242 484.88 52.0334 486.902 49.3938C488.346 47.5091 490.542 46.556 492.9 47.3996C497.817 49.1587 494.818 54.692 492.38 56.9625C487.305 61.6904 479.12 63.083 472.491 61.8734C468.685 61.1789 462.834 58.6109 466.045 53.8278C468.147 50.696 474.599 44.936 477.782 49.9892C480.504 54.3109 480.998 60.078 476.95 63.5834C476.037 64.3743 467.828 70.9804 466.513 68.6367C465.014 65.9669 467.192 61.7884 469.337 60.2546C470.248 59.6027 473.57 57.9034 474.717 59.8096C476.755 63.1954 472.218 68.2577 470.664 69.7738C466.055 74.2707 458.86 78.228 453.083 80.9175C451.178 81.8043 449.197 82.5485 447.168 83.0962C446.464 83.2863 445.565 83.5416 444.98 83.1053C443.57 82.0528 447.527 77.9045 448.385 77.5582C453.062 75.669 455.299 80.9425 455.866 84.6114C456.743 90.2892 455.607 96.7827 453.464 102.083C452.126 105.391 454.029 94.9271 454.955 91.4804C456.203 86.8313 457.713 82.1332 459.219 77.5558C460.096 74.8912 460.234 74.8801 458.962 78.4914C455.191 89.1961 450.846 99.7941 445.311 109.723C445.066 110.163 442.507 115.164 443.311 111.024C443.715 108.942 446.041 101.125 446.488 99.2788C446.86 97.7464 447.979 94.0983 445.706 97.3715C441.673 103.179 438.513 109.635 434.774 115.633C428.641 125.471 433.38 109.849 433.707 108.097C434.643 103.08 435.446 98.545 436.021 93.5016C436.163 92.2583 436.587 90.9731 436.291 89.7572C436.175 89.2801 435.595 90.4781 435.394 90.9261C430.728 101.323 426.91 112.649 423.719 123.583C423.385 124.726 422.841 128.002 423.676 127.154C425.243 125.563 429.474 118.537 429.857 117.919C436.518 107.168 442.747 96.1627 449.291 85.3421C450.535 83.2858 453.083 77.1437 453.524 79.5061C454.172 82.9848 451.996 86.423 450.979 89.8124C450.376 91.8235 449.839 93.8609 449.073 95.8157C448.828 96.4385 448.478 97.9252 447.969 97.4918C447.235 96.8674 447.689 95.5803 447.663 94.6169C447.615 92.7513 447.722 90.8849 447.748 89.0188C447.76 88.1789 447.937 82.0541 447.681 80.4394C447.382 78.5569 444.703 82.9357 443.735 84.5775C440.919 89.3533 438.544 94.517 435.402 99.0932C434.598 100.263 434.348 96.4105 434.245 94.9947C433.888 90.1066 433.421 85.2469 432.631 80.4086C432.481 79.4929 432.218 79.0995 431.511 78.4942C429.212 76.5274 427.167 74.3232 425.233 71.996C421.795 67.8596 428.873 65.1059 428.734 60.5403C428.649 57.7635 429.267 56.4559 430.509 54.0228C431.78 51.5339 429.945 51.5261 428.402 53.2343C424.74 57.2885 426.933 65.5341 427.637 70.3835C428.211 74.3298 426.522 78.199 424.628 81.5434C420.839 88.2317 421.406 94.2742 425.349 100.61C427.895 104.701 428.64 109.706 430.884 113.981C432.1 116.296 432.303 118.873 429.087 119.772C426.705 120.438 427.507 116.646 428.701 115.954C431.592 114.28 439.071 119.565 441.134 120.772C444.759 122.894 447.928 125.518 451.373 127.874C452.271 128.488 457.721 134.612 456.999 134.916C455.203 135.671 448.641 131.918 447.28 131.388C443.867 130.058 440.176 128.252 436.554 127.5C434.801 127.137 435.637 131.571 432.827 129.474C431.744 128.666 430.037 126.214 428.631 126.097C428.325 126.072 433.904 129.798 433.943 129.817C436.759 131.155 440.044 132.909 443.187 133.358C444.29 133.515 445.101 133.373 446.174 133.822C451.279 135.957 453.784 139.443 459.587 139.199C462.242 139.087 463.976 140.669 463.485 143.236C463.262 144.406 461.569 146.094 462.057 147.317C463.106 149.943 466.756 145.069 467.015 143.958C469.271 134.265 473.087 124.877 476.288 115.44C476.844 113.8 477.535 112.246 478.233 110.666C479.022 108.881 475.942 113.825 474.764 115.38C471.705 119.419 468.541 124.031 464.185 126.798C463.341 127.334 459.171 130.168 458.672 127.88C457.961 124.623 459.647 121.194 461.242 118.524C461.989 117.274 464.481 113.684 463.63 114.865C462.119 116.96 460.707 119.123 459.284 121.279C457.847 123.456 455.186 127.51 453.813 129.989C453.55 130.466 453.21 130.945 453.161 131.487C453.142 131.695 453.563 131.334 453.706 131.184C456.778 127.949 459.329 123.525 460.977 119.405C461.148 118.977 461.499 117.742 461.143 118.033C460.035 118.937 459.285 120.207 458.393 121.324C458.18 121.59 453.609 127.86 453.152 127.559C452.074 126.849 456.093 118.141 456.341 117.44C459.026 109.852 452.442 119.391 451.426 120.512C449.428 122.716 449.832 121.836 451 119.703C452 117.876 454.099 114.516 455.284 112.681C455.782 111.91 456.748 110.475 455.614 112.437C454.438 114.472 453.137 116.518 451.83 118.46C451.104 119.537 449.198 122.442 447.96 123.513C446.801 124.517 446.894 123.407 447.086 122.518C448.076 117.937 451.673 114.283 452.673 109.776C452.87 108.888 450.827 110.223 450.161 110.843C448.304 112.573 445.927 115.197 444.248 117.092C443.825 117.569 438.636 122.307 442.215 120.868C450.719 117.447 459.232 113.362 468.182 111.228C477.231 109.071 473.515 116.528 470.807 121.373C470.151 122.546 467.531 126.887 466.141 128.479C465.524 129.185 466.82 126.727 467.223 125.879C468.639 122.9 470.767 119.409 471.305 116.108C471.412 115.448 470.504 117.178 470.138 117.737C468.374 120.431 467.77 121.279 465.785 124.095C465.291 124.796 459.128 134.814 461.745 128.556C462.002 127.942 465.996 119.353 463.155 120.099C459.998 120.927 456.374 125.009 454.774 127.716C454.321 128.483 453.33 130.521 454.199 130.326C457.5 129.587 459.548 126.169 462.017 123.857C465.403 120.687 472.646 113.525 476.457 110.419C476.936 110.028 480.899 106.514 479.481 109.979C478.541 112.275 474.602 120.285 471.988 121.005C470.418 121.437 472.34 117.731 472.92 116.21C474.411 112.293 476.765 107.422 478.633 103.759C481.083 98.9524 482.657 96.2851 485.188 91.6909C485.623 90.9026 486.161 90.1599 486.471 89.3151C486.611 88.9338 485.939 89.9316 485.711 90.2676C484.193 92.5027 480.881 97.745 479.629 99.7966C478.295 101.985 476.036 103.956 475.89 106.515C475.792 108.228 478.317 104.088 479.448 102.798C480.144 102.005 484.7 96.7532 485.669 95.7752C487.261 94.1701 487.271 94.5108 486.504 96.4961C486.175 97.3458 482.924 104.578 482.659 105.195C482.569 105.405 480.843 109.023 481.021 110.149C481.106 110.681 482.381 110.771 482.594 110.93C484.932 112.675 482.634 118.884 482.029 120.949C482.008 121.021 480.044 127.427 478.669 125.255C477.597 123.562 478.763 120.792 479.181 119.118C480.574 113.526 482.249 108.075 483.934 102.568C486.089 95.5229 488.317 88.7576 491.124 81.9304C493.022 77.3156 492.272 72.6465 492.949 67.827C493.211 65.9551 496.028 59.1949 494.622 57.8999C492.675 56.1075 486.543 67.4676 486.505 67.5282C486.298 67.8623 482.664 73.865 481.818 75.4512C480.715 77.5204 484.457 71.5725 485.866 69.6982C490.311 63.7855 484.558 73.5861 484.485 73.7163C480.659 80.5921 476.812 87.4903 472.45 94.047C471.579 95.3569 470.662 98.6773 469.442 97.684C468.953 97.286 469.381 96.4125 469.504 95.7943C469.816 94.2237 470.285 92.6875 470.738 91.1519C471.686 87.9436 478.527 72.6489 470.029 83.564C468.166 85.9561 460.286 96.7203 458.375 99.1797C457.608 100.167 453.832 105.564 455.943 100.6C458.665 94.1998 468.523 75.8424 464.76 81.6909C459.676 89.5941 455.448 98.1183 449.457 105.416C448.62 106.435 445.991 109.11 446.328 107.835C447.913 101.845 453.336 95.4295 456.685 90.4431C459.049 86.9223 467.583 75.1605 459.567 88.4523C453.595 98.3562 446.957 107.793 440.407 117.313C439.272 118.963 439.302 119.207 440.814 116.636C443.518 112.037 445.936 107.609 448.437 102.841C449.95 99.9589 451.542 97.1123 452.871 94.1409C453.539 92.6478 454.69 91.0939 454.412 89.4821C454.281 88.7213 452.791 89.5853 452.162 90.0335C450.096 91.5066 448.334 93.3676 446.502 95.1225C440.207 101.151 434.413 107.59 429.075 114.468C428.174 115.628 430.681 111.979 431.179 110.598C431.894 108.611 429.552 114.524 429.131 116.593C428.473 119.824 427.757 124.125 429.223 127.274C429.852 128.625 433.939 133.862 435.911 132.927C438.059 131.909 427.646 122.691 426.888 121.635C425.415 119.583 426.002 117.563 423.606 115.852C422.752 115.243 421.024 114.305 420.987 113.089C420.868 109.185 425.858 104.129 428.03 101.287C433.006 94.7756 421.47 107.55 427.152 99.1129C431.524 92.6217 435.456 86.287 439.055 79.419C440.445 76.768 441.879 74.248 443.806 71.9358C445.91 69.4125 452.252 62.0592 450.83 65.0208C448.871 69.0991 444.983 72.9193 442.222 76.4887C441.898 76.9087 434.698 84.6054 434.434 83.543C433.734 80.7314 438.546 72.7699 437.997 75.6149C437.05 80.5275 431.254 85.9358 428.064 89.5491C427.261 90.4586 425.293 93.165 424.649 90.5786C423.723 86.857 430.13 82.4934 432.286 80.7394C432.639 80.4521 437.823 75.832 439.838 76.4983C442.107 77.2485 440.081 81.4199 439.191 83.6377C436.714 89.815 432.566 97.135 426.224 100.062C422.244 101.899 419.642 99.5924 422.367 95.5417C425.174 91.3683 429.634 87.1515 433.681 84.3541C438.972 80.6968 444.277 79.6199 441.778 87.7249C441.161 89.7265 437.36 98.9643 434.137 99.2769C432.883 99.3986 433.35 96.807 433.484 95.5544C433.98 90.9217 435.416 85.5222 437.497 81.4419C439.976 76.5805 444.266 70.4528 449.383 67.8134C452.407 66.2534 456.927 66.2002 458.761 69.763C463.488 78.9511 448.924 84.8409 442.699 85.1771C439.06 85.3736 432.454 84.4012 429.945 80.855C427.514 77.4195 430.812 74.1554 433.643 73.0758C438.33 71.2883 451.463 74.4387 444.009 81.057C442.021 82.8223 434.255 84.9281 436.015 79.3555C437.118 75.861 445.702 67.4552 449.675 71.7568C452.104 74.3863 449.341 80.1017 448.12 81.9193C447.174 83.3284 445.934 84.7876 444.318 85.3068C443.468 85.5799 442.16 84.7537 442.059 83.8666C441.444 78.4633 454.096 62.9035 457.031 72.5406C458.537 77.4857 454.558 83.3125 451.706 86.5069C450.382 87.9897 448.824 89.7558 446.847 89.9638C445.824 90.0714 446.796 87.6954 447.504 86.9491C453.96 80.1404 464.158 73.8769 473.127 71.6614C480.448 69.8531 491.089 69.2218 495.031 77.9101C496.921 82.0757 494.251 90.1117 490.053 92.3314C485.243 94.8746 483.204 88.0364 482.518 85.679C481.595 82.507 480.788 73.7411 480.548 70.1902C480.434 68.4942 480.949 63.457 480.481 65.0913C478.484 72.0738 476.442 79.2752 474.639 86.3185C473.447 90.9782 475.435 87.8085 477.261 85.4323C482.227 78.9714 486.444 70.9658 492.613 65.5179C492.96 65.2113 493.864 64.8147 493.98 65.2633C494.273 66.3975 493.69 67.5915 493.446 68.7372C492.536 72.998 490.958 78.3294 489.672 82.366C487.698 88.5601 485.533 94.4528 482.219 100.038C481.517 101.22 480.84 102.503 482.093 100.14C485.214 94.2573 489.275 88.8521 492.923 83.2971C494.899 80.2876 499.085 75.476 500.084 71.7305C500.999 68.3003 496.443 77.8411 494.956 81.0648C492.093 87.2747 490.353 93.8161 487.758 100.103C486.856 102.288 485.082 104.449 483.856 106.48C482.948 107.987 481.621 109.331 480.913 110.95C480.567 111.741 483.479 108.871 483.618 108.705C487.841 103.67 489.366 97.904 490.837 91.5438C492.837 82.8922 494.919 73.7098 494.3 64.7675C493.929 59.3886 493.421 53.7723 492.219 48.509C491.533 45.5065 490.359 43.3802 487.642 41.932C483.99 39.985 480.644 37.4813 476.958 35.6251C471.293 32.7729 463.788 30.1827 457.493 29.1623C455.748 28.8795 452.172 27.9545 450.48 29.0023C450.043 29.2728 447.437 31.7781 447.545 31.7867C450.054 31.9858 453.447 29.5431 455.803 28.7342C462.043 26.5913 467.538 30.2131 472.004 34.1834C478.816 40.238 483.207 45.4838 485.312 54.6774C488.358 67.9844 484.909 81.1964 477.199 92.3464C477.041 92.5752 475.75 94.1745 476.08 93.9126C479.91 90.8692 483.363 86.9612 486.74 83.4376C491.213 78.771 493.695 73.9444 494.779 67.6734C495.563 63.1352 497.532 59.0381 498.495 54.6144C499.109 51.7981 499.078 54.8199 499.254 56.3568C499.823 61.3509 500.333 66.3334 501.144 71.2958C501.784 75.2193 502.618 78.3614 500.084 81.7793C498.183 84.3447 495.806 86.9496 493.463 89.1412C490.365 92.0395 495.44 83.7055 496.009 82.7083C498.084 79.072 499.338 75.9447 499.919 71.7545C500.372 68.4886 503.723 58.6136 500.211 55.9931C494.594 51.8014 496.088 59.676 496.618 63.1396C497.6 69.5553 497.34 73.6048 493.962 79.4408C493.148 80.8475 480.761 100.047 478.264 93.8759C475.719 87.5873 484.342 78.4378 487.838 74.38C495.62 65.3455 485.343 81.6842 484.86 82.4757C483.483 84.7312 482.041 86.9473 480.704 89.2267C480.356 89.82 481.58 88.1655 481.985 87.6091C489.897 76.7182 477.703 93.4676 487.032 80.6163C488.056 79.2049 490.599 74.8637 490.377 76.5935C489.917 80.173 487.542 83.2354 485.946 86.4722C483.527 91.3759 481.586 95.1697 478.934 99.8415C478.307 100.946 477.918 102.262 476.966 103.103C476.677 103.358 476.358 102.511 476.347 102.126C476.186 96.4972 477.33 90.9056 477.689 85.2859C477.892 82.1197 478.27 78.9394 478.048 75.7744C477.967 74.6273 477.932 72.7287 476.795 72.5601C475.539 72.374 474.819 74.1841 474.031 75.1791C472.53 77.0753 471.341 79.1993 469.964 81.1874C465.883 87.0796 453.133 104.368 457.742 98.8787C461.496 94.4086 464.999 89.7333 468.697 85.2171C468.97 84.8832 477.38 73.9546 480.186 72.9095C482.88 71.9059 481.437 78.6729 480.929 81.503C479.969 86.8533 478.65 91.8102 477.03 96.9744C475.74 101.085 474.957 102.166 476.543 98.8416C480.674 90.1806 482.807 85.9178 487.513 76.5885C489.73 72.1938 492.025 67.8383 494.219 63.4321C495.219 61.4229 496.528 59.5157 497.095 57.344C497.318 56.4906 495.843 58.5934 495.301 59.289C492.515 62.8611 488.679 68.7171 485.353 71.9621C479.491 77.6816 484.953 62.567 485.547 60.9308C486.248 58.9998 486.827 57.7543 488.01 56.2501C488.775 55.2792 491.005 51.9848 488.808 51.3063C486.368 50.5529 482.702 53.855 481.062 55.1825C480.607 55.5514 479.377 56.614 479.017 57.3323C478.898 57.5694 479.569 57.2361 479.763 57.0555C482.229 54.7621 483.946 51.7322 486.407 49.4657C489.198 46.8955 484.219 56.8973 481.95 59.9377C479.372 63.3917 485.096 50.3807 482.402 47.0161C481.078 45.362 479.044 44.2001 477.56 42.6672C475.172 40.2011 472.748 37.9439 470.052 35.8144C467.625 33.8966 464.898 31.2595 462.925 28.8782C459.918 25.2481 463.478 23.6903 467.092 25.1009C470.445 26.4096 471.995 29.582 474.125 32.1631C474.747 32.9173 471.005 30.432 470.427 29.8935C468.813 28.391 466.072 27.0049 463.799 27.9373C461.636 28.8246 459.897 32.9695 458.936 34.6507C455.179 41.2249 451.691 47.9444 447.897 54.4997C444.692 60.039 441.779 66.2728 437.826 71.3452C436.425 73.1427 435.237 74.1708 433.946 71.6844C431.817 67.586 428.75 62.6141 432.225 58.6856C432.392 58.4976 433.825 56.6362 434.13 56.7247C434.742 56.9022 433.99 61.2889 433.968 61.4077C432.447 69.6307 425.76 76.0159 424.783 84.1593C424.213 88.9099 423.934 93.9774 425.285 98.6263C425.648 99.8757 426.495 100.711 426.88 101.875C427.235 102.95 426.981 108.285 429.509 105.676C430.759 104.386 435.107 94.7395 433.28 93.7596C431.9 93.0199 426.707 97.2126 427.214 98.7671C428.882 103.873 456.501 94.3298 459.187 93.5601C470.615 90.2848 482.503 87.2662 493.289 82.1491C496.293 80.7241 499.953 78.824 502.263 76.2979C505.146 73.1456 505.386 68.6878 504.514 64.7431C504.467 64.5293 502.937 60.2654 502.04 61.622C501.669 62.182 500.817 67.5398 500.709 67.1485C499.896 64.1951 499.889 61.0953 498.979 58.137C498.209 55.6337 496.844 53.6253 495.635 51.3528C494.06 48.3913 492.108 47.0477 489.672 44.8931C487.284 42.7802 484.936 41.4134 482.306 39.5917C480.648 38.4431 479.301 36.5286 477.402 35.7851C473.623 34.3055 469.103 34.0842 465.09 33.925C459.368 33.6979 453.476 34.1846 447.867 35.3607C443.282 36.3222 441.484 38.1281 442.354 42.8143C442.713 44.7469 444.208 45.7189 444.471 47.5311C445.525 54.7881 439.774 64.0288 436.708 70.2165C432.302 79.1049 427.682 88.0519 424.501 97.4772C423.721 99.7856 423.137 102.233 422.734 104.639C422.545 105.771 422.858 107.574 422.359 108.623C421.6 110.22 418.709 108.998 417.806 110.52C416.533 112.667 417.005 115.438 417.341 117.745C418.678 126.951 429.625 133.04 437.263 136.632C446.275 140.87 455.228 144.38 465.457 142.893" stroke="#FFDFDF" stroke-width="4" stroke-linecap="round" stroke-linejoin="round"/>
<path d="M454.639 54.5307C432.4 88.1073 469.777 38.0311 444.653 69.6514C443.998 70.4761 444.159 70.1547 444.618 69.404C445.613 67.7732 446.966 64.8194 448.698 63.8709C449.566 63.3953 448.529 65.8605 448.225 66.8026C446.568 71.9446 445.041 77.0645 443.713 82.307C443.374 83.6464 441.987 88.9955 441.758 91.068C441.48 93.5971 444.401 91.3209 445.258 90.8122C447.481 89.4928 461.79 77.8592 461.924 84.9661C461.96 86.8754 460.798 93.2962 460.549 94.8218C460.163 97.1826 457.796 104.542 459.231 106.999C460.14 108.557 462.313 104.982 463.386 103.532C467.226 98.3494 470.216 92.6496 473.77 87.287C475.121 85.247 475.468 85.1764 474.462 87.8039C472.261 93.5555 469.409 99.1086 466.477 104.515C465.85 105.669 465.205 106.813 464.532 107.941C464.361 108.228 463.865 109.079 463.949 108.756C464.126 108.074 464.514 107.466 464.82 106.832C467.084 102.159 469.454 97.5299 472.019 93.0148C472.382 92.3763 473.544 90.5126 473.241 91.1813C470.702 96.7747 467.78 102.294 464.83 107.673C462.863 111.26 459.522 119.349 455.687 121.829C455.465 121.973 455.09 121.527 455.128 121.265C455.485 118.829 458.558 111.746 459.117 110.468C464.542 98.0741 471.306 86.2078 476.456 73.7041C477.676 70.7398 473.043 79.1323 471.352 81.8559C470.828 82.7003 468.013 88.8287 468.007 84.1384C468.002 79.8738 468.697 74.4164 469.33 70.4448C469.864 67.0904 470.558 63.7634 471.215 60.4308C471.754 57.6949 472.516 54.9997 472.916 52.24C473.116 50.8555 473.713 49.2524 473.008 48.0443C471.912 46.1667 468.922 49.7435 467.288 51.1771C466.322 52.0247 465.473 52.9977 464.537 53.8785C463.252 55.087 462.949 55.4738 463.77 53.625C465.411 49.9292 465.366 50.7443 467.093 46.7424C469.19 41.8826 466.125 45.3483 464.646 46.9015C462.239 49.4282 460.081 52.2325 457.577 54.6651C455.873 56.3216 455.977 54.9188 456.364 53.2695C456.552 52.468 459.416 45.2272 457.748 45.6019C456.308 45.9256 455.153 46.5509 454.717 44.6389C453.927 41.1733 452.541 38.7024 448.547 38.49C445.335 38.3193 445.045 40.1284 443.288 42.482C439.08 48.1216 440.986 55.7794 437.804 61.9171C437.358 62.7759 435.845 66.0433 434.432 64.9893C432.518 63.5604 431.03 62.853 428.585 62.4145C423.872 61.5693 423.698 63.0137 421.631 67.2984C419.081 72.5851 416.874 78.7954 420.47 84.421C421.816 86.5251 426.212 85.9014 428.228 85.8481C433.031 85.7212 436.499 83.3838 440.544 80.971C446.649 77.3293 452.371 73.269 458.241 69.2771C459.197 68.6272 463.108 66.0468 464.376 65.5226C468.029 64.0123 465.647 69.4826 465.319 70.4662C463.426 76.1367 454.997 91.7494 458.881 87.2047C462.564 82.8946 465.478 77.9312 469.078 73.541C473.847 67.7239 470.243 74.2528 469.538 75.5512C469.413 75.7824 462.789 87.038 465.793 81.6531C469.35 75.2793 480.47 56.57 477.877 63.3926C474.987 70.996 470.843 78.1609 466.351 84.9123C465.875 85.6274 465.359 86.3169 464.922 87.0567C464.393 87.9544 464.149 88.3303 465.341 88.0064C468.164 87.2389 470.913 86.0431 473.717 85.1893C477.191 84.1319 480.078 83.5189 480.285 88.0806C480.335 89.1888 478.52 95.3097 479.688 94.7917C482.177 93.6881 484.857 92.0378 486.716 90.0373C488.207 88.4331 488.392 87.81 490.529 87.6869C492.443 87.5766 492.489 88.537 491.911 90.4334C489.933 96.9213 484.892 101.637 479.698 105.681C471.388 112.153 462.138 116.749 452.227 120.227C448.549 121.517 439.617 126.388 438.531 119.859C437.885 115.969 438.907 112.668 440.816 109.31C443.705 104.225 441.956 109.345 440.813 111.219C439.871 112.763 437.213 117.243 437.413 115.446C437.615 113.637 443.498 100.231 444.477 101.087C444.637 101.226 439.443 114.227 435.72 107.468C431.29 99.4244 432.425 87.7412 437.203 80.1934C438.615 77.9631 438.278 78.7561 437.853 79.2569C435.724 81.7662 433.401 84.3023 430.728 86.2428C425.088 90.3367 421.17 87.0018 419.833 80.8085C418.816 76.0966 419.35 68.7365 424.044 65.9373C428.71 63.1546 426.757 72.8854 426.189 74.3271C425.668 75.6522 425.319 76.2615 424.696 77.3791C424.69 77.3906 424.662 77.418 424.673 77.4106C427.792 75.2641 427.205 75.4832 431.914 73.1585C437.807 70.2499 446.541 64.8595 453.454 65.1166C456.415 65.2268 453.304 69.8277 452.823 70.6257C452.396 71.333 451.916 71.8577 452.202 70.6037C453.083 66.7394 454.721 62.8402 456.335 59.2525C458.71 53.9743 467.755 39.1811 465.536 44.5266C465.199 45.3368 462.455 50.6249 461.445 49.0226C459.232 45.5126 461.518 39.1565 464.504 36.8451C467.26 34.7114 474.827 33.4552 471.014 38.9587C470.445 39.7802 465.932 45.119 466.49 44.3318C467.215 43.3085 469.72 40.4961 468.97 41.5014C468.004 42.7956 464.623 46.2512 465.537 44.9194C466.107 44.0873 466.812 43.355 467.44 42.5657C467.926 41.956 468.405 41.3418 468.885 40.7277C469.578 39.8407 470.053 39.1963 469.03 40.5663C467.474 42.6518 465.439 46.7686 462.872 47.8328C460.627 48.7634 460.808 44.9678 461.523 43.9587C462.351 42.7909 469.431 38.3981 469.128 42.2081C469.002 43.8035 470.499 41.3448 471.262 40.6631C474.043 38.1791 469.26 43.1966 468.849 43.7644C465.232 48.7702 464.231 57.3862 463.385 63.3369C463.051 65.6809 463.372 68.0149 463.947 70.3006C466.077 78.759 469.289 86.9972 472.037 95.2579C473.394 99.339 476.119 107.221 477.168 112.028C477.728 114.596 477.418 115.263 476.151 117.2C474.896 119.119 473.346 120.637 471.618 122.125C469.253 124.161 466.782 125.978 465.006 128.587C463.486 130.821 462.618 133.385 461.33 135.746C460.645 137.002 459.398 137.935 457.918 138.15C455.211 138.544 463.728 128.096 464.649 127.292C465.797 126.29 469.794 123.062 471.787 124.065C473.231 124.792 474.1 124.26 475.537 123.408C477.024 122.527 478.016 121.476 479.112 120.194C480.286 118.822 482.215 118.144 483.622 117.041C488.711 113.05 492.769 107.554 496.504 102.341C498.952 98.9233 503.92 93.1298 503.526 88.465C503.42 87.2158 502.452 87.7995 501.705 87.5226C500.163 86.9511 502.713 82.9193 501.826 82.1719C501.189 81.6361 496.101 89.3416 495.759 89.8742C492.998 94.1796 491.738 98.7203 489.985 103.457C489.848 103.827 488.204 106.927 488.962 106.075C490.51 104.338 491.802 102.489 492.98 100.495C494.236 98.3676 495.333 96.0944 497.078 94.3141C503.548 87.7133 502.406 79.4026 495.312 73.659C491.26 70.3788 488.54 65.9567 484.357 62.7878C481.068 60.2963 478.848 58.0348 476.873 54.3597C475.732 52.2364 476.164 50.9293 475.964 48.6814C475.89 47.8519 474.483 49.5275 473.964 50.179C470.06 55.0808 466.183 60.0687 461.954 64.6956C451.87 75.7269 439.461 84.3502 426.19 91.1406C422.522 93.0176 418.718 94.1098 417.409 89.0481C416.39 85.1056 420.441 80.2869 421.917 76.8004C423.434 73.2199 424.705 69.504 426.083 65.8657C427.072 63.2525 428.91 58.3451 431.427 56.6683C434.581 54.5671 439.092 56.1207 442.529 56.7675C444.935 57.2203 447.41 56.088 449.703 57.0724C456.009 59.7801 465.619 57.7345 471.31 54.1295C474.597 52.0468 477.114 48.2336 481.174 47.6437C483.306 47.334 485.343 48.0485 487.503 47.7346" stroke="#FFDFDF" stroke-width="4" stroke-linecap="round" stroke-linejoin="round"/>
<path d="M468.615 162.788C471.467 152.899 474.355 128.018 477.623 118.242C480.867 108.538 481.471 102.094 492.159 100.232C497.762 99.2562 503.546 99.0154 508.828 101.38C516.229 104.694 505.38 112.426 501.579 113.99C495.142 116.64 504.752 105.024 505.895 103.931C511.895 98.19 520.994 89.1623 529.27 87.5464C543.614 84.7457 565.042 94.511 546.289 108.066C545.188 108.862 538.495 111.11 540.495 110.1C549.421 105.594 561.909 106.029 571.6 104.04C578.274 102.67 584.828 111.442 586.456 116.898C591.291 133.099 583.025 151.793 572.098 164.386C562.103 175.905 553.338 174.121 539.088 172.451C524.127 170.698 508.585 168.863 494.42 163.86C488.64 161.818 477.838 155.963 471.77 156.621" stroke="#FFDFDF" stroke-width="4" stroke-linecap="round" stroke-linejoin="round"/>
<path d="M565.237 142.401C559.717 142.186 554.206 142.552 548.691 142.201C541.679 141.755 539.417 141.335 532.406 140.637C530.519 140.449 525.587 139.111 526.717 140.635C528.496 143.034 534.552 144.578 537.18 145.724C538.734 146.401 549.415 149.926 549.497 151.948C549.53 152.759 527.465 148.286 527.145 148.217C522.806 147.285 516.637 145.905 512.119 144.801C511.437 144.634 510.75 144.476 510.087 144.248C509.817 144.155 510.654 144.321 510.93 144.392C518.618 146.389 526.231 149.214 533.619 152.102C545.226 156.639 527.331 153.76 526.077 153.624C523.096 153.299 515.77 152.419 512.526 151.96C511.18 151.769 507.205 151.419 508.533 151.129C512.069 150.355 517.101 152.176 520.342 153.149C521.98 153.641 528.504 155.748 530.3 156.445C532.789 157.41 531.769 157.373 529.822 157.111C523.906 156.317 518.135 154.764 512.287 153.623C508.276 152.84 504.184 152.743 500.177 151.997C499.813 151.929 498.818 151.499 499.188 151.491C500.301 151.466 502.617 152.071 503.405 152.275C504.278 152.5 514.914 155.084 510.135 155.293C508.332 155.371 489.305 154.736 489.157 156.146C489.128 156.428 497.949 157.926 498.656 158.058C498.67 158.061 505.64 159.151 501.72 158.508C497.864 157.876 493.854 157.642 490.072 156.626C487.796 156.014 490.452 156.18 490.883 156.261C491.668 156.408 498.867 158.009 494.675 157.314C490.271 156.583 485.988 155.358 481.632 154.413C477.413 153.497 484.176 156.549 479.486 152.741C477.527 151.15 473.905 149.679 473.999 146.765C474.178 141.236 472.898 135.825 473.167 130.322C473.432 124.904 474.247 119.522 476.664 114.638C477.822 112.297 478.941 109.961 479.822 107.499C480.312 106.13 480.709 104.514 481.982 103.63C483.603 102.504 486.216 103.827 487.99 104.157C489.499 104.437 493.755 105.95 493.688 105.948C490.319 105.851 480.422 106.943 483.577 105.756C484.95 105.241 487.167 105.609 488.547 105.677C489.354 105.718 493.538 106.508 490.289 105.445C487.187 104.43 489.169 102.967 491.314 101.976C493.87 100.794 500.102 98.9533 500.54 103.774C501.134 110.291 493.255 112.503 488.359 112.757C488.011 112.775 482.267 112.143 486.23 111.818C494.673 111.126 504.166 114.748 511.817 117.865C522.346 122.153 507.041 121.239 504.93 121.107C500.859 120.851 496.424 120.227 492.397 119.502C490.442 119.15 488.319 119.122 486.596 118.132C485.94 117.756 487.669 116.959 488.397 116.757C495.099 114.902 502.305 115.628 509.018 116.945C514.629 118.046 530.296 121.12 530.52 129.501C530.762 138.551 514.835 138.507 509.325 137.818C509.233 137.807 501.125 137.102 501.497 133.884C501.868 130.673 510.085 127.082 511.004 126.64C521.587 121.555 530.878 120.588 540.748 127.718C541.653 128.372 548.986 133.074 546.493 136.628C543.91 140.31 533.5 140.273 531.092 140.352C530.253 140.379 509.11 141.456 511.334 135.476C513.818 128.798 524.822 127.333 530.624 127.626C535.357 127.865 540.189 128.904 544.077 131.811C549.063 135.538 548.719 141.17 543.28 144.413C536.614 148.386 523.924 148.95 517.011 145.069C509.79 141.014 529.163 132.147 530.6 131.626C540.264 128.118 553.911 128.697 562.8 134.378C563.364 134.738 564.068 135.809 563.554 136.236C562.555 137.066 561.019 136.909 559.721 136.934C556.384 137 550.151 136.098 546.864 135.426C544.03 134.847 537.822 133.857 537.748 129.678C537.655 124.375 545.004 121.304 549.112 120.539C552.781 119.855 557.938 120.108 561.478 121.297C563.112 121.846 568.312 124.129 567.635 127.316C566.899 130.784 560.639 132.786 558.387 133.319C553.528 134.471 546.125 134.896 541.45 132.445C536.099 129.639 548.173 124.359 549.03 124.041C554.717 121.934 563.854 119.818 569.804 122.454C573.371 124.034 562.218 124.669 558.317 124.697C558.205 124.698 543.062 125.283 548.235 121.276C552.101 118.283 557.239 119.103 561.497 120.639C564.11 121.581 570.082 124.829 563.929 126.438C559.518 127.59 551.572 127.807 547.478 125.357C542.932 122.636 552.234 116.542 553.638 115.946C562.579 112.15 571.913 115.749 575.908 124.695C579.219 132.112 575.603 137.901 567.723 138.125C564.056 138.229 554.834 137.497 552.77 133.591C548.296 125.126 564.736 123.46 568.562 123.772C571.517 124.012 578.929 125.17 581.189 128.607C583.28 131.785 576.637 133.31 576.139 133.456C570.068 135.237 561.891 135.849 555.671 134.276C552.992 133.599 553.899 131.883 555.469 130.51C559.026 127.399 564.148 124.283 568.982 123.999C571.337 123.861 572.247 125.066 570.151 126.643C567.168 128.888 561.72 130.274 558.285 128.175C553.255 125.102 557.276 116.38 560.233 113.434C562.279 111.396 564.833 110.782 567.606 111.315C567.964 111.383 572.314 112.758 571.701 114.632C570.386 118.65 559.974 119.728 556.594 120.16C555.757 120.266 551.509 120.441 554.469 118.848C557.939 116.981 561.738 116.404 565.617 116.987C565.669 116.994 570.014 117.912 570.401 118.173C570.609 118.313 569.989 118.505 569.74 118.527C567.358 118.741 556.718 118.618 556.272 118.616C546.643 118.579 536.436 119.355 526.888 117.703C522.218 116.896 523.048 115.338 527.166 114.352C530.525 113.547 540.968 113.801 537.518 113.961C534.816 114.087 524.887 114.058 523.946 110.608C522.626 105.771 535.542 107.783 536.986 108.254C538.341 108.696 541.706 109.728 540.568 110.585C538.94 111.812 536.478 110.44 534.473 110.07C531.175 109.46 523.157 108.712 521.099 105.352C518.39 100.929 527.861 95.955 530.853 95.5764C535.208 95.0254 542.32 98.3606 538.01 103.642C534.14 108.383 525.944 110.672 520.067 109.566C515.739 108.753 517.907 105.276 520.198 103.257C522.874 100.899 526.486 98.7416 530.251 98.9004C532.739 99.0053 536.984 100.869 535.467 104.513C533.307 109.707 521.507 113.708 516.552 110.851C511.874 108.154 515.242 97.5424 516.654 94.1058C518.866 88.721 523.397 89.2366 527.602 92.3418C535.068 97.8536 531.312 105.381 526.782 111.54C524.725 114.338 518.445 121.284 515.763 123.789C514.562 124.911 511.276 128.11 508.82 127.801C504.09 127.205 505.951 120.862 507.931 118.898C513.997 112.881 523.235 113.232 527.713 121.164C532.886 130.325 524.083 140.907 515.582 143.789C510.989 145.345 501.431 141.704 506.313 135.704C509.153 132.214 514.46 133.728 517.543 135.781C532.618 145.822 507.042 143.677 507.118 140.072C507.169 137.658 511.954 136.362 513.692 137.137C518.828 139.429 512.665 142.98 510.133 143.205C505.128 143.649 502.853 141.961 503.766 137.072C504.268 134.384 505.252 130.37 506.273 127.84C506.602 127.023 506.736 125.737 507.598 125.553C508.25 125.415 507.795 126.911 507.617 127.554C505.375 135.65 498.536 141.93 490.073 142.836C484.352 143.449 479.221 140.328 479.169 134.252C479.144 131.275 481.092 122.801 485.735 123.963C489.297 124.855 492.514 128.999 494.225 131.656C497.657 136.989 500.431 144.408 495.772 150.069C491.8 154.894 484.317 153.082 481.203 148.346C477.261 142.351 480.954 129.952 484.202 124.496C490.794 113.424 497.719 135.499 498.061 138.809C498.586 143.901 497.882 152.462 493.923 156.661C490.403 160.395 486.264 157.863 484.253 154.461C481.048 149.038 480.012 135.435 486.426 131.324C492.333 127.538 498.267 139.038 499.167 142.844C500.09 146.746 498.373 157.832 491.612 153.957C483.311 149.199 482.509 136.885 484.424 128.747C485.164 125.606 487.974 120.735 490.3 126.03C491.071 127.783 490.593 131.252 488.006 131.078C484.275 130.826 483.096 125.165 482.892 122.447C482.554 117.965 483.362 112.673 485.934 108.871C487.807 106.103 492.996 108.476 495.845 107.769C498.518 107.105 499.706 109.294 498.027 105.527C496.946 103.102 494.764 98.909 497.647 96.8402C499.398 95.5831 502.068 96.0796 504.024 96.3515C507.621 96.8515 511.865 99.0699 515.404 97.6847C520.119 95.8393 524.404 92.6043 529.338 91.3388C532.78 90.4562 537.199 90.8067 540.758 91.045C542.036 91.1306 550.108 92.3333 545.602 93.8718C544.353 94.2981 537.487 95.4645 538.214 92.0406C538.731 89.6093 547.279 84.0186 546.618 88.7378C546.21 91.6508 543.987 94.5835 542.394 96.9236C541.633 98.042 539.19 102.724 537.397 102.767C537.379 102.767 536.521 102.381 536.531 102.262C536.6 101.468 537.956 101.517 538.727 101.313C540.121 100.943 548.023 98.4609 548.365 101.549C548.768 105.197 539.349 109.945 536.916 106.464C535.352 104.227 540.059 104.964 540.482 105.031C543.421 105.498 551.043 106.376 552.089 110.056C553.709 115.756 538.982 113.523 548.711 111.305C551.718 110.619 554.878 110.401 556.316 113.834C557.639 116.994 553.054 116.451 551.669 115.208C549.476 113.238 554.904 110.249 555.942 109.905C560.765 108.305 566.1 110.092 569.95 113.138C572.096 114.835 576.23 119.846 570.927 120.513C566.537 121.066 563.502 117.909 561.691 114.268C559.112 109.082 560.398 104.745 566.64 104.15C575.163 103.339 575.211 112.875 573.451 118.909C571.262 126.413 563.022 133.017 556.938 124.66C553.696 120.206 556.278 114.295 561.502 113.247C567.98 111.947 573.501 117.514 576.336 122.662C578.974 127.451 578.634 132.653 571.978 130.573C565.645 128.594 564.66 122.824 564.624 116.915C564.584 110.464 565.847 108.102 572.275 110.239C577.585 112.004 580.607 114.375 578.296 120.282C574.986 128.741 566.56 121.202 567.425 114.866C568.744 105.211 588.936 118.875 577.618 122.438C574.846 123.31 571.314 121.813 569.04 120.322C568.247 119.802 563.749 114.733 567.43 114.369C574.176 113.704 580.983 125.34 582.765 130.187C584.808 135.74 585.214 147.131 577.475 149.096C572.149 150.449 567.247 144.187 565.557 140.018C562.515 132.515 571.994 130.676 577.057 133.564C588.063 139.841 572.756 148.013 565.548 145.062C565.329 144.973 560.64 142.159 563.588 142.063C567.619 141.932 572.683 144.37 574.878 147.768C578.283 153.038 572.38 155.626 568.081 156.191C566.788 156.361 558.782 156.965 561.127 153.159C562.815 150.419 567.209 148.433 570.34 149.553C572.576 150.353 574.154 152.153 574.07 154.656C573.897 159.875 567.712 158.709 564.806 157.081C558.754 153.692 554.929 146.322 554.056 139.641C553.556 135.804 554.215 129.449 559.75 131.046C563.374 132.092 570.829 136.476 566.989 141.05C563.704 144.962 558.363 147.193 553.79 144.409C552.758 143.781 543.961 137.981 545.791 136.013C547.876 133.771 552.52 134.569 554.635 136.143C555.534 136.812 558.166 139.456 556.701 141.131C554.1 144.105 547.894 141.33 545.975 140.313C540.286 137.297 534.321 131.654 529.996 126.974C528.57 125.431 527.256 123.771 526.116 122.007C525.719 121.395 525.202 120.616 525.439 119.926C526.01 118.262 531.169 120.764 531.76 121.474C534.987 125.351 530.649 129.092 527.328 130.752C522.189 133.32 515.659 134.222 509.958 133.799C506.399 133.535 516.944 132.153 520.509 131.982C525.317 131.751 530.252 131.754 535.071 131.791C537.876 131.812 537.929 131.94 534.101 131.832C522.756 131.509 511.338 130.608 500.193 128.368C499.699 128.269 494.155 127.359 498.343 126.861C500.449 126.61 508.603 126.438 510.498 126.3C512.071 126.186 515.886 126.138 512.075 124.973C505.314 122.906 498.201 121.867 491.348 120.138C480.107 117.303 496.43 117.045 498.198 116.822C503.261 116.181 507.825 115.561 512.803 114.569C514.031 114.324 515.384 114.336 516.451 113.683C516.87 113.427 515.553 113.24 515.065 113.186C503.739 111.916 491.789 111.739 480.402 112.039C479.212 112.07 475.926 112.552 476.989 113.088C478.982 114.095 486.964 115.979 487.669 116.155C499.941 119.215 512.323 121.786 524.625 124.714C526.963 125.271 533.59 125.822 531.475 126.963C528.36 128.642 524.421 127.62 520.884 127.687C518.784 127.726 516.68 127.837 514.585 127.704C513.917 127.662 512.395 127.782 512.652 127.165C513.022 126.275 514.386 126.314 515.296 125.996C517.058 125.38 518.868 124.912 520.653 124.368C521.456 124.122 527.343 122.421 528.802 121.684C530.503 120.824 525.516 119.61 523.656 119.19C518.249 117.966 512.607 117.281 507.29 115.687C505.93 115.279 509.523 113.865 510.839 113.334C515.385 111.501 519.87 109.573 524.236 107.343C525.062 106.921 525.357 106.55 525.717 105.692C526.888 102.902 528.363 100.283 529.988 97.7302C532.878 93.1936 537.661 99.0923 541.966 97.5657C544.584 96.6372 546.018 96.8268 548.714 97.2667C551.472 97.7167 550.919 95.9667 548.822 95.0191C543.843 92.77 536.661 97.3757 532.258 99.5273C528.675 101.278 524.475 100.851 520.712 100.068C513.186 98.5033 507.605 100.887 502.776 106.577C499.658 110.25 495.119 112.488 491.734 115.931C489.901 117.795 487.509 118.775 485.671 115.987C484.309 113.922 488.165 113.528 489.188 114.454C491.665 116.696 488.916 125.431 488.396 127.764C487.483 131.864 485.952 135.682 484.76 139.682C484.449 140.725 480.281 147.785 479.772 147.19C478.505 145.711 480.075 138.316 480.164 136.858C480.388 133.202 480.981 129.135 480.591 125.457C480.402 123.677 476.435 125.827 477.574 122.51C478.013 121.233 479.826 118.858 479.508 117.484C479.438 117.185 477.594 123.635 477.588 123.678C477.173 126.769 476.506 130.431 477.039 133.562C477.225 134.66 477.608 135.389 477.508 136.548C477.034 142.061 474.479 145.511 476.483 150.962C477.4 153.456 476.423 155.591 473.829 155.907C472.647 156.051 470.523 154.955 469.507 155.793C467.327 157.593 473.082 159.581 474.219 159.488C484.138 158.677 494.243 159.444 504.208 159.612C505.938 159.641 507.629 159.823 509.347 160.006C511.287 160.213 505.639 158.789 503.798 158.142C499.018 156.462 493.661 154.858 489.696 151.554C488.928 150.914 484.956 147.809 486.983 146.635C489.867 144.963 493.647 145.522 496.676 146.226C498.095 146.555 502.275 147.832 500.89 147.382C498.434 146.583 495.942 145.899 493.456 145.203C490.943 144.499 486.27 143.203 483.491 142.652C482.956 142.547 482.396 142.369 481.865 142.488C481.662 142.534 482.133 142.825 482.321 142.915C486.339 144.852 491.33 145.931 495.757 146.242C496.216 146.274 497.5 146.232 497.113 145.981C495.914 145.203 494.476 144.876 493.14 144.367C492.822 144.246 485.456 141.807 485.603 141.28C485.949 140.037 495.469 141.205 496.212 141.227C504.258 141.468 493.164 138.11 491.787 137.485C489.078 136.256 490.039 136.372 492.426 136.832C494.471 137.227 498.312 138.2 500.421 138.769C501.307 139.007 502.969 139.488 500.755 139.008C498.458 138.509 496.112 137.895 493.863 137.243C492.616 136.881 489.269 135.953 487.87 135.102C486.56 134.304 487.646 134.053 488.551 133.965C493.215 133.509 497.793 135.819 502.39 135.395C503.296 135.311 501.401 133.774 500.607 133.329C498.393 132.088 495.169 130.626 492.852 129.606C492.268 129.349 486.172 125.854 488.635 128.822C494.489 135.876 500.978 142.736 505.743 150.606C510.56 158.565 502.324 157.303 496.884 156.203C495.566 155.937 490.633 154.768 488.693 153.93C487.831 153.558 490.568 154.042 491.498 154.167C494.768 154.606 498.741 155.566 502.05 155.07C502.71 154.971 500.786 154.634 500.142 154.456C497.038 153.599 496.046 153.283 492.758 152.253C491.941 151.996 480.519 149.186 487.277 149.768C487.94 149.825 497.339 151.006 495.761 148.528C494.008 145.775 489.015 143.57 485.948 142.873C485.08 142.676 482.837 142.354 483.288 143.123C484.999 146.04 488.88 146.946 491.835 148.592C495.887 150.848 504.918 155.559 509.04 158.239C509.559 158.576 514.115 161.277 510.382 160.985C507.909 160.791 499.078 159.485 497.595 157.216C496.705 155.853 500.82 156.552 502.446 156.639C506.631 156.864 511.988 157.618 516.046 158.278C521.371 159.144 524.392 159.828 529.54 160.836C530.423 161.008 531.294 161.294 532.194 161.332C532.599 161.349 531.444 161.014 531.055 160.899C528.463 160.136 522.459 158.582 520.124 158.017C517.632 157.414 515.065 155.865 512.584 156.507C510.924 156.937 515.637 158.077 517.21 158.761C518.178 159.182 524.57 161.916 525.797 162.541C527.811 163.566 527.49 163.68 525.366 163.556C524.456 163.502 516.577 162.614 515.908 162.55C515.681 162.529 511.709 161.989 510.691 162.503C510.209 162.746 510.513 163.988 510.427 164.24C509.479 166.999 502.865 166.706 500.714 166.76C500.639 166.762 493.94 166.848 495.588 164.875C496.872 163.338 499.866 163.603 501.588 163.489C507.338 163.109 513.04 163.039 518.799 162.962C526.166 162.863 533.288 162.919 540.646 163.508C545.62 163.906 549.837 161.766 554.633 160.939C556.496 160.618 563.794 161.236 564.597 159.502C565.71 157.101 553.02 154.73 552.951 154.712C552.569 154.617 545.743 152.989 543.975 152.668C541.668 152.249 548.474 153.997 550.689 154.766C557.676 157.193 546.587 154.707 546.441 154.678C538.725 153.134 530.982 151.576 523.407 149.425C521.893 148.995 518.451 149.136 519.025 147.671C519.255 147.084 520.217 147.225 520.843 147.153C522.434 146.971 524.04 146.948 525.641 146.911C528.985 146.834 545.638 148.678 532.65 143.919C529.803 142.876 517.147 138.658 514.222 137.589C513.047 137.16 506.755 135.212 512.127 135.707C519.052 136.344 539.543 140.127 532.825 138.33C523.747 135.901 514.339 134.478 505.561 131.001C504.335 130.516 500.984 128.828 502.301 128.76C508.49 128.441 516.254 131.646 522.025 133.312C526.1 134.489 539.905 139.023 524.801 135.449C513.546 132.786 502.534 129.347 491.468 126.016C489.55 125.438 489.327 125.542 492.237 126.197C497.442 127.367 502.397 128.317 507.701 129.244C510.907 129.804 514.104 130.452 517.339 130.81C518.965 130.99 520.796 131.612 522.246 130.854C522.931 130.497 521.653 129.342 521.034 128.881C519.001 127.363 516.691 126.253 514.46 125.044C506.797 120.891 498.897 117.339 490.717 114.356C489.337 113.853 493.578 115.126 495.045 115.178C497.156 115.253 490.81 114.828 488.711 115.058C485.434 115.418 481.119 116.05 478.568 118.407C477.474 119.418 473.734 124.909 475.227 126.502C476.853 128.236 482.451 115.506 483.225 114.462C484.729 112.433 486.832 112.375 487.729 109.571C488.049 108.572 488.414 106.64 489.561 106.233C493.242 104.928 499.581 108.136 502.95 109.336C510.67 112.087 494.983 105.002 504.752 107.837C512.268 110.018 519.501 111.828 527.14 113.159C530.089 113.672 532.926 114.268 535.716 115.398C538.762 116.631 547.7 120.425 544.446 119.975C539.964 119.355 535.139 116.819 530.897 115.28C530.398 115.099 520.871 110.593 521.802 110.017C524.265 108.492 533.316 110.643 530.439 110.99C525.472 111.588 518.553 107.72 514.138 105.786C513.027 105.299 509.848 104.25 512.115 102.848C515.376 100.829 521.487 105.598 523.816 107.116C524.197 107.364 530.179 110.89 530.16 113.012C530.138 115.402 525.548 114.746 523.164 114.576C516.526 114.103 508.289 112.388 503.565 107.242C500.601 104.013 502.003 100.832 506.692 102.19C511.523 103.588 516.9 106.548 520.8 109.548C525.898 113.47 528.543 118.192 520.062 118.287C517.968 118.311 508.011 117.512 506.729 114.539C506.23 113.382 508.84 113.035 510.074 112.78C514.637 111.838 520.217 111.557 524.738 112.292C530.124 113.168 537.269 115.383 541.345 119.45C543.754 121.853 545.184 126.141 542.351 128.975C535.045 136.282 524.99 124.212 522.769 118.386C521.471 114.982 520.38 108.394 522.991 104.922C525.52 101.558 529.635 103.702 531.528 106.068C534.661 109.985 535.671 123.453 527.093 118.376C524.805 117.022 520.428 110.27 526.272 110.244C529.937 110.227 540.562 115.835 537.679 120.932C535.916 124.048 529.63 123.162 527.527 122.554C525.896 122.083 524.128 121.348 523.14 119.968C522.62 119.241 523.008 117.744 523.822 117.377C528.779 115.142 547.459 122.438 539.178 128.176C534.929 131.12 528.166 129.11 524.253 127.369C522.437 126.562 520.279 125.617 519.478 123.798C519.063 122.857 521.622 123.057 522.549 123.503C531.004 127.572 540.082 135.371 544.93 143.235C548.887 149.654 552.737 159.594 545.668 166.001C542.278 169.073 533.81 168.983 530.415 165.664C526.525 161.86 532.414 157.831 534.449 156.458C537.188 154.61 545.289 151.165 548.597 149.853C550.177 149.226 555.131 148.178 553.432 148.232C546.173 148.462 538.692 148.716 531.435 149.15C526.633 149.438 530.259 150.363 533.079 151.376C540.747 154.132 549.658 155.703 556.73 159.915C557.128 160.152 557.781 160.891 557.389 161.138C556.399 161.764 555.084 161.574 553.918 161.691C549.583 162.125 544.025 162.25 539.788 162.258C533.287 162.27 527.015 162.008 520.684 160.556C519.345 160.249 517.916 159.996 520.549 160.468C527.103 161.643 533.491 163.861 539.894 165.638C543.363 166.601 549.223 169.118 553.095 168.926C556.64 168.749 546.164 167.324 542.641 166.893C535.853 166.062 529.093 166.403 522.313 165.851C519.958 165.659 517.358 164.629 515.05 164.083C513.338 163.678 511.652 162.825 509.895 162.645C509.035 162.557 512.658 164.453 512.859 164.535C518.943 167.019 524.899 166.711 531.404 166.17C540.254 165.433 549.633 164.611 557.959 161.292C562.968 159.296 568.161 157.098 572.806 154.346C575.456 152.776 577.122 151.009 577.672 147.98C578.41 143.907 579.773 139.957 580.415 135.88C581.402 129.615 581.577 121.677 580.626 115.371C580.363 113.624 580.152 109.936 578.638 108.645C578.247 108.311 575.065 106.594 575.09 106.699C575.666 109.149 579.028 111.635 580.518 113.631C584.464 118.919 582.693 125.257 580.276 130.723C576.59 139.058 572.935 144.841 564.823 149.652C553.082 156.616 539.448 157.366 526.476 153.428C526.21 153.348 524.293 152.606 524.643 152.84C528.71 155.558 533.486 157.653 537.872 159.793C543.682 162.628 549.036 163.518 555.338 162.635C559.899 161.996 564.402 162.62 568.909 162.187C571.778 161.911 568.891 162.805 567.481 163.441C562.899 165.508 558.31 167.515 553.832 169.802C550.292 171.61 547.554 173.363 543.526 171.994C540.503 170.967 537.296 169.499 534.494 167.937C530.788 165.872 540.274 168.16 541.397 168.397C545.493 169.262 548.854 169.502 553.022 168.776C556.27 168.21 566.696 168.386 568.12 164.242C570.396 157.613 563.354 161.44 560.217 163.002C554.408 165.896 550.472 166.885 543.884 165.451C542.296 165.105 520.231 159.171 525.345 154.909C530.556 150.566 541.902 155.983 546.833 158.073C557.812 162.726 539.116 157.928 538.214 157.709C535.646 157.087 533.096 156.39 530.517 155.813C529.846 155.663 531.795 156.324 532.448 156.539C545.235 160.748 525.562 154.25 540.648 159.21C542.305 159.754 547.215 160.85 545.5 161.167C541.951 161.822 538.31 160.495 534.74 159.963C529.332 159.158 525.127 158.467 519.869 157.369C518.626 157.109 517.253 157.14 516.162 156.49C515.831 156.293 516.54 155.731 516.903 155.602C522.214 153.731 527.888 153.112 533.349 151.739C536.426 150.965 539.57 150.354 542.516 149.176C543.584 148.749 545.381 148.136 545.194 147.002C544.988 145.749 543.044 145.616 541.856 145.17C539.592 144.319 537.207 143.836 534.893 143.132C528.036 141.044 507.681 134.181 514.315 136.895C519.718 139.104 525.239 141.013 530.669 143.155C531.071 143.314 544.045 147.985 545.897 150.337C547.675 152.597 540.79 153.288 537.941 153.669C532.553 154.389 527.43 154.646 522.017 154.68C517.709 154.707 516.441 154.292 520.091 154.787C529.599 156.076 534.31 156.805 544.631 158.438C549.492 159.207 554.34 160.063 559.206 160.807C561.425 161.146 563.641 161.81 565.882 161.687C566.763 161.639 564.31 160.877 563.482 160.572C559.23 159.01 552.482 157.145 548.377 154.969C541.14 151.133 557.201 151.719 558.94 151.785C560.993 151.863 562.356 152.034 564.15 152.702C565.308 153.133 569.126 154.251 569.101 151.952C569.073 149.398 564.809 146.916 563.045 145.76C562.555 145.439 561.167 144.592 560.373 144.469C560.111 144.428 560.633 144.964 560.865 145.094C563.801 146.742 567.211 147.453 570.121 149.104C573.42 150.976 562.376 149.289 558.788 148.057C554.712 146.657 568.849 148.134 571.23 144.542C572.401 142.776 572.887 140.485 573.893 138.603C575.513 135.577 576.922 132.579 578.126 129.362C579.211 126.465 580.89 123.063 582.555 120.457C585.094 116.485 587.664 119.4 587.425 123.272C587.202 126.864 584.654 129.309 582.847 132.125C582.319 132.948 583.543 128.626 583.879 127.911C584.817 125.916 585.3 122.882 583.718 121.002C582.213 119.213 577.735 118.823 575.841 118.421C568.433 116.851 560.97 115.581 553.569 113.97C547.316 112.609 540.49 111.738 534.453 109.523C532.314 108.738 530.972 107.92 532.945 105.931C536.198 102.653 539.996 98.2147 544.798 100.324C545.028 100.425 547.238 101.222 547.247 101.539C547.265 102.176 542.858 102.8 542.738 102.815C534.443 103.878 526.321 99.4594 518.268 101.015C513.571 101.923 508.66 103.204 504.645 105.911C503.567 106.638 503.03 107.7 502.039 108.421C501.123 109.087 495.966 110.475 499.223 112.085C500.832 112.881 511.346 114.076 511.721 112.037C512.004 110.498 506.426 106.833 505.1 107.791C500.748 110.937 518.268 134.324 519.821 136.646C526.429 146.529 532.933 156.928 541.099 165.636C543.373 168.062 546.3 170.967 549.411 172.396C553.293 174.178 557.611 173.046 561.101 171.011C561.29 170.901 564.884 168.142 563.318 167.702C562.671 167.52 557.309 168.344 557.649 168.122C560.213 166.446 563.163 165.493 565.702 163.723C567.851 162.226 569.346 160.313 571.141 158.468C573.48 156.063 574.164 153.794 575.472 150.817C576.755 147.898 577.339 145.244 578.271 142.184C578.858 140.254 580.27 138.387 580.398 136.352C580.654 132.302 579.484 127.93 578.411 124.06C576.88 118.542 574.617 113.079 571.785 108.098C569.469 104.025 567.201 102.865 563.004 105.124C561.273 106.055 560.804 107.776 559.159 108.58C552.57 111.799 542.015 109.144 535.186 108.113C525.377 106.632 515.447 104.965 505.5 104.813C503.064 104.775 500.555 104.966 498.141 105.317C497.005 105.483 495.384 106.331 494.233 106.176C492.48 105.941 492.761 102.815 491.037 102.42C488.603 101.864 486.109 103.159 484.014 104.183C475.656 108.267 473.2 120.551 472.112 128.921C470.828 138.796 470.219 148.393 474.757 157.68" stroke="#FFDFDF" stroke-width="4" stroke-linecap="round" stroke-linejoin="round"/>
<path d="M555.598 120.399C516.835 109.474 575.932 129.777 538.15 115.507C537.165 115.135 537.52 115.19 538.375 115.397C540.232 115.848 543.458 116.234 544.89 117.593C545.608 118.275 542.944 118.04 541.954 118.039C536.551 118.031 531.21 118.14 525.812 118.476C524.433 118.562 518.916 118.874 516.873 119.289C514.379 119.796 517.438 121.883 518.185 122.544C520.12 124.258 535.567 134.331 528.84 136.629C527.033 137.246 520.564 138.101 519.035 138.329C516.669 138.682 508.939 138.675 507.037 140.791C505.831 142.133 509.899 143.11 511.607 143.69C517.715 145.764 524.055 146.871 530.247 148.618C532.602 149.282 532.775 149.59 529.966 149.435C523.817 149.095 517.658 148.074 511.615 146.933C510.325 146.689 509.038 146.423 507.759 146.128C507.433 146.052 506.471 145.839 506.805 145.821C507.508 145.781 508.205 145.965 508.902 146.063C514.043 146.792 519.175 147.635 524.258 148.7C524.977 148.85 527.106 149.388 526.377 149.303C520.275 148.593 514.127 147.496 508.105 146.329C504.088 145.552 495.366 144.84 491.833 141.945C491.628 141.778 491.938 141.284 492.2 141.241C494.628 140.837 502.311 141.6 503.699 141.743C517.157 143.124 530.522 145.942 544.001 147.028C547.197 147.286 537.79 145.436 534.681 144.658C533.716 144.416 527.021 143.607 531.486 142.169C535.545 140.862 540.954 139.858 544.929 139.247C548.286 138.732 551.667 138.377 555.04 137.985C557.81 137.663 560.61 137.566 563.36 137.104C564.739 136.872 566.448 136.951 567.383 135.911C568.836 134.294 564.517 132.539 562.653 131.42C561.551 130.759 560.365 130.247 559.241 129.625C557.698 128.771 557.237 128.6 559.248 128.818C563.269 129.252 562.479 129.458 566.817 129.88C572.085 130.393 567.849 128.533 565.918 127.599C562.777 126.079 559.448 124.88 556.367 123.238C554.269 122.121 555.637 121.792 557.326 121.657C558.146 121.591 565.916 122.107 565.05 120.634C564.302 119.361 563.354 118.452 565.041 117.453C568.1 115.643 570.03 113.569 569.012 109.7C568.194 106.59 566.383 106.866 563.606 105.912C556.95 103.626 550.24 107.78 543.424 106.623C542.47 106.461 538.897 106.018 539.469 104.351C540.245 102.091 540.465 100.459 540.136 97.9963C539.502 93.2506 538.073 93.5261 533.362 92.8661C527.549 92.0518 520.961 91.8457 516.702 96.9884C515.109 98.9118 517.046 102.908 517.712 104.812C519.299 109.346 522.584 111.935 526.117 115.05C531.448 119.751 537.062 123.961 542.655 128.332C543.566 129.043 547.217 131.98 548.104 133.027C550.657 136.045 544.721 135.447 543.684 135.434C537.707 135.364 520.266 132.104 525.779 134.415C531.008 136.606 536.624 137.866 541.904 139.953C548.899 142.718 541.582 141.279 540.13 141.005C539.872 140.956 527.131 138.085 533.176 139.302C540.332 140.742 561.543 145.619 554.254 145.233C546.131 144.802 538.044 143.045 530.243 140.828C529.417 140.594 528.603 140.312 527.765 140.123C526.748 139.892 526.316 139.775 526.988 140.811C528.581 143.265 530.559 145.517 532.228 147.927C534.296 150.912 535.761 153.474 531.48 155.064C530.44 155.45 524.057 155.59 524.907 156.545C526.718 158.578 529.108 160.626 531.581 161.786C533.563 162.716 534.213 162.701 534.983 164.699C535.672 166.488 534.772 166.824 532.789 166.853C526.007 166.95 519.978 163.59 514.541 159.879C505.841 153.942 498.64 146.537 492.302 138.161C489.95 135.052 482.585 128.034 488.471 125.007C491.978 123.204 495.433 123.17 499.214 123.962C504.938 125.161 499.529 125.058 497.395 124.541C495.638 124.116 490.559 122.953 492.332 122.595C494.116 122.234 508.678 123.744 508.162 124.937C508.078 125.132 494.113 124.155 499.412 118.547C505.719 111.873 517.191 109.386 525.837 111.631C528.392 112.295 527.534 112.216 526.927 111.964C523.888 110.703 520.764 109.265 518.099 107.312C512.479 103.192 514.458 98.4428 519.948 95.2786C524.124 92.8714 531.296 91.1331 535.395 94.7481C539.469 98.3417 529.607 99.4525 528.06 99.3525C526.639 99.2607 525.953 99.1144 524.698 98.8624C524.685 98.8598 524.651 98.8416 524.661 98.8496C527.657 101.165 527.269 100.672 530.921 104.447C535.49 109.17 543.29 115.842 545.156 122.503C545.955 125.356 540.624 123.799 539.717 123.584C538.913 123.394 538.267 123.097 539.548 122.986C543.497 122.645 547.71 123.014 551.619 123.456C557.371 124.106 574.219 128.202 568.451 127.721C567.577 127.648 561.704 126.65 562.921 125.199C565.588 122.02 572.338 122.255 575.451 124.393C578.324 126.366 581.831 133.189 575.426 131.238C574.47 130.947 568.008 128.279 568.928 128.57C570.124 128.949 573.567 130.475 572.381 130.067C570.853 129.543 566.53 127.379 568.077 127.842C569.044 128.131 569.956 128.578 570.9 128.936C571.629 129.212 572.36 129.481 573.092 129.751C574.148 130.14 574.906 130.395 573.289 129.84C570.828 128.994 566.287 128.314 564.49 126.194C562.918 124.341 566.588 123.354 567.767 123.727C569.132 124.159 575.476 129.559 571.756 130.434C570.198 130.801 572.996 131.476 573.879 131.994C577.093 133.884 570.855 130.861 570.189 130.644C564.318 128.728 555.807 130.405 549.882 131.416C547.549 131.814 545.424 132.832 543.423 134.078C536.019 138.689 529.155 144.263 522.127 149.401C518.656 151.94 511.982 156.942 507.725 159.408C505.451 160.725 504.721 160.633 502.489 160.018C500.279 159.409 498.36 158.397 496.415 157.205C493.754 155.576 491.27 153.777 488.243 152.882C485.652 152.117 482.946 152.073 480.304 151.568C478.899 151.299 477.629 150.396 476.973 149.053C475.771 146.595 488.32 151.516 489.368 152.147C490.672 152.934 494.967 155.754 494.619 157.959C494.368 159.556 495.14 160.221 496.39 161.33C497.683 162.477 498.987 163.1 500.542 163.753C502.207 164.451 503.442 166.081 504.922 167.084C510.276 170.712 516.749 172.898 522.853 174.863C526.855 176.151 533.889 179.113 538.21 177.313C539.368 176.831 538.516 176.086 538.552 175.291C538.625 173.649 543.243 174.846 543.684 173.772C544 173.003 535.108 170.51 534.497 170.347C529.554 169.032 524.845 169.219 519.8 168.996C519.406 168.979 515.952 168.359 516.994 168.821C519.121 169.765 521.276 170.431 523.534 170.943C525.944 171.49 528.444 171.84 530.672 172.958C538.933 177.104 546.498 173.479 549.801 164.97C551.688 160.11 555.068 156.17 556.809 151.219C558.177 147.326 559.653 144.522 562.549 141.519C564.223 139.785 565.599 139.797 567.679 138.92C568.446 138.596 566.421 137.768 565.642 137.473C559.782 135.252 553.849 133.083 548.152 130.469C534.569 124.235 522.568 115.05 512.05 104.487C509.143 101.567 506.941 98.2777 511.362 95.4864C514.805 93.3122 520.63 95.6982 524.401 96.0396C528.273 96.3902 532.2 96.4662 536.085 96.6675C538.876 96.8121 544.11 97.0638 546.475 98.9483C549.439 101.31 549.337 106.08 549.77 109.55C550.074 111.98 551.908 113.991 551.67 116.475C551.017 123.307 555.9 131.833 561.07 136.151C564.057 138.646 568.457 139.879 570.258 143.564C571.204 145.5 571.145 147.658 572.104 149.619" stroke="#FFDFDF" stroke-width="4" stroke-linecap="round" stroke-linejoin="round"/>
<path d="M458 152.5C452.627 147.872 447.257 143.245 441.917 138.583C440.09 136.989 437.99 134.894 435.833 133.833C433.177 132.527 431.08 129.625 428.806 127.806C426.598 126.039 424.419 124.259 422.25 122.444C419.968 120.536 417.404 118.563 415.417 116.361C413.536 114.278 411.514 112.011 409.945 109.694C408.303 107.271 408.413 103.859 409.139 101.153C409.723 98.9759 410.921 96.8877 411.625 94.7222C412.215 92.9062 412.559 91.025 413.195 89.2222C413.595 88.0854 414.154 87.0388 414.375 85.8472C414.746 83.8458 414.883 81.7903 415.195 79.7778C415.4 78.4493 415.75 77.3108 415.75 75.9583C415.75 73.5307 415.687 71.0937 415.75 68.6667C415.811 66.3065 417.173 64.2326 417.889 62.0278C419.647 56.6114 420.978 51.0247 423.806 46C425.44 43.0956 427.811 41.187 431.167 42.3056C433.443 43.0644 435.647 43.9949 437.695 45.25C438.667 45.846 439.557 46.8444 440.236 47.75C441.064 48.8537 441.88 50.3537 442.625 48.4722C443.872 45.3228 444.643 41.9504 446.195 38.9306C448.1 35.2227 450.733 32.4688 453.236 29.25C457.237 24.1058 463.046 25.6204 468.5 26.5C471.682 27.0132 474.678 27.8838 477.639 29.1528C479.711 30.041 481.653 31.4016 483.472 32.7222C485.819 34.4254 488.06 36.0455 490.528 37.5833C492.221 38.6383 493.532 39.9379 495.056 41.1944C496.638 42.4997 498.287 43.5998 499.445 45.3472C502.21 49.5232 503.887 54.4665 506.306 58.8611C507.538 61.1001 508.918 63.2567 510.139 65.5C512.032 68.9779 509.093 73.1268 508.25 76.5C507.551 79.2958 507.023 81.9929 505.75 84.5972C505.082 85.9631 504.165 87.1905 503.445 88.5278C501.541 92.059 500.307 95.7863 499.042 99.5833C498.132 102.313 497.321 104.629 495.306 106.694C491.453 110.643 488.63 115.046 483.82 118.028C478.204 121.508 472.126 124.39 467.833 129.542C465.147 132.765 462.304 135.807 459.667 139.083C456.683 142.791 458.25 148.603 458.25 153" stroke="black" stroke-width="4" stroke-linecap="round" stroke-linejoin="round"/>
<path d="M470 129.75C468.886 132.879 468.629 136.534 468.764 139.847C468.834 141.553 469.306 143.391 468.597 145.028C466.885 148.98 466 153.219 466 157.556C466 158.241 466 158.926 466 159.611C466 160.571 473.047 160.962 474.222 161.125C479.158 161.811 483.871 163.758 488.528 165.444C491.305 166.45 494.244 166.911 497.028 167.875C497.998 168.211 499.054 168.477 500.083 168.5C501.367 168.529 500.175 170.551 501.056 170.75C502.218 171.013 503.442 169.359 503.75 171.167C504.07 173.044 505.548 173.259 507.306 173.472C509.146 173.695 510.771 173.151 512.417 174.139C513.63 174.867 514.949 175.883 516.361 176.139C518.065 176.447 519.741 176.318 521.445 176.75C522.703 177.069 523.946 176.916 525.222 177.014C526.379 177.103 527.455 177.5 528.639 177.5C533.04 177.5 537.291 177.542 541.667 177.056C544.276 176.766 546.672 175.625 549.083 174.639C551.75 173.548 554.615 172.5 557.514 172.5C560.735 172.5 563.084 170.916 565.25 168.75C566.256 167.744 567.381 166.869 568.389 165.861C569.992 164.258 571.039 162.318 572.333 160.472C574.097 157.957 575.857 155.429 577.597 152.903C578.368 151.784 579.287 150.542 579.875 149.319C582.216 144.457 584.191 139.564 585.139 134.222C585.676 131.197 585.75 128.402 585.75 125.361C585.75 123.954 585.691 122.783 585.195 121.444C584.167 118.673 583.348 115.828 582.25 113.083C581.254 110.593 580.084 107.381 577.986 105.597C576.855 104.636 576.3 103.192 574.917 102.5C574.046 102.064 573.094 101.927 572.195 101.556C571.001 101.063 569.998 100.833 568.722 100.722C565.061 100.404 561.573 98.9041 557.875 98.6667C554.2 98.4307 552.323 99.5938 549.695 101.833C549.109 102.332 549.25 100.782 549.25 100.583C549.25 98.8603 549.041 97.3258 548.75 95.6389C548.393 93.5715 548.077 91.5202 547.264 89.5694C546.897 88.6891 544.751 88.4844 543.903 88.1389C543.203 87.8539 542.608 87.8186 541.889 87.6389C537.641 86.577 533.524 85.0521 529.195 84.3056C523.453 83.3157 516.256 84.3582 511.347 87.7639C508.66 89.6287 506.092 91.8621 503.25 93.4861C501.933 94.2386 503.137 94.5946 504.278 94.5833C505.912 94.5672 507.717 93.2084 509.111 92.5C510.101 91.9972 510.911 91.5179 511.75 90.8056C513.197 89.577 514.705 88.2945 516.389 87.4028C518.817 86.1173 521.556 86.25 524.222 86.25C530.887 86.25 538.087 86.5395 544 90.0556C546.079 91.2916 547.117 93.5876 549 95" stroke="black" stroke-width="4" stroke-linecap="round" stroke-linejoin="round"/>
</svg>
