<svg version="1.1" xmlns="http://www.w3.org/2000/svg" xmlns:xlink="http://www.w3.org/1999/xlink" width="47.61459" height="46.29976"><g transform="translate(-217.89123,-157.23889)"><g data-paper-data="{&quot;isPaintingLayer&quot;:true}" fill="none" fill-rule="nonzero" stroke="#ffffff" stroke-width="none" stroke-linecap="none" stroke-linejoin="miter" stroke-miterlimit="10" stroke-dasharray="" stroke-dashoffset="0" font-family="none" font-weight="none" font-size="none" text-anchor="none" style="mix-blend-mode: normal"><path d="M218.14124,180.38877c0,-12.64725 10.54696,-22.89988 23.55729,-22.89988c13.01033,0 23.5573,10.25263 23.5573,22.89988c0,12.64725 -10.54696,22.89988 -23.5573,22.89988c-13.01033,0 -23.55729,-10.25263 -23.55729,-22.89988z" data-paper-data="{&quot;origPos&quot;:null}" fill="#61acff" stroke-width="0.5" stroke-linecap="butt"/><g fill="none" stroke-linecap="round"><path d="M248.49179,183.01843h-19.06497v-12.49085h19.06497v11.39515l6.35499,6.35499v2.19138" data-paper-data="{&quot;origPos&quot;:null}" stroke-width="2"/><path d="M254.62765,191.34566h-17.75015l-7.66982,-7.66982" data-paper-data="{&quot;origPos&quot;:null}" stroke-width="2"/><path d="M232.2756,185.86721h19.50325" data-paper-data="{&quot;origPos&quot;:null}" stroke-width="0.5"/><path d="M251.99799,187.40118h-17.53101" data-paper-data="{&quot;origPos&quot;:null}" stroke-width="0.5"/><path d="M235.56265,183.89498l7.12197,7.12197" data-paper-data="{&quot;origPos&quot;:null}" stroke-width="0.5"/><path d="M244.54731,189.81169l-5.47844,-5.47844" data-paper-data="{&quot;origPos&quot;:null}" stroke-width="0.5"/><path d="M243.45161,184.33325l6.90283,6.90283" data-paper-data="{&quot;origPos&quot;:null}" stroke-width="0.5"/><path d="M252.54582,189.70212l-5.14973,-5.14973" data-paper-data="{&quot;origPos&quot;:null}" stroke-width="0.5"/></g></g></g></svg>