<svg version="1.1" xmlns="http://www.w3.org/2000/svg" xmlns:xlink="http://www.w3.org/1999/xlink" width="50.91193" height="49.62194" viewBox="0,0,50.91193,49.62194"><defs><linearGradient x1="247.8865" y1="157.83239" x2="247.8865" y2="184.0473" gradientUnits="userSpaceOnUse" id="color-1"><stop offset="0" stop-color="#ff49bc"/><stop offset="1" stop-color="#ffbaee"/></linearGradient><linearGradient x1="239.05103" y1="154.86978" x2="239.05103" y2="183.01511" gradientUnits="userSpaceOnUse" id="color-2"><stop offset="0" stop-color="#ff49bc"/><stop offset="1" stop-color="#ffbaee"/></linearGradient><linearGradient x1="228.38548" y1="157.83743" x2="228.38548" y2="182.11976" gradientUnits="userSpaceOnUse" id="color-3"><stop offset="0" stop-color="#ff49bc"/><stop offset="1" stop-color="#ffbaee"/></linearGradient><linearGradient x1="225.65039" y1="174.43665" x2="225.65039" y2="190.05404" gradientUnits="userSpaceOnUse" id="color-4"><stop offset="0" stop-color="#ff49bc"/><stop offset="1" stop-color="#ffbaee"/></linearGradient><linearGradient x1="237.72632" y1="176.69551" x2="237.72632" y2="204.49171" gradientUnits="userSpaceOnUse" id="color-5"><stop offset="0" stop-color="#ff49bc"/><stop offset="1" stop-color="#ffbaee"/></linearGradient><linearGradient x1="250.76586" y1="176.73088" x2="250.76586" y2="197.95207" gradientUnits="userSpaceOnUse" id="color-6"><stop offset="0" stop-color="#ff49bc"/><stop offset="1" stop-color="#ffbaee"/></linearGradient></defs><g transform="translate(-211.57636,-154.86978)"><g data-paper-data="{&quot;isPaintingLayer&quot;:true}" fill="none" fill-rule="nonzero" stroke="none" stroke-width="none" stroke-linecap="butt" stroke-linejoin="miter" stroke-miterlimit="10" stroke-dasharray="" stroke-dashoffset="0" font-family="none" font-weight="none" font-size="none" text-anchor="none" style="mix-blend-mode: normal"><g data-paper-data="{&quot;origPos&quot;:null}"><text transform="translate(233.48163,186.83502) rotate(-3.68781) scale(0.5,0.5)" font-size="40" xml:space="preserve" data-paper-data="{&quot;origRot&quot;:-0.97735,&quot;origPos&quot;:null}" fill="#ff00a2" fill-rule="nonzero" stroke="none" stroke-width="1" stroke-linecap="butt" stroke-linejoin="miter" stroke-miterlimit="10" stroke-dasharray="" stroke-dashoffset="0" font-family="Marker" font-weight="normal" text-anchor="start" style="mix-blend-mode: normal"><tspan x="0" dy="0">K</tspan></text><path d="M245.27717,182.77536c-0.2862,0.45132 -1.4044,1.92467 -3.29822,0.93909c-0.20751,-0.10799 -0.3855,-0.2253 -0.53768,-0.34923c-0.13878,-0.0435 -0.28268,-0.09993 -0.43175,-0.17089c-1.49372,-0.711 -1.52853,-1.93994 -1.38115,-2.69003l-0.1353,0.43789c-0.25772,-2.90884 -0.72427,-6.02923 -0.22144,-8.93689c1.09595,-6.33733 5.98219,-11.32132 11.55598,-13.9259c0,0 1.68509,-0.78743 2.8275,0.44958c2.15025,-0.19072 2.58163,2.02652 2.58163,2.02652c1.19055,6.11912 0.38178,13.22153 -4.42289,17.778c-2.05771,1.95141 -4.68963,3.13845 -6.84833,4.96924z" data-paper-data="{&quot;origPos&quot;:null,&quot;origRot&quot;:0}" fill="url(#color-1)" stroke-width="0.5"/><path d="M243.11682,180.41113c-0.00858,0.53435 -0.19347,2.37471 -2.32328,2.5224c-0.23337,0.01619 -0.44642,0.00902 -0.6409,-0.01727c-0.14108,0.03533 -0.29328,0.06229 -0.45747,0.07957c-1.64523,0.1731 -2.31631,-0.85703 -2.58207,-1.57378l0.11313,0.44414c-1.73798,-2.34674 -3.7645,-4.76496 -4.8531,-7.50763c-2.37265,-5.97774 -0.80584,-12.77926 2.58927,-17.90998c0,0 1.02641,-1.55113 2.6465,-1.0922c1.73463,-1.28491 3.2598,0.38126 3.2598,0.38126c4.20914,4.59828 7.22604,11.07876 5.5057,17.47302c-0.73678,2.73849 -2.3623,5.12466 -3.24817,7.81297z" data-paper-data="{&quot;origPos&quot;:null,&quot;origRot&quot;:0}" fill="url(#color-2)" stroke-width="0.5"/><path d="M238.04872,177.49569c0.28051,0.45488 1.11572,2.10519 -0.59939,3.37652c-0.18793,0.13931 -0.37131,0.24799 -0.54935,0.33056c-0.09986,0.10574 -0.21358,0.21042 -0.34263,0.31339c-1.29311,1.03179 -2.41331,0.52514 -3.0232,0.06429l0.33449,0.31333c-2.72817,-1.04156 -5.73796,-1.98798 -8.13216,-3.71285c-5.21821,-3.7594 -7.5605,-10.33429 -7.46249,-16.48583c0,0 0.02963,-1.85975 1.64191,-2.34543c0.76975,-2.01678 2.95211,-1.4341 2.95211,-1.4341c6.02288,1.60809 12.05469,5.44418 14.0483,11.75859c0.8538,2.70429 0.76901,5.59027 1.47017,8.33256z" data-paper-data="{&quot;origPos&quot;:null,&quot;origRot&quot;:0}" fill="url(#color-3)" stroke-width="0.5"/><path d="M237.16867,178.32744c0.5342,0.01541 2.37204,0.2238 2.49251,2.35533c0.0132,0.23355 0.00331,0.44649 -0.02547,0.64063c0.03352,0.14153 0.05854,0.29405 0.07371,0.45845c0.15206,1.6473 -0.88657,2.30517 -1.60665,2.56175l0.44555,-0.10744c-2.36877,1.70784 -4.81268,3.70328 -7.56904,4.75675c-6.00758,2.29605 -12.78852,0.64246 -17.87543,-2.81795c0,0 -1.53788,-1.04616 -1.05828,-2.66025c-1.26264,-1.7509 0.42289,-3.25465 0.42289,-3.25465c4.6517,-4.15004 11.1702,-7.08388 17.54196,-5.28195c2.72885,0.77172 5.09404,2.4276 7.77081,3.34775z" data-paper-data="{&quot;origPos&quot;:null,&quot;origRot&quot;:0}" fill="url(#color-4)" stroke-width="0.5"/><path d="M238.52376,202.62536c-0.15347,0.51191 -0.83155,2.23276 -2.92134,1.79609c-0.22898,-0.04785 -0.43206,-0.11264 -0.61208,-0.1908c-0.14538,-0.00435 -0.29919,-0.01975 -0.46189,-0.04775c-1.63034,-0.28053 -1.99622,-1.45427 -2.05719,-2.21627l-0.01183,0.45817c-1.03481,-2.73074 -2.32787,-5.60867 -2.63013,-8.54397c-0.65881,-6.39757 2.69744,-12.51729 7.35913,-16.53223c0,0 1.40933,-1.21381 2.84372,-0.33186c2.01854,-0.76514 3.03349,1.25281 3.03349,1.25281c2.80108,5.56912 3.94327,12.62558 0.54994,18.31166c-1.45328,2.43519 -3.66609,4.28978 -5.24921,6.63617z" data-paper-data="{&quot;origPos&quot;:null,&quot;origRot&quot;:0}" fill="url(#color-5)" stroke-width="0.5"/><path d="M261.69232,192.75514c0.3684,0.38714 1.52643,1.82941 0.11082,3.42752c-0.1551,0.17511 -0.31209,0.31931 -0.46924,0.43688c-0.07587,0.12409 -0.16553,0.25 -0.27053,0.37739c-1.05216,1.27659 -2.25283,1.0122 -2.94475,0.68723l0.39198,0.23751c-2.88446,-0.45572 -6.02481,-0.76017 -8.72361,-1.95343c-5.88209,-2.60074 -9.53168,-8.5502 -10.70615,-14.58938c0,0 -0.35506,-1.82578 1.12216,-2.63395c0.33666,-2.13227 2.59232,-2.01282 2.59232,-2.01282c6.22514,0.32963 12.91913,2.8374 16.17376,8.60399c1.39387,2.46968 1.90688,5.31095 3.15924,7.84934z" data-paper-data="{&quot;origPos&quot;:null,&quot;origRot&quot;:0}" fill="url(#color-6)" stroke-width="0.5"/><path d="M249.90741,187.40238c-1.4099,2.0645 -3.4744,0.6546 -3.4744,0.6546l-1.0762,-0.32894c-2.07346,-1.61269 -4.24558,-3.08134 -6.37466,-4.61482c0.24327,1.91056 0.53536,3.83208 0.86295,5.79764l0.72369,-0.40855c0,0 0.34392,2.47623 -2.13231,2.82016c-2.47623,0.34392 -2.82015,-2.13231 -2.82015,-2.13231l-0.7032,0.5427c-1.01477,-6.08865 -1.69871,-11.82717 -1.69871,-18.00919c0,0 0,-2.5 2.5,-2.5c2.5,0 2.5,2.5 2.5,2.5c0,0.61187 0.00705,1.21867 0.02076,1.82133c1.37959,-1.38661 2.97245,-2.55884 4.84468,-3.86941l-0.12328,0.0699c0,0 1.74036,-1.79475 3.53512,-0.05438c1.79475,1.74036 0.05439,3.53512 0.05439,3.53512l-0.59891,0.54553c-2.24783,1.57348 -3.84333,2.63139 -5.20302,4.43796c2.53835,1.89168 5.18147,3.62645 7.68235,5.57158l0.82631,0.14669c0,0 2.0645,1.40991 0.65459,3.4744z" data-paper-data="{&quot;origPos&quot;:null}" fill="#ffffff" stroke-width="0.5"/></g></g></g></svg>