<?xml version="1.0" standalone="no"?>
<!DOCTYPE svg PUBLIC "-//W3C//DTD SVG 20010904//EN"
 "http://www.w3.org/TR/2001/REC-SVG-20010904/DTD/svg10.dtd">
<svg version="1.0" xmlns="http://www.w3.org/2000/svg"
 width="944.000000pt" height="1280.000000pt" viewBox="0 0 944.000000 1280.000000"
 preserveAspectRatio="xMidYMid meet">
<g transform="translate(0.000000,1280.000000) scale(0.100000,-0.100000)"
fill="#000000" stroke="none">
<path d="M4450 12797 c-3 -3 -57 -12 -120 -21 -288 -40 -556 -150 -780 -320
-159 -121 -329 -317 -428 -494 -147 -262 -206 -491 -206 -802 -1 -257 32 -420
130 -650 82 -195 180 -337 349 -505 231 -232 495 -375 828 -447 87 -19 133
-22 317 -22 237 0 330 14 515 75 483 161 871 550 1033 1036 58 172 76 295 77
508 0 222 -16 325 -76 510 -83 252 -208 454 -399 645 -261 261 -556 409 -930
466 -110 17 -301 30 -310 21z"/>
<path d="M4175 9330 c-1448 -110 -2724 -748 -3340 -1670 -209 -313 -317 -631
-334 -984 l-6 -139 -79 -40 c-380 -192 -374 -728 9 -908 373 -175 788 158 704
563 -27 129 -127 266 -244 333 -27 15 -54 33 -58 39 -12 16 0 239 19 336 24
131 70 263 139 405 349 718 1232 1325 2325 1599 190 48 280 64 280 50 0 -5
-34 -42 -74 -81 -295 -287 -471 -744 -545 -1413 -58 -518 -62 -1210 -11 -1705
92 -895 369 -1506 819 -1810 56 -38 100 -73 98 -78 -2 -6 -61 -25 -133 -42
-490 -122 -921 -371 -1285 -741 -147 -150 -184 -193 -291 -334 -348 -465 -611
-1063 -738 -1680 -11 -58 -25 -109 -30 -114 -5 -5 -31 0 -62 13 -166 69 -405
102 -600 83 -385 -39 -645 -192 -720 -423 -20 -62 -21 -74 -9 -117 24 -93 60
-153 129 -221 119 -116 289 -189 540 -231 158 -26 202 -25 375 5 262 45 427
121 544 249 84 92 97 128 99 286 4 270 108 709 259 1095 104 266 298 624 448
827 136 184 313 374 467 502 314 262 676 435 1075 514 199 40 276 47 525 46
243 0 351 -9 609 -50 1458 -233 2411 -1053 2675 -2301 l25 -120 -20 -59 c-134
-379 465 -706 1079 -589 305 58 517 204 583 402 24 72 22 98 -11 186 -125 332
-765 500 -1253 327 -45 -16 -86 -25 -90 -21 -4 4 -21 59 -38 121 -150 574
-475 1110 -899 1485 -498 440 -1073 709 -1852 865 -32 6 -58 15 -58 19 0 4 44
34 97 67 129 78 304 250 392 384 233 356 355 819 412 1570 17 216 17 1011 1
1230 -69 911 -237 1432 -578 1788 -35 37 -64 70 -64 74 0 13 33 9 172 -18 726
-139 1408 -439 1853 -814 101 -84 267 -253 340 -345 194 -243 336 -541 395
-829 l22 -104 -37 -54 c-53 -81 -77 -151 -82 -248 -10 -160 35 -279 146 -391
157 -157 376 -193 577 -94 175 85 278 256 276 455 -2 284 -228 500 -523 500
l-58 0 -10 38 c-6 20 -11 43 -11 50 0 39 -111 336 -168 452 -458 922 -1583
1575 -3038 1764 -342 45 -886 66 -1159 46z"/>
</g>
</svg>
