<svg version="1.1" xmlns="http://www.w3.org/2000/svg" xmlns:xlink="http://www.w3.org/1999/xlink" width="77.3453" height="47.86277" viewBox="0,0,77.3453,47.86277"><defs><linearGradient x1="239.4567" y1="162.05919" x2="239.4567" y2="202.21852" gradientUnits="userSpaceOnUse" id="color-1"><stop offset="0" stop-color="#ff4eb9"/><stop offset="1" stop-color="#714eff"/></linearGradient></defs><g transform="translate(-189.03381,-162.05919)"><g data-paper-data="{&quot;isPaintingLayer&quot;:true}" fill-rule="nonzero" stroke="none" stroke-width="0" stroke-linecap="butt" stroke-miterlimit="10" stroke-dasharray="" stroke-dashoffset="0" style="mix-blend-mode: normal"><path d="M239.45666,168.62303c2.25698,-3.87239 7.12808,-6.56384 12.78764,-6.56384c7.80243,0 14.13482,5.1002 14.13482,11.38437c0,12.37622 -16.60699,16.21389 -26.92246,28.77496c-10.91081,-12.63884 -26.92237,-15.9907 -26.92237,-28.77496c0,-6.28417 6.33239,-11.38437 14.13482,-11.38437c5.6596,0 10.5307,2.69145 12.78755,6.56384z" fill="url(#color-1)" stroke-linejoin="round"/><path d="M189.87861,209.28836c0,0.34993 -0.18911,0.6336 -0.4224,0.6336c-0.23328,0 -0.4224,-0.28367 -0.4224,-0.6336c0,-0.34993 0.18911,-0.6336 0.4224,-0.6336c0.23328,0 0.4224,0.28367 0.4224,0.6336z" fill="#ff6ad0" stroke-linejoin="miter"/></g></g></svg>