<svg version="1.1" xmlns="http://www.w3.org/2000/svg" xmlns:xlink="http://www.w3.org/1999/xlink" width="47.61459" height="46.29976"><g transform="translate(-217.89121,-157.23889)"><g data-paper-data="{&quot;isPaintingLayer&quot;:true}" fill="none" fill-rule="nonzero" stroke="#ffffff" stroke-width="none" stroke-linecap="none" stroke-linejoin="miter" stroke-miterlimit="10" stroke-dasharray="" stroke-dashoffset="0" font-family="none" font-weight="none" font-size="none" text-anchor="none" style="mix-blend-mode: normal"><g data-paper-data="{&quot;origPos&quot;:null}"><path d="M218.14121,180.38877c0,-12.64725 10.54696,-22.89988 23.55729,-22.89988c13.01033,0 23.5573,10.25263 23.5573,22.89988c0,12.64725 -10.54696,22.89988 -23.5573,22.89988c-13.01033,0 -23.55729,-10.25263 -23.55729,-22.89988z" data-paper-data="{&quot;origPos&quot;:null}" fill="#61acff" stroke-width="0.5" stroke-linecap="butt"/><path d="M229.94435,193.28225v-26.02436h23.12845v26.02436z" data-paper-data="{&quot;origPos&quot;:null,&quot;origRot&quot;:0}" fill="none" stroke-width="2" stroke-linecap="butt"/><path d="M231.17251,186.40103h21.8879" data-paper-data="{&quot;origPos&quot;:null}" fill="none" stroke-width="2" stroke-linecap="round"/><path d="M240.35283,189.87877c0,-0.68514 0.55542,-1.24054 1.24055,-1.24054c0.68514,0 1.24054,0.55541 1.24054,1.24054c0,0.68514 -0.55541,1.24055 -1.24054,1.24055c-0.68514,0 -1.24055,-0.55542 -1.24055,-1.24055z" data-paper-data="{&quot;origPos&quot;:null}" fill="none" stroke-width="2" stroke-linecap="butt"/></g></g></g></svg>