<svg version="1.1" xmlns="http://www.w3.org/2000/svg" xmlns:xlink="http://www.w3.org/1999/xlink" width="47.61459" height="46.29976"><g transform="translate(-215.20964,-156.00123)"><g data-paper-data="{&quot;isPaintingLayer&quot;:true}" fill="none" fill-rule="nonzero" stroke="#ffffff" stroke-width="0.5" stroke-linecap="none" stroke-linejoin="miter" stroke-miterlimit="10" stroke-dasharray="" stroke-dashoffset="0" font-family="none" font-weight="none" font-size="none" text-anchor="none" style="mix-blend-mode: normal"><path d="M215.45964,179.15111c0,-12.64725 10.54696,-22.89988 23.55729,-22.89988c13.01033,0 23.5573,10.25263 23.5573,22.89988c0,12.64725 -10.54696,22.89988 -23.5573,22.89988c-13.01033,0 -23.55729,-10.25263 -23.55729,-22.89988z" data-paper-data="{&quot;origPos&quot;:null}" fill="#61acff" stroke-linecap="butt"/><path d="M245.85675,194.33277l-0.01965,-0.01531" data-paper-data="{&quot;origPos&quot;:null,&quot;origRot&quot;:0}" fill="none" stroke-linecap="butt"/><path d="M231.89708,183.46602l12.86647,-16.50599l4.323,3.36979l-12.86647,16.50599z" data-paper-data="{&quot;origPos&quot;:null,&quot;origRot&quot;:0}" fill="none" stroke-linecap="butt"/><path d="M245.37624,166.17403c1.01514,-1.30229 2.58744,-1.14207 3.88972,-0.12693c1.30229,1.01514 1.5236,2.25304 0.50846,3.55533c-1.01514,1.30229 -1.65694,0.60381 -2.95922,-0.41133c-1.30229,-1.01514 -2.4541,-1.71479 -1.43897,-3.01707z" data-paper-data="{&quot;origPos&quot;:null,&quot;origRot&quot;:0}" fill="none" stroke-linecap="butt"/><path d="M231.76618,183.59489l-3.59573,4.87001l-0.03577,3.48282" data-paper-data="{&quot;origPos&quot;:null,&quot;origRot&quot;:0}" fill="none" stroke-linecap="round"/><path d="M233.73536,185.16031l-5.20786,6.681l4.19607,-0.51993l3.36979,-4.323" data-paper-data="{&quot;origPos&quot;:null,&quot;origRot&quot;:0}" fill="none" stroke-linecap="round"/><path d="M246.31051,173.85205l2.358,1.83807l-5.82055,7.467l4.28882,-5.502" data-paper-data="{&quot;origPos&quot;:null,&quot;origRot&quot;:0}" fill="none" stroke-linecap="round"/><path d="M244.81133,176.00503l1.1139,0.86829l-4.12436,5.29101l1.1139,0.86829" data-paper-data="{&quot;origPos&quot;:null,&quot;origRot&quot;:0}" fill="none" stroke-linecap="round"/></g></g></svg>