<?xml version="1.0" ?><!DOCTYPE svg  PUBLIC '-//W3C//DTD SVG 1.1//EN'  'http://www.w3.org/Graphics/SVG/1.1/DTD/svg11.dtd'><svg enable-background="new 0 0 128 128" id="Слой_1" version="1.1" viewBox="0 0 128 128" xml:space="preserve" xmlns="http://www.w3.org/2000/svg" xmlns:xlink="http://www.w3.org/1999/xlink"><path d="M93.4,88.8v4.4c0,2.1-1.3,4-3.3,4.7c-8.2,2.9-17.2,4.5-26.6,4.5c-9.5,0-18.5-1.6-26.7-4.5  c-2-0.7-3.3-2.6-3.3-4.7v-4.4" fill="#288CA3"/><path d="M93.4,88.8v4.4c0,2.1-1.3,4-3.3,4.7c-8.2,2.9-17.2,4.5-26.6,4.5c-9.5,0-18.5-1.6-26.7-4.5  c-2-0.7-3.3-2.6-3.3-4.7v-4.4" opacity="0.1"/><path d="M123.5,45.5c0,27.6-26.9,50-60,50s-60-22.4-60-50" fill="#288CA3"/><g opacity="0.1"><path d="M13.5,45.5h-10c0,27.6,26.9,50,60,50c1.7,0,3.4-0.1,5-0.2C37.7,93.2,13.5,71.7,13.5,45.5z"/></g><ellipse cx="63.5" cy="45.5" fill="#FFEBD3" rx="60" ry="20"/><path d="M7.9,53c8.9,7.3,30.4,12.5,55.6,12.5s46.7-5.2,55.6-12.5c-8.9-7.3-30.4-12.5-55.6-12.5S16.8,45.7,7.9,53z" fill="#CEDD73"/><g opacity="0.1"><path d="M13.5,45.5c0-10.5,24.2-19.1,55-19.9c-1.7,0-3.3-0.1-5-0.1c-33.1,0-60,9-60,20c0,11,26.9,20,60,20c1.7,0,3.4,0,5-0.1   C37.7,64.6,13.5,56,13.5,45.5z"/></g><path d="M126.5,45.5C126.5,32.7,99.6,23,64,23S1.5,32.7,1.5,45.5c0,19,12,35.6,30,44.8v2.9c0,3.2,2,6,5,7.1  c8.8,3.1,18,4.7,27.6,4.7c9.5,0,18.7-1.6,27.5-4.7c3-1.1,5-3.9,5-7.1v-2.9C114.4,81.1,126.5,64.5,126.5,45.5z M64,28  c33.9,0,57.5,9.2,57.5,17.5c0,1.4-0.7,2.9-2,4.3C109.1,42.6,87.6,38,64,38c-23.7,0-45.1,4.6-55.5,11.8c-1.3-1.4-2-2.9-2-4.3  C6.5,37.2,30.1,28,64,28z M115.3,53c-9.1,5.5-27.7,10-51.3,10c-23.6,0-42.2-4.5-51.3-10C22.7,47,42.6,43,64,43  C85.4,43,105.3,47,115.3,53z M91.4,93.3c0,1.1-0.7,2-1.6,2.4C81.6,98.5,72.9,100,64,100c-9,0-17.7-1.5-25.9-4.4  c-1-0.3-1.6-1.3-1.6-2.4v-0.6C44.8,96.1,54.1,98,64,98c9.8,0,19.1-1.9,27.4-5.3V93.3z M64,93C36.5,93,13.5,77,7.8,55.7  C17.8,63.1,38.7,68,64,68s46.2-4.9,56.2-12.3C114.5,77,91.5,93,64,93z" fill="#62355C"/></svg>