<svg id="Capa_1" enable-background="new 0 0 511.993 511.993" height="512" viewBox="0 0 511.993 511.993" width="512" xmlns="http://www.w3.org/2000/svg"><path d="m440.673 239.198c5.339-8.963 8.415-19.431 8.415-30.621 0-33.096-26.83-87.669-59.926-87.669s-59.926 54.572-59.926 87.669c0 11.19 3.076 21.658 8.415 30.621z" fill="#f4e9d3"/><path d="m143.302 133.365c4.465-1.381 9.21-2.126 14.129-2.126 14.865 0 28.143 6.791 36.903 17.439 3.011-25.478 24.67-45.245 50.958-45.245 14.192 0 27.038 5.761 36.329 15.07 3.2-8.499 8.871-15.785 16.134-20.992-.802-23.502-20.095-42.311-43.791-42.311-9.992 0-19.198 3.35-26.57 8.98-4.589-14.613-18.238-25.213-34.365-25.213-19.891 0-36.016 16.125-36.016 36.016 0 .631.017 1.258.049 1.881-3.608-1.213-7.466-1.881-11.483-1.881-19.891 0-36.016 16.125-36.016 36.016 0 .161.01.321.012.481 14.207 2.002 26.405 10.25 33.727 21.885z" fill="#348021"/><path d="m275.006 92.756c-1.493 2.026-4.28 2.623-6.465 1.374-10.241-5.857-20.77-8.52-32.897-7.559-21.769 1.724-39.528 12.181-48.09 29.199-1.316 2.615-4.597 3.494-7.091 1.96-7.053-4.337-13.854-5.742-19.08-5.603-3.425.091-7.718.795-11.374 1.684-1.876.456-3.843-.215-5.048-1.723-7.196-9.009-20.188-14.668-31.976-16.421-2.255 4.786-3.493 10.145-3.421 15.803.003.004.006.007.009.01 14.208 2.003 26.406 10.25 33.728 21.885 4.465-1.381 9.21-2.126 14.129-2.126 14.865 0 28.143 6.791 36.903 17.439 3.011-25.479 24.669-45.245 50.958-45.245 14.192 0 27.038 5.761 36.329 15.07 3.201-8.499 8.872-15.785 16.134-20.992-.22-6.438-1.834-12.519-4.539-17.962-5.076 2.01-10.93 3.33-18.209 13.207z" fill="#2e701b"/><path d="m246.15 228.97c0-23.502 19.052-42.554 42.554-42.554 20.613 0 37.8 14.658 41.714 34.118h.014.004c-.784-3.864-1.201-7.862-1.201-11.958 0-26.109 16.699-65.576 39.998-81.08-3.387-21.802-22.24-38.489-44.991-38.489-19.502 0-36.133 12.263-42.622 29.496-9.291-9.31-22.137-15.07-36.329-15.07-26.288 0-47.947 19.766-50.958 45.245 6.786 8.248 10.862 18.81 10.862 30.325 0 1.752-.101 3.479-.285 5.182 23.291 3.184 41.24 23.145 41.24 47.309 0 .001 0 .001 0-2.524z" fill="#62c136"/><path d="m369.234 127.497c-.339-2.182-.84-4.31-1.477-6.378-20.44 2.305-38.146 24.967-48.063 49.337-1.062 2.61-4.091 3.757-6.671 2.625-7.444-3.265-15.668-5.08-24.318-5.08-14.914 0-28.565 5.391-39.123 14.325-1.945 1.646-4.791 1.529-6.661-.202-4.88-4.516-10.643-7.843-17.339-9.496-2.31-.57-3.892-2.678-3.798-5.056.031-.776.046-1.556.046-2.339 0-14.41-8.312-27.152-20.455-37.014-3.696 6.105-6.165 13.037-7.042 20.459 6.786 8.249 10.862 18.811 10.862 30.325 0 1.752-.101 3.479-.285 5.182 23.291 3.184 41.239 23.145 41.239 47.309v-1.801c0-23.302 18.431-42.829 41.73-43.27 20.978-.397 38.573 14.391 42.539 34.111h.014.004c-.784-3.864-1.201-7.862-1.201-11.958.001-26.108 16.7-65.575 39.999-81.079z" fill="#5cad32"/><path d="m324.242 89.007c22.752 0 41.604 16.687 44.991 38.489 6.235-4.149 12.941-6.589 19.928-6.589 33.096 0 59.926 54.572 59.926 87.669 0 11.19-3.076 21.658-8.415 30.621h37.753c11.305-11.265 18.303-26.849 18.303-44.069 0-25.335-15.152-47.116-36.88-56.819 4.726-7.384 7.477-16.153 7.477-25.57 0-26.24-21.272-47.511-47.511-47.511-11.808 0-22.6 4.317-30.91 11.446-7.272-16.919-24.082-28.769-43.665-28.769-26.24 0-47.512 21.272-47.512 47.511 0 .697.023 1.388.053 2.077 7.456-5.339 16.59-8.486 26.462-8.486z" fill="#98db7c"/><path d="m245.523 239.198c.407-2.508.627-5.079.627-7.703 0-24.165-17.949-44.126-41.24-47.309.184-1.703.285-3.431.285-5.182 0-26.38-21.385-47.765-47.765-47.765-4.919 0-9.664.745-14.129 2.126-8.453-13.433-23.402-22.367-40.445-22.367-26.38 0-47.765 21.385-47.765 47.765 0 4.183.541 8.238 1.551 12.105-17.988 6.851-30.772 24.249-30.772 44.642 0 8.623 2.297 16.705 6.294 23.688z" fill="#98db7c"/><path d="m398.018 473.026h-284.043c-21.441 0-40.338-14.078-46.475-34.622l-59.504-199.206h496l-59.504 199.207c-6.136 20.544-25.033 34.621-46.474 34.621z" fill="#ff4755"/><path d="m32.165 239.198h213.359c.407-2.508.627-5.079.627-7.703 0-3.537-.395-6.98-1.124-10.297h-218.802c.774 6.486 2.835 12.577 5.94 18z" fill="#82d361"/><path d="m337.651 239.198h103.022c3.273-5.494 5.69-11.555 7.075-18h-117.172c1.385 6.444 3.802 12.506 7.075 18z" fill="#e5d6be"/><path d="m470.382 221.198c-2.533 0-4.548-2.069-4.546-4.602 0-.016 0-.031 0-.047 0-42.346-34.328-112.171-76.674-112.171-3.106 0-6.168.386-9.178 1.099-8.894-17.479-27.048-29.454-48.004-29.454-12.736 0-24.432 4.43-33.648 11.825-.395 2.465-.607 4.992-.607 7.568 0 .697.023 1.388.053 2.077 7.458-5.339 16.591-8.486 26.464-8.486 22.752 0 41.604 16.687 44.991 38.489 6.235-4.149 12.941-6.589 19.928-6.589 33.096 0 59.926 54.572 59.926 87.668 0 4.196-.433 8.291-1.255 12.243-.027.13-.043.253-.061.378h-.024c-1.385 6.445-3.802 12.506-7.075 18h37.753c5.191-5.173 9.46-11.265 12.574-18h-20.617z" fill="#82d361"/><path d="m408.326 455.026h-304.659c-13.372 0-25.816-5.113-35.189-13.718 6.985 18.953 25.083 31.718 45.497 31.718h284.043c20.413 0 38.512-12.766 45.497-31.718-9.373 8.605-21.817 13.718-35.189 13.718z" fill="#fc2b3a"/><circle cx="389.162" cy="208.577" fill="#ffe55a" r="30.652"/><path d="m417.093 221.198h-55.862c4.811 10.63 15.503 18.031 27.931 18.031 12.428-.001 23.12-7.401 27.931-18.031z" fill="#ffd91d"/><path d="m330.012 239.198c.809-3.277 1.246-6.701 1.246-10.227 0-23.502-19.052-42.554-42.554-42.554s-42.554 19.052-42.554 42.554c0 3.527.437 6.95 1.246 10.227z" fill="#ff4755"/><path d="m246.15 228.97c0 3.527.437 6.95 1.246 10.227h82.616c.809-3.277 1.246-6.701 1.246-10.227 0-2.656-.255-5.251-.721-7.773h-83.666c-.465 2.522-.721 5.117-.721 7.773z" fill="#fc2b3a"/><path d="m510.504 234.675c-1.418-1.904-3.653-3.025-6.026-3.025h-10.138c6.749-10.907 10.37-23.49 10.37-36.64 0-24.813-13.212-47.61-34.246-60.088 3.146-7.035 4.785-14.672 4.785-22.463 0-11.045-3.256-21.704-9.418-30.823-2.325-3.438-6.995-4.341-10.435-2.02-3.438 2.324-4.342 6.995-2.02 10.434 4.477 6.624 6.842 14.373 6.842 22.408 0 7.665-2.181 15.123-6.306 21.569-2.44 3.815-.865 9.068 3.265 10.913 19.745 8.816 32.502 28.47 32.502 50.068 0 13.667-4.972 26.561-14.052 36.64h-22.756c2.697-7.388 4.103-15.228 4.103-23.166 0-18.278-7.159-41.371-18.686-60.268-13.799-22.625-31.157-35.086-48.872-35.086-5.08 0-10.13 1.03-15.076 3.025-7.446-20.764-27.087-34.988-49.971-34.988-6.068 0-11.981 1.059-17.528 3.015 4.768-16.813 20.246-29.169 38.566-29.169 16.045 0 30.508 9.53 36.846 24.279 1.968 4.576 8.007 5.985 11.797 2.736 7.258-6.228 16.52-9.658 26.077-9.658 4.405 0 8.732.708 12.862 2.107 3.926 1.328 8.196-.778 9.527-4.709 1.33-3.932-.778-8.197-4.709-9.527-5.685-1.924-11.633-2.899-17.68-2.899-10.053 0-19.867 2.758-28.392 7.887-10.037-15.576-27.381-25.244-46.329-25.244-21.246 0-39.71 12.09-48.907 29.745-9.237-13.597-24.814-22.436-42.546-22.436-8.206 0-16.106 1.898-23.261 5.547-7.647-13.342-21.882-21.812-37.795-21.812-21.564 0-39.521 15.734-42.993 36.325-1.508-.159-3.026-.238-4.55-.238-21.479 0-39.368 15.617-42.94 36.09-30.47.074-55.237 24.883-55.237 55.369 0 2.593.181 5.18.54 7.74-18.064 9.441-29.819 28.448-29.819 49.118 0 5.513.832 10.983 2.436 16.219h-12.827c-4.946 0-8.616 4.922-7.201 9.665l59.62 199.597c7.045 23.583 29.155 40.054 53.766 40.054h195.793c4.151 0 7.515-3.364 7.515-7.515s-3.364-7.515-7.515-7.515h-195.792c-18.02 0-34.207-12.06-39.365-29.326l-56.734-189.931h49.984c4.151 0 7.515-3.364 7.515-7.515s-3.364-7.515-7.515-7.515h-31.217c-2.241-5.094-3.43-10.622-3.43-16.219 0-16.632 10.446-31.786 25.993-37.708 3.584-1.365 5.565-5.21 4.596-8.922-.87-3.328-1.31-6.769-1.31-10.229 0-22.245 18.098-40.343 40.343-40.343 13.946 0 26.718 7.065 34.164 18.897 1.811 2.879 5.329 4.185 8.58 3.177 3.85-1.191 7.867-1.795 11.936-1.795 22.246 0 40.343 18.098 40.343 40.343 0 2.871-.839 5.909.537 8.606 1.103 2.163 3.268 3.703 5.675 4.031 19.853 2.714 34.824 19.891 34.824 39.957 0 .067-.004.135-.004.202h-94.827l-16.457-49.344c-1.313-3.935-5.567-6.062-9.506-4.751-3.936 1.313-6.064 5.569-4.75 9.507l14.871 44.589h-30.302c-4.151 0-7.515 3.364-7.515 7.515s3.364 7.515 7.515 7.515h396.753l-56.734 189.931c-5.158 17.266-21.345 29.326-39.365 29.326h-58.748c-4.151 0-7.515 3.364-7.515 7.515s3.364 7.515 7.515 7.515h58.748c24.611 0 46.721-16.471 53.766-40.054l59.62-199.597c.68-2.273.245-4.735-1.173-6.638zm-85.044-78.634c10.016 16.422 16.487 37.006 16.487 52.442 0 8.059-1.858 15.987-5.39 23.166h-16.769c4.919-6.434 7.856-14.46 7.856-23.166 0-21.078-17.148-38.226-38.226-38.226s-38.226 17.148-38.226 38.226c0 8.706 2.937 16.733 7.856 23.166h-16.768c-3.533-7.179-5.391-15.106-5.391-23.166 0-15.436 6.472-36.02 16.487-52.442 10.808-17.719 23.945-27.883 36.042-27.883s25.234 10.163 36.042 27.883zm-37.234 75.609c-12.238-.623-22.004-10.776-22.004-23.166 0-12.791 10.406-23.197 23.197-23.197s23.197 10.406 23.197 23.197c0 12.391-9.766 22.544-22.004 23.166zm-134.464 0c-.071-.91-.12-1.821-.12-2.733 0-19.367 15.755-35.122 35.122-35.122s35.122 15.755 35.122 35.122c0 .912-.049 1.823-.12 2.733zm-96.528-108.17c-3.706 0-7.381.366-10.981 1.092-7.386-9.518-17.525-16.235-28.928-19.369 2.576-13.125 14.164-23.059 28.033-23.059 3.102 0 6.167.502 9.11 1.492 4.943 1.661 10.17-2.308 9.901-7.511-.025-.495-.039-.994-.039-1.496 0-15.754 12.817-28.572 28.571-28.572 12.55 0 23.507 8.037 27.263 20 1.534 4.886 7.653 6.831 11.73 3.721 6.387-4.878 14.017-7.456 22.063-7.456 18.493 0 33.691 13.573 36.064 31.51-4.205 3.559-7.874 7.77-10.827 12.514-9.86-6.971-21.604-10.726-33.928-10.726-25.162 0-46.984 15.864-55.323 38.582-9.171-6.737-20.482-10.722-32.709-10.722zm55.366 54.485c-.185-11.739-4.055-22.594-10.483-31.482 3.822-20.62 21.879-35.834 43.149-35.834 11.745 0 22.784 4.579 31.081 12.893 3.796 3.804 10.461 2.361 12.351-2.66 5.561-14.767 19.896-24.688 35.673-24.688 17.109 0 32.161 11.701 36.698 27.85-7.368 5.857-14.307 13.978-20.524 24.17-8.397 13.766-14.459 29.752-17.141 44.488-9.011-8.623-21.213-13.938-34.641-13.938-18.221 0-34.2 9.77-42.984 24.344-7.269-12.133-19.065-21.36-33.179-25.143z"/></svg>