<svg id="Capa_1" enable-background="new 0 0 512 512" height="512" viewBox="0 0 512 512" width="512" xmlns="http://www.w3.org/2000/svg"><g><path d="m27.687 249.82 43.701 170.84c9.41 51.419 78.652 91.34 162.674 91.34s153.263-39.922 162.674-91.34l43.701-170.839c-18.522 61.263-394.228 61.263-412.75-.001z" fill="#efe7e4"/><path d="m375.238 323.007-19.709 77.049c-9.41 51.419-78.652 91.34-162.673 91.34-28.945 0-56.136-4.738-79.731-13.052 29.944 20.682 73.039 33.656 120.937 33.656 84.021 0 153.263-39.922 162.674-91.34l43.701-170.839c-19.891 10.535-35.106 26.115-65.199 73.186z" fill="#eadfda"/><path d="m306.307 100.322c-22.527-5.204-46.86-8.045-72.245-8.045-116.037 0-210.103 59.348-210.103 132.557s94.066 132.557 210.103 132.557 210.103-59.348 210.103-132.557c0-28.767-14.525-55.394-39.199-77.121z" fill="#f9f6f6"/><path d="m279.406 127.529c-15.598-2.621-31.035-3.954-45.344-3.954-69.63 0-178.805 33.581-178.805 101.259 0 65.061 103.857 101.259 178.805 101.259 69.629 0 178.805-33.582 178.805-101.259 0-18.407-8.288-34.475-21.853-48.062z" fill="#efe7e4"/><path d="m369.336 201.853c-30.844 26.343-108.315-20.219-105.006-38.764-10.413-1.299-20.619-1.956-30.268-1.956-64.194 0-164.846 30.96-164.846 93.354 0 3.687.362 7.272 1.057 10.756 31.465 39.455 106.17 60.85 163.789 60.85 53.871 0 131.415-20.102 163.754-60.544.717-3.571 1.092-7.258 1.092-11.062 0-20.895-11.584-38.521-29.572-52.634z" fill="#f1cb86"/><path d="m369.336 201.853c-9.117-3.368-15.522 0-15.734 11.145 2.656 6.547 4.099 13.513 4.099 20.885v.114c-.013 6.791-2.753 13.334-7.534 18.156-35.316 35.622-106.744 53.336-157.313 53.336-30.65 0-66.135-6.054-97.375-17.66 37.105 24.965 93.154 38.264 138.582 38.264 53.871 0 131.415-20.102 163.754-60.544.717-3.571 1.092-7.258 1.092-11.062.001-20.895-11.583-38.521-29.571-52.634z" fill="#ecbe6b"/><path d="m178.954 272.479h-44.33c-4.189 0-7.584-3.396-7.584-7.584v-38.267c0-4.189 3.396-7.584 7.584-7.584h44.33c4.189 0 7.584 3.396 7.584 7.584v38.267c0 4.188-3.395 7.584-7.584 7.584z" fill="#fbf1e2"/><path d="m319.171 224.51c-13.553-14.597-25.58-7.5-34.998-7.5l-25.639 25.639c-2.807 2.807-2.807 7.358 0 10.165l25.644 25.644c2.807 2.807 7.358 2.807 10.165 0l34.306-34.306c2.807-2.807 2.807-7.358 0-10.165z" fill="#fbf1e2"/><path d="m228.37 204.789h-16.792c-4.267 0-7.726-3.459-7.726-7.726s3.459-7.726 7.726-7.726h16.792c4.267 0 7.726 3.459 7.726 7.726s-3.459 7.726-7.726 7.726z" fill="#ccf49f"/><path d="m346.087 279.956c-1.977 0-3.955-.755-5.463-2.263-3.018-3.017-3.018-7.909 0-10.927l11.874-11.874c3.017-3.017 7.909-3.017 10.927 0s3.018 7.909 0 10.927l-11.874 11.874c-1.51 1.508-3.487 2.263-5.464 2.263z" fill="#b3e59f"/><path d="m242.177 297.143c-.662 0-1.335-.086-2.005-.265l-16.22-4.346c-4.122-1.105-6.568-5.341-5.464-9.463 1.105-4.123 5.346-6.563 9.463-5.464l16.22 4.346c4.122 1.105 6.568 5.341 5.464 9.463-.925 3.452-4.047 5.729-7.458 5.729z" fill="#ccf49f"/><circle cx="98.501" cy="247.116" fill="#e28086" r="7.726"/><circle cx="217.374" cy="234.823" fill="#e28086" r="7.726"/><path d="m335.781 467.899c-.431 0-.868-.036-1.308-.111-4.206-.717-7.035-4.708-6.317-8.915l16.72-98.053c.717-4.206 4.706-7.035 8.915-6.317 4.206.717 7.035 4.709 6.317 8.915l-16.72 98.053c-.643 3.766-3.911 6.428-7.607 6.428zm-44.943 13.719 8.757-102.575c.363-4.252-2.789-7.992-7.041-8.355-4.251-.368-7.992 2.79-8.355 7.041l-8.757 102.575c-.363 4.251 2.789 7.992 7.041 8.355.223.019.445.029.665.029 3.97 0 7.346-3.042 7.69-7.07zm-49.05 4.627v-103.1c0-4.267-3.459-7.726-7.726-7.726s-7.726 3.459-7.726 7.726v103.101c0 4.267 3.459 7.726 7.726 7.726s7.726-3.459 7.726-7.727zm-56.158 2.414c4.252-.362 7.404-4.103 7.042-8.355l-8.746-102.575c-.362-4.252-4.103-7.411-8.355-7.042-4.252.362-7.404 4.103-7.042 8.355l8.746 102.575c.343 4.029 3.719 7.07 7.69 7.07.22.001.442-.009.665-.028zm-51.979-20.871c4.206-.717 7.035-4.708 6.317-8.915l-16.72-98.053c-.717-4.207-4.713-7.035-8.915-6.317-4.206.717-7.035 4.709-6.317 8.915l16.72 98.053c.642 3.767 3.91 6.429 7.607 6.429.431-.001.869-.037 1.308-.112z" fill="#eadfda"/><g fill="#dad0cb"><path d="m334.473 467.788c.44.075.877.111 1.308.111 3.697 0 6.965-2.662 7.607-6.429l8.14-47.738c-4.387 10.831-11.486 20.977-20.814 30.133l-2.559 15.007c-.717 4.207 2.112 8.198 6.318 8.916z"/><path d="m241.774 486.708c-4.863.959-9.823 1.779-14.87 2.452 1.15 2.823 3.921 4.812 7.157 4.812 4.113 0 7.474-3.212 7.713-7.264z"/><path d="m282.483 488.659c.223.019.445.029.665.029 3.97 0 7.346-3.042 7.69-7.07l.956-11.203c-5.134 2.46-10.506 4.733-16.089 6.803l-.264 3.087c-.363 4.25 2.79 7.991 7.042 8.354z"/></g><path d="m481.745 6.296c-7.879-7.879-20.472-8.431-29.01-1.272l-33.852 28.385c-28.154 23.607-60.008 42.232-93.875 56.48-11.533 4.852-22.868 12.382-32.907 22.42-31.488 31.488-38.293 75.736-15.199 98.829 23.094 23.094 67.341 16.289 98.829-15.199 10.038-10.038 17.568-21.374 22.42-32.907 14.248-33.867 32.873-65.72 56.48-93.875l28.385-33.852c7.16-8.537 6.608-21.13-1.271-29.009z" fill="#e28086"/><path d="m481.745 6.296c-6.622-6.621-16.573-8.068-24.648-4.111-.267 4.457-1.918 8.86-4.985 12.518l-28.385 33.852c-23.608 28.154-42.232 60.008-56.48 93.875-4.852 11.533-12.382 22.868-22.42 32.907-22.351 22.351-51.13 32.265-74.209 27.878 1.77 2.848 3.863 5.503 6.285 7.925 23.094 23.094 67.341 16.289 98.829-15.199 10.038-10.038 17.568-21.374 22.42-32.907 14.248-33.867 32.873-65.72 56.48-93.875l28.385-33.852c7.159-8.539 6.607-21.132-1.272-29.011z" fill="#dd636e"/><path d="m295.547 192.494c-13.536-13.536-2.783-43.558 15.199-61.539 21.288-21.288 49.848-26.89 61.539-15.199 13.536 13.536 2.783 43.558-15.199 61.539-21.288 21.288-49.849 26.89-61.539 15.199z" fill="#f1cb86"/><path d="m344.825 175.336c-10.504 10.504-22.427 18.26-34.511 23.077 13.711.878 31.993-6.34 46.772-21.119 15.559-15.558 25.706-40.131 19.389-55.24-3.26 6.699-6.335 13.495-9.229 20.374-4.852 11.535-12.382 22.87-22.421 32.908z" fill="#ecbe6b"/><circle cx="315.907" cy="172.628" fill="#e28086" r="7.726"/><path d="m346.096 157.724c-.421 0-.846-.034-1.274-.105l-15.333-2.544c-4.21-.698-7.056-4.677-6.358-8.887s4.676-7.058 8.887-6.358l15.333 2.544c4.21.699 7.056 4.677 6.358 8.887-.628 3.781-3.903 6.463-7.613 6.463z" fill="#ccf49f"/></g></svg>